<svg width="678" height="440" fill="none" version="1.1" viewBox="0 0 678 440" xmlns="http://www.w3.org/2000/svg">
 <rect x="181" y="40" width="427" height="328" rx="8" fill="#292841"/>
 <path d="m304.89 85c-0.311 0-0.546-0.2811-0.492-0.5874l0.606-3.4126h-3.405c-0.311 0-0.546-0.2802-0.493-0.5862l0.175-1c0.042-0.2392 0.25-0.4138 0.493-0.4138h3.58l1.06-6h-3.405c-0.311 0-0.546-0.2802-0.493-0.5862l0.175-1c0.042-0.2392 0.25-0.4138 0.493-0.4138h3.58l0.637-3.5874c0.042-0.2387 0.249-0.4126 0.492-0.4126h0.984c0.311 0 0.547 0.2811 0.492 0.5874l-0.605 3.4126h6l0.636-3.5874c0.043-0.2387 0.25-0.4126 0.493-0.4126h0.984c0.311 0 0.547 0.2811 0.492 0.5874l-0.605 3.4126h3.405c0.31 0 0.546 0.2802 0.492 0.5862l-0.175 1c-0.042 0.2392-0.249 0.4138-0.492 0.4138h-3.58l-1.06 6h3.405c0.31 0 0.546 0.2802 0.492 0.5862l-0.175 1c-0.042 0.2392-0.249 0.4138-0.492 0.4138h-3.58l-0.637 3.5874c-0.042 0.2387-0.25 0.4126-0.492 0.4126h-0.985c-0.311 0-0.546-0.2811-0.492-0.5874l0.606-3.4126h-6l-0.637 3.5874c-0.042 0.2387-0.25 0.4126-0.492 0.4126zm3.524-12-1.06 6h6l1.06-6z" clip-rule="evenodd" fill="#b9bbbe" fill-rule="evenodd"/>
 <path d="m162 48c0-4.4183 3.582-8 8-8h105v328h-105c-4.418 0-8-3.582-8-8z" fill="#1c1b29"/>
 <g mask="url(#mask0)">
  <circle cx="313" cy="317" r="14" fill="#cfdeff"/>
  <path d="m328.65 335.79c-0.265-0.656-0.705-1.228-1.271-1.654-0.566-0.425-1.237-0.689-1.941-0.763l-1.47-0.155c-2.11-7.601-1.043-9.327-7.272-11.032l-5.041-0.178s-5.123 0.086-7.007 2.608l2.635 8.638s-1.079 5.733-0.588 8.639l6.566-0.847 2.846 9.208c10.729-1.592 15.727-6.565 15.727-6.565z" fill="#cfdeff"/>
  <path d="m305.85 322.69c7.149 6.697 13.61 11.272 12.522 0.708z" fill="#b8c5ff"/>
  <path d="m309.36 323.48c6.225 2.925 7.841 4.029 7.433 0.513z" fill="#5697b0"/>
  <path d="m322.79 328.4c-0.758-3.194-1.327-4.571-4.515-5.724 0.858 2.007 1.232 6.148 1.232 6.148z" fill="#fff"/>
  <path d="m312.16 312.96-0.228-1.766c-0.077-0.576-0.334-1.112-0.736-1.532s-0.927-0.701-1.499-0.803c-0.629-0.11-1.276 5e-3 -1.828 0.325-0.552 0.319-0.974 0.823-1.192 1.423-0.801 2.175-2.053 5.675-2.916 8.617-1.374 4.69 4.843 5.775 10.952 5.308 6.109-0.466 6.685-3.142 5.839-7.015-0.542-2.416-1.229-4.883-1.657-6.416-0.131-0.428-0.384-0.808-0.727-1.095-0.344-0.287-0.763-0.467-1.208-0.52-0.498-0.058-1.001 0.052-1.43 0.312-0.429 0.259-0.76 0.654-0.94 1.122l-0.686 1.815z" fill="#7ce4cc"/>
  <path d="m319.74 319.37-0.434-0.151-2.225 0.771-2.264 0.292-3.923-0.783s-2.157-3.335-2 0.374c0.123 2.562 1.211 4.033 1.874 4.707 1.317 0.06 2.636 0.036 3.95-0.073 0.991-0.055 1.974-0.22 2.929-0.493 0.661-0.937 1.728-2.663 2.093-4.644z" fill="#aafae7"/>
  <path d="m308.83 319.56c-0.504-1.409-1.416-4.375-1.037-6.611s0.878-4.073 1.912-4.091c-0.629-0.11-1.276 5e-3 -1.828 0.325-0.552 0.319-0.974 0.823-1.192 1.423-0.802 2.175-2.053 5.674-2.916 8.617-1.232 4.188 3.61 5.496 9.029 5.395-1.176-0.193-2.67-1.428-3.968-5.058z" fill="url(#paint0_linear)" opacity=".74"/>
  <path d="m312.79 324.62-0.436 0.01-0.414 8e-3 -0.648-0.032-0.204 0.027-0.326-0.027c-0.66-0.652-1.747-2.123-1.871-4.685-9e-3 -0.046-7e-3 -0.094 5e-3 -0.139 1.274 3.45 2.743 4.664 3.894 4.838z" fill="#aafae7"/>
  <path d="m319.2 318.98-3e-3 0.517c-2.38 1.557-2.767 1.988-8.9 0.062l-0.062-0.481 0.266 0.075c5.193 1.313 6.185 1.429 8.699-0.173z" fill="#2c4661"/>
  <path d="m309.82 320.99c0.802-0.223 1.249-1.133 0.998-2.032-0.25-0.899-1.103-1.446-1.904-1.223-0.802 0.223-1.249 1.133-0.999 2.031 0.25 0.899 1.103 1.447 1.905 1.224z" fill="#738eff"/>
  <path d="m320.35 319.13c0.163-0.777-0.065-1.483-0.509-1.576s-0.936 0.462-1.099 1.239 0.065 1.483 0.509 1.576c0.444 0.094 0.936-0.461 1.099-1.239z" fill="#738eff"/>
  <path d="m314.26 317.64c-0.114-0.169 0.078-0.286 0.23-0.352 0.062-0.023 0.13-0.027 0.194-0.01 0.064 0.016 0.121 0.052 0.164 0.102l0.58 0.754c0.168 0.232-0.084 0.241-0.333 0.089-0.25-0.152-0.662-0.306-0.835-0.583z" fill="#284e7a" opacity=".41"/>
  <path d="m316.87 318 0.177-0.414c0.031-0.071 0.04-0.149 0.026-0.226-0.014-0.076-0.05-0.146-0.104-0.201l-0.08-0.082c-7e-3 -9e-3 -0.016-0.015-0.027-0.019s-0.022-6e-3 -0.033-4e-3c-0.011 1e-3 -0.022 6e-3 -0.031 0.012-9e-3 7e-3 -0.017 0.015-0.022 0.026-0.108 0.295-0.192 0.598-0.251 0.907-0.027 0.326 0.177 0.299 0.345 1e-3z" fill="#284e7a" opacity=".41"/>
  <path d="m314.35 313.12-2.184-0.156 1.744-0.225 0.686-1.815c0.18-0.468 0.511-0.863 0.94-1.122 0.429-0.26 0.932-0.37 1.43-0.312l0.425 0.083c-1.037-0.188-1.389 1.008-1.593 2.462-0.104 0.796-0.074 1.207-1.448 1.085z" fill="#61c7c7"/>
  <path d="m318.42 312.79c4e-3 -0.555-0.362-1.007-0.816-1.009-0.454-3e-3 -0.824 0.444-0.828 0.999-3e-3 0.555 0.362 1.007 0.816 1.01 0.454 2e-3 0.825-0.445 0.828-1z" fill="#21354a"/>
  <path d="m310.74 312.45c0.054-0.552-0.268-1.036-0.72-1.081-0.451-0.044-0.862 0.367-0.916 0.919-0.055 0.552 0.267 1.036 0.719 1.081 0.452 0.044 0.862-0.367 0.917-0.919z" fill="#21354a"/>
  <path d="m307.28 333.25c0.946 0.016 2.152-0.093 3.228-0.14-0.02-0.43 0.017-0.861 0.111-1.281 0.165-0.705 0.417-1.387 0.75-2.03-0.861-0.073-1.906-0.145-2.761-0.173-0.179-4.236-2.408-6.526-3.638-5.355-0.583 0.554-0.938 1.306-0.994 2.109-0.032 0.648 0.035 1.698-4e-3 1.934-0.107 0.773-0.653 1.005 0.016 2.438 0.345 0.715-0.302 2.479 3.292 2.498z" fill="#fff"/>
  <path d="m310.23 309.02c0.877 0.554 1.097 1.907 1.168 2.45 0.07 0.544 0.196 1.517 0.228 1.766s0.111 0.331 0.943 0.707c0.831 0.376 0.484 7e-3 0.106-0.428l-0.51-0.556-0.228-1.766c-0.064-0.482-0.256-0.938-0.556-1.32-0.301-0.382-0.698-0.677-1.151-0.853z" fill="#d4ffdc"/>
  <path d="m317.95 312.12c0.315 0.121 0.386 0.848 0.073 0.566-0.312-0.281-0.507-0.717-0.073-0.566z" fill="#335a70"/>
  <path d="m310.34 311.7c0.292 0.123 0.366 0.874 0.073 0.566-0.293-0.307-0.529-0.714-0.073-0.566z" fill="#335a70"/>
  <path d="m310.28 320.05c0.301-0.159 0.326-0.704 0.055-1.216-0.271-0.513-0.735-0.8-1.036-0.641s-0.325 0.704-0.054 1.217 0.734 0.799 1.035 0.64z" fill="#b2a6ff"/>
  <path d="m320.33 318.51c0-0.366-0.142-0.663-0.319-0.663-0.176 0-0.32 0.296-0.32 0.662s0.143 0.662 0.319 0.662c0.177 0 0.32-0.296 0.32-0.661z" fill="#b2a6ff"/>
  <path d="m318.03 310.23c0.488 0.397 0.627 1.116 0.079 0.611-0.549-0.504-0.67-1.087-0.079-0.611z" fill="#d4ffdc"/>
 </g>
 <g fill="#72767d">
  <path d="m393.57 311.56-0.168-1.032h-6.312v1.032h2.64v7.248h1.128v-7.248z"/>
  <path d="m398.32 315.95c0-1.884-1.128-2.988-2.664-2.988-1.524 0-2.628 1.104-2.628 2.988s1.104 2.976 2.628 2.976c1.536 0 2.664-1.092 2.664-2.976zm-1.08 0c0 1.2-0.528 2.088-1.584 2.088-1.008 0-1.548-0.912-1.548-2.088 0-1.2 0.516-2.1 1.548-2.1s1.584 0.924 1.584 2.1z"/>
  <path d="m400.43 316.06c0-1.416 0.648-2.148 1.548-2.148 0.612 0 0.96 0.096 1.404 0.324v2.736c-0.456 0.612-0.96 1.008-1.62 1.008-0.768 0-1.332-0.66-1.332-1.92zm-1.08 0.048c0 1.92 1.02 2.82 2.256 2.82 0.84 0 1.428-0.432 1.86-0.948l0.132 0.828h0.852v-8.664l-1.068 0.168v2.952c-0.36-0.144-0.876-0.252-1.44-0.252-1.392 0-2.592 1.008-2.592 3.096z"/>
  <path d="m409.4 317.23c-0.48 0.492-1.08 0.804-1.704 0.804-0.54 0-0.852-0.3-0.852-0.768 0-0.588 0.444-1.164 2.556-1.368zm1.068 1.572v-4.008c0-1.272-0.672-1.836-2.064-1.836-0.888 0-1.536 0.204-2.22 0.48l0.144 0.924c0.624-0.276 1.284-0.492 1.98-0.492 0.66 0 1.092 0.252 1.092 0.972v0.24c-2.388 0.252-3.612 0.816-3.612 2.244 0 0.972 0.648 1.596 1.68 1.596 0.936 0 1.56-0.42 2.016-0.888l0.12 0.768z"/>
  <path d="m412.43 320.99c0.84 0 1.464-0.312 1.932-1.584l2.34-6.324h-1.116l-1.5 4.452-1.536-4.536-1.08 0.168 2.088 5.664-0.144 0.384c-0.228 0.612-0.552 0.84-1.032 0.84-0.168 0-0.384-0.036-0.564-0.084l0.156 0.972c0.108 0.024 0.228 0.048 0.456 0.048z"/>
  <path d="m423.72 317.23c-0.48 0.492-1.08 0.804-1.704 0.804-0.54 0-0.852-0.3-0.852-0.768 0-0.588 0.444-1.164 2.556-1.368zm1.068 1.572v-4.008c0-1.272-0.672-1.836-2.064-1.836-0.888 0-1.536 0.204-2.22 0.48l0.144 0.924c0.624-0.276 1.284-0.492 1.98-0.492 0.66 0 1.092 0.252 1.092 0.972v0.24c-2.388 0.252-3.612 0.816-3.612 2.244 0 0.972 0.648 1.596 1.68 1.596 0.936 0 1.56-0.42 2.016-0.888l0.12 0.768z"/>
  <path d="m429.19 318.83-0.144-0.912c-0.132 0.024-0.3 0.036-0.492 0.036-0.6 0-0.792-0.288-0.792-0.756v-3.216h1.38l-0.144-0.9h-1.236v-2.064l-1.044 0.156v1.908h-0.864v0.9h0.864v3.408c0 1.152 0.66 1.512 1.668 1.512 0.372 0 0.624-0.036 0.804-0.072z"/>
  <path d="m433.95 318.96c2.64-0.564 4.5-2.196 4.5-4.992 0-2.244-1.224-3.432-2.928-3.432-1.608 0-2.784 1.116-2.784 2.688s0.948 2.544 2.52 2.544c0.768 0 1.44-0.24 2.016-0.612-0.42 1.668-1.812 2.484-3.48 2.844zm1.536-4.14c-1.152 0-1.668-0.612-1.668-1.644 0-1.08 0.672-1.692 1.68-1.692 1.152 0 1.908 0.996 1.908 2.544v0.084c-0.564 0.456-1.188 0.708-1.92 0.708z"/>
  <path d="m441.07 314.51v-1.428h-1.2v1.428zm0 4.296v-1.428h-1.2v1.428z"/>
  <path d="m444.62 318.96c1.776 0 2.892-0.948 2.892-2.376 0-1.128-0.6-1.752-1.644-2.04 0.876-0.288 1.488-0.876 1.488-1.884 0-1.092-0.756-2.124-2.58-2.124-1.008 0-1.728 0.288-2.352 0.744l0.156 1.008c0.6-0.48 1.308-0.78 2.148-0.78 1.02 0 1.524 0.504 1.524 1.2 0 0.876-0.636 1.356-1.98 1.356h-0.612l0.156 0.984h0.372c1.56 0 2.22 0.564 2.22 1.548 0 0.912-0.66 1.392-1.728 1.392-0.852 0-1.524-0.252-2.208-0.72l-0.18 1.056c0.624 0.384 1.476 0.636 2.328 0.636z"/>
  <path d="m454.87 314.75c0-2.688-1.248-4.212-3.096-4.212-1.86 0-3.108 1.524-3.108 4.212s1.248 4.212 3.108 4.212c1.848 0 3.096-1.524 3.096-4.212zm-1.104 0c0 2.112-0.744 3.264-1.992 3.264s-2.004-1.152-2.004-3.264 0.756-3.264 2.004-3.264 1.992 1.152 1.992 3.264z"/>
  <path d="m464.91 318.89 1.116-0.24-3.192-8.16h-1.128l-3.24 8.316h1.176l0.924-2.484h3.372zm-2.664-7.08 1.32 3.516h-2.628z"/>
  <path d="m476.4 318.8-0.648-8.28h-1.38l-2.58 6.792-2.58-6.792h-1.392l-0.66 8.28h1.056l0.504-6.684 2.592 6.72h0.9l2.592-6.72 0.516 6.684z"/>
 </g>
 <g mask="url(#mask1)">
  <g fill="#f7e5bc">
   <circle cx="313" cy="261" r="14"/>
   <path d="m329.1 269.76-1.903 4.388c-0.149 0.347-0.365 0.66-0.637 0.921s-0.594 0.465-0.946 0.6-0.728 0.197-1.105 0.184-0.747-0.102-1.089-0.26l-7.11-3.236 3.541-5.583 4.333 2.417 0.638-1.889c2.236 0.889 3.431 1.667 4.278 2.458z"/>
   <path d="m320.84 267.64c2.861 0.473 3.125 1.07 3.888 2.57l-3.069-0.348z"/>
  </g>
  <path d="m307.36 243.85c-0.569 0.177-1.049 0.564-1.343 1.083-0.294 0.518-0.38 1.129-0.24 1.708l2.847 11.624 5.097-1.056-3.43-11.776c-0.086-0.298-0.231-0.576-0.425-0.817-0.195-0.242-0.435-0.442-0.708-0.59-0.273-0.147-0.572-0.239-0.881-0.269s-0.62 1e-3 -0.917 0.093z" fill="#d6569b"/>
  <path d="m310.2 255.54 2.014-0.084-2.139-6.999c-0.03-0.1-0.08-0.194-0.147-0.274-0.067-0.081-0.15-0.146-0.244-0.193s-0.196-0.074-0.301-0.08c-0.105-5e-3 -0.21 0.011-0.308 0.047-0.172 0.066-0.314 0.193-0.399 0.357-0.084 0.164-0.106 0.354-0.059 0.532z" fill="#e374b0"/>
  <path d="m319.16 243.79c0.571 0.172 1.056 0.554 1.355 1.07s0.391 1.127 0.256 1.708l-2.722 11.637-5.11-0.986 3.305-11.818c0.083-0.299 0.225-0.578 0.417-0.822 0.192-0.243 0.431-0.446 0.703-0.596 0.271-0.15 0.57-0.244 0.878-0.277 0.309-0.034 0.621-5e-3 0.918 0.084z" fill="#d6569b"/>
  <path d="m317.23 255.52-1.999-0.07 2.055-7.027c0.029-0.1 0.079-0.193 0.147-0.274 0.067-0.08 0.151-0.145 0.245-0.19 0.094-0.046 0.197-0.072 0.302-0.075 0.104-4e-3 0.209 0.014 0.306 0.053 0.172 0.063 0.315 0.187 0.402 0.348s0.112 0.349 0.07 0.527z" fill="#e374b0"/>
  <path d="m322.93 272.46-0.833 2.639-0.111 0.333-1.028 3.222h-19.109c-0.18-0.708 0.042-0.847 0.528-1.639 0.486-0.791 0.236-0.583 0.306-2.499 0.055-1.347 0.541-2.597 2.277-4.153 0.528-0.458 0.653-0.638 1.194-1.138l0.167-0.153 0.083-0.083 0.111-0.084 13.054-2.055 2.625 4.374z" fill="#f7e5bc"/>
  <path d="m322.1 275.1c-0.084 1.264-0.195 2.458-0.334 3.555h-14.04c0.014-0.569 0.028-1.278 0.056-2.139-2e-3 -0.092 2e-3 -0.185 0.014-0.277v-1.07c-0.097-2.541-0.819-4.277-2.833-4.805 0.375-0.375 0.764-0.75 1.194-1.138l0.167-0.153 0.194-0.167 13.054-2.055c1.028 0.375 1.708 0.639 2.486 1.43 0.083 1 0.125 1.986 0.139 2.944 0.014 1.347-0.028 2.639-0.097 3.875z" fill="#1f3a70"/>
  <path d="m320.85 261.35-15.151 0.606c-1.995 0.08-3.546 1.761-3.467 3.756l1e-3 5e-3c0.079 1.994 1.761 3.546 3.755 3.466l15.151-0.606c1.994-0.079 3.546-1.761 3.466-3.755v-5e-3c-0.08-1.995-1.761-3.546-3.755-3.467z" fill="#f06ea8"/>
  <path d="m320.06 254.63-14.722 0.617c-2.107 0.089-3.744 1.868-3.656 3.976l6e-3 0.126c0.088 2.107 1.868 3.744 3.975 3.656l14.722-0.617c2.107-0.089 3.744-1.868 3.655-3.976l-5e-3 -0.126c-0.088-2.107-1.868-3.744-3.975-3.656z" fill="#f06ea8"/>
  <path d="m321.09 268.46c1.944-0.083 3.541-1.653 3.541-3.597 6e-3 -0.707-0.196-1.4-0.581-1.993s-0.937-1.059-1.586-1.34c0.489-0.372 0.88-0.857 1.141-1.413s0.385-1.167 0.359-1.781v-0.125c-0.021-0.502-0.141-0.994-0.353-1.449s-0.512-0.864-0.882-1.204c-0.37-0.339-0.804-0.602-1.276-0.773-0.472-0.172-0.973-0.249-1.474-0.226l-13.138 0.555c-1.18 2.264-1.014 4.694-0.139 6.444 0.128 0.265 0.2 0.553 0.212 0.847s-0.036 0.587-0.142 0.861c-1.264 3.361 0.403 5.791 0.403 5.791z" fill="#e05fa3"/>
  <path d="m310.48 261.65c0.333-0.218 0.352-0.78 0.041-1.255s-0.833-0.683-1.167-0.465c-0.333 0.219-0.352 0.781-0.041 1.256s0.833 0.682 1.167 0.464z" fill="#1b1926"/>
  <path d="m317.06 260.61c0.145-0.517-0.026-1.017-0.38-1.116-0.355-0.099-0.76 0.24-0.904 0.757s0.026 1.017 0.381 1.116c0.354 0.099 0.759-0.24 0.903-0.757z" fill="#1b1926"/>
  <path d="m311.94 263.32c0.917 1.556 2.264 1.917 3.167-0.097 0.01-0.018 0.016-0.038 0.015-0.059 0-0.021-7e-3 -0.042-0.019-0.059-0.011-0.018-0.027-0.031-0.047-0.04-0.019-8e-3 -0.04-0.011-0.061-8e-3l-2.957 0.083c-0.02 2e-3 -0.04 9e-3 -0.056 0.021-0.017 0.011-0.031 0.026-0.04 0.044-0.01 0.017-0.015 0.037-0.015 0.057 0 0.021 4e-3 0.04 0.013 0.058z" fill="#751b40"/>
  <path d="m313.78 263.1-1.749 0.042c-0.02 2e-3 -0.04 9e-3 -0.056 0.021-0.017 0.011-0.031 0.026-0.04 0.044-0.01 0.017-0.015 0.037-0.015 0.057s4e-3 0.04 0.013 0.058c0.792 1.334 1.889 1.792 2.764 0.625-0.217-0.365-0.536-0.659-0.917-0.847z" fill="#9c2455"/>
 </g>
 <g fill="#72767d">
  <path d="m406.74 254-0.168-1.032h-6.312v1.032h2.64v7.248h1.128v-7.248z"/>
  <path d="m411.49 258.39c0-1.884-1.128-2.988-2.664-2.988-1.524 0-2.628 1.104-2.628 2.988s1.104 2.976 2.628 2.976c1.536 0 2.664-1.092 2.664-2.976zm-1.08 0c0 1.2-0.528 2.088-1.584 2.088-1.008 0-1.548-0.912-1.548-2.088 0-1.2 0.516-2.1 1.548-2.1s1.584 0.924 1.584 2.1z"/>
  <path d="m413.6 258.5c0-1.416 0.648-2.148 1.548-2.148 0.612 0 0.96 0.096 1.404 0.324v2.736c-0.456 0.612-0.96 1.008-1.62 1.008-0.768 0-1.332-0.66-1.332-1.92zm-1.08 0.048c0 1.92 1.02 2.82 2.256 2.82 0.84 0 1.428-0.432 1.86-0.948l0.132 0.828h0.852v-8.664l-1.068 0.168v2.952c-0.36-0.144-0.876-0.252-1.44-0.252-1.392 0-2.592 1.008-2.592 3.096z"/>
  <path d="m422.57 259.67c-0.48 0.492-1.08 0.804-1.704 0.804-0.54 0-0.852-0.3-0.852-0.768 0-0.588 0.444-1.164 2.556-1.368zm1.068 1.572v-4.008c0-1.272-0.672-1.836-2.064-1.836-0.888 0-1.536 0.204-2.22 0.48l0.144 0.924c0.624-0.276 1.284-0.492 1.98-0.492 0.66 0 1.092 0.252 1.092 0.972v0.24c-2.388 0.252-3.612 0.816-3.612 2.244 0 0.972 0.648 1.596 1.68 1.596 0.936 0 1.56-0.42 2.016-0.888l0.12 0.768z"/>
  <path d="m425.59 263.43c0.84 0 1.464-0.312 1.932-1.584l2.34-6.324h-1.116l-1.5 4.452-1.536-4.536-1.08 0.168 2.088 5.664-0.144 0.384c-0.228 0.612-0.552 0.84-1.032 0.84-0.168 0-0.384-0.036-0.564-0.084l0.156 0.972c0.108 0.024 0.228 0.048 0.456 0.048z"/>
  <path d="m436.89 259.67c-0.48 0.492-1.08 0.804-1.704 0.804-0.54 0-0.852-0.3-0.852-0.768 0-0.588 0.444-1.164 2.556-1.368zm1.068 1.572v-4.008c0-1.272-0.672-1.836-2.064-1.836-0.888 0-1.536 0.204-2.22 0.48l0.144 0.924c0.624-0.276 1.284-0.492 1.98-0.492 0.66 0 1.092 0.252 1.092 0.972v0.24c-2.388 0.252-3.612 0.816-3.612 2.244 0 0.972 0.648 1.596 1.68 1.596 0.936 0 1.56-0.42 2.016-0.888l0.12 0.768z"/>
  <path d="m442.36 261.27-0.144-0.912c-0.132 0.024-0.3 0.036-0.492 0.036-0.6 0-0.792-0.288-0.792-0.756v-3.216h1.38l-0.144-0.9h-1.236v-2.064l-1.044 0.156v1.908h-0.864v0.9h0.864v3.408c0 1.152 0.66 1.512 1.668 1.512 0.372 0 0.624-0.036 0.804-0.072z"/>
  <path d="m447.12 261.4c2.64-0.564 4.5-2.196 4.5-4.992 0-2.244-1.224-3.432-2.928-3.432-1.608 0-2.784 1.116-2.784 2.688s0.948 2.544 2.52 2.544c0.768 0 1.44-0.24 2.016-0.612-0.42 1.668-1.812 2.484-3.48 2.844zm1.536-4.14c-1.152 0-1.668-0.612-1.668-1.644 0-1.08 0.672-1.692 1.68-1.692 1.152 0 1.908 0.996 1.908 2.544v0.084c-0.564 0.456-1.188 0.708-1.92 0.708z"/>
  <path d="m454.24 256.95v-1.428h-1.2v1.428zm0 4.296v-1.428h-1.2v1.428z"/>
  <path d="m455.59 261.24h5.292l-0.144-0.96h-3.696l2.304-2.352c0.996-1.02 1.416-1.68 1.416-2.664 0-1.392-0.96-2.292-2.532-2.292-1.008 0-1.824 0.396-2.424 0.912l0.156 1.044c0.636-0.564 1.368-0.96 2.208-0.96 0.948 0 1.476 0.456 1.476 1.368 0 0.66-0.324 1.176-1.056 1.944l-3 3.132z"/>
  <path d="m461.89 261.24h5.292l-0.144-0.96h-3.696l2.304-2.352c0.996-1.02 1.416-1.68 1.416-2.664 0-1.392-0.96-2.292-2.532-2.292-1.008 0-1.824 0.396-2.424 0.912l0.156 1.044c0.636-0.564 1.368-0.96 2.208-0.96 0.948 0 1.476 0.456 1.476 1.368 0 0.66-0.324 1.176-1.056 1.944l-3 3.132z"/>
  <path d="m477.2 261.33 1.116-0.24-3.192-8.16h-1.128l-3.24 8.316h1.176l0.924-2.484h3.372zm-2.664-7.08 1.32 3.516h-2.628z"/>
  <path d="m488.69 261.24-0.648-8.28h-1.38l-2.58 6.792-2.58-6.792h-1.392l-0.66 8.28h1.056l0.504-6.684 2.592 6.72h0.9l2.592-6.72 0.516 6.684z"/>
  <path d="m400.41 198.36-0.168-1.032h-6.312v1.032h2.64v7.248h1.128v-7.248z"/>
  <path d="m405.16 202.75c0-1.884-1.128-2.988-2.664-2.988-1.524 0-2.628 1.104-2.628 2.988s1.104 2.976 2.628 2.976c1.536 0 2.664-1.092 2.664-2.976zm-1.08 0c0 1.2-0.528 2.088-1.584 2.088-1.008 0-1.548-0.912-1.548-2.088 0-1.2 0.516-2.1 1.548-2.1s1.584 0.924 1.584 2.1z"/>
  <path d="m407.27 202.86c0-1.416 0.648-2.148 1.548-2.148 0.612 0 0.96 0.096 1.404 0.324v2.736c-0.456 0.612-0.96 1.008-1.62 1.008-0.768 0-1.332-0.66-1.332-1.92zm-1.08 0.048c0 1.92 1.02 2.82 2.256 2.82 0.84 0 1.428-0.432 1.86-0.948l0.132 0.828h0.852v-8.664l-1.068 0.168v2.952c-0.36-0.144-0.876-0.252-1.44-0.252-1.392 0-2.592 1.008-2.592 3.096z"/>
  <path d="m416.24 204.03c-0.48 0.492-1.08 0.804-1.704 0.804-0.54 0-0.852-0.3-0.852-0.768 0-0.588 0.444-1.164 2.556-1.368zm1.068 1.572v-4.008c0-1.272-0.672-1.836-2.064-1.836-0.888 0-1.536 0.204-2.22 0.48l0.144 0.924c0.624-0.276 1.284-0.492 1.98-0.492 0.66 0 1.092 0.252 1.092 0.972v0.24c-2.388 0.252-3.612 0.816-3.612 2.244 0 0.972 0.648 1.596 1.68 1.596 0.936 0 1.56-0.42 2.016-0.888l0.12 0.768z"/>
  <path d="m419.26 207.79c0.84 0 1.464-0.312 1.932-1.584l2.34-6.324h-1.116l-1.5 4.452-1.536-4.536-1.08 0.168 2.088 5.664-0.144 0.384c-0.228 0.612-0.552 0.84-1.032 0.84-0.168 0-0.384-0.036-0.564-0.084l0.156 0.972c0.108 0.024 0.228 0.048 0.456 0.048z"/>
  <path d="m430.56 204.03c-0.48 0.492-1.08 0.804-1.704 0.804-0.54 0-0.852-0.3-0.852-0.768 0-0.588 0.444-1.164 2.556-1.368zm1.068 1.572v-4.008c0-1.272-0.672-1.836-2.064-1.836-0.888 0-1.536 0.204-2.22 0.48l0.144 0.924c0.624-0.276 1.284-0.492 1.98-0.492 0.66 0 1.092 0.252 1.092 0.972v0.24c-2.388 0.252-3.612 0.816-3.612 2.244 0 0.972 0.648 1.596 1.68 1.596 0.936 0 1.56-0.42 2.016-0.888l0.12 0.768z"/>
  <path d="m436.03 205.63-0.144-0.912c-0.132 0.024-0.3 0.036-0.492 0.036-0.6 0-0.792-0.288-0.792-0.756v-3.216h1.38l-0.144-0.9h-1.236v-2.064l-1.044 0.156v1.908h-0.864v0.9h0.864v3.408c0 1.152 0.66 1.512 1.668 1.512 0.372 0 0.624-0.036 0.804-0.072z"/>
  <path d="m440.79 205.76c2.64-0.564 4.5-2.196 4.5-4.992 0-2.244-1.223-3.432-2.927-3.432-1.608 0-2.784 1.116-2.784 2.688s0.948 2.544 2.52 2.544c0.768 0 1.44-0.24 2.016-0.612-0.42 1.668-1.812 2.484-3.48 2.844zm1.536-4.14c-1.152 0-1.668-0.612-1.668-1.644 0-1.08 0.673-1.692 1.68-1.692 1.153 0 1.909 0.996 1.909 2.544v0.084c-0.564 0.456-1.189 0.708-1.921 0.708z"/>
  <path d="m447.91 201.31v-1.428h-1.2v1.428zm0 4.296v-1.428h-1.2v1.428z"/>
  <path d="m451.87 205.6v-8.136h-0.936l-1.944 0.9 0.12 0.864 1.692-0.636v7.008z"/>
  <path d="m454.69 205.76c2.64-0.564 4.5-2.196 4.5-4.992 0-2.244-1.224-3.432-2.928-3.432-1.608 0-2.784 1.116-2.784 2.688s0.948 2.544 2.52 2.544c0.768 0 1.44-0.24 2.016-0.612-0.42 1.668-1.812 2.484-3.48 2.844zm1.536-4.14c-1.152 0-1.668-0.612-1.668-1.644 0-1.08 0.672-1.692 1.68-1.692 1.152 0 1.908 0.996 1.908 2.544v0.084c-0.564 0.456-1.188 0.708-1.92 0.708z"/>
  <path d="m469.22 205.69 1.116-0.24-3.192-8.16h-1.128l-3.24 8.316h1.176l0.924-2.484h3.372zm-2.664-7.08 1.32 3.516h-2.628z"/>
  <path d="m480.71 205.6-0.648-8.28h-1.38l-2.58 6.792-2.58-6.792h-1.392l-0.66 8.28h1.056l0.504-6.684 2.592 6.72h0.9l2.592-6.72 0.516 6.684z"/>
  <path d="m428.7 122.17-0.168-1.032h-6.312v1.032h2.64v7.248h1.128v-7.248z"/>
  <path d="m433.45 126.56c0-1.884-1.128-2.988-2.664-2.988-1.524 0-2.628 1.104-2.628 2.988s1.104 2.976 2.628 2.976c1.536 0 2.664-1.092 2.664-2.976zm-1.08 0c0 1.2-0.528 2.088-1.584 2.088-1.008 0-1.548-0.912-1.548-2.088 0-1.2 0.516-2.1 1.548-2.1s1.584 0.924 1.584 2.1z"/>
  <path d="m435.56 126.67c0-1.416 0.648-2.148 1.548-2.148 0.612 0 0.96 0.096 1.404 0.324v2.736c-0.456 0.612-0.96 1.008-1.62 1.008-0.768 0-1.332-0.66-1.332-1.92zm-1.08 0.048c0 1.92 1.02 2.82 2.256 2.82 0.84 0 1.428-0.432 1.86-0.948l0.132 0.828h0.852v-8.664l-1.068 0.168v2.952c-0.36-0.144-0.876-0.252-1.44-0.252-1.392 0-2.592 1.008-2.592 3.096z"/>
  <path d="m444.53 127.84c-0.48 0.492-1.08 0.804-1.704 0.804-0.54 0-0.852-0.3-0.852-0.768 0-0.588 0.444-1.164 2.556-1.368zm1.068 1.572v-4.008c0-1.272-0.672-1.836-2.064-1.836-0.888 0-1.536 0.204-2.22 0.48l0.144 0.924c0.624-0.276 1.284-0.492 1.98-0.492 0.66 0 1.092 0.252 1.092 0.972v0.24c-2.388 0.252-3.612 0.816-3.612 2.244 0 0.972 0.648 1.596 1.68 1.596 0.936 0 1.56-0.42 2.016-0.888l0.12 0.768z"/>
  <path d="m447.55 131.6c0.84 0 1.464-0.312 1.932-1.584l2.34-6.324h-1.116l-1.5 4.452-1.536-4.536-1.08 0.168 2.088 5.664-0.144 0.384c-0.228 0.612-0.552 0.84-1.032 0.84-0.168 0-0.384-0.036-0.564-0.084l0.156 0.972c0.108 0.024 0.228 0.048 0.456 0.048z"/>
  <path d="m458.85 127.84c-0.48 0.492-1.08 0.804-1.704 0.804-0.54 0-0.852-0.3-0.852-0.768 0-0.588 0.444-1.164 2.556-1.368zm1.068 1.572v-4.008c0-1.272-0.672-1.836-2.064-1.836-0.888 0-1.536 0.204-2.22 0.48l0.144 0.924c0.624-0.276 1.284-0.492 1.98-0.492 0.66 0 1.092 0.252 1.092 0.972v0.24c-2.388 0.252-3.612 0.816-3.612 2.244 0 0.972 0.648 1.596 1.68 1.596 0.936 0 1.56-0.42 2.016-0.888l0.12 0.768z"/>
  <path d="m464.32 129.44-0.144-0.912c-0.132 0.024-0.3 0.036-0.492 0.036-0.6 0-0.792-0.288-0.792-0.756v-3.216h1.38l-0.144-0.9h-1.236v-2.064l-1.044 0.156v1.908h-0.864v0.9h0.864v3.408c0 1.152 0.66 1.512 1.668 1.512 0.372 0 0.624-0.036 0.804-0.072z"/>
  <path d="m469.08 129.57c2.64-0.564 4.5-2.196 4.5-4.992 0-2.244-1.224-3.432-2.928-3.432-1.608 0-2.784 1.116-2.784 2.688s0.948 2.544 2.52 2.544c0.768 0 1.44-0.24 2.016-0.612-0.42 1.668-1.812 2.484-3.48 2.844zm1.536-4.14c-1.152 0-1.668-0.612-1.668-1.644 0-1.08 0.672-1.692 1.68-1.692 1.152 0 1.908 0.996 1.908 2.544v0.084c-0.564 0.456-1.188 0.708-1.92 0.708z"/>
  <path d="m476.2 125.12v-1.428h-1.2v1.428zm0 4.296v-1.428h-1.2v1.428z"/>
  <path d="m480.17 129.41v-8.136h-0.936l-1.944 0.9 0.12 0.864 1.692-0.636v7.008z"/>
  <path d="m484.71 129.57c1.776 0 2.88-1.02 2.88-2.196 0-1.152-0.612-1.752-1.668-2.232 0.78-0.444 1.38-1.068 1.38-1.944 0-1.188-0.936-2.052-2.544-2.052-1.524 0-2.592 0.852-2.592 2.052 0 0.876 0.396 1.476 1.344 1.956-0.984 0.516-1.656 1.248-1.656 2.184 0 1.212 0.996 2.232 2.856 2.232zm-1.5-6.384c0-0.648 0.576-1.164 1.524-1.164s1.524 0.516 1.524 1.212c0 0.612-0.516 1.164-1.26 1.536-1.308-0.504-1.788-0.864-1.788-1.584zm1.524 5.496c-1.068 0-1.824-0.588-1.824-1.392 0-0.732 0.636-1.356 1.56-1.74 1.548 0.564 2.064 0.936 2.064 1.788 0 0.744-0.72 1.344-1.8 1.344z"/>
  <path d="m497.56 129.5 1.116-0.24-3.192-8.16h-1.128l-3.24 8.316h1.176l0.924-2.484h3.372zm-2.664-7.08 1.32 3.516h-2.628z"/>
  <path d="m509.05 129.41-0.648-8.28h-1.38l-2.58 6.792-2.58-6.792h-1.392l-0.66 8.28h1.056l0.504-6.684 2.592 6.72h0.9l2.592-6.72 0.516 6.684z"/>
 </g>
 <rect x="32" y="106" width="191" height="48" rx="8" fill="#292841"/>
 <path d="m50.768 141.5c-0.3111 0-0.5467-0.281-0.4923-0.587l0.724-4.08h-4.0715c-0.3106 0-0.5461-0.28-0.4925-0.586l0.2333-1.333c0.0419-0.239 0.2496-0.414 0.4925-0.414h4.2466l1.2366-7h-4.0715c-0.3106 0-0.5461-0.28-0.4925-0.586l0.2333-1.334c0.0419-0.239 0.2496-0.413 0.4925-0.413h4.2466l0.7551-4.254c0.0423-0.239 0.2498-0.413 0.4923-0.413h1.3177c0.3111 0 0.5466 0.281 0.4923 0.587l-0.7241 4.08h7l0.7551-4.254c0.0424-0.239 0.2499-0.413 0.4923-0.413h1.3177c0.3111 0 0.5467 0.281 0.4923 0.587l-0.7241 4.08h4.0716c0.3106 0 0.5461 0.28 0.4925 0.586l-0.2333 1.333c-0.0419 0.239-0.2496 0.414-0.4925 0.414h-4.2466l-1.2367 7h4.0716c0.3106 0 0.5461 0.28 0.4925 0.586l-0.2333 1.334c-0.0419 0.239-0.2496 0.413-0.4925 0.413h-4.2466l-0.7551 4.254c-0.0424 0.239-0.2499 0.413-0.4923 0.413h-1.3177c-0.3111 0-0.5467-0.281-0.4923-0.587l0.7241-4.08h-7l-0.7551 4.254c-0.0424 0.239-0.2499 0.413-0.4923 0.413zm4.2106-14-1.2367 7h7l1.2367-7z" clip-rule="evenodd" fill="#b9bbbe" fill-rule="evenodd"/>
 <rect x="64" y="58" width="178" height="40" rx="8" fill="#292841"/>
 <g fill="#b9bbbe">
  <path d="m77.887 87c-0.3111 0-0.5467-0.2811-0.4923-0.5874l0.6057-3.4126h-3.4049c-0.3106 0-0.546-0.2802-0.4925-0.5862l0.175-1c0.0419-0.2392 0.2496-0.4138 0.4925-0.4138h3.5799l1.06-6h-3.4049c-0.3106 0-0.546-0.2802-0.4925-0.5862l0.175-1c0.0419-0.2392 0.2496-0.4138 0.4925-0.4138h3.5799l0.6368-3.5874c0.0424-0.2387 0.2499-0.4126 0.4923-0.4126h0.9844c0.3111 0 0.5466 0.2811 0.4923 0.5874l-0.6058 3.4126h6l0.6368-3.5874c0.0424-0.2387 0.2499-0.4126 0.4923-0.4126h0.9844c0.3111 0 0.5466 0.2811 0.4923 0.5874l-0.6058 3.4126h3.4049c0.3107 0 0.5461 0.2802 0.4926 0.5862l-0.175 1c-0.0419 0.2392-0.2497 0.4138-0.4926 0.4138h-3.5799l-1.06 6h3.4049c0.3107 0 0.5461 0.2802 0.4926 0.5862l-0.175 1c-0.0419 0.2392-0.2497 0.4138-0.4926 0.4138h-3.5799l-0.6367 3.5874c-0.0424 0.2387-0.2499 0.4126-0.4923 0.4126h-0.9844c-0.3111 0-0.5467-0.2811-0.4923-0.5874l0.6057-3.4126h-6l-0.6367 3.5874c-0.0424 0.2387-0.2499 0.4126-0.4923 0.4126zm3.5239-12-1.06 6h6l1.06-6z" clip-rule="evenodd" fill-rule="evenodd"/>
  <path d="m114.1 79.04c0 2.36-1.1 3.58-2.6 3.58-1.02 0-1.6-0.16-2.32-0.52v-4.58c0.76-1.02 1.6-1.68 2.68-1.68 1.3 0 2.24 1.12 2.24 3.2zm1.8-0.08c0-3.18-1.7-4.7-3.76-4.7-1.4 0-2.38 0.74-3.1 1.58l-0.22-1.38h-1.42v13.26l1.78-0.26v-3.76c0.6 0.24 1.46 0.42 2.4 0.42 2.32 0 4.32-1.68 4.32-5.16z"/>
  <path d="m121.8 75.66c1.38 0 2.06 0.88 2.28 2.42h-4.6c0.28-1.62 1.22-2.42 2.32-2.42zm4.06 7.26-0.26-1.6c-1.04 0.82-2.04 1.36-3.42 1.36-1.66 0-2.7-1.04-2.78-3.26h6.48v-0.38c0-2.64-1.28-4.78-4.06-4.78-2.4 0-4.2 1.88-4.2 4.94 0 3.5 1.94 5 4.42 5 1.58 0 2.8-0.48 3.82-1.28z"/>
  <path d="m132.72 84.04-0.24-1.52c-0.22 0.04-0.5 0.06-0.82 0.06-1 0-1.32-0.48-1.32-1.26v-5.36h2.3l-0.24-1.5h-2.06v-3.44l-1.74 0.26v3.18h-1.44v1.5h1.44v5.68c0 1.92 1.1 2.52 2.78 2.52 0.62 0 1.04-0.06 1.34-0.12z"/>
  <path d="m139.13 79.18v-1.74h-4.92v1.74z"/>
  <path d="m148.3 79.04c0 2.36-1.1 3.58-2.6 3.58-1.02 0-1.6-0.16-2.32-0.52v-4.58c0.76-1.02 1.6-1.68 2.68-1.68 1.3 0 2.24 1.12 2.24 3.2zm1.8-0.08c0-3.18-1.7-4.7-3.76-4.7-1.4 0-2.38 0.74-3.1 1.58l-0.22-1.38h-1.42v13.26l1.78-0.26v-3.76c0.6 0.24 1.46 0.42 2.4 0.42 2.32 0 4.32-1.68 4.32-5.16z"/>
  <path d="m160.14 84v-6.94c0-1.72-0.96-2.8-2.76-2.8-1.36 0-2.46 0.76-3.24 1.46v-6.16l-1.78 0.28v14.16h1.78v-6.6c0.86-0.92 1.82-1.54 2.76-1.54 1.04 0 1.46 0.66 1.46 1.64v6.5z"/>
  <path d="m171.19 79.24c0-3.14-1.88-4.98-4.44-4.98-2.54 0-4.38 1.84-4.38 4.98s1.84 4.96 4.38 4.96c2.56 0 4.44-1.82 4.44-4.96zm-1.8 0c0 2-0.88 3.48-2.64 3.48-1.68 0-2.58-1.52-2.58-3.48 0-2 0.86-3.5 2.58-3.5s2.64 1.54 2.64 3.5z"/>
  <path d="m178.04 84.04-0.24-1.52c-0.22 0.04-0.5 0.06-0.82 0.06-1 0-1.32-0.48-1.32-1.26v-5.36h2.3l-0.24-1.5h-2.06v-3.44l-1.74 0.26v3.18h-1.44v1.5h1.44v5.68c0 1.92 1.1 2.52 2.78 2.52 0.62 0 1.04-0.06 1.34-0.12z"/>
  <path d="m188.4 79.24c0-3.14-1.88-4.98-4.44-4.98-2.54 0-4.38 1.84-4.38 4.98s1.84 4.96 4.38 4.96c2.56 0 4.44-1.82 4.44-4.96zm-1.8 0c0 2-0.88 3.48-2.64 3.48-1.68 0-2.58-1.52-2.58-3.48 0-2 0.86-3.5 2.58-3.5s2.64 1.54 2.64 3.5z"/>
  <path d="m197.32 81.34c0-1.82-1.06-2.5-3.42-3.1-1.5-0.38-1.98-0.74-1.98-1.38 0-0.68 0.56-1.1 1.64-1.1 1 0 2.06 0.34 2.9 0.82l0.28-1.68c-0.9-0.4-1.96-0.64-3.14-0.64-2.08 0-3.36 1.12-3.36 2.64 0 1.7 0.9 2.38 3.14 2.94 1.72 0.42 2.26 0.74 2.26 1.62 0 0.8-0.72 1.26-1.94 1.26-1.3 0-2.46-0.48-3.36-1.1l-0.26 1.68c0.82 0.46 2.22 0.9 3.48 0.9 2.46 0 3.76-1.12 3.76-2.86z"/>
 </g>
 <rect x="64" y="162" width="178" height="40" rx="8" fill="#292841"/>
 <g fill="#b9bbbe">
  <path d="m77.887 191c-0.3111 0-0.5467-0.281-0.4923-0.587l0.6057-3.413h-3.4049c-0.3106 0-0.546-0.28-0.4925-0.586l0.175-1c0.0419-0.239 0.2496-0.414 0.4925-0.414h3.5799l1.06-6h-3.4049c-0.3106 0-0.546-0.28-0.4925-0.586l0.175-1c0.0419-0.239 0.2496-0.414 0.4925-0.414h3.5799l0.6368-3.587c0.0424-0.239 0.2499-0.413 0.4923-0.413h0.9844c0.3111 0 0.5466 0.281 0.4923 0.587l-0.6058 3.413h6l0.6368-3.587c0.0424-0.239 0.2499-0.413 0.4923-0.413h0.9844c0.3111 0 0.5466 0.281 0.4923 0.587l-0.6058 3.413h3.4049c0.3107 0 0.5461 0.28 0.4926 0.586l-0.175 1c-0.0419 0.239-0.2497 0.414-0.4926 0.414h-3.5799l-1.06 6h3.4049c0.3107 0 0.5461 0.28 0.4926 0.586l-0.175 1c-0.0419 0.239-0.2497 0.414-0.4926 0.414h-3.5799l-0.6367 3.587c-0.0424 0.239-0.2499 0.413-0.4923 0.413h-0.9844c-0.3111 0-0.5467-0.281-0.4923-0.587l0.6057-3.413h-6l-0.6367 3.587c-0.0424 0.239-0.2499 0.413-0.4923 0.413zm3.5239-12-1.06 6h6l1.06-6z" clip-rule="evenodd" fill-rule="evenodd"/>
  <path d="m112.62 181.56c0 1.14-0.76 2.04-1.98 2.04-1.18 0-1.94-0.86-1.94-1.96 0-1.16 0.74-2.08 1.94-2.08 1.18 0 1.98 0.86 1.98 2zm2.84 7.14c0-1.48-1.26-2.12-3.28-2.48l-0.68-0.12c-1.68-0.3-2.02-0.38-2.02-0.72 0-0.18 0.2-0.4 0.48-0.58 0.24 0.04 0.48 0.06 0.72 0.06 1.94 0 3.66-1.24 3.66-3.28 0-0.54-0.12-1.04-0.38-1.48l1.82-0.18-0.26-1.6-2.42 0.74c-0.66-0.52-1.5-0.8-2.46-0.8-1.94 0-3.66 1.26-3.66 3.32 0 1.3 0.72 2.3 1.78 2.84-0.64 0.38-1 0.84-1 1.3 0 0.36 0.18 0.7 0.6 1-1.34 0.72-2.02 1.48-2.02 2.46 0 1.68 1.98 2.46 4.46 2.46s4.66-0.94 4.66-2.94zm-4.58 1.66c-1.86 0-2.84-0.56-2.84-1.32 0-0.66 0.5-1.22 1.62-1.78 0.38 0.08 0.66 0.14 1.18 0.24l1.14 0.2c1.36 0.24 1.8 0.64 1.8 1.22 0 0.8-1.04 1.44-2.9 1.44z"/>
  <path d="m122.82 185.38c-0.8 0.82-1.8 1.34-2.84 1.34-0.9 0-1.42-0.5-1.42-1.28 0-0.98 0.74-1.94 4.26-2.28zm1.78 2.62v-6.68c0-2.12-1.12-3.06-3.44-3.06-1.48 0-2.56 0.34-3.7 0.8l0.24 1.54c1.04-0.46 2.14-0.82 3.3-0.82 1.1 0 1.82 0.42 1.82 1.62v0.4c-3.98 0.42-6.02 1.36-6.02 3.74 0 1.62 1.08 2.66 2.8 2.66 1.56 0 2.6-0.7 3.36-1.48l0.2 1.28z"/>
  <path d="m140.9 188v-6.94c0-1.72-0.88-2.8-2.7-2.8-1.34 0-2.5 0.76-3.36 1.58-0.36-0.98-1.12-1.58-2.52-1.58-1.34 0-2.42 0.76-3.32 1.58l-0.22-1.38h-1.42v9.54h1.78v-6.6c0.86-0.92 1.76-1.54 2.7-1.54 1.04 0 1.4 0.66 1.4 1.64v6.5h1.78v-6.6c0.86-0.92 1.76-1.54 2.7-1.54 1.04 0 1.4 0.66 1.4 1.64v6.5z"/>
  <path d="m147.31 179.66c1.38 0 2.06 0.88 2.28 2.42h-4.6c0.28-1.62 1.22-2.42 2.32-2.42zm4.06 7.26-0.26-1.6c-1.04 0.82-2.04 1.36-3.42 1.36-1.66 0-2.7-1.04-2.78-3.26h6.48v-0.38c0-2.64-1.28-4.78-4.06-4.78-2.4 0-4.2 1.88-4.2 4.94 0 3.5 1.94 5 4.42 5 1.58 0 2.8-0.48 3.82-1.28z"/>
  <path d="m160.31 185.34c0-1.82-1.06-2.5-3.42-3.1-1.5-0.38-1.98-0.74-1.98-1.38 0-0.68 0.56-1.1 1.64-1.1 1 0 2.06 0.34 2.9 0.82l0.28-1.68c-0.9-0.4-1.96-0.64-3.14-0.64-2.08 0-3.36 1.12-3.36 2.64 0 1.7 0.9 2.38 3.14 2.94 1.72 0.42 2.26 0.74 2.26 1.62 0 0.8-0.72 1.26-1.94 1.26-1.3 0-2.46-0.48-3.36-1.1l-0.26 1.68c0.82 0.46 2.22 0.9 3.48 0.9 2.46 0 3.76-1.12 3.76-2.86z"/>
 </g>
 <rect x="64" y="210" width="178" height="40" rx="8" fill="#292841"/>
 <g fill="#b9bbbe">
  <path d="m77.887 239c-0.3111 0-0.5467-0.281-0.4923-0.587l0.6057-3.413h-3.4049c-0.3106 0-0.546-0.28-0.4925-0.586l0.175-1c0.0419-0.239 0.2496-0.414 0.4925-0.414h3.5799l1.06-6h-3.4049c-0.3106 0-0.546-0.28-0.4925-0.586l0.175-1c0.0419-0.239 0.2496-0.414 0.4925-0.414h3.5799l0.6368-3.587c0.0424-0.239 0.2499-0.413 0.4923-0.413h0.9844c0.3111 0 0.5466 0.281 0.4923 0.587l-0.6058 3.413h6l0.6368-3.587c0.0424-0.239 0.2499-0.413 0.4923-0.413h0.9844c0.3111 0 0.5466 0.281 0.4923 0.587l-0.6058 3.413h3.4049c0.3107 0 0.5461 0.28 0.4926 0.586l-0.175 1c-0.0419 0.239-0.2497 0.414-0.4926 0.414h-3.5799l-1.06 6h3.4049c0.3107 0 0.5461 0.28 0.4926 0.586l-0.175 1c-0.0419 0.239-0.2497 0.414-0.4926 0.414h-3.5799l-0.6367 3.587c-0.0424 0.239-0.2499 0.413-0.4923 0.413h-0.9844c-0.3111 0-0.5467-0.281-0.4923-0.587l0.6057-3.413h-6l-0.6367 3.587c-0.0424 0.239-0.2499 0.413-0.4923 0.413zm3.5239-12-1.06 6h6l1.06-6z" clip-rule="evenodd" fill-rule="evenodd"/>
  <path d="m114.56 235.22-0.26-1.64c-0.94 0.8-1.88 1.06-2.84 1.06-1.6 0-2.8-1.1-2.8-3.42 0-2.2 1.1-3.4 2.74-3.4 1.1 0 1.98 0.4 2.8 1.06l0.26-1.74c-0.64-0.46-1.66-0.88-3.04-0.88-2.56 0-4.56 1.74-4.56 4.98 0 3.18 1.88 4.96 4.44 4.96 1.36 0 2.38-0.32 3.26-0.98z"/>
  <path d="m124.84 231.24c0-3.14-1.88-4.98-4.44-4.98-2.54 0-4.38 1.84-4.38 4.98s1.84 4.96 4.38 4.96c2.56 0 4.44-1.82 4.44-4.96zm-1.8 0c0 2-0.88 3.48-2.64 3.48-1.68 0-2.58-1.52-2.58-3.48 0-2 0.86-3.5 2.58-3.5s2.64 1.54 2.64 3.5z"/>
  <path d="m135.39 231.24c0-3.14-1.88-4.98-4.44-4.98-2.54 0-4.38 1.84-4.38 4.98s1.84 4.96 4.38 4.96c2.56 0 4.44-1.82 4.44-4.96zm-1.8 0c0 2-0.88 3.48-2.64 3.48-1.68 0-2.58-1.52-2.58-3.48 0-2 0.86-3.5 2.58-3.5s2.64 1.54 2.64 3.5z"/>
  <path d="m143.67 236.14 1.94-0.3-4.36-5.16 4.02-4.22h-2.14l-3.7 4v-8.9l-1.78 0.28v14.16h1.78v-5z"/>
  <path d="m149.44 223.42c0-0.62-0.5-1.14-1.12-1.14s-1.14 0.52-1.14 1.14 0.52 1.12 1.14 1.12 1.12-0.5 1.12-1.12zm-0.24 12.58v-9.54h-1.78v9.54z"/>
  <path d="m159.92 236v-6.94c0-1.72-0.96-2.8-2.76-2.8-1.36 0-2.48 0.76-3.38 1.58l-0.22-1.38h-1.42v9.54h1.78v-6.6c0.86-0.92 1.82-1.54 2.76-1.54 1.04 0 1.46 0.66 1.46 1.64v6.5z"/>
  <path d="m167.91 229.56c0 1.14-0.76 2.04-1.98 2.04-1.18 0-1.94-0.86-1.94-1.96 0-1.16 0.74-2.08 1.94-2.08 1.18 0 1.98 0.86 1.98 2zm2.84 7.14c0-1.48-1.26-2.12-3.28-2.48l-0.68-0.12c-1.68-0.3-2.02-0.38-2.02-0.72 0-0.18 0.2-0.4 0.48-0.58 0.24 0.04 0.48 0.06 0.72 0.06 1.94 0 3.66-1.24 3.66-3.28 0-0.54-0.12-1.04-0.38-1.48l1.82-0.18-0.26-1.6-2.42 0.74c-0.66-0.52-1.5-0.8-2.46-0.8-1.94 0-3.66 1.26-3.66 3.32 0 1.3 0.72 2.3 1.78 2.84-0.64 0.38-1 0.84-1 1.3 0 0.36 0.18 0.7 0.6 1-1.34 0.72-2.02 1.48-2.02 2.46 0 1.68 1.98 2.46 4.46 2.46s4.66-0.94 4.66-2.94zm-4.58 1.66c-1.86 0-2.84-0.56-2.84-1.32 0-0.66 0.5-1.22 1.62-1.78 0.38 0.08 0.66 0.14 1.18 0.24l1.14 0.2c1.36 0.24 1.8 0.64 1.8 1.22 0 0.8-1.04 1.44-2.9 1.44z"/>
 </g>
 <path d="m30.475 67.375 6.4-2.8c0.1 0 0.1-0.2 0-0.2l-6.4-2.9h-0.1l-2.8-6.4c0-0.1-0.2-0.1-0.2 0l-2.9 6.4-6.4 2.9c-0.1 0-0.1 0.2 0 0.2l6.4 2.8 2.9 6.4h0.2l2.8-6.4z" fill="#fdd2f8"/>
 <g mask="url(#mask2)">
  <circle cx="313" cy="129" r="14" fill="#ffb869"/>
  <path d="m305.82 133.57c1.634 5.682 8.207 9.618 13.481 5.905 5.273-3.714 0.037-11.327 0.037-11.327s2.859-7.204-4.308-8.912-8.95 1.411-9.21 14.334z" fill="#4d7ae8"/>
  <path d="m316.44 129.41c-0.8 0-1.449-0.865-1.449-1.931 0-1.067 0.649-1.931 1.449-1.931 0.799 0 1.448 0.864 1.448 1.931 0 1.066-0.649 1.931-1.448 1.931z" fill="#dbe7ff"/>
  <path d="m317.06 128.95c-0.205-0.014-0.349-0.34-0.322-0.729 0.026-0.389 0.213-0.693 0.418-0.679s0.349 0.341 0.322 0.729c-0.026 0.389-0.214 0.693-0.418 0.679z" fill="#201e2f"/>
  <path d="m318.11 123.88c-0.096-0.289-0.28-0.54-0.527-0.717-0.246-0.178-0.542-0.274-0.847-0.274-0.304 0-0.6 0.096-0.847 0.274-0.246 0.177-0.431 0.428-0.527 0.717z" fill="#201e2f"/>
  <path d="m317.96 132.09c-1.411 0.371-2.934 0.037-4.197-1.337-0.165-0.188-0.396-0.305-0.645-0.326-0.25-0.021-0.498 0.056-0.691 0.214-0.212 0.144-0.358 0.365-0.406 0.615-0.049 0.251 3e-3 0.51 0.146 0.722 1.931 3.157 4.939 3.64 6.795 1.857 0.128-0.114 0.223-0.261 0.275-0.424s0.06-0.337 0.023-0.504c-0.026-0.142-0.081-0.278-0.162-0.397-0.081-0.12-0.186-0.221-0.308-0.298s-0.259-0.128-0.402-0.149-0.289-0.012-0.428 0.027z" fill="#590942"/>
  <path d="m316.88 132.24c0.365 3e-3 0.727-0.047 1.077-0.148h0.335v0.928s-0.558 0.409-2.637 0.186v-0.52l-3.639-1.226c1e-3 -0.153 0.039-0.303 0.11-0.439 0.071-0.135 0.173-0.252 0.298-0.34 0-0.01 4e-3 -0.02 0.011-0.027s0.016-0.011 0.026-0.011c0.153-0.104 0.335-0.156 0.52-0.148 0.037-0.037 0.112 0 0.149 0h0.334c0.037 0.037 0.074 0.037 0.074 0.074s0.074 0 0.074 0.037l0.149 0.112c0.22 0.252 0.469 0.476 0.743 0.668l0.52 0.334c0.242 0.149 0.504 0.262 0.779 0.335 0.347 0.119 0.711 0.182 1.077 0.185z" fill="#dbe7ff"/>
  <path d="m312.43 130.64c0-9e-3 4e-3 -0.019 0.011-0.026s0.016-0.011 0.026-0.011c0.153-0.104 0.335-0.156 0.52-0.148 0.037-0.037 0.112 0 0.149 0h0.334c0.037 0.037 0.074 0.037 0.074 0.074s0.074 0 0.074 0.037l0.149 0.112c0.117 0.154 0.254 0.291 0.408 0.408l-1.039 0.631-1.114-0.371c0.012-0.14 0.055-0.276 0.126-0.398 0.07-0.122 0.167-0.227 0.282-0.308z" fill="#b5cdff"/>
  <path d="m307.34 121.84c1.337-2.97 3.676-3.565 7.687-2.599 0.808 0.18 1.584 0.481 2.302 0.891 0.223 1.188-1.596 1.56-4.976 0.483 1.114 2.005-1.188 5.57-5.013 1.225z" fill="#201e2f"/>
  <path d="m312.02 119.13 0.186-2.451c0.017-0.223-0.015-0.448-0.093-0.658-0.078-0.211-0.201-0.402-0.359-0.56-0.159-0.159-0.35-0.281-0.56-0.359-0.211-0.079-0.435-0.11-0.659-0.094-0.252 0.015-0.497 0.09-0.713 0.22-0.217 0.129-0.399 0.31-0.53 0.525-0.132 0.216-0.209 0.46-0.225 0.712s0.029 0.504 0.131 0.734l1.114 2.526z" fill="#201e2f"/>
  <path d="m302.36 132.24 1.114 0.409 2.34-1.523v1.894l1.931 1.523c0.406 0.333 0.74 0.745 0.982 1.211 0.243 0.466 0.389 0.976 0.429 1.499l0.074 1.523c2.823 2.34 6.685 3.082 10.064 0.706 0.55-0.367 1.038-0.819 1.448-1.337l1.152 0.408s-2.34 9.841-6.239 11.624c-3.899 1.782-6.61 0-6.61 0-4.085-13.889-2.897-16.489-12.998-12.478l-0.483-2.822z" fill="#ef6767"/>
  <path d="m310.46 127.82-7.353-6.87-0.668 0.854 5.681 10.584z" fill="#4d7ae8"/>
  <path d="m307.78 126.26-2.896-2.042 2.228 4.011-0.409-1.56z" fill="#3366e0"/>
 </g>
 <g mask="url(#mask3)">
  <circle cx="313" cy="205" r="14" fill="#ff82a6"/>
  <path d="m320.91 194.28-0.041 0.12-0.122 0.292-0.041 0.119-0.095 0.213c-2.091 4.87-6.102 8.46-8.759 10.955-2.752 2.572-5.849 4.748-9.202 6.464-3.302 1.585-4.796 0.161-4.427-2.54l0.33-1.355 1.627-6.832 0.07-0.333c1.101-4.452 2.8-7.008 8.325-8.388l8.407-2.063 0.026-0.013c2.936-0.708 4.979 0.28 3.902 3.361z" fill="url(#paint1_linear)"/>
  <path d="m320.04 190.96c-2.667 0.445-7.661 3.653-12.614 8.367-4.952 4.714-8.737 9.917-9.077 12.472 0.468 1.362 1.903 1.786 4.296 0.647 3.353-1.716 6.45-3.892 9.202-6.464 2.657-2.495 6.668-6.085 8.759-10.955l0.095-0.213 0.041-0.119 0.122-0.292 0.041-0.12c0.64-1.806 0.21-2.888-0.865-3.323z" fill="url(#paint2_linear)"/>
  <path d="m312.13 204.22c4.808-4.562 7.999-9.005 7.127-9.924-0.872-0.918-5.476 2.035-10.283 6.597-4.808 4.563-7.999 9.005-7.127 9.924 0.871 0.919 5.476-2.035 10.283-6.597z" fill="#6b3143"/>
  <path d="m311.12 212.14-1.273 0.922c-0.307 0.204-0.564 0.474-0.754 0.791-0.189 0.316-0.305 0.671-0.339 1.038l-0.213 1.663-2.241 2.059c-0.469 0.461-0.746 1.082-0.774 1.739l0.014 1.584s12.252 6.533 18.841 5.361c6.588-1.171 2.578-12.471 2.578-12.471-0.058-0.11-0.146-0.203-0.253-0.267-0.108-0.064-0.231-0.098-0.356-0.097l-1.957-0.136-0.835-2.044c-0.077-0.19-0.2-0.358-0.356-0.489-0.157-0.131-0.344-0.222-0.544-0.265l-5.77-1.219z" fill="#ef6270"/>
  <path d="m311.4 215.55c-1.755-0.334-1.636-0.293-1.136-1.102 0.285-0.499 0.703-0.911 1.208-1.188z" fill="#bd3c53"/>
  <path d="m314.09 199.31c-0.211-0.228-1.979 1.036-3.939 2.858-1.959 1.822-3.371 3.475-3.159 3.703 2.354 3.588 3.925 6.997 4.409 9.678l9.573 1.876c-0.517-8.501-4.491-14.313-6.884-18.115z" fill="#ffb685"/>
  <path d="m317.73 206.87c-0.081-0.302-0.313-0.503-0.52-0.448s-0.309 0.345-0.229 0.647c0.081 0.302 0.313 0.502 0.52 0.447s0.309-0.344 0.229-0.646z" fill="#543247"/>
  <path d="m314.59 208.66c0.149-0.217 0.041-0.551-0.243-0.748s-0.636-0.181-0.786 0.036c-0.149 0.216-0.041 0.551 0.243 0.747 0.284 0.197 0.636 0.181 0.786-0.035z" fill="#543247"/>
  <path d="m316.56 211.6c0.803-0.393 1.538-0.787 1.884-0.691 0.345 0.096 0.194 0.734-0.185 1.45s-0.27 0.398-1.147 0.164c-0.877-0.233-1.167-0.622-0.552-0.923z" fill="#c74153"/>
  <path d="m316.89 211.47-0.616 0.435c0.025 0.253 0.382 0.509 0.834 0.619s0.971 0.154 1.147-0.164l0.162-0.345c-0.225-0.188-0.847-0.646-1.527-0.545z" fill="#a82c3c"/>
  <path d="m318.11 210.91c-0.536 0.185-1.055 0.417-1.55 0.694-0.348 0.17-0.323 0.357-0.164 0.544l1.844-0.837c0.107-0.052-0.024-0.253-0.13-0.401z" fill="#fff"/>
  <path d="m320.44 208.41c0.013-0.039-0.013-0.093 1e-3 -0.133-0.032-0.27-0.147-0.523-0.329-0.725s-0.422-0.342-0.688-0.402c0.065 0.058 0.115 0.129 0.148 0.209 0.032 0.08 0.046 0.166 0.04 0.252-5e-3 0.086-0.031 0.17-0.074 0.244-0.043 0.075-0.103 0.139-0.174 0.187-0.257 0.147-0.545 0.232-0.841 0.246-0.385 0.043-0.756 0.171-1.087 0.373s-0.613 0.474-0.827 0.797c-1.358-0.064-1.831 0.797-2.794 1.269-0.259 0.135-0.539 0.227-0.828 0.273-0.947 0.165-1.103-0.222-1.126-0.742-1.045 0.844-0.389 2.048 0.421 2.348 0.477 0.23 1.117 0.115 1.788-0.412 1.661 0.413 2.249 0.191 3.207-1.372 1.582 0.386 2.599-0.245 2.677-1.71 0.133-0.067 0.247-0.166 0.332-0.289s0.138-0.264 0.154-0.413z" fill="#6b3143"/>
  <path d="m317.27 210.82c1.582 0.385 2.599-0.245 2.678-1.71 0.133-0.067 0.247-0.166 0.331-0.289 0.085-0.123 0.138-0.264 0.154-0.413 0.013-0.04-0.013-0.093 1e-3 -0.133-0.027-0.138-0.071-0.273-0.13-0.4 0.018 0.22-0.046 0.44-0.18 0.616s-0.329 0.296-0.547 0.337c-0.475 1.061-1.435 1.266-2.539 1.044 0 0-1.239 1.735-2.954 1.348-1.207 0.989-2.497 0.858-2.769-0.103-0.025 0.319 0.055 0.637 0.229 0.906 0.173 0.268 0.43 0.472 0.731 0.58 0.477 0.231 1.118 0.116 1.788-0.411 1.661 0.413 2.249 0.191 3.207-1.372z" fill="#5e2737"/>
 </g>
 <path d="m600.2 368.34c2.121 0 4.156-0.843 5.656-2.343 1.501-1.5 2.344-3.535 2.344-5.657v-69.34c-21.07-1.29-39.77 14.23-39.77 14.23l-71 45.77v17.34z" fill="#29cc7a"/>
 <path d="m605.14 335.32c-1.3-2.66-4.29-4.12-7.87-4.24-0.1-0.31-0.2-0.62-0.33-0.92-5.31-12.74-21.53-19.13-45.29-12.56l-48.23 31.1c-1.402 2.033-2.598 4.2-3.57 6.47v13.17h60.78c12.27-1.21 23.8-9.92 29.78-17 2.327-0.18 4.598-0.805 6.69-1.84 6.68-3.26 10.28-9.61 8.04-14.18z" fill="#15ad75"/>
 <path d="m443.92 375.3 31.77 17.7c-0.531 0.527-1.219 0.868-1.959 0.972-0.741 0.105-1.495-0.033-2.151-0.392-1.79-0.71-6.2-4.7-7.93-5.68-2.934-1.425-5.938-2.699-9-3.82-2.924-1.197-5.673-2.785-8.17-4.72-2.09-1.73-2.84-2.36-2.56-4.06z" fill="#000"/>
 <path d="m522.35 309.3c5.86-3.6 6.14-3.51 9.4-9.38s7.33-8.68 12.1-9.36l-5.91 42.91c-12.47 3.6-20.09-2.64-21.79-8.88-1.6-5.88 0.33-11.69 6.2-15.29z" fill="#3442d9"/>
 <path d="m528.21 315c1.56-7 5.92-15.06 11-21.2 1.814-2.225 3.097-4.834 3.754-7.628 0.657-2.795 0.669-5.702 0.036-8.502l-2.12-9.53c-1.487-6.617-0.706-13.542 2.218-19.661 2.924-6.12 7.82-11.078 13.902-14.079 3.505-1.733 7.319-2.753 11.22-3 7.296-0.487 14.496 1.87 20.09 6.578 5.593 4.709 9.146 11.401 9.91 18.672 0.133 1.242 0.19 2.491 0.17 3.74l-0.06 4-0.26 17.18c-0.151 7.761 1.539 15.448 4.93 22.43 1.36 2.766 2.387 5.683 3.06 8.69l-46.62 49.64c-22.15-3.75-36.17-25.22-31.23-47.33z" fill="#3442d9"/>
 <path d="m559.41 363.27h-0.16c-5.28-0.867-10.325-2.809-14.823-5.705-4.499-2.897-8.354-6.687-11.327-11.135-3.088-4.6-5.198-9.786-6.199-15.236-1.001-5.449-0.872-11.046 0.379-16.444 1.44-6.43 5.29-14.11 10.3-20.55 0.163-0.189 0.391-0.31 0.639-0.34s0.498 0.035 0.701 0.18c0.19 0.162 0.314 0.389 0.345 0.637 0.032 0.248-0.031 0.499-0.175 0.703-4.85 6.22-8.57 13.61-9.94 19.78-1.198 5.144-1.325 10.48-0.374 15.675s2.961 10.139 5.904 14.525c2.832 4.229 6.503 7.831 10.784 10.584 4.281 2.752 9.083 4.595 14.106 5.416 0.192 0.083 0.354 0.225 0.462 0.405 0.107 0.18 0.156 0.389 0.138 0.598s-0.101 0.407-0.237 0.566-0.319 0.272-0.523 0.321z" fill="#000"/>
 <path d="m543.06 316.42c-4.33-7.26-6.1-6.34-14-4.25-6.22 1.66-13.52 14.54-3.92 21s29.43 2.56 17.92-16.75z" fill="#3442d9"/>
 <path d="m539.8 322.51c-0.281-2e-3 -0.555-0.086-0.79-0.24-0.159-0.104-0.295-0.238-0.401-0.396-0.107-0.157-0.181-0.334-0.218-0.52s-0.037-0.378 1e-3 -0.564c0.037-0.186 0.112-0.363 0.218-0.52 2.627-3.959 4.564-8.334 5.73-12.94 1.44-4.94 2.69-9.21 8.79-14.2 0.298-0.206 0.662-0.293 1.02-0.243 0.359 0.051 0.685 0.234 0.914 0.514 0.23 0.279 0.345 0.635 0.324 0.997-0.021 0.361-0.177 0.701-0.438 0.952-5.41 4.43-6.49 8.12-7.85 12.79-1.252 4.882-3.314 9.52-6.1 13.72-0.131 0.199-0.309 0.362-0.518 0.475-0.21 0.114-0.444 0.174-0.682 0.175z" fill="#fff"/>
 <path d="m565.58 313.08c-6.3-4.47-8.16-5.65-10.53-5.54s-6.29 0.53-6.29 0.53l1.7 25.18 15.67-0.41z" fill="#ffc619"/>
 <path d="m535 306.63c-0.098-0.333-0.123-0.684-0.072-1.028 0.05-0.344 0.175-0.673 0.365-0.964 0.191-0.291 0.442-0.537 0.737-0.722 0.294-0.184 0.626-0.302 0.97-0.346l10.56-1.49c0.755-0.088 1.516 0.092 2.15 0.509 0.635 0.417 1.102 1.044 1.32 1.771l6 21.94c0.092 0.33 0.112 0.675 0.058 1.013s-0.18 0.661-0.37 0.945c-0.19 0.285-0.439 0.526-0.73 0.705-0.291 0.18-0.618 0.295-0.958 0.337l-10.56 1.5c-0.754 0.089-1.515-0.092-2.149-0.508-0.635-0.417-1.102-1.045-1.321-1.772z" fill="#000"/>
 <path d="m535.49 304.4-1.1 1.38 3.14 0.28z" fill="#000"/>
 <path d="m530.39 319c1.3-2.2 2.54-5 6.17-5.53l0.51 4.58z" fill="#ffc619"/>
 <path d="m534 307.87c-0.1-0.333-0.126-0.685-0.076-1.029 0.05-0.345 0.174-0.674 0.365-0.966 0.19-0.291 0.442-0.538 0.738-0.722 0.295-0.184 0.628-0.301 0.973-0.343l10.56-1.5c0.754-0.086 1.515 0.095 2.149 0.511 0.634 0.417 1.102 1.043 1.321 1.769l6 21.94c0.101 0.334 0.127 0.685 0.077 1.03-0.05 0.344-0.174 0.674-0.365 0.965-0.19 0.292-0.442 0.538-0.738 0.722s-0.628 0.301-0.974 0.343l-10.56 1.49c-0.754 0.091-1.516-0.089-2.151-0.506s-1.102-1.045-1.319-1.774z" fill="#fff"/>
 <g fill="#ffc619">
  <path d="m537.25 316.59-4.29 0.61c-0.875 0.127-1.671 0.579-2.227 1.267s-0.832 1.56-0.773 2.443c0.031 0.449 0.154 0.886 0.363 1.284 0.208 0.399 0.496 0.75 0.846 1.032 0.35 0.281 0.755 0.488 1.189 0.605 0.434 0.118 0.887 0.145 1.332 0.079l3.13-0.44c0.995-0.152 1.912-0.625 2.613-1.347 0.7-0.723 1.146-1.654 1.267-2.653 0.02-0.435-0.06-0.868-0.235-1.267-0.175-0.398-0.441-0.751-0.775-1.03s-0.728-0.477-1.151-0.578c-0.424-0.101-0.865-0.103-1.289-5e-3z"/>
  <path d="m538.73 323-3 0.43c-0.495 0.073-0.97 0.251-1.39 0.523-0.421 0.272-0.779 0.631-1.049 1.053-0.27 0.421-0.447 0.896-0.518 1.392-0.07 0.496-0.034 1.002 0.107 1.482 0.231 0.746 0.72 1.385 1.381 1.801 0.66 0.416 1.447 0.583 2.219 0.469l1.85-0.26c0.995-0.152 1.913-0.625 2.613-1.347 0.701-0.722 1.146-1.654 1.267-2.653 0.024-0.439-0.056-0.877-0.232-1.279-0.176-0.403-0.444-0.759-0.782-1.04-0.338-0.28-0.737-0.478-1.165-0.577-0.428-0.1-0.874-0.097-1.301 6e-3z"/>
  <path d="m547.95 333.84 10.31-1.46-0.45-4.12-10.32 1.46z"/>
  <path d="m545.43 317.15 6.48-0.92c0.314-0.048 0.609-0.181 0.853-0.386 0.243-0.205 0.425-0.472 0.527-0.774l0.59-1.74 0.43-3.49 3.6 12.37-10.57 1.5c-0.972 0.142-1.963-0.054-2.806-0.557s-1.488-1.281-1.824-2.203c-0.121-0.432-0.143-0.885-0.065-1.327 0.078-0.441 0.254-0.859 0.515-1.224 0.261-0.364 0.6-0.666 0.993-0.882s0.829-0.342 1.277-0.367z"/>
  <path d="m547.56 323.67 10.35-1.46-0.52 6.9-7.93 1.12c-0.97 0.148-1.962-0.047-2.805-0.55-0.843-0.504-1.485-1.285-1.815-2.21-0.12-0.432-0.142-0.885-0.064-1.326 0.078-0.442 0.254-0.86 0.515-1.225 0.261-0.364 0.6-0.666 0.993-0.882s0.829-0.341 1.276-0.367z"/>
 </g>
 <path d="m474.48 365.71c-0.34-10.29 8.19-11.91 14-15.58s12.67-11.22 19.83-16.42 13.33-5 25.46-1.26l-13.77 26.9c-7.85 4-9.57 8.38-13.79 14.34s-9.79 8.18-15.48 7.17c-2.92 4.83-3.51 5.94-7.76 4.41s-11.38-4.78-13.33-10.35 0.92-6.6 4.84-9.21z" fill="#66bcff"/>
 <path d="m481.56 382.09h0.06c3.58-0.87 5.06-2.92 7.31-6 0.58-0.8 1.23-1.69 2-2.66 9.9-2 13.92-7.3 16.09-11.1 1-1.77 2.9-3.21 4.73-4.6 1.827-1.216 3.431-2.738 4.74-4.5 0.777-1.275 1.446-2.613 2-4 0.84-1.94 1.44-3.33 2.71-3.65 1.62-0.41 3.37 0.35 5.39 1.24 1.813 0.873 3.733 1.505 5.71 1.88 0.163 0.023 0.328-0.018 0.461-0.115 0.133-0.098 0.222-0.243 0.249-0.405 0.029-0.159-6e-3 -0.323-0.098-0.456-0.092-0.134-0.233-0.225-0.392-0.254-1.874-0.358-3.692-0.96-5.41-1.79-2.23-1-4.15-1.81-6.17-1.3s-2.66 2.28-3.57 4.38c-0.537 1.328-1.182 2.609-1.93 3.83-1.224 1.636-2.723 3.047-4.43 4.17-1.93 1.47-3.93 3-5.07 5-2.24 3.91-6 8.64-15.47 10.52l-0.23 0.05-0.15 0.18c-0.82 1.06-1.53 2-2.15 2.89-2.15 3-3.45 4.77-6.57 5.53-0.16 0.04-0.299 0.141-0.389 0.28-0.089 0.139-0.121 0.307-0.091 0.47 0.046 0.136 0.138 0.252 0.26 0.327 0.123 0.075 0.268 0.105 0.41 0.083z" fill="#45aaf7"/>
 <path d="m523 357.06c-0.25 1e-3 -0.492-0.092-0.677-0.26-0.185-0.169-0.3-0.401-0.323-0.65-0.337-4.196-1.152-8.339-2.43-12.35-0.087-0.129-0.142-0.277-0.162-0.431-0.019-0.155-3e-3 -0.312 0.049-0.459s0.137-0.279 0.249-0.388c0.112-0.108 0.248-0.188 0.397-0.234 0.149-0.047 0.306-0.058 0.46-0.032 0.153 0.025 0.299 0.086 0.425 0.177 0.126 0.092 0.229 0.212 0.301 0.35 0.071 0.138 0.109 0.291 0.111 0.447 1.33 4.165 2.172 8.471 2.51 12.83 1e-3 0.25-0.092 0.492-0.26 0.677-0.169 0.185-0.4 0.301-0.65 0.323z" fill="#000"/>
 <path d="m514.87 393.11c8.69 7.85 16.09 5.68 19.49 5.29s3.12-2.9 3.4-4.94c0.23-1.69 0.46-5.29 0.46-5.29 8.7-0.57 9.77-6.48 9.93-11.75 0.13-4 1.56-6 2.19-9.7v-0.1c10.467-1.896 20.36-6.169 28.916-12.49s15.547-14.522 20.434-23.97l-9.1-6.58-20.19 13.1c-13.66-5-21.24-7.57-28.57-8.12s-14.64 2.35-17 12.51-2.68 13.39-4.88 18.28c-0.58 1.28-1.53 2.9-2.48 4.8-2.72 5.39-5.51 13 0 21.39-0.666 2.588-1.536 5.119-2.6 7.57z" fill="#8cd9ff"/>
 <path d="m584.87 349.49c0.35-6.79-2.32-11.51-7-12.33l11.91-8.16 8.53 3.67c-2.13 6.17-7.79 12.8-13.44 16.82z" fill="#000"/>
 <path d="m531.49 395-0.19-1.21c1.73-0.33 1.88-1.58 2.33-7.44l0.06-0.77 0.44-0.12c3.81-1 6.39-3.24 6.59-11-0.012-3.68 0.726-7.325 2.17-10.71 0.353-0.806 0.64-1.638 0.86-2.49 0.182-0.753 0.409-1.494 0.68-2.22 1.056-2.691 1.36-5.619 0.88-8.47-0.39-3-0.14-4.55 0.86-5.39 1.24-1 3.28-0.65 6.85 0.5l0.46 0.15c5.63 1.83 16.87 5.47 28.23 6.42l-1.42 1.12c-11.05-1.12-21.75-4.58-27.22-6.36l-0.45-0.14c-2.85-0.93-4.9-1.4-5.68-0.75-0.59 0.5-0.72 1.85-0.41 4.25 0.496 3.03 0.172 6.138-0.94 9-0.255 0.688-0.472 1.389-0.65 2.1-0.233 0.913-0.537 1.805-0.91 2.67-1.365 3.261-2.055 6.765-2.03 10.3-0.18 7.1-2.25 10.63-7.1 12.07-0.5 5.78-0.68 7.95-3.41 8.49z" fill="#66bcff"/>
 <path d="m565.42 311.69c2.72-2.38 4.82-2.2 8.18-0.8 3.56-3.18 8.13-3.65 12.93-2 3.55 1.22 12.12 3.73 16.38 5 0.247 0.065 0.507 0.064 0.754-4e-3 0.246-0.067 0.471-0.198 0.651-0.379s0.31-0.406 0.375-0.653c0.066-0.247 0.066-0.507 0-0.754l-3.21-11.45c10.2 7.66 13.54 24 10.37 32.83-3.56 9.9-17.4 8.77-21.88 6.37s-6-3.29-11.16-2.3c-5.33 1-9.24 1.59-15.93-3.54l-4-1.4c-1.6-8.73-0.21-14.98 6.54-20.92z" fill="#3442d9"/>
 <path d="m602.91 314.8h-0.27c-4.63-1.35-12.91-3.78-16.42-5-3.28-1.13-8-1.72-12 1.82l-0.45 0.4-0.55-0.23c-3.08-1.29-4.76-1.49-7.18 0.63-0.194 0.086-0.41 0.107-0.618 0.061-0.207-0.045-0.394-0.156-0.535-0.315-0.14-0.159-0.226-0.359-0.245-0.57-0.019-0.212 0.029-0.424 0.138-0.606 2.95-2.59 5.36-2.47 8.63-1.19 3.61-2.95 8.24-3.58 13.42-1.81 3.47 1.19 11.72 3.61 16.33 5 0.185 0.095 0.335 0.245 0.431 0.429 0.095 0.184 0.131 0.393 0.103 0.598-0.029 0.206-0.12 0.397-0.263 0.548-0.142 0.151-0.327 0.254-0.531 0.295z" fill="#000"/>
 <path d="m563.44 330.21h-0.11c-0.247-0.039-0.471-0.17-0.626-0.366-0.156-0.197-0.232-0.444-0.214-0.694 0.59-4.92 2.32-12.24 10.5-19 0.085-0.133 0.2-0.243 0.336-0.323 0.136-0.079 0.289-0.126 0.446-0.135 0.158-9e-3 0.315 0.019 0.459 0.082 0.145 0.063 0.272 0.159 0.372 0.281 0.101 0.122 0.17 0.265 0.205 0.419 0.034 0.154 0.031 0.314-8e-3 0.466-0.04 0.153-0.114 0.294-0.219 0.412-0.104 0.118-0.235 0.21-0.381 0.268-2.752 2.138-5.04 4.813-6.727 7.863-1.686 3.049-2.735 6.41-3.083 9.877-0.035 0.23-0.149 0.441-0.322 0.596s-0.396 0.245-0.628 0.254z" fill="#000"/>
 <path d="m544.66 308.09c-0.037-0.137-0.044-0.28-0.021-0.42s0.075-0.274 0.154-0.392c0.078-0.119 0.181-0.219 0.301-0.294 0.121-0.076 0.256-0.125 0.396-0.144l0.95-0.14c0.265-0.028 0.531 0.036 0.753 0.182 0.223 0.146 0.388 0.364 0.467 0.618l0.85 3.14c0.037 0.137 0.044 0.279 0.022 0.419-0.022 0.139-0.074 0.272-0.151 0.39-0.078 0.118-0.179 0.219-0.298 0.295s-0.253 0.126-0.393 0.146l-1 0.13c-0.264 0.034-0.531-0.028-0.754-0.175-0.222-0.147-0.384-0.369-0.456-0.625z" fill="#29cc7a"/>
 <path d="m547.56 324.63c-0.206-0.049-0.391-0.163-0.528-0.325-0.137-0.161-0.22-0.362-0.235-0.574-0.016-0.211 0.036-0.422 0.148-0.602s0.279-0.32 0.475-0.399l5.47-0.77c0.142-0.067 0.298-0.1 0.455-0.095 0.157 4e-3 0.311 0.045 0.449 0.12s0.257 0.181 0.346 0.31 0.147 0.277 0.168 0.433c0.022 0.156 6e-3 0.314-0.045 0.462-0.051 0.149-0.137 0.283-0.249 0.392-0.113 0.11-0.25 0.191-0.4 0.237-0.15 0.047-0.309 0.057-0.464 0.031l-5.46 0.77z" fill="#000"/>
 <path d="m534.58 324.75c-0.229 2e-3 -0.452-0.08-0.625-0.232-0.173-0.151-0.285-0.36-0.315-0.588-0.024-0.249 0.046-0.497 0.196-0.697s0.369-0.337 0.614-0.383l3.07-0.43c0.249-0.024 0.498 0.045 0.698 0.195s0.336 0.37 0.382 0.615c0.025 0.249-0.045 0.497-0.195 0.697s-0.369 0.337-0.615 0.383l-3.08 0.43z" fill="#000"/>
 <path d="m573.69 327.45c-0.342 0-0.672-0.122-0.933-0.344-0.26-0.222-0.433-0.529-0.487-0.866-0.804-4.579-2.118-9.054-3.92-13.34-2.27-5.91-4.41-11.49-3.71-19.58 1e-3 -0.199 0.044-0.395 0.125-0.576 0.081-0.182 0.199-0.345 0.346-0.478 0.147-0.134 0.32-0.236 0.508-0.299 0.189-0.064 0.388-0.088 0.586-0.07 0.198 0.017 0.39 0.075 0.565 0.17 0.174 0.095 0.327 0.226 0.449 0.383 0.121 0.157 0.209 0.338 0.257 0.531 0.049 0.192 0.057 0.393 0.024 0.589-0.64 7.43 1.29 12.47 3.53 18.3 1.876 4.473 3.245 9.142 4.08 13.92 0.057 0.377-0.037 0.76-0.262 1.068-0.224 0.307-0.562 0.513-0.938 0.572z" fill="#fff"/>
 <g fill="#000">
  <path d="m551.09 367.78c-0.093 0.013-0.187 0.013-0.28 0-0.234-0.084-0.429-0.253-0.545-0.473-0.117-0.22-0.147-0.476-0.085-0.717 1.79-5.85 2.3-15.72-2.16-24.29-0.106-0.227-0.122-0.486-0.046-0.725s0.239-0.44 0.456-0.565c0.226-0.103 0.483-0.118 0.719-0.042 0.237 0.076 0.437 0.237 0.561 0.452 4.73 9.08 4.19 19.53 2.3 25.72-0.072 0.187-0.198 0.347-0.362 0.461s-0.358 0.177-0.558 0.179z"/>
  <path d="m552.15 353.66c-0.177 2e-3 -0.35-0.047-0.5-0.14-0.108-0.065-0.201-0.15-0.275-0.251-0.074-0.102-0.128-0.217-0.156-0.339-0.029-0.122-0.033-0.248-0.013-0.372 0.021-0.124 0.067-0.242 0.134-0.348 0.968-1.923 1.436-4.059 1.36-6.21-0.053-0.147-0.071-0.305-0.052-0.46 0.02-0.155 0.075-0.304 0.162-0.434s0.203-0.238 0.339-0.315 0.289-0.12 0.445-0.128c0.156-7e-3 0.312 0.022 0.455 0.086s0.268 0.16 0.367 0.281c0.099 0.122 0.168 0.264 0.202 0.417 0.033 0.153 0.031 0.311-8e-3 0.463 0.093 2.534-0.472 5.049-1.64 7.3-0.09 0.136-0.211 0.248-0.354 0.327-0.143 0.078-0.303 0.12-0.466 0.123z"/>
  <path d="m606.29 316c-0.096 0.014-0.194 0.014-0.29 0l-7.09-2.27c-0.175-0.122-0.306-0.297-0.375-0.499-0.068-0.202-0.07-0.421-5e-3 -0.624 0.064-0.204 0.193-0.381 0.365-0.506 0.173-0.126 0.382-0.192 0.595-0.191l7.09 2.27c0.181 0.099 0.327 0.251 0.418 0.436 0.091 0.184 0.123 0.393 0.091 0.596-0.031 0.204-0.125 0.393-0.268 0.541s-0.329 0.248-0.531 0.287z"/>
  <path d="m524.25 314.21c-0.205-6e-3 -0.404-0.076-0.569-0.199-0.164-0.124-0.287-0.295-0.351-0.491-0.058-0.242-0.023-0.497 0.097-0.716 0.12-0.218 0.317-0.383 0.553-0.464l4.81-1.39c0.215 3e-3 0.423 0.075 0.594 0.205s0.295 0.312 0.355 0.518c0.059 0.207 0.051 0.427-0.025 0.628-0.075 0.201-0.213 0.373-0.394 0.489l-4.81 1.39c-0.085 0.021-0.172 0.031-0.26 0.03z"/>
 </g>
 <path d="m443.86 375.19c0.554 0.76 1.169 1.472 1.84 2.13 3.06 3.06 10 6.48 13.78 7.92 2.797 0.924 5.384 2.392 7.61 4.32 2.77 2.21 6.18 5.23 8.6 3.44 1.73-1.27 6-6.06 8.24-9 0.127-0.171 0.211-0.371 0.244-0.581 0.033-0.211 0.015-0.427-0.054-0.629-1.42-3.87-5.68-9.29-11.84-12.12-0.201-0.09-0.423-0.126-0.642-0.103-0.22 0.022-0.429 0.103-0.608 0.233-3.62 2.61-5.84 3.25-8.79 3.23-4.46 0-8.74-2-13.39-3.38-3.85-1.16-4.77 0.73-4.99 4.54z" fill="#ffc619"/>
 <path d="m481.2 387.34c-1.675 2.037-3.518 3.931-5.51 5.66-2.42 1.79-5.83-1.23-8.6-3.44-2.226-1.928-4.813-3.396-7.61-4.32-3.75-1.44-10.72-4.86-13.78-7.92-0.671-0.658-1.286-1.371-1.84-2.13 0.22-3.81 1.09-5.7 5-4.58 3.12 0.89 6.07 2.09 9 2.79 0.856 0.212 1.631 0.671 2.229 1.32 0.597 0.649 0.991 1.459 1.131 2.33 0.17 1 0.32 2 0.48 3.29 5.2-1 10.12 0.65 11.18 7.43 0.01 0 4.45-2.35 8.32-0.43z" fill="#ffe75c"/>
 <path d="m445.7 377.32c-0.638-0.626-1.232-1.294-1.78-2-0.152-0.196-0.221-0.444-0.19-0.69 0.057-0.726 0.229-1.438 0.51-2.11 0.8 1.45 2.11 2.92 5.08 5.1 4.7 3.44 9.94 4.63 13.11 5.74 2.87 1.047 5.485 2.694 7.67 4.83 1.754 1.959 4.051 3.352 6.6 4-0.317 0.306-0.651 0.593-1 0.86-2.42 1.79-5.83-1.23-8.6-3.44-2.227-1.928-4.813-3.396-7.61-4.32-3.76-1.49-10.73-4.91-13.79-7.97z" fill="#ffc619"/>
 <path d="m503.9 381.58c4.9-1.32 9.83 1 14.24 9.26 1.26-0.93 4.29-2 8.92-1.12 4.45 0.85 6.28 2.8 7.06 4.42 0.418 0.881 0.537 1.875 0.34 2.83-0.22 1.18-0.61 2.8-1.2 5.55-0.89 4.12-0.38 7.7-2.74 8.13l-32.06-23.1s-0.87-4.27 5.44-5.97z" fill="#ffc619"/>
 <path d="m503.9 381.58c4.9-1.32 9.83 1 14.24 9.26 0.53 1.09 1.09 2.37 1.65 3.81 5-0.43 7.38 1.76 8.23 6.59 0 0 3.41-2.22 5.4 0.45-0.06 0.27-0.12 0.55-0.18 0.85-0.89 4.12-0.38 7.7-2.74 8.13l-32.06-23.1s-0.85-4.29 5.46-5.99z" fill="#ffe75c"/>
 <path d="m498.51 386.13 2.41-2.13c4.08-0.74 7.49-0.82 11.16 3.3s6 8.56 9.76 11.31c5.52 4 10 5.6 10.73 8.56-0.27 1.89-0.67 3.23-2.05 3.48l-32.06-23.1c-0.071-0.472-0.054-0.954 0.05-1.42z" fill="#ffc619"/>
 <path d="m502.62 382.52-2.3 0.66c-0.4 0.108-0.752 0.348-1 0.68-0.894 1.504-1.247 3.268-1 5l8.4-1.52c-2.83-1.37-3.73-2.64-3.47-4.26 0.011-0.082 1e-3 -0.166-0.028-0.244s-0.077-0.147-0.139-0.203c-0.062-0.055-0.137-0.094-0.217-0.114-0.081-0.019-0.165-0.019-0.246 1e-3z" fill="#ffc619"/>
 <path d="m530.34 410.69c-8.15 1.65-11.79-0.91-15.3-4.58-1.507-1.58-3.227-2.943-5.11-4.05-4.84-2.85-8.65-5.77-11.26-10.47-3.28-5.88 5.37-7.68 10.49-3.38s5.51 9.31 15.69 15.64c6.95 4.33 7.94 6.35 5.49 6.84z" fill="#000"/>
 <path d="m531.04 397.73c0.597-0.03 1.041-0.833 0.993-1.794s-0.57-1.716-1.167-1.686c-0.596 0.03-1.041 0.833-0.993 1.794s0.571 1.716 1.167 1.686z" fill="#fff"/>
 <path d="m443.57 374.07c0.162-0.995 0.501-1.954 1-2.83 0.027-0.044 0.07-0.077 0.12-0.092s0.103-0.01 0.15 0.012l0.14 0.07c0.049 0.024 0.089 0.063 0.113 0.112 0.023 0.049 0.029 0.105 0.017 0.158-0.48 2-0.61 4.24 0.36 5.59-2.17-1.78-1.92-2.72-1.9-3.02z" fill="#ffc619"/>
 <path d="m479.81 382.23c0.303-1.359-0.15-2.616-1.012-2.808-0.863-0.193-1.808 0.752-2.111 2.11-0.303 1.359 0.15 2.616 1.012 2.808 0.863 0.193 1.808-0.752 2.111-2.11z" fill="#fff"/>
 <path d="m203.88 306.93c-1.693-1.089-3.134-2.527-4.227-4.216-1.093-1.69-1.814-3.594-2.113-5.584l-1-6.86c-0.024-0.163-0.106-0.313-0.231-0.421-0.124-0.108-0.284-0.168-0.449-0.169-0.167-2e-3 -0.329 0.057-0.456 0.166-0.127 0.108-0.21 0.259-0.234 0.424l-1 6.86c-0.3 1.99-1.02 3.894-2.113 5.584-1.094 1.689-2.535 3.127-4.227 4.216l-0.89 0.58c-0.096 0.063-0.175 0.149-0.229 0.251-0.054 0.101-0.082 0.214-0.081 0.329 1e-3 0.114 0.03 0.227 0.084 0.328s0.131 0.187 0.226 0.252l0.89 0.57c1.693 1.091 3.134 2.53 4.227 4.222 1.093 1.691 1.813 3.596 2.113 5.588l1 6.85c0.024 0.165 0.107 0.316 0.234 0.424 0.127 0.109 0.289 0.168 0.456 0.166 0.165-1e-3 0.325-0.061 0.449-0.169 0.125-0.108 0.207-0.258 0.231-0.421l1-6.85c0.299-1.992 1.02-3.897 2.113-5.588 1.093-1.692 2.534-3.131 4.227-4.222l0.89-0.57c0.094-0.065 0.172-0.151 0.226-0.252s0.083-0.214 0.084-0.328c1e-3 -0.115-0.027-0.228-0.082-0.329-0.054-0.102-0.132-0.188-0.228-0.251z" fill="#29cc7a"/>
 <path d="m648.26 215.78c-1.691-1.087-3.13-2.521-4.223-4.207-1.093-1.687-1.815-3.586-2.117-5.573l-1-6.85c-0.024-0.165-0.108-0.316-0.235-0.424-0.126-0.109-0.288-0.168-0.455-0.166-0.166 1e-3 -0.325 0.061-0.45 0.169s-0.206 0.258-0.23 0.421l-1 6.85c-0.3 1.992-1.021 3.896-2.114 5.588-1.093 1.691-2.534 3.13-4.226 4.222l-0.89 0.57c-0.095 0.065-0.173 0.151-0.226 0.252-0.054 0.101-0.083 0.214-0.084 0.328 1e-3 0.115 0.03 0.227 0.084 0.328 0.053 0.101 0.131 0.188 0.226 0.252l0.89 0.57c1.692 1.092 3.133 2.531 4.226 4.223 1.093 1.691 1.814 3.596 2.114 5.587l1 6.85c0.024 0.164 0.105 0.313 0.23 0.421 0.125 0.109 0.284 0.168 0.45 0.169 0.167 2e-3 0.329-0.057 0.455-0.165 0.127-0.109 0.211-0.26 0.235-0.425l1-6.85c0.298-1.992 1.018-3.897 2.111-5.589s2.535-3.131 4.229-4.221l0.89-0.57c0.094-0.064 0.172-0.151 0.226-0.252s0.083-0.213 0.084-0.328c-1e-3 -0.114-0.03-0.227-0.084-0.328s-0.132-0.187-0.226-0.252z" fill="#ff78b9"/>
 <path d="m232.76 338.85c-0.936-0.602-1.732-1.397-2.336-2.332-0.603-0.934-1-1.987-1.164-3.088l-0.57-3.79c-0.016-0.089-0.063-0.17-0.132-0.228-0.07-0.059-0.157-0.091-0.248-0.092-0.09-1e-3 -0.177 0.031-0.245 0.09s-0.113 0.141-0.125 0.23l-0.57 3.79c-0.163 1.101-0.56 2.154-1.164 3.088-0.604 0.935-1.4 1.73-2.336 2.332l-0.49 0.32c-0.054 0.034-0.1 0.081-0.131 0.137-0.032 0.056-0.048 0.119-0.049 0.183 1e-3 0.064 0.017 0.127 0.049 0.183 0.031 0.056 0.077 0.103 0.131 0.137l0.49 0.32c0.936 0.602 1.732 1.397 2.336 2.332s1.001 1.987 1.164 3.088l0.57 3.78c0.01 0.091 0.053 0.175 0.122 0.236 0.068 0.061 0.157 0.095 0.248 0.094 0.092-1e-3 0.181-0.035 0.251-0.095 0.069-0.061 0.115-0.144 0.129-0.235l0.57-3.78c0.164-1.101 0.561-2.153 1.164-3.088 0.604-0.935 1.4-1.73 2.336-2.332l0.49-0.32c0.054-0.034 0.097-0.082 0.127-0.138s0.045-0.118 0.043-0.182c2e-3 -0.063-0.013-0.126-0.043-0.182s-0.073-0.104-0.127-0.138z" fill="#ffe75c"/>
 <defs>
  <linearGradient id="paint0_linear" x1="303.18" x2="307.78" y1="319.6" y2="317.86" gradientUnits="userSpaceOnUse">
   <stop stop-color="#61C7C7" offset="0"/>
   <stop stop-color="#54B9C7" offset="1"/>
  </linearGradient>
  <linearGradient id="paint1_linear" x1="309.01" x2="310.25" y1="193.79" y2="208.31" gradientUnits="userSpaceOnUse">
   <stop stop-color="#FFC285" offset="0"/>
   <stop stop-color="#DB8D6B" offset="1"/>
  </linearGradient>
  <linearGradient id="paint2_linear" x1="296.78" x2="322.97" y1="208.66" y2="195.83" gradientUnits="userSpaceOnUse">
   <stop stop-color="#D67569" offset="0"/>
   <stop stop-color="#E39E7F" offset="1"/>
  </linearGradient>
  <mask id="mask0" x="299" y="303" width="28" height="28" mask-type="alpha" maskUnits="userSpaceOnUse">
   <circle cx="313" cy="317" r="14" fill="#c4c4c4"/>
  </mask>
  <mask id="mask1" x="299" y="247" width="28" height="28" mask-type="alpha" maskUnits="userSpaceOnUse">
   <circle cx="313" cy="261" r="14" fill="#c4c4c4"/>
  </mask>
  <mask id="mask2" x="299" y="115" width="28" height="28" mask-type="alpha" maskUnits="userSpaceOnUse">
   <circle cx="313" cy="129" r="14" fill="#c4c4c4"/>
  </mask>
  <mask id="mask3" x="299" y="191" width="28" height="28" mask-type="alpha" maskUnits="userSpaceOnUse">
   <circle cx="313" cy="205" r="14" fill="#c4c4c4"/>
  </mask>
 </defs>
 <path d="m552.61 271.64c1.835-5.2226 0.84365-9.091-0.0843-12.813 2.9603-0.44453 9.093-2.4134 11.771-5.6618 2.6707 2.7742 8.6936 3.8959 13.378 3.2384-0.84678 5.371 0.77584 9.3 1.6985 11.857-5.6 1-9.5923 3.3856-13.025 6.5422-4.7022-2.5989-7.1856-3.0605-13.739-3.1627z" fill="#ffc619"/>
 <g stroke="#000" stroke-linecap="round" stroke-miterlimit="10" stroke-width="2">
  <path d="m564.29 253.17c-2.5-5.6-0.0994-9.9491 0.60065-12.149"/>
  <path d="m552.52 258.83c-3.412-0.42317-5.3868-3.3515-7.0851-5.6757"/>
  <path d="m566.35 274.8c-0.13503 1.8872 0.79165 4.4076 1.9514 5.3122"/>
  <path d="m579.37 268.26c3.7 2.6 9.3 2.2 13.2 1"/>
  <path d="m577.67 256.4c1.4-2.9 4-6.2 6.4-7.3"/>
  <path d="m552.61 271.64c-1.5441 1.1966-5.2106 2.1461-7.0216 1.0554"/>
 </g>
 <path d="m579.61 260.68c0.57655 3.7986 0.73507 9.2074-3.6162 10.846-3.6911 1.8329-7.9559-0.84363-7.9508-4.9956-0.25678-1.9114-0.0524-3.8597 0.38049-5.73" fill="#fff"/>
 <path d="m560.34 259.79c0.51987 3.4458 0.76895 7.9448-2.6685 10.012-3.1655 2.4178-8.2079-0.60729-7.7819-4.5266-0.1406-2.6976-0.10483-5.5974 1.5172-7.8996" fill="#fff"/>
 <path d="m576.8 260.64c0.18735 3.5949 0.72728 9.1272-3.6677 10.417-4.4597 1.0718-4.5755-4.9291-4.5005-7.9671 0.031-1.1462 0.12736-2.2906 0.2878-3.426" fill="#000"/>
 <path d="m558.05 259.51c-0.20628 3.4206 0.91458 8.0824-2.5152 10.193-4.3416 1.8862-6.1163-3.8297-5.4511-7.1251 0.20618-1.512 0.36042-3.3166 1.5682-4.3958" fill="#000"/>
 <g fill="none" stroke-linecap="round">
  <path d="m574.46 262.21c-0.0786 1.2968 0.29894 3.4844-1.3279 3.9837" stroke="#c8c8c8" stroke-width="1.1267"/>
  <path d="m555.67 260.84c-0.14481 1.1709 0.53014 3.3314-0.92551 3.863" stroke="#c8c8c8" stroke-linejoin="round" stroke-width="1.1267"/>
  <path d="m581.97 259.66c-4.3389-0.30357-8.7187-0.51813-13.05 0" stroke="#000" stroke-width="3.3801"/>
  <path d="m558.45 257.34c1.1125 0.76382 4.2768 2.4164 1.0017 1.284-3.0097-0.76378-6.0174-1.5739-9.0898-2.0485" stroke="#000" stroke-linejoin="round" stroke-width="3.3801"/>
 </g>
 <g display="none">
  <g fill="#fff">
   <path d="m339.38 80.16c0-1.82-0.98-2.5-3.48-3.14-1.44-0.38-1.8-0.68-1.8-1.2s0.44-0.88 1.34-0.88c0.96 0 2.1 0.34 3.06 0.88l0.32-2c-0.96-0.42-2.12-0.68-3.38-0.68-2.24 0-3.56 1.18-3.56 2.86 0 1.76 0.98 2.44 3.32 3.04 1.54 0.38 1.96 0.66 1.96 1.34 0 0.64-0.56 1.02-1.6 1.02-1.2 0-2.48-0.46-3.52-1.14l-0.32 2c0.92 0.5 2.36 0.94 3.76 0.94 2.54 0 3.9-1.14 3.9-3.04z"/>
   <path d="m346.44 83-0.3-2.02c-0.22 0.06-0.48 0.08-0.76 0.08-0.92 0-1.26-0.42-1.26-1.2v-4.56h2.26l-0.3-1.96h-1.96v-3.42l-2.38 0.36v3.06h-1.36v1.96h1.36v4.96c0 2.2 1.28 2.9 3.18 2.9 0.7 0 1.14-0.08 1.52-0.16z"/>
   <path d="m348.2 73.34v6.94c0 1.82 0.94 2.92 2.76 2.92 1.28 0 2.32-0.7 3.22-1.56l0.22 1.36h2.04v-9.66h-2.4v6.52c-0.7 0.72-1.46 1.2-2.2 1.2-0.88 0-1.24-0.56-1.24-1.4v-6.32z"/>
   <path d="m360.82 78.3c0-2.12 0.9-3.14 2.16-3.14 0.82 0 1.28 0.14 1.88 0.42v4.14c-0.64 0.82-1.32 1.34-2.2 1.34-1.06 0-1.84-0.88-1.84-2.76zm-2.42 0.14c0 3.26 1.62 4.76 3.64 4.76 1.34 0 2.28-0.72 2.96-1.54l0.2 1.34h2.06v-14.44l-2.4 0.38v4.66c-0.58-0.2-1.32-0.36-2.24-0.36-2.24 0-4.22 1.6-4.22 5.2z"/>
   <path d="m370.72 86.64c1.74 0 2.86-0.7 3.68-3.02l3.7-10.28h-2.42l-2.16 6.8-2.2-6.94-2.5 0.32 3.5 9.46-0.08 0.28c-0.32 1.04-0.96 1.4-1.76 1.4-0.42 0-0.76-0.06-1.06-0.14l0.32 2.02c0.22 0.06 0.46 0.1 0.98 0.1z"/>
   <path d="m384.31 78.4v-2.32h-5.2v2.32z"/>
   <path d="m391.7 76.48c0 1.06-0.64 1.84-1.7 1.84-1.04 0-1.68-0.76-1.68-1.76 0-1.06 0.62-1.88 1.68-1.88 1.02 0 1.7 0.78 1.7 1.8zm3.42 6.92c0-1.48-1.24-2.1-3.22-2.38l-1.24-0.12c-1.5-0.22-1.8-0.3-1.8-0.62 0-0.16 0.16-0.34 0.4-0.52 0.24 0.04 0.5 0.06 0.78 0.06 2.08 0 3.86-1.24 3.86-3.32 0-0.44-0.08-0.88-0.26-1.26l1.76-0.12-0.32-1.92-2.36 0.84c-0.7-0.58-1.62-0.9-2.74-0.9-2.16 0-3.88 1.3-3.88 3.42 0 1.28 0.68 2.28 1.82 2.82-0.8 0.48-1.22 1-1.22 1.54 0 0.38 0.18 0.74 0.56 1.04-1.2 0.68-1.82 1.38-1.82 2.28 0 1.6 1.98 2.4 4.6 2.4 2.8 0 5.08-1.16 5.08-3.24zm-4.92 1.82c-1.82 0-2.68-0.52-2.68-1.24 0-0.5 0.32-0.96 1.02-1.46 0.48 0.1 0.78 0.16 1.44 0.24l1.3 0.16c1.2 0.18 1.62 0.48 1.62 1 0 0.72-0.98 1.3-2.7 1.3z"/>
   <path d="m402.65 75.52-0.38-2.38c-1.5 0.08-2.46 1.02-3.1 2.14l-0.3-1.94h-2.04v9.66h2.4v-5.54c0.7-1.04 1.92-1.84 3.42-1.94z"/>
   <path d="m412.52 78.16c0-3.14-1.92-5.02-4.56-5.02-2.62 0-4.54 1.9-4.54 5.04s1.9 5.02 4.52 5.02c2.64 0 4.58-1.9 4.58-5.04zm-2.34 0.02c0 1.8-0.76 3.06-2.24 3.06-1.4 0-2.18-1.3-2.18-3.08s0.76-3.06 2.18-3.06c1.44 0 2.24 1.3 2.24 3.08z"/>
   <path d="m414.43 73.34v6.94c0 1.82 0.94 2.92 2.76 2.92 1.28 0 2.32-0.7 3.22-1.56l0.22 1.36h2.04v-9.66h-2.4v6.52c-0.7 0.72-1.46 1.2-2.2 1.2-0.88 0-1.24-0.56-1.24-1.4v-6.32z"/>
   <path d="m431.55 78.04c0 2.12-0.94 3.14-2.18 3.14-0.82 0-1.28-0.14-1.86-0.42v-4.14c0.64-0.82 1.32-1.36 2.18-1.36 1.08 0 1.86 0.92 1.86 2.78zm2.42-0.14c0-3.24-1.62-4.76-3.64-4.76-1.34 0-2.28 0.74-2.96 1.52l-0.22-1.32h-2.04v13.38l2.4-0.36v-3.64c0.58 0.22 1.32 0.38 2.24 0.38 2.22 0 4.22-1.6 4.22-5.2z"/>
  </g>
  <g fill="#dcddde">
   <path d="m370.71 139.96h-1.568l-2.416 8.672-2.816-8.672h-1.504l-2.816 8.672-2.464-8.784-1.504 0.32 3.264 10.88h1.248l2.992-8.992 2.992 8.992h1.264z"/>
   <path d="m378.61 151v-5.552c0-1.376-0.768-2.24-2.208-2.24-1.088 0-1.968 0.608-2.592 1.168v-4.928l-1.424 0.224v11.328h1.424v-5.28c0.688-0.736 1.456-1.232 2.208-1.232 0.832 0 1.168 0.528 1.168 1.312v5.2z"/>
   <path d="m387.45 147.19c0-2.512-1.504-3.984-3.552-3.984-2.032 0-3.504 1.472-3.504 3.984s1.472 3.968 3.504 3.968c2.048 0 3.552-1.456 3.552-3.968zm-1.44 0c0 1.6-0.704 2.784-2.112 2.784-1.344 0-2.064-1.216-2.064-2.784 0-1.6 0.688-2.8 2.064-2.8s2.112 1.232 2.112 2.8z"/>
   <path d="m390.93 139.96h-1.648l-0.464 3.536 0.8 0.192z"/>
   <path d="m397.57 148.87c0-1.456-0.848-2-2.736-2.48-1.2-0.304-1.584-0.592-1.584-1.104 0-0.544 0.448-0.88 1.312-0.88 0.8 0 1.648 0.272 2.32 0.656l0.224-1.344c-0.72-0.32-1.568-0.512-2.512-0.512-1.664 0-2.688 0.896-2.688 2.112 0 1.36 0.72 1.904 2.512 2.352 1.376 0.336 1.808 0.592 1.808 1.296 0 0.64-0.576 1.008-1.552 1.008-1.04 0-1.968-0.384-2.688-0.88l-0.208 1.344c0.656 0.368 1.776 0.72 2.784 0.72 1.968 0 3.008-0.896 3.008-2.288z"/>
   <path d="m407.01 145.85c0 0.912-0.608 1.632-1.584 1.632-0.944 0-1.552-0.688-1.552-1.568 0-0.928 0.592-1.664 1.552-1.664 0.944 0 1.584 0.688 1.584 1.6zm2.272 5.712c0-1.184-1.008-1.696-2.624-1.984l-0.544-0.096c-1.344-0.24-1.616-0.304-1.616-0.576 0-0.144 0.16-0.32 0.384-0.464 0.192 0.032 0.384 0.048 0.576 0.048 1.552 0 2.928-0.992 2.928-2.624 0-0.432-0.096-0.832-0.304-1.184l1.456-0.144-0.208-1.28-1.936 0.592c-0.528-0.416-1.2-0.64-1.968-0.64-1.552 0-2.928 1.008-2.928 2.656 0 1.04 0.576 1.84 1.424 2.272-0.512 0.304-0.8 0.672-0.8 1.04 0 0.288 0.144 0.56 0.48 0.8-1.072 0.576-1.616 1.184-1.616 1.968 0 1.344 1.584 1.968 3.568 1.968s3.728-0.752 3.728-2.352zm-3.664 1.328c-1.488 0-2.272-0.448-2.272-1.056 0-0.528 0.4-0.976 1.296-1.424 0.304 0.064 0.528 0.112 0.944 0.192l0.912 0.16c1.088 0.192 1.44 0.512 1.44 0.976 0 0.64-0.832 1.152-2.32 1.152z"/>
   <path d="m417.4 147.19c0-2.512-1.504-3.984-3.552-3.984-2.032 0-3.504 1.472-3.504 3.984s1.472 3.968 3.504 3.968c2.048 0 3.552-1.456 3.552-3.968zm-1.44 0c0 1.6-0.704 2.784-2.112 2.784-1.344 0-2.064-1.216-2.064-2.784 0-1.6 0.688-2.8 2.064-2.8s2.112 1.232 2.112 2.8z"/>
   <path d="m422.88 151.03-0.192-1.216c-0.176 0.032-0.4 0.048-0.656 0.048-0.8 0-1.056-0.384-1.056-1.008v-4.288h1.84l-0.192-1.2h-1.648v-2.752l-1.392 0.208v2.544h-1.152v1.2h1.152v4.544c0 1.536 0.88 2.016 2.224 2.016 0.496 0 0.832-0.048 1.072-0.096z"/>
   <path d="m434.34 151v-5.552c0-1.376-0.768-2.24-2.208-2.24-1.088 0-1.984 0.608-2.704 1.264l-0.176-1.104h-1.136v7.632h1.424v-5.28c0.688-0.736 1.456-1.232 2.208-1.232 0.832 0 1.168 0.528 1.168 1.312v5.2z"/>
   <path d="m443.18 147.19c0-2.512-1.504-3.984-3.552-3.984-2.032 0-3.504 1.472-3.504 3.984s1.472 3.968 3.504 3.968c2.048 0 3.552-1.456 3.552-3.968zm-1.44 0c0 1.6-0.704 2.784-2.112 2.784-1.344 0-2.064-1.216-2.064-2.784 0-1.6 0.688-2.8 2.064-2.8s2.112 1.232 2.112 2.8z"/>
   <path d="m448.66 151.03-0.192-1.216c-0.176 0.032-0.4 0.048-0.656 0.048-0.8 0-1.056-0.384-1.056-1.008v-4.288h1.84l-0.192-1.2h-1.648v-2.752l-1.392 0.208v2.544h-1.152v1.2h1.152v4.544c0 1.536 0.88 2.016 2.224 2.016 0.496 0 0.832-0.048 1.072-0.096z"/>
   <path d="m453.23 144.33c1.104 0 1.648 0.704 1.824 1.936h-3.68c0.224-1.296 0.976-1.936 1.856-1.936zm3.248 5.808-0.208-1.28c-0.832 0.656-1.632 1.088-2.736 1.088-1.328 0-2.16-0.832-2.224-2.608h5.184v-0.304c0-2.112-1.024-3.824-3.248-3.824-1.92 0-3.36 1.504-3.36 3.952 0 2.8 1.552 4 3.536 4 1.264 0 2.24-0.384 3.056-1.024z"/>
   <path d="m463.64 148.87c0-1.456-0.848-2-2.736-2.48-1.2-0.304-1.584-0.592-1.584-1.104 0-0.544 0.448-0.88 1.312-0.88 0.8 0 1.648 0.272 2.32 0.656l0.224-1.344c-0.72-0.32-1.568-0.512-2.512-0.512-1.664 0-2.688 0.896-2.688 2.112 0 1.36 0.72 1.904 2.512 2.352 1.376 0.336 1.808 0.592 1.808 1.296 0 0.64-0.576 1.008-1.552 1.008-1.04 0-1.968-0.384-2.688-0.88l-0.208 1.344c0.656 0.368 1.776 0.72 2.784 0.72 1.968 0 3.008-0.896 3.008-2.288z"/>
   <path d="m472.52 140.87-0.208-1.296c-0.192-0.016-0.384-0.032-0.608-0.032-1.36 0-2.368 0.576-2.368 2.096v1.728h-1.152v1.2h1.152v6.432h1.392v-6.432h1.712l-0.176-1.2h-1.536v-1.584c0-0.704 0.4-0.976 1.056-0.976 0.288 0 0.576 0.032 0.736 0.064z"/>
   <path d="m478.14 144.57-0.224-1.36c-1.248 0.064-2.128 0.848-2.672 1.712l-0.24-1.552h-1.136v7.632h1.424v-4.512c0.512-1.008 1.584-1.856 2.848-1.92z"/>
   <path d="m485.95 147.19c0-2.512-1.504-3.984-3.552-3.984-2.032 0-3.504 1.472-3.504 3.984s1.472 3.968 3.504 3.968c2.048 0 3.552-1.456 3.552-3.968zm-1.44 0c0 1.6-0.704 2.784-2.112 2.784-1.344 0-2.064-1.216-2.064-2.784 0-1.6 0.688-2.8 2.064-2.8s2.112 1.232 2.112 2.8z"/>
   <path d="m498.59 151v-5.552c0-1.376-0.704-2.24-2.16-2.24-1.072 0-2 0.608-2.688 1.264-0.288-0.784-0.896-1.264-2.016-1.264-1.072 0-1.936 0.608-2.656 1.264l-0.176-1.104h-1.136v7.632h1.424v-5.28c0.688-0.736 1.408-1.232 2.16-1.232 0.832 0 1.12 0.528 1.12 1.312v5.2h1.424v-5.28c0.688-0.736 1.408-1.232 2.16-1.232 0.832 0 1.12 0.528 1.12 1.312v5.2z"/>
   <path d="m362.34 171v-5.552c0-1.376-0.768-2.24-2.208-2.24-1.088 0-1.968 0.608-2.592 1.168v-4.928l-1.424 0.224v11.328h1.424v-5.28c0.688-0.736 1.456-1.232 2.208-1.232 0.832 0 1.168 0.528 1.168 1.312v5.2z"/>
   <path d="m366.28 160.94c0-0.496-0.4-0.912-0.896-0.912s-0.912 0.416-0.912 0.912 0.416 0.896 0.912 0.896 0.896-0.4 0.896-0.896zm-0.192 10.064v-7.632h-1.424v7.632z"/>
   <path d="m373.78 168.87c0-1.456-0.848-2-2.736-2.48-1.2-0.304-1.584-0.592-1.584-1.104 0-0.544 0.448-0.88 1.312-0.88 0.8 0 1.648 0.272 2.32 0.656l0.224-1.344c-0.72-0.32-1.568-0.512-2.512-0.512-1.664 0-2.688 0.896-2.688 2.112 0 1.36 0.72 1.904 2.512 2.352 1.376 0.336 1.808 0.592 1.808 1.296 0 0.64-0.576 1.008-1.552 1.008-1.04 0-1.968-0.384-2.688-0.88l-0.208 1.344c0.656 0.368 1.776 0.72 2.784 0.72 1.968 0 3.008-0.896 3.008-2.288z"/>
   <path d="m379.19 171.03-0.192-1.216c-0.176 0.032-0.4 0.048-0.656 0.048-0.8 0-1.056-0.384-1.056-1.008v-4.288h1.84l-0.192-1.2h-1.648v-2.752l-1.392 0.208v2.544h-1.152v1.2h1.152v4.544c0 1.536 0.88 2.016 2.224 2.016 0.496 0 0.832-0.048 1.072-0.096z"/>
   <path d="m387.48 167.19c0-2.512-1.504-3.984-3.552-3.984-2.032 0-3.504 1.472-3.504 3.984s1.472 3.968 3.504 3.968c2.048 0 3.552-1.456 3.552-3.968zm-1.44 0c0 1.6-0.704 2.784-2.112 2.784-1.344 0-2.064-1.216-2.064-2.784 0-1.6 0.688-2.8 2.064-2.8s2.112 1.232 2.112 2.8z"/>
   <path d="m393.56 164.57-0.224-1.36c-1.248 0.064-2.128 0.848-2.672 1.712l-0.24-1.552h-1.136v7.632h1.424v-4.512c0.512-1.008 1.584-1.856 2.848-1.92z"/>
   <path d="m395.57 173.91c1.12 0 1.952-0.416 2.576-2.112l3.12-8.432h-1.488l-2 5.936-2.048-6.048-1.44 0.224 2.784 7.552-0.192 0.512c-0.304 0.816-0.736 1.12-1.376 1.12-0.224 0-0.512-0.048-0.752-0.112l0.208 1.296c0.144 0.032 0.304 0.064 0.608 0.064z"/>
   <path d="m409.94 171.03-0.192-1.216c-0.176 0.032-0.4 0.048-0.656 0.048-0.8 0-1.056-0.384-1.056-1.008v-4.288h1.84l-0.192-1.2h-1.648v-2.752l-1.392 0.208v2.544h-1.152v1.2h1.152v4.544c0 1.536 0.88 2.016 2.224 2.016 0.496 0 0.832-0.048 1.072-0.096z"/>
   <path d="m418.23 167.19c0-2.512-1.504-3.984-3.552-3.984-2.032 0-3.504 1.472-3.504 3.984s1.472 3.968 3.504 3.968c2.048 0 3.552-1.456 3.552-3.968zm-1.44 0c0 1.6-0.704 2.784-2.112 2.784-1.344 0-2.064-1.216-2.064-2.784 0-1.6 0.688-2.8 2.064-2.8s2.112 1.232 2.112 2.8z"/>
   <path d="m421.05 167.34c0-1.888 0.864-2.864 2.064-2.864 0.816 0 1.28 0.128 1.872 0.432v3.648c-0.608 0.816-1.28 1.344-2.16 1.344-1.024 0-1.776-0.88-1.776-2.56zm-1.44 0.064c0 2.56 1.36 3.76 3.008 3.76 1.12 0 1.904-0.576 2.48-1.264l0.176 1.104h1.136v-11.552l-1.424 0.224v3.936c-0.48-0.192-1.168-0.336-1.92-0.336-1.856 0-3.456 1.344-3.456 4.128z"/>
   <path d="m433 168.9c-0.64 0.656-1.44 1.072-2.272 1.072-0.72 0-1.136-0.4-1.136-1.024 0-0.784 0.592-1.552 3.408-1.824zm1.424 2.096v-5.344c0-1.696-0.896-2.448-2.752-2.448-1.184 0-2.048 0.272-2.96 0.64l0.192 1.232c0.832-0.368 1.712-0.656 2.64-0.656 0.88 0 1.456 0.336 1.456 1.296v0.32c-3.184 0.336-4.816 1.088-4.816 2.992 0 1.296 0.864 2.128 2.24 2.128 1.248 0 2.08-0.56 2.688-1.184l0.16 1.024z"/>
   <path d="m437.04 173.91c1.12 0 1.952-0.416 2.576-2.112l3.12-8.432h-1.488l-2 5.936-2.048-6.048-1.44 0.224 2.784 7.552-0.192 0.512c-0.304 0.816-0.736 1.12-1.376 1.12-0.224 0-0.512-0.048-0.752-0.112l0.208 1.296c0.144 0.032 0.304 0.064 0.608 0.064z"/>
   <path d="m446.11 167.72 0.928-0.208 0.144-1.584c1.904-0.864 3.056-1.616 3.056-3.344 0-1.744-1.328-2.832-3.28-2.832-1.312 0-2.448 0.464-3.424 1.184l0.208 1.472c0.896-0.736 1.888-1.296 3.136-1.296 1.072 0 1.856 0.56 1.856 1.536 0 1.024-0.672 1.536-2.176 2.16l-0.656 0.272zm-0.336 3.28h1.6v-1.904h-1.6z"/>
  </g>
 </g>
 <g letter-spacing="0px" word-spacing="0px">
  <g font-family="'Franklin Gothic Heavy'" font-size="12px">
   <text x="330.94278" y="83.09507" fill="#ffffff" style="line-height:1.25" xml:space="preserve"><tspan x="330.94278" y="83.09507" font-family="Helvetica" font-size="17.333px" font-weight="bold">instructor-group</tspan></text>
   <text x="356.0896" y="318.65952" fill="#2ddfb4" style="line-height:1.25" xml:space="preserve"><tspan x="356.0896" y="318.65952" fill="#2ddfb4" font-family="Helvetica" font-size="16px" font-weight="bold">Kin</tspan></text>
   <text x="355.1561" y="129.23001" fill="#fdd171" style="line-height:1.25" xml:space="preserve"><tspan x="355.1561" y="129.23001" fill="#fdd171" font-family="Helvetica" font-size="16px" font-weight="bold">Spencer</tspan></text>
   <text x="354.49951" y="205.14407" fill="#ffa78b" style="line-height:1.25" xml:space="preserve"><tspan x="354.49951" y="205.14407" fill="#ffa78b" font-family="Helvetica" font-size="16px" font-weight="bold">Kyle</tspan></text>
   <text x="356.29309" y="261.06213" fill="#bed3ff" style="line-height:1.25" xml:space="preserve"><tspan x="356.29309" y="261.06213" fill="#bed3ff" font-family="Helvetica" font-size="16px" font-weight="bold">Ayce</tspan></text>
   <text x="355.55457" y="174.75839" fill="#000000" style="line-height:1.25" xml:space="preserve"><tspan x="355.55457" y="185.69778"/></text>
  </g>
  <text x="354.79791" y="150.88814" fill="#dcddde" font-family="Helvetica" font-size="13.333px" stroke="#dcddde" stroke-width=".1" style="line-height:1.25" xml:space="preserve"><tspan x="354.79791" y="150.88814">Who has notes for</tspan><tspan x="354.79791" y="167.93709">today's lecture?</tspan></text>
  <text x="76.69278" y="136.63506" fill="#ffffff" font-family="'Franklin Gothic Heavy'" font-size="12px" style="line-height:1.25" xml:space="preserve"><tspan x="76.69278" y="136.63506" font-family="Helvetica" font-size="17.333px" font-weight="bold">instructor-group</tspan></text>
  <g fill="#dcddde" font-family="'Franklin Gothic Heavy'" font-size="12px" stroke="#dcddde" stroke-width=".1">
   <text x="354.78772" y="226.91736" style="line-height:1.25" xml:space="preserve"><tspan x="354.78772" y="226.91736" fill="#dcddde" font-family="Helvetica" font-size="13.333px" stroke="#dcddde" stroke-width=".1">I never take notes</tspan></text>
   <text x="354.70279" y="283.03949" style="line-height:1.25" xml:space="preserve"><tspan x="354.70279" y="283.03949" fill="#dcddde" font-family="Helvetica" font-size="13.333px" stroke="#dcddde" stroke-width=".1">me neither</tspan></text>
   <text x="355.44135" y="338.85205" style="line-height:1.25" xml:space="preserve"><tspan x="355.44135" y="338.85205" fill="#dcddde" font-family="Helvetica" font-size="13.333px" stroke="#dcddde" stroke-width=".1">we take notes?</tspan></text>
  </g>
 </g>
</svg>
