<svg width="240" height="464" version="1.1" viewBox="0 0 63.5 122.77" xmlns="http://www.w3.org/2000/svg">
 <g transform="translate(0 36.248)">
  <g transform="matrix(.26458 0 0 .26458 -.6917 -22.566)" fill="none">
   <path d="m30.35 206.9s1.38-11.79 18-13.62c12.09-1.32 19.16-16.81 19.16-16.81s4.6 16.36-8.48 25.24c0 0 10.71 1.14 12.66-6.68 0 0 1.87 14-15.88 21.08-5.1231 2.034-9.7047 5.228-13.385 9.332-3.6802 4.103-6.3587 9.004-7.8251 14.318z" fill="#bd94fa"/>
   <path d="m38 226.34c1.73-4.27 8.28-12.89 18.27-16.87l0.47-0.2c-3.11-1.08-12.39-0.62-12.39-0.62 4.79 0 12.09-13.42 12.09-13.42-3.39 5-7.52 2.13-11.82 2.49-8 0.66-8.06 7.36-8.06 7.36z" fill="#b78afa"/>
   <path d="m28.91 195.7 20.17 156.04" stroke="#e08055" stroke-linecap="round" stroke-miterlimit="10" stroke-width="4"/>
  </g>
 </g>
 <g transform="translate(-111.88,-108.64)" fill="none">
  <g transform="matrix(.26458 0 0 .26458 111.88 108.64)">
   <g fill="#fff">
    <path d="m0 393.63v-127.63s19-1 27 29c0 0 14-23 33 3 0 0 6-9 11 6 0 0 15-20 25 9v76z" opacity=".16"/>
    <path d="m14.77 241.27-0.6 1.58 1.58-0.6 1.58 0.6h0.05l-0.61-1.58 0.61-1.58h-0.05l-1.58 0.61-1.58-0.61z" opacity=".33"/>
    <path d="m122.91 216 1.13 2.55c5e-3 0.011 0.012 0.02 0.022 0.026 0.01 7e-3 0.021 0.01 0.033 0.01s0.023-3e-3 0.033-0.01c0.01-6e-3 0.017-0.015 0.022-0.026l1.13-2.55 2.56-1.13c8e-3 -7e-3 0.015-0.015 0.02-0.024 4e-3 -0.01 7e-3 -0.02 7e-3 -0.031s-3e-3 -0.021-7e-3 -0.031c-5e-3 -9e-3 -0.012-0.017-0.02-0.024l-2.56-1.13-1.13-2.63c-7e-3 -8e-3 -0.015-0.015-0.024-0.02-0.01-4e-3 -0.02-7e-3 -0.031-7e-3s-0.021 3e-3 -0.031 7e-3c-9e-3 5e-3 -0.017 0.012-0.024 0.02l-1.13 2.56-2.55 1.13c-0.011 5e-3 -0.02 0.012-0.026 0.022-7e-3 0.01-0.01 0.021-0.01 0.033s3e-3 0.023 0.01 0.033c6e-3 0.01 0.015 0.017 0.026 0.022l2.55 1.13z" opacity=".39"/>
    <path d="m52.91 266 1.09 2.52c0.0047 0.011 0.0124 0.02 0.0221 0.026 0.0098 7e-3 0.0212 0.01 0.0329 0.01s0.0231-3e-3 0.0329-0.01c0.0097-6e-3 0.0174-0.015 0.0221-0.026l1.17-2.52 2.56-1.13c0.0083-7e-3 0.015-0.015 0.0197-0.024 0.0046-0.01 7e-3 -0.02 7e-3 -0.031s-0.0024-0.021-7e-3 -0.031c-0.0047-9e-3 -0.0114-0.017-0.0197-0.024l-2.56-1.13-1.13-2.63c-0.0066-8e-3 -0.0149-0.015-0.0244-0.02-0.0096-4e-3 -0.02-7e-3 -0.0306-7e-3s-0.021 3e-3 -0.0306 7e-3c-0.0095 5e-3 -0.0179 0.012-0.0244 0.02l-1.13 2.56-2.55 1.13c-0.0107 5e-3 -0.0198 0.012-0.0262 0.022s-0.0098 0.021-0.0098 0.033 0.0034 0.023 0.0098 0.033 0.0155 0.017 0.0262 0.022l2.55 1.13z" opacity=".39"/>
   </g>
   <path d="m30 351s-27-2-24 35c-1.2349-3.207-3.3068-6.025-6-8.16v27.1h75v-77.94c-1 0-34-22-45 24z" fill="#54a18a"/>
   <path d="m30 351s-27-2-24 35c-1.2349-3.207-3.3068-6.025-6-8.16v9.48c3.2056 0.647 6.2596 1.895 9 3.68 0.13-1.7 0.3-3.32 0.5-4.86 1.58-2.58 6.69-10.14 12.5-10.14 0 0-5.83-2.58-10.19-1 6.39-21.07 20.19-19 20.19-19 9-21 39-13 39-13l3-7 1-1.33v-7.67c-1 0-34-22-45 24z" fill="#5eb58b"/>
   <path d="m187 206 9-18 20-10 10-32 14-9v59.85z" fill="#bf6974"/>
   <path d="m40 415-40-10 3-7 53-24 25.06-67.46 3.59-2.39 15.35 0.85 35-15 11-35 2-12 15-11 3-17 7-12 67-15v222.65z" fill="#874a52"/>
   <path d="m0 406v58h240v-59z" fill="#964b55"/>
   <path d="m0 464h74l-3-37-23-14h-48z" fill="#964b55"/>
   <path d="m32 464 2-20-20-17-7-15 25 1c1.54-2.05 42.43 25.53 42 23l-3-5 3 9-1 14.5-4 9.5z" fill="#9e525c"/>
   <path d="m198 194 21-5s3-16 11-10c0 0 5-17.56 10-18.28v29.28l-41 10z" fill="#5eb58b"/>
   <g fill="#57a58e">
    <path d="m195 205c6.627 0 12-5.373 12-12s-5.373-12-12-12-12 5.373-12 12 5.373 12 12 12z"/>
    <path d="m207 176c-1.85 5.71-13.5 6.16-13.5 6.16s-6.26-7.15-4.41-12.86 6.82-9.21 11.1-7.83 8.66 8.82 6.81 14.53z"/>
    <path d="m213 161.45c-2.72 4.06-11.7 2.83-11.7 2.83s-4.58-7.82-1.86-11.89 7.95-5.34 11.7-2.84 4.6 7.83 1.86 11.9z"/>
    <path d="m203.91 143.18c2.54 3.1-0.56 9.85-0.56 9.85s-7.22 1.73-9.76-1.37-2.3-7.51 0.55-9.85 7.22-1.73 9.77 1.37z"/>
    <path d="m186.77 165.42c2.9 1.37 3 7.31 3 7.31s-4.63 3.72-7.52 2.35-5.17-5.69-3.91-8.36 5.54-2.67 8.43-1.3z"/>
   </g>
   <path d="m207 193c-2e-3 -2.588-0.84-5.106-2.39-7.178-1.55-2.073-3.728-3.589-6.21-4.322 3.42-0.74 7.56-2.29 8.6-5.5 1.25-3.86-0.35-8.51-2.84-11.54 2.87 0 7.14-0.42 8.87-3 0.979-1.408 1.529-3.07 1.584-4.784s-0.387-3.408-1.274-4.876c-0.72 2-1.46 4.37-1.92 5.83-0.132 0.434-0.361 0.832-0.669 1.164-0.309 0.333-0.688 0.591-1.111 0.756l-8.64 3.45 3 7-2 5-5 3-1 5 0.32 2.59c0.085 0.677 0.025 1.364-0.175 2.016-0.201 0.652-0.538 1.253-0.989 1.765-0.452 0.512-1.006 0.922-1.628 1.202-0.622 0.281-1.296 0.427-1.978 0.427h-3.55v5s-2.09 1-3.93 1.94c0.703 1.557 1.731 2.946 3.014 4.074 1.283 1.127 2.792 1.968 4.426 2.466l12.35-3.41c2.015-2.205 3.134-5.083 3.14-8.07z" fill="#4f967c"/>
   <path d="m142 412-29 5-11 2-11.49-2-17.51 29 15.73 18h74.67l-4.4-30-5-10 7-2 3-6 8-7-19 1z" fill="#a1525c"/>
   <path d="m240 190v212l-174 1 35-20 64-56 26-81 12-9c0.56-0.42 0.18-6.31 0.54-6.9l5.46-9.1-1-9 3-10.14z" fill="#784060" opacity=".53"/>
   <path d="m41 412-16 1 9 19c1.62 3.25 12.55 5.71 11 9l12 15-4 8h59s-32-7-25-8c1.4-0.2 1-15 1-15l1-10 6-2 7-9-37.38-5.39z" fill="#ab5964"/>
   <path d="m78.67 419c-1.9217 2.019-3.1361 4.607-3.4607 7.375s0.2582 5.567 1.6607 7.975l2.13 3.65 6 10-1.19 5.93c-0.2328 1.171-0.074 2.386 0.4519 3.457 0.5258 1.072 1.3896 1.941 2.4581 2.473l5.28 1.14 11 3h11l-16-6-8-4 1-7 4-5s-0.71-8.86 1-10l3-2 10-11z" fill="#b36570"/>
   <path d="m163.04 408.84 70.96-2.84-13 33-72-1-3-17z" fill="#964a54"/>
   <path d="m179.7 166c0.961-0.598 1.646-1.553 1.904-2.655 0.259-1.102 0.07-2.262-0.524-3.225l-7.26 4.5c0.598 0.961 1.553 1.645 2.655 1.904s2.262 0.07 3.225-0.524z" fill="#c9547e"/>
   <path d="m173 203 67-15v4.21l-18.44 6c-1.647 0.531-3.03 1.668-3.87 3.18l-1.55 2.8c-0.637 1.148-1.593 2.087-2.751 2.704-1.159 0.618-2.471 0.887-3.779 0.776l-6-0.5c-1.053-0.085-2.11 0.076-3.09 0.47l-8.52 3.36-5.06 2.25c-1.178 0.525-2.481 0.704-3.757 0.519-1.276-0.186-2.473-0.73-3.453-1.569-1.085-0.931-2.437-1.497-3.862-1.617-1.425-0.121-2.852 0.211-4.078 0.947l-5.79 3.47z" fill="#81c793"/>
  </g>
  <g transform="matrix(.26458 0 0 .26458 112.06 108.66)">
   <g clip-path="url(#b)">
    <path d="m0 124.06h128s-13.49-16.36-26.58-9.81c2.18-8.73-6.54-22.91-18.54-18.54 0 0-10.91-15.27-27.26-1.09 0 0-6.55-73.07-55.62-75.62z" fill="#7d9df5"/>
    <path d="m79 80.06h-59s13.83-13.4 22.13-5.36c0 0 19.35-13.41 36.87 5.36z" fill="#b1c5fd"/>
    <path d="m100.53 31.68v4.86l-53.53-4.86z" fill="url(#a)" opacity=".55"/>
    <g fill="#8ca7f5">
     <path d="m105.69 31.68 1.15-11.78 5.99 11.76z"/>
     <path d="m113.25 31.66v-6.13l4.96 5.57z"/>
     <path d="m102.15 31.1 5.54 0.89v-9.22z"/>
    </g>
    <path d="m98.91 30.06 21.86 0.49-5.64 2.76-2.3 1.65c-1.836 1.513-4.141 2.3402-6.52 2.34h-5.45c-0.378-0.0019-0.749-0.1031-1.0763-0.2934-0.3269-0.1903-0.5981-0.4632-0.7864-0.7912-0.1883-0.3281-0.2872-0.6998-0.2867-1.0781 4e-4 -0.3782 0.1002-0.7498 0.2894-1.0773z" fill="#3643a8"/>
    <path d="m113.84 34.11-14.57-0.56-0.27 0.51c-0.1875 0.3288-0.2853 0.7011-0.2837 1.0796 0.0017 0.3785 0.1028 0.7499 0.2932 1.077s0.4634 0.5985 0.7917 0.7869c0.3278 0.1884 0.6998 0.2872 1.0788 0.2865h5.45c2.379 3e-4 4.684-0.8269 6.52-2.34z" fill="#294391"/>
    <path d="m100.37 33.72 1.9 2.66h1.19l-0.91-2.66z" fill="#253c82"/>
    <path d="m103.47 33.22h-6.18v1h6.18z" fill="#244cbf"/>
    <path d="m240 48.72c-28.32-29.13-53 8.34-53 8.34-31-9-46 8-46 8h99z" fill="#b1c5fd"/>
    <path d="m212.91 26.06 1.09 2.52c5e-3 0.0107 0.012 0.0198 0.022 0.0262s0.021 0.0098 0.033 0.0098 0.023-0.0034 0.033-0.0098 0.017-0.0155 0.022-0.0262l1.17-2.52 2.56-1.13c8e-3 -0.0065 0.015-0.0149 0.02-0.0244 4e-3 -0.0095 7e-3 -0.02 7e-3 -0.0306s-3e-3 -0.021-7e-3 -0.0305c-5e-3 -0.0096-0.012-0.0179-0.02-0.0245l-2.56-1.13-1.13-2.63c-7e-3 -0.0083-0.015-0.015-0.024-0.0196-0.01-0.0047-0.02-0.0071-0.031-0.0071s-0.021 0.0024-0.031 0.0071c-9e-3 0.0046-0.017 0.0113-0.024 0.0196l-1.13 2.56-2.55 1.13c-0.011 0.0047-0.02 0.0124-0.026 0.0222-7e-3 0.0097-0.01 0.0211-0.01 0.0328s3e-3 0.0231 0.01 0.0329c6e-3 0.0098 0.015 0.0175 0.026 0.0221l2.55 1.13z" fill="#fff" opacity=".39"/>
    <path d="m5.8867 41.327c0-15.5-19.059-20.27-24.97-12 0 0-19.599-21-38.689 13.52h-2.6259c-5.4413 0-10.803 2.11-15.675 6.16l-1.927 1.61h106.39s-11-12.29-22.5-9.29z" fill="#fff"/>
   </g>
  </g>
 </g>
 <g transform="translate(0 36.248)">
  <g transform="matrix(.26458 0 0 .26458 0 -36.248)" fill="none">
   <g clip-path="url(#a)">
    <path d="m0 405.13v8.47c16.82 0.21 33.33 0.4 39 0.4 13 0 45 6 60 6s51-10 66-10 75-2 75-2v-4.32z" fill="#81c793"/>
    <path d="m0 404v6.59c16.82 0.21 33.33 0.4 39 0.4 13 0 45 6 60 6s51-10 66-10 75-2 75-2v-4.32z" fill="#a3faa8"/>
    <path d="m105 442.67 1.35 2.64 3.65 6.69 9 2 3.68 10h117.32v-21z" fill="#633150" opacity=".53"/>
   </g>
  </g>
 </g>
 <g transform="translate(0 36.248)">
  <g transform="matrix(.26458 0 0 .26458 0 -35.891)" fill="none">
   <g clip-path="url(#a)">
    <path d="m38 367h-7v32h7z" fill="#837c8a"/>
    <path d="m12.08 395h43.84c1.0821 0 2.1198 0.43 2.885 1.195 0.7651 0.765 1.195 1.803 1.195 2.885v2.71c0 0.851-0.3382 1.668-0.9402 2.27s-1.4185 0.94-2.2698 0.94h-45.79c-0.7957 0-1.5587-0.316-2.1213-0.879-0.56261-0.562-0.87868-1.325-0.87868-2.121v-2.9c-0.00264-0.537 0.10095-1.07 0.30481-1.567 0.20386-0.498 0.50397-0.95 0.8831-1.331 0.37912-0.381 0.8298-0.683 1.3261-0.89 0.4963-0.206 1.0285-0.312 1.566-0.312z" fill="#bab5bf"/>
    <path d="m8 398.53h52v4c0.0026 0.323-0.0588 0.644-0.1807 0.944-0.122 0.299-0.302 0.572-0.5298 0.801-0.2277 0.23-0.4987 0.412-0.7973 0.537-0.2985 0.124-0.6188 0.188-0.9422 0.188h-47.1c-0.64978 0-1.273-0.258-1.7324-0.718-0.45947-0.459-0.71759-1.082-0.71759-1.732v-4z" fill="#978ca2"/>
    <path d="m8 398.53h11v6.47h-8.18c-0.7479 0-1.4652-0.297-1.994-0.826s-0.82596-1.246-0.82596-1.994z" fill="#877d91"/>
    <path d="m16.32 353.16c0.0214-0.94 0.2871-1.859 0.771-2.665 0.4839-0.807 1.1694-1.474 1.989-1.935 1.0871-0.514 2.0546-1.25 2.84-2.16 1.61-1.94 4.35-4.34 5.36 0.19 0 0 2.92 12.42-5.85 12.42 0-0.01-4.38 0.73-5.11-5.85z" fill="#f3c46b"/>
    <path d="m20.49 352.34c-0.0026 1.547-0.6191 3.03-1.714 4.123-1.095 1.093-2.5789 1.707-4.126 1.707-3.22 0-7.45-2.71-6.67-5.83 1.67-6.67 5-2.5 5.84-3.34 3.77-3.77 6.67 0.11 6.67 3.34z" fill="#e29391"/>
    <path d="m1 355h34s-16 24-34 0z" fill="#e4e4e4"/>
    <path d="m11.73 346.92c0.07-0.28 1.67 0 1.67 2.5" stroke="#c28988" stroke-linecap="round" stroke-miterlimit="10" stroke-width=".83"/>
    <path d="m38 375-7-2v-6h7z" fill="#736e78"/>
    <path d="m7.89 355c0.11 0 3.11 8 9.11 9 0 0 10 1 17-9z" fill="#d6d6d6"/>
    <path d="m0 362h45c1.0609 0 2.0783 0.421 2.8284 1.172 0.7502 0.75 1.1716 1.767 1.1716 2.828s-0.4214 2.078-1.1716 2.828c-0.7501 0.751-1.7675 1.172-2.8284 1.172h-45z" fill="#9b93a2"/>
    <path d="m86 402.65-13-32.65s61-35 105-126c0 0 40 10 62 3v155.65z" fill="#d56b95"/>
    <path d="m182 323c0 1 9 44 34 58 0 0-9 7-8.69 21.65h-10.9z" fill="#923963"/>
    <path d="m184.15 265.74-0.15 17.26 2.77-4.06s-2.98-10.94-2.62-13.2z" fill="#bd94fa"/>
    <path d="m187 279.78s-1 23.22 2 28.22c0 0 2-8 6-11.36-4.435-4.596-7.245-10.517-8-16.86z" fill="#bd94fa"/>
    <path d="m196.49 297.24 1.51 9.76s5.94-11.31 7-16.65c0 0-2 6.13-8.51 6.89z" fill="#a075e0"/>
    <path d="m207.11 290.69s-5.11 16.31-2.11 31.31c0 0 3-9 6-12-3.224-5.894-4.58-12.628-3.89-19.31z" fill="#bd94fa"/>
    <path d="m212 312 3 12 9-12s-7 7-12 0z" fill="#a075e0"/>
    <path d="m224.44 312 1.56 4 1.58-6.52z" fill="#bd94fa"/>
    <path d="m230.07 309.31s-2.07 19.69-0.07 23.69l7.22-12.68s-4.08-0.7-7.15-11.01z" fill="#a075e0"/>
    <path d="m240 321.37c-8.74-3.67-9.95-13.45-10-13.93l-0.13-1.09-0.74 0.81c-5.54 6-10.14 8.39-13.65 7-8.38-3.27-8.48-26.45-8.48-26.68v-2.12l-0.95 1.9c-3.42 6.83-6.58 10-9.4 9.49-10-1.91-14.11-47.35-14.15-47.81l-1 0.08c0.17 1.91 4.19 46.66 15 48.71 3.08 0.59 6.23-2.13 9.58-8.29 0.22 5.84 1.49 22.7 9.08 25.66 3.78 1.47 8.51-0.73 14.06-6.55 0.59 2.82 2.92 10.73 10.82 13.87z" fill="#bd94fa"/>
    <path d="m178 244s16 46.76 62 69.88v-67.88s-21 7-62-2z" fill="#af4a70"/>
    <path d="m178 247.16c-0.375 3e-3 -0.738-0.132-1.02-0.379s-0.463-0.589-0.51-0.961l-0.95-7.07c-0.028-0.219-0.01-0.441 0.055-0.652 0.064-0.211 0.173-0.406 0.318-0.572 0.146-0.166 0.326-0.298 0.527-0.389s0.419-0.137 0.64-0.137h1.88c0.221 0 0.439 0.046 0.64 0.137s0.381 0.223 0.527 0.389c0.145 0.166 0.254 0.361 0.319 0.572 0.064 0.211 0.083 0.433 0.054 0.652l-0.95 7.07c-0.047 0.372-0.228 0.714-0.51 0.961s-0.645 0.382-1.02 0.379z" fill="#d58da9"/>
    <path d="m176 311s-28 20-38 20 0-19 0-19l-19.94 19.94c-8.078 8.58-16.692 16.64-25.79 24.13l18.73 4.93-7 29-5.92 12.61h17.92l2-17.61 14-16 5.94 33.65h18.14z" fill="#923963" opacity=".25"/>
    <path d="m155.08 402.65s22.92-77.65 22.92-135.65c0 0 4.36 101.31 25.18 135.65z" fill="#59374b"/>
    <g fill="#923963">
     <path d="m199 351c-1.68-1.48 16 31 35 22-12.756-5.438-24.569-12.863-35-22z" opacity=".25"/>
     <path d="m203 265s30 12 37 0.8v32.2s-18-1-37-33z" opacity=".55"/>
    </g>
   </g>
  </g>
 </g>
 <g stroke-width=".26458">
  <path d="m18.727 102.87c0.0095-0.0228 0.0095-0.0484 7.9e-5 -0.0712-0.0094-0.023-0.02754-0.041-0.05035-0.0505-0.02281-0.01-0.04845-0.01-0.07125 0-0.02283 9e-3 -0.04098 0.0275-0.05045 0.0503l-0.71966 1.2303c-0.07673-0.0503-0.15346-0.0952-0.23018-0.15081-0.45076-0.31988-0.75847-0.80353-0.85737-1.3475-0.09887-0.54371 0.01892-1.1046 0.32821-1.5629l2.6114-3.8602 5.4318 0.49741 0.98953 4.5772c0.05715 0.26908 0.02884 0.54927-0.08064 0.80142-0.10954 0.2524-0.29498 0.46407-0.53054 0.60615-0.26458 0.15081-0.55826 0.31749-0.90751 0.48153l-0.21696-1.7621c-0.0032-0.0169-0.01228-0.0323-0.02556-0.0431-0.01328-0.0111-0.02998-0.0169-0.0472-0.0169s-0.03392 6e-3 -0.0472 0.0169-0.0223 0.0262-0.02556 0.0431l-0.2831 2.0452c-1.5399 0.60854-3.6274 0.99747-5.6197-0.0397z" fill="#6e707d"/>
  <path d="m30.437 93.566c-0.28575-0.71437-1.5055-1.0821-2.0558-1.2409l-0.19314-0.08467c-0.23018-0.10345-0.4781-0.16086-0.73024-0.16933l-5.6832-0.21166c-0.1905 0 0.42333 0.39158 0.39158 0.57943l-0.83607 0.06879c-9e-3 0.05265-0.0069 0.10636 0.0064 0.15822 0.01326 0.05159 0.03728 0.09975 0.07051 0.14155s0.0749 0.07593 0.12232 0.10054c0.04739 0.02434 0.0994 0.03863 0.15266 0.04154l5.8366 0.3175c-0.07937 0.47386-0.02434 0.96069 0.15875 1.4049 0.42333 1.0583 1.3838 1.6642 2.1457 1.3573 0.76199-0.30691 1.0372-1.4076 0.61383-2.4632z" fill="#ed9836"/>
  <path d="m30.437 93.566c-0.28575-0.71437-1.5055-1.0821-2.0558-1.2409l-0.01588-0.01587c-0.11959 0.43762-0.09154 0.90248 0.07937 1.3229 0.36512 0.93661 1.2673 1.4578 2.0161 1.1668 0.05874-0.02328 0.11536-0.05186 0.16933-0.08467 0.02249-0.39237-0.04339-0.78474-0.19314-1.1483z" fill="#e0851b"/>
  <path d="m26.966 87.528c1.8521 3.384 5.0773 5.8208 8.5327 7.5379 0.3048 0.14843 0.64055 0.22172 0.97948 0.21352 0.33893-0.0082 0.67071-0.09789 0.96783-0.26114 1.1086-0.60589 2.7807-1.5451 2.5664-1.5875-0.31485-0.07937-0.54504-0.07408-0.86253-0.14552l-0.11112-0.02381c0.81226 0 1.1589 0.5662 1.905 0.24341 0.74612-0.32279 1.8944-1.5425 2.323-2.2331 0.28839-0.46037 0.46831-1.0239 0.24341-1.5478-0.06059-0.1524-0.16113-0.28575-0.29104-0.38576-0.12991-0.10001-0.28442-0.16325-0.44714-0.18309-0.55033-0.04498-0.89957 0.45243-1.2859 0.80697-0.34951 0.30903-0.77046 0.52625-1.225 0.63235 0.49609-0.21828 0.94005-0.54001 1.3023-0.94323s0.63446-0.87894 0.7985-1.3957c0.15081-0.48947 0.15081-1.1245-0.28045-1.4023-0.14208-0.07885-0.30189-0.12012-0.46434-0.12012s-0.32226 0.04127-0.46434 0.12012c-0.28046 0.16351-0.52969 0.37597-0.73553 0.62706-0.98424 1.0583-2.0002 2.2331-3.3946 2.6458-1.3229 0.39158-2.7463 0.03175-4.0084-0.52916-2.1378-0.93132-4.3735-2.2939-5.5562-4.31-0.17991 0.47624 0 0.79374-0.26458 1.2382-0.18653 0.24209-0.30427 0.52995-0.34131 0.83343-0.0024 0.03493 5e-3 0.06959 0.02117 0.10054 0.02646 0.03704 0.05556 0.08996 0.0926 0.06879z" fill="#fff"/>
  <path d="m26.966 87.528c-0.0291 0.02117-0.06614-0.03175-0.08731-0.06085-0.01614-0.03096-0.02355-0.06562-0.02117-0.10054 0.03704-0.30347 0.15478-0.59134 0.34131-0.83343 0.23812-0.38893 0.12964-0.6932 0.23283-1.0954l0.15081 0.0291c0.46857 0.73606 1.0517 1.3927 1.7277 1.9447 0 2.3812 1.3467 3.7041 2.5241 5.4636-1.9738-1.442-3.6988-3.2067-4.8683-5.3472z" fill="#e4e4e4" opacity=".51"/>
 </g>
 <path d="m26.727 75.222c0.58282 2.3941-1.9382 8.1165-1.1505 11.378" fill="none" stroke="#fff" stroke-miterlimit="10" stroke-width="2.9739"/>
 <g stroke-width=".26458">
  <path d="m27.5 92.174s2.5664-4.1169 0.05027-7.0907l-0.68526-0.22754s-0.42333 1.6007-0.65087 1.6007l-0.59266-1.9552-3.1908 0.26458s-0.79374 1.0583-1.5716 0.79374c0 0-0.79374 1.3229 1.0583 7.1437z" fill="#484482"/>
  <path d="m26.209 86.401v0.04498l0.46566-1.6801 1.3229 0.26458c2.5162 2.9739-0.5027 7.1437-0.5027 7.1437h-0.07673l-1.4023-2.0293z" fill="#413d75"/>
  <path d="m26.021 90.14-3.8391 2.5638 5.3181-0.53974z" fill="#3a385b"/>
  <path d="m33.348 90.039c-0.07937-0.12435-0.1561-0.26458-0.22489-0.39158 1.2356 0.52916 2.6246 0.85724 3.9078 0.47624l0.08202-0.02646c0.31935 0.01667 0.63949 0.0098 0.95778-0.02117 0.19288-0.0381 0.39264-0.02143 0.57678 0.04762 0.10213 0.0598 0.18415 0.14869 0.23574 0.25506 0.05186 0.10636 0.07117 0.22569 0.0553 0.3429-0.03492 0.23442-0.14869 0.45005-0.32279 0.61118-0.43656 0.39449-0.99932 0.6207-1.5875 0.63764-0.52916 0.05027-1.0628-0.01058-1.5671-0.17806-0.50429-0.16774-0.9681-0.43867-1.3618-0.79559-0.28866-0.28733-0.54107-0.60906-0.75141-0.95778z" fill="#cacaca"/>
  <path d="m25.191 74.608 0.57997-0.26941 1.6071-0.48455 0.78202 0.03367c-0.01048 1.0421 0.29506 2.1411 0.08247 3.1845-1.0327-0.83815-2.09-1.2042-2.9263-1.2772-0.09395-0.45348-0.10651-0.86146-0.12521-1.187z" fill="#e4e4e4"/>
  <path d="m21.615 67.871c0.28624 0.66042 1.9401 2.6323 1.9401 2.6323s-0.38914-2.5444-0.68286-3.1973c-0.29376-0.65292-0.81383-1.057-1.1599-0.89802-0.34613 0.15898-0.39101 0.81008-0.09728 1.463z" fill="#cacaca"/>
 </g>
 <g transform="matrix(.18709 -.18709 .18709 .18709 -46.911 41.485)" fill="#fff">
  <path d="m118.35 289.99c6.15-2.238 8.964-10.018 6.286-17.377-2.679-7.359-9.836-11.511-15.985-9.272-6.15 2.238-8.9644 10.018-6.286 17.378 2.679 7.359 9.835 11.51 15.985 9.271z"/>
  <path d="m99.5 253.68c1.73 3.14 12.44 11.4 12.44 11.4s-1.3-13.47-3-16.6-5.24-4.51-7.84-3.07-3.34 5.14-1.6 8.27z"/>
  <path d="m98.9 258.43c2.76 0.27 12 4.88 12 4.88s-9.92 2.71-12.68 2.44-4.83-2.13-4.63-4.15 2.55-3.44 5.31-3.17z"/>
 </g>
 <g stroke-width=".26458">
  <path d="m29.234 71.98s-0.37417 2.6192-2.3367 0.56687z" fill="#f5b41b"/>
  <path d="m26.897 72.547c-1.8634 0.34423-3.579-0.48456-3.8315-1.8484-0.05463-0.30907-0.03348-0.62693 0.06174-0.92608 0.9504-1.0477 2.6997-1.3339 4.2749-0.58932 0.85947 0.38877 1.5609 1.0583 1.9887 1.8989-0.61589 0.78651-1.5072 1.31-2.4939 1.4649z" fill="#5ae6dc"/>
  <path d="m26.897 72.547c0.13825-0.50195 0.37417-0.97173 0.69465-1.382s0.71897-0.7534 1.1725-1.009c0 0 2.2506 0.79512 5.5808 0.50326 0.37193-0.03218 0.74348 0.06585 1.0514 0.27689l0.03925 0.03932z" fill="#f5cd1b"/>
  <path d="m32.625 71.173c-0.01341-0.07183-0.14049-0.1087-0.28437-0.08232-0.14368 0.02655-0.24959 0.10623-0.2361 0.1781 0.01311 0.07182 0.14031 0.10851 0.284 0.08232 0.14368-0.02655 0.24959-0.10623 0.23647-0.17812z" fill="#bd9e15"/>
  <path d="m28.12 87.677c0.21907 0 0.39687-0.2368 0.39687-0.52916s-0.1778-0.52916-0.39687-0.52916-0.39687 0.2368-0.39687 0.52916 0.1778 0.52916 0.39687 0.52916z" fill="#737093"/>
  <path d="m24.034 92.439s-1.3229-3.175-3.0109-3.1538c-0.11642 0 0.89428 3.683 0.89428 3.683l4.8947-0.13229z" fill="#3a385b" opacity=".32"/>
  <path d="m31.906 107.33h-4.2333c-0.05953 2.7e-4 -0.11853-0.0111-0.17356-0.0336-0.05503-0.0227-0.10504-0.0561-0.14711-0.0982-0.04207-0.0421-0.0754-0.0921-0.09816-0.1471-0.02249-0.055-0.03387-0.11404-0.0336-0.17357v-6.5007l1.4076-0.59266 0.1561 4.2809c0.01111 0.33495 0.12912 0.65774 0.33655 0.921 0.2077 0.26326 0.49397 0.45322 0.81702 0.54212 0.84983 0.20294 1.6227 0.6477 2.2251 1.2806 0.03969 0.0471 0.06456 0.10477 0.07197 0.16589 0.0074 0.0611-0.0032 0.12303-0.03043 0.17833-0.02725 0.0553-0.06985 0.10133-0.12276 0.13282-0.05292 0.0315-0.11403 0.0468-0.17542 0.0442z" fill="#3a3445"/>
  <path d="m29.26 99.397 0.32808 0.52916c0.04709 0.08017 0.07329 0.17092 0.0762 0.26378 0.0026 0.0929-0.01799 0.18494-0.06006 0.26776-0.04233 0.0828-0.10451 0.15345-0.1815 0.20584-0.07673 0.0524-0.16536 0.0844-0.25796 0.0934l-2.4871 0.26458c-0.08414 7e-3 -0.16907-6e-3 -0.24712-0.0378-0.07831-0.0323-0.14764-0.0828-0.2024-0.14711-0.0545-0.0645-0.093-0.14128-0.11194-0.22383-0.01894-0.0823-0.01783-0.16801 0.0032-0.25003l0.03175-0.5027z" fill="#7e808f"/>
  <path d="m22.241 101.01-1.2964 3.4025c-0.04196 0.10768-0.06093 0.22304-0.05567 0.33839 0.0052 0.11536 0.03461 0.2286 0.0862 0.33205s0.12425 0.19473 0.2133 0.26855c0.08908 0.0735 0.19256 0.12779 0.30384 0.15901 0.65087 0.17992 1.5002 1.0583 1.9844 1.7092 0.03929 0.0529 0.06313 0.11562 0.06879 0.18124 0.0057 0.0656-7e-3 0.13149-0.0367 0.19023-0.02966 0.0587-0.07512 0.10821-0.13126 0.14261-0.05614 0.0344-0.12075 0.0524-0.18658 0.0521l-4.0983-0.52916c-0.08234 5.3e-4 -0.16354-0.0191-0.23648-0.0572-0.07297-0.0381-0.13544-0.0937-0.18195-0.16166-0.04649-0.0677-0.07562-0.14604-0.08477-0.22806-0.0092-0.0818 0.0019-0.16457 0.03225-0.24104l2.2463-5.789z" fill="#3a3445"/>
  <path d="m22.637 100.6 0.07408 0.36247c0.01937 0.0889 0.01786 0.18124-0.0044 0.26961-0.02225 0.0881-0.06464 0.17012-0.12382 0.23944-0.05919 0.0691-0.13359 0.12356-0.21738 0.15928-0.08379 0.0357-0.17468 0.0513-0.26558 0.046l-1.7462-0.0952c-0.10403-6e-3 -0.20471-0.0392-0.29191-0.096-0.08723-0.0572-0.15795-0.136-0.20508-0.22913-0.04715-0.0929-0.06908-0.19658-0.06358-0.30056s0.03823-0.20479 0.09491-0.29236l0.14552-0.2196z" fill="#9395a6"/>
  <path d="m27.474 92.704c0.06615 0.19314 5.3154 6.7441 0.36247 7.5696-3.802 0.63235-5.0006-5.0085-3.2094-7.3712z" fill="#7e808f"/>
  <path d="m25.72 92.849s1.1059 8.7311-4.6116 8.0565c0 0-3.175 0-1.0583-5.027l1.0583-2.9104z" fill="#9395a6"/>
  <path d="m29.194 97.863s-2.1166 2.1166-3.4395 0.26458c0 0 0.26458 3.4395 3.4395-0.26458z" fill="#6e707d"/>
  <path d="m21.346 97.347c0.12171-0.23548-0.96307 0.68791-1.569 0.24606 0.0079 0 0.9472 0.93132 1.569-0.24606z" fill="#aaacbe"/>
 </g>
 <path d="m25.118 71.231s0.74834-0.37418 1.1225 0.74834" fill="none" stroke="#000" stroke-linecap="round" stroke-miterlimit="10" stroke-width=".52916"/>
 <path d="m21.108 92.174h6.8791v1.0583h-6.8791c-0.14033 0-0.27492-0.05583-0.37417-0.15504-0.09924-0.09922-0.15499-0.23389-0.15499-0.37412s0.05575-0.2749 0.15499-0.37412c0.09924-0.09922 0.23384-0.15504 0.37417-0.15504z" fill="#ed9836" stroke-width=".26458"/>
 <g stroke-width=".26458">
  <path d="m36.557 93.86c2.5733 0 4.6593-2.0859 4.6593-4.6593s-2.0859-4.6593-4.6593-4.6593-4.6593 2.0859-4.6593 4.6593 2.0859 4.6593 4.6593 4.6593z" fill="#ffd900"/>
  <path d="m32.75 91.889c0.98159-0.11642 1.9473-1.1218 2.3177-2.5241 0.44185-1.6774-0.13758-3.2861-1.2938-3.5904-0.10557-0.02672-0.21378-0.0418-0.32279-0.04498-0.04498 0.03969-0.0926 0.07673-0.13758 0.11906-0.79982 0.77363-1.2962 1.8079-1.3996 2.9159-0.10319 1.1078 0.19314 2.2161 0.83607 3.1244z" fill="#4e4e4e"/>
  <path d="m38.433 90.904c-0.90751 0.87576-1.2382 2.0029-0.73818 2.5214 0.0889 0.08943 0.19764 0.15663 0.3175 0.19579 0.74003-0.24024 1.4076-0.66357 1.9404-1.2306s0.91386-1.2597 1.1075-2.0132c-0.02328-0.04392-0.0508-0.08572-0.08202-0.12435-0.49741-0.51593-1.6378-0.22489-2.5453 0.65087z" fill="#222"/>
 </g>
 <g stroke-width=".26458">
  <path d="m18.378 101.52c-0.2677-0.46434-0.49434-0.95143-0.67732-1.4552-1.389-3.7041-1.6007-9.8847 2.0135-14.023 0.57522-0.64637 1.3571-1.0729 2.2119-1.2065 0.04858-0.0087 0.09858-0.0042 0.14496 0.0127 0.04638 0.01667 0.08747 0.04551 0.11914 0.08334 0.03167 0.03784 0.05278 0.08334 0.06125 0.13203 0.0084 0.04868 0.0039 0.09869-0.01315 0.14499-0.69849 1.9103-3.5956 9.046 0.45772 13.581l-3.3046 3.0136c-0.13494 0.082-0.92868-0.13494-1.0133-0.2831z" fill="#fff"/>
  <path d="m23.812 84.652-2.4394 0.11377c-0.02524 7.94e-4 -0.04987 0.0082-0.07133 0.02143-0.02146 0.01349-0.039 0.03228-0.05083 0.0545s-0.01754 0.04736-0.01654 0.07249c1e-3 0.0254 0.0087 0.05001 0.02228 0.07117 0.25892 0.40507 0.41663 0.86676 0.45992 1.3454 0.04329 0.47889-0.02916 0.96122-0.21121 1.4062l2.2489-2.1775z" fill="#484482"/>
  <path d="m40.423 90.539c0.07144-0.02117 0.14287-0.04233 0.21431-0.07144-0.07408 0.01508-0.14605 0.03889-0.21431 0.07144z" fill="#e4e4e4"/>
  <path d="m40.639 90.468c-0.07144 0.0291-0.14287 0.05027-0.21431 0.07144-0.35454 0.16668-0.74876 0.60589-1.1536 1.4631-0.82284 1.7462-2.6273 2.5797-3.9396 2.9792 0.87444 0.43762 1.8764 0.54927 2.8257 0.31485 0.99032-0.2159 1.896-0.71622 2.6061-1.4393 0.31379-0.32914 0.57202-0.70722 0.76464-1.1192 0.08837-0.18124 0.16086-0.36988 0.21696-0.56356 0.17462-0.6932-0.33602-1.8521-1.1059-1.7065z" fill="#cacaca"/>
 </g>
 <g stroke-width=".26458">
  <path d="m40.499 86.716c-0.14182-0.22436-0.30374-0.43497-0.48418-0.6297-0.85062-0.37835-1.7849-0.52969-2.7114-0.43947-0.92656 0.09022-1.814 0.4191-2.5757 0.95434-0.76173 0.53551-1.3716 1.2591-1.77 2.1005-0.39872 0.84136-0.57255 1.7716-0.50455 2.7 0.12356 0.23336 0.26696 0.45561 0.42862 0.6641-0.20902-0.97074-0.12726-1.9817 0.23468-2.9061 0.36221-0.92471 0.98847-1.7222 1.8013-2.2928 0.81252-0.5707 1.7753-0.88952 2.7678-0.91624 0.9927-0.02672 1.9714 0.23944 2.8135 0.76543z" fill="#2a2a2a" opacity=".46"/>
  <path d="m33.604 64.589c2.5733 0 4.6593-2.0859 4.6593-4.6592 0-2.5733-2.086-4.6592-4.6593-4.6592-2.5732 0-4.6593 2.086-4.6593 4.6592 0 2.5733 2.086 4.6592 4.6593 4.6592z" fill="#b1b1b1"/>
  <path d="m29.77 57.289c0.44714 0.88105 1.7251 1.442 3.175 1.3044 1.7277-0.16404 3.0374-1.262 2.9104-2.4553-0.0122-0.10795-0.03524-0.21431-0.06879-0.3175-0.05292-0.0291-0.10319-0.0609-0.15875-0.0873-1.0014-0.48259-2.1423-0.59081-3.2168-0.30559-1.0743 0.28522-2.0112 0.94561-2.6412 1.8613z" fill="#4e4e4e"/>
  <path d="m32.654 62.279c-1.135-0.55033-2.3098-0.47095-2.622 0.17727-0.05424 0.11377-0.08054 0.23892-0.07673 0.36512 0.48201 0.61171 1.1105 1.0919 1.8273 1.3962 0.71685 0.30427 1.4988 0.4228 2.2737 0.34475 0.03204-0.0368 0.06038-0.0767 0.08467-0.11906 0.3122-0.64558-0.35189-1.6166-1.4869-2.1643z" fill="#222"/>
  <path d="m37.297 62.774c0.15973-0.21167 0.30136-0.43656 0.42333-0.67204 0.06122-0.92894-0.11919-1.8579-0.52374-2.6963-0.40452-0.83846-1.0193-1.5578-1.7846-2.0881-0.76522-0.53022-1.6547-0.85327-2.5819-0.9374-0.92714-0.0844-1.8603 0.073-2.7085 0.45666-0.17624 0.19711-0.33554 0.40851-0.47624 0.63235 0.83914-0.53207 1.8165-0.80486 2.8098-0.78422 0.99331 0.0204 1.9586 0.33337 2.7752 0.89931 0.81652 0.5662 1.448 1.3602 1.8156 2.2833 0.36761 0.92312 0.45494 1.9341 0.25114 2.9064z" fill="#2a2a2a" opacity=".46"/>
  <path d="m19.373 87.923c2.0837 0 3.7729-1.6891 3.7729-3.7729 0-2.0838-1.6892-3.7729-3.7729-3.7729-2.0837 0-3.7729 1.6891-3.7729 3.7729 0 2.0838 1.6892 3.7729 3.7729 3.7729z" fill="#2e9b14"/>
  <path d="m15.605 84.176c0.70643 0.37835 1.8124 0.16139 2.7093-0.59795 1.0583-0.90751 1.434-2.241 0.80961-2.9818-0.05776-0.0667-0.12253-0.12699-0.19314-0.17991-0.05027 0-0.09789 0-0.14552 0.0159-0.89002 0.14103-1.7001 0.5961-2.2835 1.283s-0.9015 1.5597-0.89674 2.4609z" fill="#4e4e4e"/>
  <path d="m19.828 86.153c-1.008 0.15875-1.7515 0.75406-1.6616 1.3229 0.01725 0.10081 0.05805 0.19579 0.11906 0.27781 0.60261 0.18494 1.2422 0.21431 1.8593 0.0857 0.61708-0.12859 1.1916-0.41116 1.6702-0.82126 4e-3 -0.0397 4e-3 -0.0794 0-0.11906-0.08996-0.56885-0.96572-0.90751-1.987-0.74612z" fill="#222"/>
  <path d="m19.923 81.53c-0.98032 4e-3 -1.9309 0.33734-2.6987 0.94667-0.76784 0.60959-1.3083 1.4597-1.5346 2.4135 0.03778 0.20108 0.09266 0.39845 0.16404 0.59001 0.08025-0.79797 0.39303-1.5549 0.89954-2.1767s1.1844-1.0813 1.9497-1.3213c0.76524-0.23998 1.5841-0.25029 2.3551-0.0291 0.77093 0.22119 1.46 0.66384 1.9817 1.2729-0.05059-0.19738-0.11694-0.39026-0.19844-0.57679-0.80012-0.7223-1.8403-1.1213-2.9183-1.1192z" opacity=".46"/>
 </g>
 <g stroke-width=".26458">
  <path d="m21.423 97.09c-0.21219-0.35586-0.38941-0.73156-0.52916-1.1218-0.12724-0.26776-0.20436-0.55641-0.22754-0.85195-0.0097-0.14737 0.01963-0.29474 0.08514-0.4273 0.06551-0.13229 0.16483-0.245 0.28792-0.32676 0.36248-0.20108 0.82549 0 1.1059 0.3122 0.55562 0.60589 0.82284 1.0821 0.67997 2.3124-0.04233 0.35983-0.38629 0.87841-0.40481 1.2435-0.01588 0.28839 0.15346 0.30427 0 0.54768-0.16332 0.12515-0.35065 0.2151-0.55033 0.26458-0.1905 0.03704-0.18521-0.10319-0.26458-0.26458-0.19579-0.37306 0-0.77522-0.08202-1.1906-0.02307-0.1524-0.06392-0.30162-0.12171-0.4445z" fill="#e4e4e4"/>
  <path d="m20.396 95.73c0.11308-0.06509 0.23947-0.10372 0.36962-0.11271 0.13015-0.0093 0.26069 0.01111 0.38179 0.05979 0.24818 0.10345 0.4691 0.26273 0.64558 0.46566 0.68391 0.77019 1.0532 1.7695 1.0345 2.7993 0.0071 0.3249-0.04035 0.64849-0.14023 0.95778-0.21524 0.54372-0.59554 1.0065-1.0874 1.3229-0.05003 0.0463-0.10882 0.082-0.17288 0.1053-0.06408 0.023-0.13213 0.0331-0.20018 0.0296-0.19579-0.0397-0.29898-0.26458-0.3466-0.48682-0.18521-0.82285-0.02646-1.6907-0.23812-2.5056-0.17198-0.66674-0.7276-0.94455-0.70114-1.6986-0.0055-0.18124 0.03302-0.36115 0.11229-0.5244 0.07924-0.16298 0.19687-0.30453 0.34279-0.41222z" fill="#cacaca"/>
  <path d="m20.722 97.315c-0.40481-0.30956-1.0583-0.4736-1.3388 0.0926-0.26458 0.52916 0 1.1615 0.19579 1.6589 0.16113 0.33549 0.27508 0.69161 0.33866 1.0583 0.02908 0.19447 0.03529 0.39158 0.01852 0.58737-0.03162 0.0905-0.08316 0.17277-0.15081 0.24077-0.21166 0.20108-0.50799 0.10318-0.74347 0-1.0239-0.51594-1.3414-0.88106-1.3414-0.88106 0.15269 0.51594 0.38094 1.0062 0.67732 1.4552 0.34925 0.50535 0.82549 0.96572 1.389 0.96572 1.1245 0 1.9341-1.2515 2.1034-2.2384 0.09125-0.54794 0.0327-1.1104-0.16944-1.628-0.20211-0.51725-0.54032-0.97048-0.97884-1.3115z" fill="#b5b5b5"/>
 </g>
 <g transform="matrix(.26458 0 0 .26458 -.079375 1.82)" fill="none">
  <g clip-path="url(#a)">
   <path d="m122.51 444.21s25.13-24.21 46.13-15.21c0 0 13-18 30-8 0 0 4-11 17-5 0 0-1-34 24.36-40.66v68.66z" fill="#54a18a"/>
   <path d="m215.64 416c-13-6-17 5-17 5-17-10-30 8-30 8-21-9-46.13 15.21-46.13 15.21h7.88v-0.31s28.61-8.9 43.61-4.9c0 0 12-24 26-11 0 0 3-18 19-6 0 0 7-32 21-31v-15.66c-25.36 6.66-24.36 40.66-24.36 40.66z" fill="#5eb58b"/>
   <path d="m174.77 444.29 6.48 19.69h58.75v-20.98z" fill="#703443" opacity=".53"/>
   <path d="m154 448 6 4-2 5 2 2 3 5h30l-3-4-4.09-2c-2.14-0.54-2.91-9-2.91-9l-2.4-4.79-19.45 2.39z" fill="#8c4c55"/>
   <path d="m158 447 3 5-1.09 2.18c-0.286 0.568-0.44 1.193-0.45 1.828-0.01 0.636 0.123 1.265 0.39 1.842l3.05 6.15h-3.14l-1.76-5-4-4s2.26-3.71 2-5l-4-3z" fill="#a65e67"/>
   <path d="m106.35 445.31-0.64-1.1-0.71-1.54 135 0.33v2.95l-62 0.05-24 2z" fill="#81c793"/>
   <path d="m105.71 444.21-0.71-1.54 135-0.67v2.95l-62-0.95-22 2z" fill="#a3faa8"/>
   <path d="m208.35 439.12 1.35-1.57c0.247-0.286 0.559-0.509 0.91-0.65l3.67-1.47c0.392-0.14 0.739-0.386 1-0.71l2.88-3.59c0.357-0.458 0.876-0.763 1.45-0.85l3.4-0.57c0.439-0.068 0.888-9e-3 1.295 0.168 0.407 0.176 0.755 0.465 1.005 0.832l3.8 5.33c0.09 0.11 0.18 0.22 0.28 0.32l2.73 2.66c0.323 0.328 0.543 0.744 0.633 1.196 0.089 0.451 0.043 0.92-0.132 1.346-0.174 0.426-0.471 0.791-0.851 1.051-0.381 0.259-0.829 0.4-1.29 0.407h-20.35c-0.453 3e-3 -0.897-0.126-1.279-0.369-0.381-0.244-0.684-0.593-0.873-1.005-0.188-0.412-0.253-0.87-0.187-1.318s0.26-0.868 0.559-1.208z" fill="#9395a6"/>
   <path d="m221.3 432.12 0.17 2.77c0.02 0.385-0.055 0.769-0.219 1.118s-0.412 0.652-0.721 0.882l-2.13 1.6c-0.438 0.328-0.749 0.798-0.88 1.33l-0.06 0.25c-0.081 0.346-0.083 0.705-6e-3 1.052s0.231 0.672 0.451 0.951c0.22 0.278 0.501 0.504 0.82 0.659 0.319 0.156 0.67 0.237 1.025 0.238h12.94c2.11 0 0.84-4.53-0.69-6l-6.73-6.72c-0.264-0.249-0.581-0.434-0.928-0.542-0.347-0.107-0.713-0.134-1.072-0.078-0.581 0.091-1.107 0.398-1.472 0.86-0.365 0.461-0.543 1.043-0.498 1.63z" fill="#7a7c8a"/>
   <path d="m221.55 439.44 1.78-3c0.325-0.532 0.846-0.916 1.45-1.07l6.24-1.56c0.328-0.081 0.634-0.233 0.898-0.443 0.264-0.211 0.48-0.476 0.632-0.777l2.68-5.38c0.263-0.517 0.707-0.92 1.247-1.132s1.139-0.218 1.683-0.018l1.84 0.69v16.25h-16.44c-0.416-1e-3 -0.823-0.112-1.182-0.322-0.359-0.209-0.655-0.511-0.86-0.873-0.204-0.361-0.309-0.771-0.303-1.187 5e-3 -0.415 0.121-0.822 0.335-1.178z" fill="#7a7c8a"/>
   <g fill="#5eb58b">
    <path d="m177 434.27c2.92-2.27 8.57-5.72 13.84-3.4 0.076 0.03 0.16 0.033 0.237 9e-3 0.078-0.025 0.145-0.077 0.189-0.145 0.044-0.069 0.062-0.151 0.052-0.232s-0.048-0.156-0.108-0.212c-2.2-2.05-6.14-4.82-10.09-3.22-0.07 0.022-0.131 0.068-0.17 0.13l-4.45 6.6c-0.043 0.069-0.06 0.15-0.05 0.23 0.011 0.08 0.049 0.154 0.108 0.21 0.059 0.055 0.135 0.088 0.215 0.094 0.081 5e-3 0.161-0.017 0.227-0.064z"/>
    <path d="m224.1 406.08c2.22-1.74 7.34-5.2 11.18-3.63 0.084 0.03 0.175 0.032 0.26 5e-3 0.085-0.026 0.159-0.079 0.211-0.152 0.052-0.072 0.079-0.159 0.077-0.248s-0.033-0.175-0.088-0.245c-0.842-1.048-1.89-1.913-3.08-2.54-0.062-0.035-0.115-0.085-0.151-0.147-0.036-0.061-0.055-0.131-0.055-0.203 0-0.071 0.019-0.142 0.055-0.203 0.036-0.062 0.089-0.112 0.151-0.147 1.006-0.685 2.103-1.224 3.26-1.6 0.086-0.024 0.162-0.076 0.217-0.147 0.054-0.071 0.083-0.158 0.083-0.248s-0.029-0.177-0.083-0.248c-0.055-0.071-0.131-0.123-0.217-0.147-3.07-0.78-8.8-0.59-12.4 9.43-0.02 0.076-0.017 0.157 7e-3 0.231 0.025 0.075 0.071 0.141 0.132 0.191 0.061 0.049 0.135 0.08 0.213 0.089 0.079 8e-3 0.158-6e-3 0.228-0.041z"/>
   </g>
  </g>
 </g>
</svg>
