<svg width="240" height="464" version="1.1" viewBox="0 0 63.5 122.77" xmlns="http://www.w3.org/2000/svg">
 <g transform="translate(0 36.248)">
  <g transform="matrix(.26458 0 0 .26458 -.6917 -22.566)" fill="none">
   <path d="m30.35 206.9s1.38-11.79 18-13.62c12.09-1.32 19.16-16.81 19.16-16.81s4.6 16.36-8.48 25.24c0 0 10.71 1.14 12.66-6.68 0 0 1.87 14-15.88 21.08-5.1231 2.034-9.7047 5.228-13.385 9.332-3.6802 4.103-6.3587 9.004-7.8251 14.318z" fill="#bd94fa"/>
   <path d="m38 226.34c1.73-4.27 8.28-12.89 18.27-16.87l0.47-0.2c-3.11-1.08-12.39-0.62-12.39-0.62 4.79 0 12.09-13.42 12.09-13.42-3.39 5-7.52 2.13-11.82 2.49-8 0.66-8.06 7.36-8.06 7.36z" fill="#b78afa"/>
   <path d="m28.91 195.7 20.17 156.04" stroke="#e08055" stroke-linecap="round" stroke-miterlimit="10" stroke-width="4"/>
  </g>
 </g>
 <g transform="translate(-111.88 -108.64)" fill="none">
  <g transform="matrix(.26458 0 0 .26458 111.88 108.64)">
   <g fill="#fff">
    <path d="m0 393.63v-127.63s19-1 27 29c0 0 14-23 33 3 0 0 6-9 11 6 0 0 15-20 25 9v76z" opacity=".16"/>
    <path d="m14.77 241.27-0.6 1.58v0l1.58-0.6 1.58 0.6h0.05l-0.61-1.58 0.61-1.58h-0.05l-1.58 0.61-1.58-0.61z" opacity=".33"/>
    <path d="m122.91 216 1.13 2.55c5e-3 0.011 0.012 0.02 0.022 0.026 0.01 7e-3 0.021 0.01 0.033 0.01s0.023-3e-3 0.033-0.01c0.01-6e-3 0.017-0.015 0.022-0.026l1.13-2.55 2.56-1.13c8e-3 -7e-3 0.015-0.015 0.02-0.024 4e-3 -0.01 7e-3 -0.02 7e-3 -0.031s-3e-3 -0.021-7e-3 -0.031c-5e-3 -9e-3 -0.012-0.017-0.02-0.024l-2.56-1.13-1.13-2.63c-7e-3 -8e-3 -0.015-0.015-0.024-0.02-0.01-4e-3 -0.02-7e-3 -0.031-7e-3s-0.021 3e-3 -0.031 7e-3c-9e-3 5e-3 -0.017 0.012-0.024 0.02l-1.13 2.56-2.55 1.13c-0.011 5e-3 -0.02 0.012-0.026 0.022-7e-3 0.01-0.01 0.021-0.01 0.033s3e-3 0.023 0.01 0.033c6e-3 0.01 0.015 0.017 0.026 0.022l2.55 1.13z" opacity=".39"/>
    <path d="m52.91 266 1.09 2.52c0.0047 0.011 0.0124 0.02 0.0221 0.026 0.0098 7e-3 0.0212 0.01 0.0329 0.01s0.0231-3e-3 0.0329-0.01c0.0097-6e-3 0.0174-0.015 0.0221-0.026l1.17-2.52 2.56-1.13c0.0083-7e-3 0.015-0.015 0.0197-0.024 0.0046-0.01 7e-3 -0.02 7e-3 -0.031s-0.0024-0.021-7e-3 -0.031c-0.0047-9e-3 -0.0114-0.017-0.0197-0.024l-2.56-1.13-1.13-2.63c-0.0066-8e-3 -0.0149-0.015-0.0244-0.02-0.0096-4e-3 -0.02-7e-3 -0.0306-7e-3s-0.021 3e-3 -0.0306 7e-3c-0.0095 5e-3 -0.0179 0.012-0.0244 0.02l-1.13 2.56-2.55 1.13c-0.0107 5e-3 -0.0198 0.012-0.0262 0.022s-0.0098 0.021-0.0098 0.033 0.0034 0.023 0.0098 0.033 0.0155 0.017 0.0262 0.022l2.55 1.13z" opacity=".39"/>
   </g>
   <path d="m30 351s-27-2-24 35c-1.2349-3.207-3.3068-6.025-6-8.16v27.1h75v-77.94c-1 0-34-22-45 24z" fill="#54a18a"/>
   <path d="m30 351s-27-2-24 35c-1.2349-3.207-3.3068-6.025-6-8.16v9.48c3.2056 0.647 6.2596 1.895 9 3.68 0.13-1.7 0.3-3.32 0.5-4.86 1.58-2.58 6.69-10.14 12.5-10.14 0 0-5.83-2.58-10.19-1 6.39-21.07 20.19-19 20.19-19 9-21 39-13 39-13l3-7 1-1.33v-7.67c-1 0-34-22-45 24z" fill="#5eb58b"/>
   <path d="m187 206 9-18 20-10 10-32 14-9v59.85z" fill="#bf6974"/>
   <path d="m40 415-40-10 3-7 53-24 25.06-67.46 3.59-2.39 15.35 0.85 35-15 11-35 2-12 15-11 3-17 7-12 67-15v222.65z" fill="#874a52"/>
   <path d="m0 406v58h240v-59z" fill="#964b55"/>
   <path d="m0 464h74l-3-37-23-14h-48z" fill="#964b55"/>
   <path d="m32 464 2-20-20-17-7-15 25 1c1.54-2.05 42.43 25.53 42 23l-3-5 3 9-1 14.5-4 9.5z" fill="#9e525c"/>
   <path d="m198 194 21-5s3-16 11-10c0 0 5-17.56 10-18.28v29.28l-41 10z" fill="#5eb58b"/>
   <g fill="#57a58e">
    <path d="m195 205c6.627 0 12-5.373 12-12s-5.373-12-12-12-12 5.373-12 12 5.373 12 12 12z"/>
    <path d="m207 176c-1.85 5.71-13.5 6.16-13.5 6.16s-6.26-7.15-4.41-12.86 6.82-9.21 11.1-7.83 8.66 8.82 6.81 14.53z"/>
    <path d="m213 161.45c-2.72 4.06-11.7 2.83-11.7 2.83s-4.58-7.82-1.86-11.89 7.95-5.34 11.7-2.84 4.6 7.83 1.86 11.9z"/>
    <path d="m203.91 143.18c2.54 3.1-0.56 9.85-0.56 9.85s-7.22 1.73-9.76-1.37-2.3-7.51 0.55-9.85 7.22-1.73 9.77 1.37z"/>
    <path d="m186.77 165.42c2.9 1.37 3 7.31 3 7.31s-4.63 3.72-7.52 2.35-5.17-5.69-3.91-8.36 5.54-2.67 8.43-1.3z"/>
   </g>
   <path d="m207 193c-2e-3 -2.588-0.84-5.106-2.39-7.178-1.55-2.073-3.728-3.589-6.21-4.322 3.42-0.74 7.56-2.29 8.6-5.5 1.25-3.86-0.35-8.51-2.84-11.54 2.87 0 7.14-0.42 8.87-3 0.979-1.408 1.529-3.07 1.584-4.784s-0.387-3.408-1.274-4.876c-0.72 2-1.46 4.37-1.92 5.83-0.132 0.434-0.361 0.832-0.669 1.164-0.309 0.333-0.688 0.591-1.111 0.756l-8.64 3.45 3 7-2 5-5 3-1 5 0.32 2.59c0.085 0.677 0.025 1.364-0.175 2.016-0.201 0.652-0.538 1.253-0.989 1.765-0.452 0.512-1.006 0.922-1.628 1.202-0.622 0.281-1.296 0.427-1.978 0.427h-3.55v5s-2.09 1-3.93 1.94c0.703 1.557 1.731 2.946 3.014 4.074 1.283 1.127 2.792 1.968 4.426 2.466l12.35-3.41c2.015-2.205 3.134-5.083 3.14-8.07z" fill="#4f967c"/>
   <path d="m142 412-29 5-11 2-11.49-2-17.51 29 15.73 18h74.67l-4.4-30-5-10 7-2 3-6 8-7-19 1z" fill="#a1525c"/>
   <path d="m240 190v212l-174 1 35-20 64-56 26-81 12-9c0.56-0.42 0.18-6.31 0.54-6.9l5.46-9.1-1-9 3-10.14z" fill="#784060" opacity=".53"/>
   <path d="m41 412-16 1 9 19c1.62 3.25 12.55 5.71 11 9l12 15-4 8h59s-32-7-25-8c1.4-0.2 1-15 1-15l1-10 6-2 7-9-37.38-5.39z" fill="#ab5964"/>
   <path d="m78.67 419c-1.9217 2.019-3.1361 4.607-3.4607 7.375s0.2582 5.567 1.6607 7.975l2.13 3.65 6 10-1.19 5.93c-0.2328 1.171-0.074 2.386 0.4519 3.457 0.5258 1.072 1.3896 1.941 2.4581 2.473l5.28 1.14 11 3h11l-16-6-8-4 1-7 4-5s-0.71-8.86 1-10l3-2 10-11z" fill="#b36570"/>
   <path d="m163.04 408.84 70.96-2.84-13 33-72-1-3-17z" fill="#964a54"/>
   <path d="m179.7 166c0.961-0.598 1.646-1.553 1.904-2.655 0.259-1.102 0.07-2.262-0.524-3.225l-7.26 4.5c0.598 0.961 1.553 1.645 2.655 1.904s2.262 0.07 3.225-0.524z" fill="#c9547e"/>
   <path d="m173 203 67-15v4.21l-18.44 6c-1.647 0.531-3.03 1.668-3.87 3.18l-1.55 2.8c-0.637 1.148-1.593 2.087-2.751 2.704-1.159 0.618-2.471 0.887-3.779 0.776l-6-0.5c-1.053-0.085-2.11 0.076-3.09 0.47l-8.52 3.36-5.06 2.25c-1.178 0.525-2.481 0.704-3.757 0.519-1.276-0.186-2.473-0.73-3.453-1.569-1.085-0.931-2.437-1.497-3.862-1.617-1.425-0.121-2.852 0.211-4.078 0.947l-5.79 3.47z" fill="#81c793"/>
  </g>
  <g transform="matrix(.26458 0 0 .26458 112.06 108.66)">
   <g clip-path="url(#b)">
    <path d="m0 124.06h128s-13.49-16.36-26.58-9.81c2.18-8.73-6.54-22.91-18.54-18.54 0 0-10.91-15.27-27.26-1.09 0 0-6.55-73.07-55.62-75.62z" fill="#7d9df5"/>
    <path d="m79 80.06h-59s13.83-13.4 22.13-5.36c0 0 19.35-13.41 36.87 5.36z" fill="#b1c5fd"/>
    <path d="m100.53 31.68v4.86l-53.53-4.86z" fill="url(#a)" opacity=".55"/>
    <g fill="#8ca7f5">
     <path d="m105.69 31.68 1.15-11.78 5.99 11.76z"/>
     <path d="m113.25 31.66v-6.13l4.96 5.57z"/>
     <path d="m102.15 31.1 5.54 0.89v-9.22z"/>
    </g>
    <path d="m98.91 30.06 21.86 0.49-5.64 2.76-2.3 1.65c-1.836 1.513-4.141 2.3402-6.52 2.34h-5.45c-0.378-0.0019-0.749-0.1031-1.0763-0.2934-0.3269-0.1903-0.5981-0.4632-0.7864-0.7912-0.1883-0.3281-0.2872-0.6998-0.2867-1.0781 4e-4 -0.3782 0.1002-0.7498 0.2894-1.0773z" fill="#3643a8"/>
    <path d="m113.84 34.11-14.57-0.56-0.27 0.51c-0.1875 0.3288-0.2853 0.7011-0.2837 1.0796 0.0017 0.3785 0.1028 0.7499 0.2932 1.077s0.4634 0.5985 0.7917 0.7869c0.3278 0.1884 0.6998 0.2872 1.0788 0.2865h5.45c2.379 3e-4 4.684-0.8269 6.52-2.34z" fill="#294391"/>
    <path d="m100.37 33.72 1.9 2.66h1.19l-0.91-2.66z" fill="#253c82"/>
    <path d="m103.47 33.22h-6.18v1h6.18z" fill="#244cbf"/>
    <path d="m240 48.72c-28.32-29.13-53 8.34-53 8.34-31-9-46 8-46 8h99z" fill="#b1c5fd"/>
    <path d="m212.91 26.06 1.09 2.52c5e-3 0.0107 0.012 0.0198 0.022 0.0262s0.021 0.0098 0.033 0.0098 0.023-0.0034 0.033-0.0098 0.017-0.0155 0.022-0.0262l1.17-2.52 2.56-1.13c8e-3 -0.0065 0.015-0.0149 0.02-0.0244 4e-3 -0.0095 7e-3 -0.02 7e-3 -0.0306s-3e-3 -0.021-7e-3 -0.0305c-5e-3 -0.0096-0.012-0.0179-0.02-0.0245l-2.56-1.13-1.13-2.63c-7e-3 -0.0083-0.015-0.015-0.024-0.0196-0.01-0.0047-0.02-0.0071-0.031-0.0071s-0.021 0.0024-0.031 0.0071c-9e-3 0.0046-0.017 0.0113-0.024 0.0196l-1.13 2.56-2.55 1.13c-0.011 0.0047-0.02 0.0124-0.026 0.0222-7e-3 0.0097-0.01 0.0211-0.01 0.0328s3e-3 0.0231 0.01 0.0329c6e-3 0.0098 0.015 0.0175 0.026 0.0221l2.55 1.13z" fill="#fff" opacity=".39"/>
    <path d="m5.8867 41.327c0-15.5-19.059-20.27-24.97-12 0 0-19.599-21-38.689 13.52h-2.6259c-5.4413 0-10.803 2.11-15.675 6.16l-1.927 1.61h106.39s-11-12.29-22.5-9.29z" fill="#fff"/>
   </g>
  </g>
 </g>
 <g transform="translate(0 36.248)">
  <g transform="matrix(.26458 0 0 .26458 0 -36.248)" fill="none">
   <g clip-path="url(#a)">
    <path d="m0 405.13v8.47c16.82 0.21 33.33 0.4 39 0.4 13 0 45 6 60 6s51-10 66-10 75-2 75-2v-4.32z" fill="#81c793"/>
    <path d="m0 404v6.59c16.82 0.21 33.33 0.4 39 0.4 13 0 45 6 60 6s51-10 66-10 75-2 75-2v-4.32z" fill="#a3faa8"/>
    <path d="m105 442.67 1.35 2.64 3.65 6.69 9 2 3.68 10h117.32v-21z" fill="#633150" opacity=".53"/>
   </g>
  </g>
 </g>
 <g transform="translate(0 36.248)">
  <g transform="matrix(.26458 0 0 .26458 0 -35.891)" fill="none">
   <g clip-path="url(#a)">
    <path d="m38 367h-7v32h7z" fill="#837c8a"/>
    <path d="m12.08 395h43.84c1.0821 0 2.1198 0.43 2.885 1.195 0.7651 0.765 1.195 1.803 1.195 2.885v2.71c0 0.851-0.3382 1.668-0.9402 2.27s-1.4185 0.94-2.2698 0.94h-45.79c-0.7957 0-1.5587-0.316-2.1213-0.879-0.56261-0.562-0.87868-1.325-0.87868-2.121v-2.9c-0.00264-0.537 0.10095-1.07 0.30481-1.567 0.20386-0.498 0.50397-0.95 0.8831-1.331 0.37912-0.381 0.8298-0.683 1.3261-0.89 0.4963-0.206 1.0285-0.312 1.566-0.312z" fill="#bab5bf"/>
    <path d="m8 398.53h52v4c0.0026 0.323-0.0588 0.644-0.1807 0.944-0.122 0.299-0.302 0.572-0.5298 0.801-0.2277 0.23-0.4987 0.412-0.7973 0.537-0.2985 0.124-0.6188 0.188-0.9422 0.188h-47.1c-0.64978 0-1.273-0.258-1.7324-0.718-0.45947-0.459-0.71759-1.082-0.71759-1.732v-4z" fill="#978ca2"/>
    <path d="m8 398.53h11v6.47h-8.18c-0.7479 0-1.4652-0.297-1.994-0.826s-0.82596-1.246-0.82596-1.994z" fill="#877d91"/>
    <path d="m16.32 353.16c0.0214-0.94 0.2871-1.859 0.771-2.665 0.4839-0.807 1.1694-1.474 1.989-1.935 1.0871-0.514 2.0546-1.25 2.84-2.16 1.61-1.94 4.35-4.34 5.36 0.19 0 0 2.92 12.42-5.85 12.42 0-0.01-4.38 0.73-5.11-5.85z" fill="#f3c46b"/>
    <path d="m20.49 352.34c-0.0026 1.547-0.6191 3.03-1.714 4.123-1.095 1.093-2.5789 1.707-4.126 1.707-3.22 0-7.45-2.71-6.67-5.83 1.67-6.67 5-2.5 5.84-3.34 3.77-3.77 6.67 0.11 6.67 3.34z" fill="#e29391"/>
    <path d="m1 355h34s-16 24-34 0z" fill="#e4e4e4"/>
    <path d="m11.73 346.92c0.07-0.28 1.67 0 1.67 2.5" stroke="#c28988" stroke-linecap="round" stroke-miterlimit="10" stroke-width=".83"/>
    <path d="m38 375-7-2v-6h7z" fill="#736e78"/>
    <path d="m7.89 355c0.11 0 3.11 8 9.11 9 0 0 10 1 17-9z" fill="#d6d6d6"/>
    <path d="m0 362h45c1.0609 0 2.0783 0.421 2.8284 1.172 0.7502 0.75 1.1716 1.767 1.1716 2.828s-0.4214 2.078-1.1716 2.828c-0.7501 0.751-1.7675 1.172-2.8284 1.172h-45z" fill="#9b93a2"/>
    <path d="m86 402.65-13-32.65s61-35 105-126c0 0 40 10 62 3v155.65z" fill="#d56b95"/>
    <path d="m182 323c0 1 9 44 34 58 0 0-9 7-8.69 21.65h-10.9z" fill="#923963"/>
    <path d="m184.15 265.74-0.15 17.26 2.77-4.06s-2.98-10.94-2.62-13.2z" fill="#bd94fa"/>
    <path d="m187 279.78s-1 23.22 2 28.22c0 0 2-8 6-11.36-4.435-4.596-7.245-10.517-8-16.86z" fill="#bd94fa"/>
    <path d="m196.49 297.24 1.51 9.76s5.94-11.31 7-16.65c0 0-2 6.13-8.51 6.89z" fill="#a075e0"/>
    <path d="m207.11 290.69s-5.11 16.31-2.11 31.31c0 0 3-9 6-12-3.224-5.894-4.58-12.628-3.89-19.31z" fill="#bd94fa"/>
    <path d="m212 312 3 12 9-12s-7 7-12 0z" fill="#a075e0"/>
    <path d="m224.44 312 1.56 4 1.58-6.52z" fill="#bd94fa"/>
    <path d="m230.07 309.31s-2.07 19.69-0.07 23.69l7.22-12.68s-4.08-0.7-7.15-11.01z" fill="#a075e0"/>
    <path d="m240 321.37c-8.74-3.67-9.95-13.45-10-13.93l-0.13-1.09-0.74 0.81c-5.54 6-10.14 8.39-13.65 7-8.38-3.27-8.48-26.45-8.48-26.68v-2.12l-0.95 1.9c-3.42 6.83-6.58 10-9.4 9.49-10-1.91-14.11-47.35-14.15-47.81l-1 0.08c0.17 1.91 4.19 46.66 15 48.71 3.08 0.59 6.23-2.13 9.58-8.29 0.22 5.84 1.49 22.7 9.08 25.66 3.78 1.47 8.51-0.73 14.06-6.55 0.59 2.82 2.92 10.73 10.82 13.87z" fill="#bd94fa"/>
    <path d="m178 244s16 46.76 62 69.88v-67.88s-21 7-62-2z" fill="#af4a70"/>
    <path d="m178 247.16c-0.375 3e-3 -0.738-0.132-1.02-0.379s-0.463-0.589-0.51-0.961l-0.95-7.07c-0.028-0.219-0.01-0.441 0.055-0.652 0.064-0.211 0.173-0.406 0.318-0.572 0.146-0.166 0.326-0.298 0.527-0.389s0.419-0.137 0.64-0.137h1.88c0.221 0 0.439 0.046 0.64 0.137s0.381 0.223 0.527 0.389c0.145 0.166 0.254 0.361 0.319 0.572 0.064 0.211 0.083 0.433 0.054 0.652l-0.95 7.07c-0.047 0.372-0.228 0.714-0.51 0.961s-0.645 0.382-1.02 0.379z" fill="#d58da9"/>
    <path d="m176 311s-28 20-38 20 0-19 0-19l-19.94 19.94c-8.078 8.58-16.692 16.64-25.79 24.13l18.73 4.93-7 29-5.92 12.61h17.92l2-17.61 14-16 5.94 33.65h18.14z" fill="#923963" opacity=".25"/>
    <path d="m155.08 402.65s22.92-77.65 22.92-135.65c0 0 4.36 101.31 25.18 135.65z" fill="#59374b"/>
    <g fill="#923963">
     <path d="m199 351c-1.68-1.48 16 31 35 22-12.756-5.438-24.569-12.863-35-22z" opacity=".25"/>
     <path d="m203 265s30 12 37 0.8v32.2s-18-1-37-33z" opacity=".55"/>
    </g>
   </g>
  </g>
 </g>
 <g transform="translate(0 36.248)" fill="none">
  <g transform="matrix(.26458 0 0 .26458 -.32279 -36.412)">
   <path d="m72 389.43c0.0358-0.086 0.0359-0.183 3e-4 -0.269-0.0356-0.087-0.1041-0.155-0.1903-0.191s-0.1831-0.036-0.2693 0c-0.0863 0.035-0.1549 0.104-0.1907 0.19l-2.72 4.65c-0.29-0.19-0.58-0.36-0.87-0.57-1.7037-1.209-2.8667-3.037-3.2405-5.093-0.3737-2.055 0.0715-4.175 1.2405-5.907l9.87-14.59 20.53 1.88 3.74 17.3c0.216 1.017 0.109 2.076-0.3048 3.029-0.414 0.954-1.1149 1.754-2.0052 2.291-1 0.57-2.11 1.2-3.43 1.82l-0.82-6.66c-0.0122-0.064-0.0464-0.122-0.0966-0.163-0.0502-0.042-0.1133-0.064-0.1784-0.064s-0.1282 0.022-0.1784 0.064c-0.0502 0.041-0.0843 0.099-0.0966 0.163l-1.07 7.73c-5.82 2.3-13.71 3.77-21.24-0.15z" fill="#6e707d"/>
   <path d="m116.26 354.26c-1.08-2.7-5.69-4.09-7.77-4.69l-0.73-0.32c-0.87-0.391-1.807-0.608-2.76-0.64l-21.48-0.8c-0.72 0 1.6 1.48 1.48 2.19l-3.16 0.26c-0.0342 0.199-0.0259 0.402 0.0242 0.598 0.0501 0.195 0.1409 0.377 0.2665 0.535s0.2831 0.287 0.4623 0.38c0.1791 0.092 0.3757 0.146 0.577 0.157l22.06 1.2c-0.3 1.791-0.092 3.631 0.6 5.31 1.6 4 5.23 6.29 8.11 5.13s3.92-5.32 2.32-9.31z" fill="#ed9836"/>
   <path d="m116.26 354.26c-1.08-2.7-5.69-4.09-7.77-4.69l-0.06-0.06c-0.452 1.654-0.346 3.411 0.3 5 1.38 3.54 4.79 5.51 7.62 4.41 0.222-0.088 0.436-0.196 0.64-0.32 0.085-1.483-0.164-2.966-0.73-4.34z" fill="#e0851b"/>
   <path d="m103.14 331.44c7 12.79 19.19 22 32.25 28.49 1.152 0.561 2.421 0.838 3.702 0.807s2.535-0.37 3.658-0.987c4.19-2.29 10.51-5.84 9.7-6-1.19-0.3-2.06-0.28-3.26-0.55l-0.42-0.09c3.07 0 4.38 2.14 7.2 0.92s7.16-5.83 8.78-8.44c1.09-1.74 1.77-3.87 0.92-5.85-0.229-0.576-0.609-1.08-1.1-1.458s-1.075-0.617-1.69-0.692c-2.08-0.17-3.4 1.71-4.86 3.05-1.321 1.168-2.912 1.989-4.63 2.39 1.875-0.825 3.553-2.041 4.922-3.565s2.398-3.322 3.018-5.275c0.57-1.85 0.57-4.25-1.06-5.3-0.537-0.298-1.141-0.454-1.755-0.454s-1.218 0.156-1.755 0.454c-1.06 0.618-2.002 1.421-2.78 2.37-3.72 4-7.56 8.44-12.83 10-5 1.48-10.38 0.12-15.15-2-8.08-3.52-16.53-8.67-21-16.29-0.68 1.8 0 3-1 4.68-0.705 0.915-1.15 2.003-1.29 3.15-9e-3 0.132 0.019 0.263 0.08 0.38 0.1 0.14 0.21 0.34 0.35 0.26z" fill="#fff"/>
   <path d="m103.14 331.44c-0.11 0.08-0.25-0.12-0.33-0.23-0.061-0.117-0.089-0.248-0.08-0.38 0.14-1.147 0.585-2.235 1.29-3.15 0.9-1.47 0.49-2.62 0.88-4.14l0.57 0.11c1.771 2.782 3.975 5.264 6.53 7.35 0 9 5.09 14 9.54 20.65-7.46-5.45-13.98-12.12-18.4-20.21z" fill="#e4e4e4" opacity=".51"/>
   <path d="m110.22 283.05c-5.754 5.78-9.914 12.952-12.074 20.817-2.1607 7.864-2.2488 16.154-0.2558 24.063" stroke="#fff" stroke-miterlimit="10" stroke-width="11.24"/>
   <path d="m105.16 349s9.7-15.56 0.19-26.8l-2.59-0.86s-1.6 6.05-2.46 6.05l-2.24-7.39-12.06 1s-3 4-5.94 3c0 0-3 5 4 27z" fill="#484482"/>
   <path d="m100.28 327.18v0.17l1.76-6.35 5 1c9.51 11.24-1.9 27-1.9 27h-0.29l-5.3-7.67z" fill="#413d75"/>
   <path d="m99.57 341.31-14.51 9.69 20.1-2.04z" fill="#3a385b"/>
   <path d="m127.26 340.93c-0.3-0.47-0.59-1-0.85-1.48 4.67 2 9.92 3.24 14.77 1.8l0.31-0.1c1.207 0.063 2.417 0.037 3.62-0.08 0.729-0.144 1.484-0.081 2.18 0.18 0.386 0.226 0.696 0.562 0.891 0.964 0.196 0.402 0.269 0.853 0.209 1.296-0.132 0.886-0.562 1.701-1.22 2.31-1.65 1.491-3.777 2.346-6 2.41-2 0.19-4.017-0.04-5.923-0.673-1.906-0.634-3.659-1.658-5.147-3.007-1.091-1.086-2.045-2.302-2.84-3.62z" fill="#cacaca"/>
   <path d="m104.17 281.22 2.27 0.83 5.59 3 2 2.18c-2.813 2.757-5.175 5.939-7 9.43-0.52-5-3.65-9.48-5.69-11.91 1.03-1.44 2.01-2.61 2.83-3.53z" fill="#e4e4e4"/>
   <path d="m112.62 253.66c-1 2.53-1.85 12.22-1.85 12.22s5.76-7.84 6.72-10.37 0.65-5-0.7-5.5-3.21 1.12-4.17 3.65z" fill="#cacaca"/>
   <g fill="#fff">
    <path d="m118.35 289.99c6.15-2.238 8.964-10.018 6.286-17.377-2.679-7.359-9.836-11.511-15.985-9.272-6.15 2.238-8.9644 10.018-6.286 17.378 2.679 7.359 9.835 11.51 15.985 9.271z"/>
    <path d="m99.5 253.68c1.73 3.14 12.44 11.4 12.44 11.4s-1.3-13.47-3-16.6-5.24-4.51-7.84-3.07-3.34 5.14-1.6 8.27z"/>
    <path d="m98.9 258.43c2.76 0.27 12 4.88 12 4.88s-9.92 2.71-12.68 2.44-4.83-2.13-4.63-4.15 2.55-3.44 5.31-3.17z"/>
   </g>
   <path d="m122 285s-8 6-7.76-4.73z" fill="#f5b41b"/>
   <path d="m114.24 280.27c-5.9-4.06-8.27-10.86-5.3-15.18 0.68-0.972 1.586-1.765 2.64-2.31 5.34-0.26 10.78 3.65 13 9.85 1.258 3.336 1.343 7 0.24 10.39-3.748 0.456-7.529-0.527-10.58-2.75z" fill="#5ae6dc"/>
   <path d="m114.24 280.27c1.711-0.972 3.597-1.597 5.55-1.837s3.935-0.092 5.83 0.437c0 0 3.89 8.14 13.57 16.26 1.08 0.908 1.811 2.163 2.07 3.55v0.21z" fill="#f5cd1b"/>
   <path d="m133.22 291.91c0.156-0.228-0.085-0.666-0.54-0.98-0.455-0.313-0.951-0.383-1.107-0.155-0.157 0.227 0.085 0.665 0.539 0.979 0.455 0.313 0.951 0.383 1.108 0.156z" fill="#bd9e15"/>
   <path d="m107.5 332c0.828 0 1.5-0.895 1.5-2s-0.672-2-1.5-2-1.5 0.895-1.5 2 0.672 2 1.5 2z" fill="#737093"/>
   <path d="m92.06 350s-5-12-11.38-11.92c-0.44 0 3.38 13.92 3.38 13.92l18.5-0.5z" fill="#3a385b" opacity=".32"/>
   <path d="m121.81 406.28h-16c-0.225 1e-3 -0.448-0.042-0.656-0.127-0.208-0.086-0.397-0.212-0.556-0.371s-0.285-0.348-0.371-0.556c-0.085-0.208-0.128-0.431-0.127-0.656v-24.57l5.32-2.24 0.59 16.18c0.042 1.266 0.488 2.486 1.272 3.481 0.785 0.995 1.867 1.713 3.088 2.049 3.212 0.767 6.133 2.448 8.41 4.84 0.15 0.178 0.244 0.396 0.272 0.627s-0.012 0.465-0.115 0.674-0.264 0.383-0.464 0.502-0.431 0.177-0.663 0.167z" fill="#3a3445"/>
   <path d="m111.81 376.3 1.24 2c0.178 0.303 0.277 0.646 0.288 0.997 0.01 0.351-0.068 0.699-0.227 1.012-0.16 0.313-0.395 0.58-0.686 0.778-0.29 0.198-0.625 0.319-0.975 0.353l-9.4 1c-0.318 0.028-0.639-0.021-0.934-0.143-0.296-0.122-0.558-0.313-0.765-0.556-0.206-0.244-0.3515-0.534-0.4231-0.846-0.0716-0.311-0.0674-0.635 0.0121-0.945l0.12-1.9z" fill="#7e808f"/>
   <path d="m85.28 382.39-4.9 12.86c-0.1586 0.407-0.2303 0.843-0.2104 1.279 0.0198 0.436 0.1308 0.864 0.3258 1.255s0.4696 0.736 0.8062 1.015c0.3367 0.278 0.7278 0.483 1.1484 0.601 2.46 0.68 5.67 4 7.5 6.46 0.1485 0.2 0.2386 0.437 0.26 0.685s-0.0266 0.497-0.1387 0.719-0.2839 0.409-0.4961 0.539-0.4564 0.198-0.7052 0.197l-15.49-2c-0.3112 2e-3 -0.6181-0.072-0.8938-0.216-0.2758-0.144-0.5119-0.354-0.6877-0.611-0.1757-0.256-0.2858-0.552-0.3204-0.862-0.0346-0.309 0.0072-0.622 0.1219-0.911l8.49-21.88z" fill="#3a3445"/>
   <path d="m86.78 380.84 0.28 1.37c0.0732 0.336 0.0675 0.685-0.0166 1.019-0.0841 0.333-0.2443 0.643-0.468 0.905-0.2237 0.261-0.5049 0.467-0.8216 0.602s-0.6602 0.194-1.0038 0.174l-6.6-0.36c-0.3932-0.022-0.7737-0.148-1.1033-0.363-0.3297-0.216-0.597-0.514-0.7751-0.866-0.1782-0.351-0.2611-0.743-0.2403-1.136s0.1445-0.774 0.3587-1.105l0.55-0.83z" fill="#9395a6"/>
   <path d="m105.06 351c0.25 0.73 20.09 25.49 1.37 28.61-14.37 2.39-18.9-18.93-12.13-27.86z" fill="#7e808f"/>
   <path d="m98.43 351.55s4.18 33-17.43 30.45c0 0-12 0-4-19l4-11z" fill="#9395a6"/>
   <path d="m111.56 370.5s-8 8-13 1c0 0 1 13 13-1z" fill="#6e707d"/>
   <path d="m81.9 368.55c0.46-0.89-3.64 2.6-5.93 0.93 0.03 0 3.58 3.52 5.93-0.93z" fill="#aaacbe"/>
   <path d="m113 272s3 1 1 5" stroke="#000" stroke-linecap="round" stroke-miterlimit="10" stroke-width="2"/>
   <path d="m81 349h26v4h-26c-0.5304 0-1.0391-0.211-1.4142-0.586s-0.5858-0.884-0.5858-1.414 0.2107-1.039 0.5858-1.414 0.8838-0.586 1.4142-0.586z" fill="#ed9836"/>
   <path d="m123.99 324.74 2.95-2.848c1.406-1.357 3.294-2.101 5.249-2.066 1.954 0.034 3.814 0.844 5.172 2.25l-13.583 13.113c-0.675-0.699-1.205-1.524-1.559-2.428-0.355-0.905-0.527-1.87-0.507-2.841 0.019-0.971 0.231-1.928 0.622-2.818 0.391-0.889 0.954-1.691 1.656-2.362z" fill="#a075e0"/>
   <path d="m139.39 355.37c9.726 0 17.61-7.884 17.61-17.61s-7.884-17.61-17.61-17.61-17.61 7.884-17.61 17.61 7.884 17.61 17.61 17.61z" fill="#b78afa"/>
   <path d="m125 347.92c3.71-0.44 7.36-4.24 8.76-9.54 1.67-6.34-0.52-12.42-4.89-13.57-0.399-0.101-0.808-0.158-1.22-0.17-0.17 0.15-0.35 0.29-0.52 0.45-3.023 2.924-4.899 6.833-5.29 11.021-0.39 4.187 0.73 8.376 3.16 11.809z" fill="#c4a0fa"/>
   <path d="m146.48 344.2c-3.43 3.31-4.68 7.57-2.79 9.53 0.336 0.338 0.747 0.592 1.2 0.74 2.797-0.908 5.32-2.508 7.334-4.651s3.454-4.761 4.186-7.609c-0.088-0.166-0.192-0.324-0.31-0.47-1.88-1.95-6.19-0.85-9.62 2.46z" fill="#9069c9"/>
   <path d="m154.29 328.37c-0.536-0.848-1.148-1.644-1.83-2.38-3.215-1.43-6.746-2.002-10.248-1.661s-6.856 1.584-9.735 3.607c-2.879 2.024-5.184 4.759-6.69 7.939-1.507 3.18-2.164 6.696-1.907 10.205 0.467 0.882 1.009 1.722 1.62 2.51-0.79-3.669-0.481-7.49 0.887-10.984 1.369-3.495 3.736-6.509 6.808-8.666 3.071-2.157 6.71-3.362 10.461-3.463 3.752-0.101 7.451 0.905 10.634 2.893z" fill="#a075e0" opacity=".46"/>
   <path d="m70.68 384.32c-1.0118-1.755-1.8684-3.596-2.56-5.5-5.25-14-6.05-37.36 7.61-53 2.1741-2.443 5.1291-4.055 8.36-4.56 0.1836-0.033 0.3726-0.016 0.5479 0.048 0.1753 0.063 0.3306 0.172 0.4503 0.315s0.1995 0.315 0.2315 0.499c0.0319 0.184 0.0148 0.373-0.0497 0.548-2.64 7.22-13.59 34.19 1.73 51.33l-12.49 11.39c-0.51 0.31-3.51-0.51-3.83-1.07z" fill="#fff"/>
   <path d="m91.22 320.57-9.22 0.43c-0.0954 3e-3 -0.1885 0.031-0.2696 0.081-0.0811 0.051-0.1474 0.122-0.1921 0.206s-0.0663 0.179-0.0625 0.274c0.0039 0.096 0.0329 0.189 0.0842 0.269 0.9786 1.531 1.5747 3.276 1.7383 5.085 0.1636 1.81-0.1102 3.633-0.7983 5.315l8.5-8.23z" fill="#484482"/>
   <path d="m154 342.82c0.27-0.08 0.54-0.16 0.81-0.27-0.28 0.057-0.552 0.147-0.81 0.27z" fill="#e4e4e4"/>
   <path d="m154.82 342.55c-0.27 0.11-0.54 0.19-0.81 0.27-1.34 0.63-2.83 2.29-4.36 5.53-3.11 6.6-9.93 9.75-14.89 11.26 3.305 1.654 7.092 2.076 10.68 1.19 3.743-0.816 7.166-2.707 9.85-5.44 1.186-1.244 2.162-2.673 2.89-4.23 0.334-0.685 0.608-1.398 0.82-2.13 0.66-2.62-1.27-7-4.18-6.45z" fill="#cacaca"/>
   <path d="m132.45 406.11c-0.236-0.119-0.51-0.139-0.761-0.056-0.251 0.082-0.459 0.26-0.579 0.496-1.65 3.3-8 4.44-13.79 2.5-2.08-0.69-4.53-0.37-7.13 0-3.76 0.49-7.31 1-9.41-1.65-3.78-4.73-2.81-8.14-1.21-13.79 0.45-1.58 1-3.38 1.41-5.37 0.941-4.424 0.941-8.996 0-13.42-1.13-5.67-3.48-9.67-7.38-12.6-1.0822-0.79-2.3158-1.347-3.6236-1.638s-2.6615-0.309-3.9764-0.052c-1.2737 0.215-2.4892 0.691-3.57 1.398s-2.0035 1.631-2.71 2.712c-2.94 4.66-6 9.47-7.46 15-1 3.69-1.73 7.36-2.43 10.9-0.8877 5.139-2.1511 10.206-3.78 15.16-2.58 7.31-5 13.12-10.93 15.72-6.405 2.73-13.552 3.182-20.25 1.28-0.53-0.15-1.22-0.37-2-0.62-5.51-1.75-17-5.39-23.5 0.19-3 2.57-4.54 6.48-6.32 11-0.9 2.27-1.84 4.65-3 7v4.1c1.9142-3.308 3.5338-6.778 4.84-10.37 1.68-4.28 3.14-8 5.76-10.22 5.67-4.86 16.43-1.45 21.6 0.19 0.84 0.27 1.55 0.49 2.11 0.65 7.1392 2.024 14.757 1.537 21.58-1.38 7.16-3.16 9.85-10.77 12-16.89 1.6601-5.049 2.9502-10.213 3.86-15.45 0.7-3.51 1.41-7.14 2.4-10.76 1.41-5.21 4.37-9.9 7.22-14.43 0.5655-0.852 1.3019-1.578 2.1627-2.13 0.8607-0.553 1.8269-0.921 2.8373-1.08 1.0359-0.204 2.1025-0.194 3.1344 0.03 1.0318 0.223 2.007 0.656 2.8656 1.27 3.51 2.65 5.58 6.2 6.58 11.4 0.8807 4.147 0.8807 8.433 0 12.58-0.43 1.94-0.93 3.71-1.37 5.26-1.66 5.84-2.86 10 1.57 15.58 2.8 3.5 7.28 2.91 11.23 2.39 2.36-0.31 4.59-0.61 6.23-0.06 6.1 2 13.83 1.28 16.21-3.5 0.12-0.234 0.143-0.505 0.065-0.756-0.079-0.251-0.253-0.461-0.485-0.584z" fill="#9069c9"/>
   <path d="m33.29 418.36 3.691 1.785c1.7597 0.851 3.1092 2.367 3.7517 4.213s0.5253 3.871-0.3257 5.631l-16.97-8.207c0.4218-0.872 1.0113-1.652 1.7349-2.296s1.567-1.14 2.4821-1.457c0.915-0.318 1.8838-0.452 2.8508-0.395 0.967 0.056 1.9133 0.303 2.7848 0.726z" fill="#a075e0"/>
   <path d="m26.38 454.92c9.7258 0 17.61-7.884 17.61-17.61s-7.8842-17.61-17.61-17.61c-9.7257 0-17.61 7.884-17.61 17.61s7.8843 17.61 17.61 17.61z" fill="#b78afa"/>
   <path d="m11.89 427.33c1.69 3.33 6.52 5.45 12 4.93 6.53-0.62 11.48-4.77 11-9.28-0.0461-0.408-0.1332-0.81-0.26-1.2-0.2-0.11-0.39-0.23-0.6-0.33-3.7848-1.824-8.0971-2.233-12.158-1.155-4.0605 1.078-7.6013 3.574-9.9825 7.035z" fill="#c4a0fa"/>
   <path d="m22.79 446.19c-4.29-2.08-8.73-1.78-9.91 0.67-0.205 0.43-0.3044 0.903-0.29 1.38 1.8218 2.312 4.1972 4.127 6.9065 5.277 2.7094 1.15 5.665 1.598 8.5935 1.303 0.1211-0.139 0.2282-0.29 0.32-0.45 1.18-2.44-1.33-6.11-5.62-8.18z" fill="#9069c9"/>
   <path d="m40.34 448.06c0.6037-0.8 1.139-1.65 1.6-2.54 0.2314-3.511-0.4505-7.022-1.9795-10.191-1.5289-3.169-3.8527-5.888-6.7449-7.892s-6.2542-3.225-9.7585-3.543c-3.5042-0.319-7.0311 0.276-10.237 1.726-0.6661 0.745-1.2682 1.544-1.8 2.39 3.1716-2.011 6.8655-3.042 10.62-2.964 3.7543 0.077 7.4026 1.26 10.489 3.399 3.0861 2.14 5.473 5.141 6.8623 8.63 1.3894 3.489 1.7195 7.31 0.9492 10.985z" fill="#a075e0" opacity=".46"/>
   <path d="m62.42 440.16c7.8756 0 14.26-6.384 14.26-14.26s-6.3844-14.26-14.26-14.26-14.26 6.384-14.26 14.26 6.3844 14.26 14.26 14.26z" fill="#b78afa"/>
   <path d="m48.18 426c2.67 1.43 6.85 0.61 10.24-2.26 4-3.43 5.42-8.47 3.06-11.27-0.2183-0.252-0.4631-0.48-0.73-0.68-0.19 0-0.37 0-0.55 0.06-3.3639 0.533-6.4257 2.253-8.6307 4.849s-3.4073 5.895-3.3893 9.301z" fill="#c4a0fa"/>
   <path d="m64.14 433.47c-3.81 0.6-6.62 2.85-6.28 5 0.0652 0.381 0.2194 0.74 0.45 1.05 2.2776 0.699 4.695 0.81 7.0273 0.324s4.5038-1.554 6.3127-3.104c0.015-0.15 0.015-0.3 0-0.45-0.34-2.15-3.65-3.43-7.51-2.82z" fill="#9069c9"/>
   <path d="m64.5 416c-3.7052 0.014-7.2978 1.275-10.2 3.578-2.9021 2.304-4.945 5.517-5.8 9.122 0.1428 0.76 0.3502 1.506 0.62 2.23 0.3033-3.016 1.4855-5.877 3.3999-8.227s4.4767-4.087 7.369-4.994 5.9874-0.946 8.9012-0.11 5.5182 2.509 7.4899 4.811c-0.1912-0.746-0.442-1.475-0.75-2.18-3.0241-2.73-6.9557-4.238-11.03-4.23z" fill="#a075e0" opacity=".46"/>
   <path d="m82.19 367.58c-0.802-1.345-1.4718-2.765-2-4.24-0.4809-1.012-0.7724-2.103-0.86-3.22-0.0368-0.557 0.0742-1.114 0.3218-1.615 0.2476-0.5 0.623-0.926 1.0882-1.235 1.37-0.76 3.12 0 4.18 1.18 2.1 2.29 3.11 4.09 2.57 8.74-0.16 1.36-1.46 3.32-1.53 4.7-0.06 1.09 0.58 1.15 0 2.07-0.6173 0.473-1.3253 0.813-2.08 1-0.72 0.14-0.7-0.39-1-1-0.74-1.41 0-2.93-0.31-4.5-0.0872-0.576-0.2416-1.14-0.46-1.68z" fill="#e4e4e4"/>
   <path d="m78.31 362.44c0.4274-0.246 0.9051-0.392 1.397-0.426 0.4919-0.035 0.9853 0.042 1.443 0.226 0.938 0.391 1.773 0.993 2.44 1.76 2.5849 2.911 3.9807 6.688 3.91 10.58 0.0267 1.228-0.1525 2.451-0.53 3.62-0.8135 2.055-2.2509 3.804-4.11 5-0.1891 0.175-0.4113 0.31-0.6534 0.398-0.2422 0.087-0.4994 0.125-0.7566 0.112-0.74-0.15-1.13-1-1.31-1.84-0.7-3.11-0.1-6.39-0.9-9.47-0.65-2.52-2.75-3.57-2.65-6.42-0.0208-0.685 0.1248-1.365 0.4244-1.982 0.2995-0.616 0.7441-1.151 1.2956-1.558z" fill="#cacaca"/>
   <path d="m79.54 368.43c-1.53-1.17-4-1.79-5.06 0.35-1 2 0 4.39 0.74 6.27 0.609 1.268 1.0397 2.614 1.28 4 0.1099 0.735 0.1334 1.48 0.07 2.22-0.1195 0.342-0.3143 0.653-0.57 0.91-0.8 0.76-1.92 0.39-2.81 0-3.87-1.95-5.07-3.33-5.07-3.33 0.5771 1.95 1.4398 3.803 2.56 5.5 1.32 1.91 3.12 3.65 5.25 3.65 4.25 0 7.31-4.73 7.95-8.46 0.3449-2.071 0.1236-4.197-0.6404-6.153-0.7639-1.955-2.0422-3.668-3.6996-4.957z" fill="#b5b5b5"/>
   <path d="m71.36 388c0.54-2.68 1.13-5.39 1.87-8.13" stroke="#9069c9" stroke-linecap="round" stroke-miterlimit="10" stroke-width="2"/>
  </g>
  <g transform="matrix(.26458 0 0 .26458 -.079375 -34.428)">
   <g clip-path="url(#a)">
    <path d="m122.51 444.21s25.13-24.21 46.13-15.21c0 0 13-18 30-8 0 0 4-11 17-5 0 0-1-34 24.36-40.66v68.66z" fill="#54a18a"/>
    <path d="m215.64 416c-13-6-17 5-17 5-17-10-30 8-30 8-21-9-46.13 15.21-46.13 15.21h7.88v-0.31s28.61-8.9 43.61-4.9c0 0 12-24 26-11 0 0 3-18 19-6 0 0 7-32 21-31v-15.66c-25.36 6.66-24.36 40.66-24.36 40.66z" fill="#5eb58b"/>
    <path d="m174.77 444.29 6.48 19.69h58.75v-20.98z" fill="#703443" opacity=".53"/>
    <path d="m154 448 6 4-2 5 2 2 3 5h30l-3-4-4.09-2c-2.14-0.54-2.91-9-2.91-9l-2.4-4.79-19.45 2.39z" fill="#8c4c55"/>
    <path d="m158 447 3 5-1.09 2.18c-0.286 0.568-0.44 1.193-0.45 1.828-0.01 0.636 0.123 1.265 0.39 1.842l3.05 6.15h-3.14l-1.76-5-4-4s2.26-3.71 2-5l-4-3z" fill="#a65e67"/>
    <path d="m106.35 445.31-0.64-1.1-0.71-1.54 135 0.33v2.95l-62 0.05-24 2z" fill="#81c793"/>
    <path d="m105.71 444.21-0.71-1.54 135-0.67v2.95l-62-0.95-22 2z" fill="#a3faa8"/>
    <path d="m208.35 439.12 1.35-1.57c0.247-0.286 0.559-0.509 0.91-0.65l3.67-1.47c0.392-0.14 0.739-0.386 1-0.71l2.88-3.59c0.357-0.458 0.876-0.763 1.45-0.85l3.4-0.57c0.439-0.068 0.888-9e-3 1.295 0.168 0.407 0.176 0.755 0.465 1.005 0.832l3.8 5.33c0.09 0.11 0.18 0.22 0.28 0.32l2.73 2.66c0.323 0.328 0.543 0.744 0.633 1.196 0.089 0.451 0.043 0.92-0.132 1.346-0.174 0.426-0.471 0.791-0.851 1.051-0.381 0.259-0.829 0.4-1.29 0.407h-20.35c-0.453 3e-3 -0.897-0.126-1.279-0.369-0.381-0.244-0.684-0.593-0.873-1.005-0.188-0.412-0.253-0.87-0.187-1.318s0.26-0.868 0.559-1.208z" fill="#9395a6"/>
    <path d="m221.3 432.12 0.17 2.77c0.02 0.385-0.055 0.769-0.219 1.118s-0.412 0.652-0.721 0.882l-2.13 1.6c-0.438 0.328-0.749 0.798-0.88 1.33l-0.06 0.25c-0.081 0.346-0.083 0.705-6e-3 1.052s0.231 0.672 0.451 0.951c0.22 0.278 0.501 0.504 0.82 0.659 0.319 0.156 0.67 0.237 1.025 0.238h12.94c2.11 0 0.84-4.53-0.69-6l-6.73-6.72c-0.264-0.249-0.581-0.434-0.928-0.542-0.347-0.107-0.713-0.134-1.072-0.078-0.581 0.091-1.107 0.398-1.472 0.86-0.365 0.461-0.543 1.043-0.498 1.63z" fill="#7a7c8a"/>
    <path d="m221.55 439.44 1.78-3c0.325-0.532 0.846-0.916 1.45-1.07l6.24-1.56c0.328-0.081 0.634-0.233 0.898-0.443 0.264-0.211 0.48-0.476 0.632-0.777l2.68-5.38c0.263-0.517 0.707-0.92 1.247-1.132s1.139-0.218 1.683-0.018l1.84 0.69v16.25h-16.44c-0.416-1e-3 -0.823-0.112-1.182-0.322-0.359-0.209-0.655-0.511-0.86-0.873-0.204-0.361-0.309-0.771-0.303-1.187 5e-3 -0.415 0.121-0.822 0.335-1.178z" fill="#7a7c8a"/>
    <g fill="#5eb58b">
     <path d="m177 434.27c2.92-2.27 8.57-5.72 13.84-3.4 0.076 0.03 0.16 0.033 0.237 9e-3 0.078-0.025 0.145-0.077 0.189-0.145 0.044-0.069 0.062-0.151 0.052-0.232s-0.048-0.156-0.108-0.212c-2.2-2.05-6.14-4.82-10.09-3.22-0.07 0.022-0.131 0.068-0.17 0.13l-4.45 6.6c-0.043 0.069-0.06 0.15-0.05 0.23 0.011 0.08 0.049 0.154 0.108 0.21 0.059 0.055 0.135 0.088 0.215 0.094 0.081 5e-3 0.161-0.017 0.227-0.064z"/>
     <path d="m224.1 406.08c2.22-1.74 7.34-5.2 11.18-3.63 0.084 0.03 0.175 0.032 0.26 5e-3 0.085-0.026 0.159-0.079 0.211-0.152 0.052-0.072 0.079-0.159 0.077-0.248s-0.033-0.175-0.088-0.245c-0.842-1.048-1.89-1.913-3.08-2.54-0.062-0.035-0.115-0.085-0.151-0.147-0.036-0.061-0.055-0.131-0.055-0.203 0-0.071 0.019-0.142 0.055-0.203 0.036-0.062 0.089-0.112 0.151-0.147 1.006-0.685 2.103-1.224 3.26-1.6 0.086-0.024 0.162-0.076 0.217-0.147 0.054-0.071 0.083-0.158 0.083-0.248s-0.029-0.177-0.083-0.248c-0.055-0.071-0.131-0.123-0.217-0.147-3.07-0.78-8.8-0.59-12.4 9.43-0.02 0.076-0.017 0.157 7e-3 0.231 0.025 0.075 0.071 0.141 0.132 0.191 0.061 0.049 0.135 0.08 0.213 0.089 0.079 8e-3 0.158-6e-3 0.228-0.041z"/>
    </g>
   </g>
  </g>
 </g>
</svg>
