<svg width="144.45" height="108.97" version="1.1" viewBox="0 0 144.45 108.97" xmlns="http://www.w3.org/2000/svg">
 <defs>
  <style>.cls-1{fill:#fff;}</style>
 </defs>
 <g transform="translate(.00051709)" display="none">
  <rect x="-114.76" y="-118.83" width="913.79" height="283.03" fill="#0ff" stroke="#35befd" stroke-dashoffset="310" stroke-linecap="round" stroke-linejoin="round" stroke-width="1.2132" style="paint-order:fill markers stroke"/>
 </g>
 <g fill="#fff">
  <path d="m52.073 0c-10.25 1.7478-24.622-0.54429-34.078 3.7812-18.773 27.774-19.47 60.226-16.926 86.926 10.994 8.1226 36.381 18.264 36.381 18.264h69.775s25.407-10.122 36.402-18.252c2.9855-30.963-1.9278-63.654-18.201-87.447-9.4465-4.3248-22.592-1.5383-32.836-3.2715-1.4018 2.5059-2.6692 5.0848-3.7988 7.7246-10.912-1.6443-22.008-1.6443-32.92 0-1.1302-2.6395-2.3976-5.2184-3.7988-7.7246zm54.754 25.137a3.9372 3.9372 0 0 1 0.53711 7.8359c-0.40991 0.06332-0.82038 0.14111-1.2305 0.21094 2.4288 5.0054 2.4445 10.803 2.1641 16.189v0.0078c0.9685 9.4831-11.143 16.72-18.816 10.877-4.1078-2.4832-6.0279-6.4424-6.7441-10.738-0.59338-3.5589-0.37143-7.3448 0.0625-10.834-0.18817 0.0054-0.37631 0.0094-0.63281-0.0039-0.33408-0.01737-0.77979-0.03631-1.4883-0.34961-0.70849-0.3133-1.8041-1.2026-2.2012-2.4453-0.39702-1.2428-0.09869-2.2572 0.13672-2.8086 0.23541-0.55141 0.45793-0.82373 0.63281-1.0371 0.69954-0.85351 1.002-0.9559 1.4082-1.2422 1.6246-1.1452 4.0869-2.526 5.0391-3.1797a3.9372 3.9372 0 0 1 5.3809 0.80273c4.9245-1.2371 9.9109-2.4311 15.086-3.2305a3.9372 3.9372 0 0 1 0.66601-0.05469zm-58.529 6.4844c5.1989-0.06397 10.444 0.11836 15.707 0.74805a3.9372 3.9372 0 0 1 1.3164 7.4727c0.85748 4.0708 1.2299 8.2893 0.67578 12.453-0.0048 9.9503-10.27 16.394-19.129 12.012-5.2028-1.9693-7.745-6.2362-8.7695-11.053-0.92733-4.3595-0.64091-9.158-0.08203-13.332-1.5335 0.09177-3.0647 0.17554-4.6035 0.2832a3.9373 3.9373 0 1 1-0.54883-7.8555c5.0811-0.3555 10.235-0.66455 15.434-0.72852zm56.939 1.7168c-0.28003 0.05009-0.55972 0.0928-0.83985 0.14453 2.2329 2.5475 2.5784 6.3545 3.0195 9.5898 0.0357 0.17676 0.0524 0.37028 0.082 0.55273-0.12311-3.5906-0.67601-7.1294-2.2617-10.287zm-16.334 3.7363c-0.74531 0.19035-1.4856 0.37824-2.2344 0.56836-0.88191 0.30189-1.6281 0.5445-2.2344 0.71094-0.27682 0.07599-0.49038 0.1503-0.73633 0.21484-0.44617 3.5092-0.68126 7.3063-0.09766 10.807 0.691 4.1444 2.478 7.8196 6.3574 10.152l0.02148 0.01367 0.01953 0.01367c3.5679 2.7252 8.2213 2.3256 11.832 0.14258-1.9034 1.0419-4.2715 1.2064-7.1113-0.02734-7.6133-4.6851-5.6069-14.762-5.8164-22.596zm-43.777 2.5137c-2.0678 0.06911-4.1406 0.16045-6.2207 0.2793-0.5657 4.1615-0.85578 8.9524 0.04883 13.205 0.98755 4.6426 3.3245 8.5754 8.2422 10.428l0.02148 0.0078 0.01953 0.0098c8.3258 4.1344 17.9-1.8723 17.889-11.244v-0.0293l0.0039-0.0293c0.53892-4.0116 0.18674-8.109-0.64258-12.088a3.9372 3.9372 0 0 1-0.50781 0.07617c0.11445 1.349 0.19196 2.7014 0.22852 4.0547 0.17481 7.0767-0.0961 21.055-10.484 18.559-9.8381-2.888-9.0606-14.864-8.5977-23.229zm62.326 10.236c-0.57833 3.627-2.0785 7.1755-4.5352 9.1406 2.8394-2.1391 4.7734-5.447 4.5352-9.1406zm-25.301 22.455a3.9372 3.9372 0 0 1 1.1523 7.7324c-6.3644 1.8513-12.086 5.4735-15.793 10.686a3.9372 3.9372 0 1 1-6.418-4.5625c4.9148-6.9101 12.222-11.418 20.012-13.684a3.9372 3.9372 0 0 1 1.0469-0.17188z" stroke-width="1.1309"/>
  <path d="m50.617 42.206c0.18315 3.0206-0.69635 8.1166 3.0932 9.2796" stroke="#fff" stroke-linecap="round" stroke-width="2.6245"/>
  <path d="m94.391 39.019c0.3373 2.7274-1.2349 7.76 2.1558 8.9984" stroke="#fff" stroke-linecap="round" stroke-linejoin="round" stroke-width="2.6245"/>
 </g>
</svg>
