<svg width="723.22" height="108.97" version="1.1" viewBox="0 0 723.22 108.97" xmlns="http://www.w3.org/2000/svg">
 <defs>
  <style>.cls-1{fill:#fff;}</style>
 </defs>
 <g display="none">
  <rect x="-114.76" y="-118.83" width="913.79" height="283.03" fill="#0ff" stroke="#35befd" stroke-dashoffset="310" stroke-linecap="round" stroke-linejoin="round" stroke-width="1.2132" style="paint-order:fill markers stroke"/>
 </g>
 <g transform="translate(.405)" fill="#fff">
  <g transform="scale(1.104 .9058)" aria-label="D">
   <path d="m201.7 27.696q32.076 0 32.076 30.565t-32.076 30.565h-26.478v-61.131zm-6.8417 46.47h6.4863q12.351 0 12.351-13.239v-5.3312q0-13.239-12.351-13.239h-6.4863z" fill="#fff" stroke-width=".92555"/>
  </g>
  <g transform="scale(1.0524 .95025)" stroke-width="1.0746" aria-label="avescord">
   <path d="m277.33 34.052q11.096 0 18.065 3.7597 6.9693 3.668 6.9693 12.013v18.89q0 1.5589 0.73361 2.5676t2.2008 1.0087h3.3012v10.546q-0.27511 0.1834-1.4672 0.64191-1.1004 0.3668-3.2095 0.73361-2.1091 0.4585-4.8602 0.4585-5.3187 0-8.8033-1.5589-3.3929-1.6506-4.6768-4.4934-3.4846 2.751-7.7946 4.4017-4.31 1.6506-10.087 1.6506-17.056 0-17.056-13.572 0-7.061 3.7597-10.729 3.8514-3.7597 11.004-5.1353t18.707-1.3755v-2.3842q0-2.8427-2.0174-4.31-1.9257-1.4672-5.0436-1.4672-2.8427 0-4.9519 1.0087-2.0174 1.0087-2.0174 3.2095v0.3668h-17.973q-0.0917-0.4585-0.0917-1.2838 0-6.8776 6.5108-10.912 6.6025-4.0348 18.799-4.0348zm6.7859 28.427q-7.7946 0-11.554 1.7423-3.668 1.6506-3.668 4.4934 0 4.5851 6.2357 4.5851 3.5764 0 6.2357-1.9257 2.751-1.9257 2.751-4.7685z"/>
   <path d="m324.05 83.571-18.34-48.418h19.624l8.895 30.17h0.64191l8.895-30.17h17.973l-18.524 48.418z"/>
   <path d="m388.15 34.052q13.297 0 20.266 6.2357 7.061 6.2357 7.061 19.074v3.1178h-36.314q0 5.227 2.2925 7.8863 2.3842 2.6593 7.4278 2.6593 4.5851 0 6.6942-1.9257 2.2008-1.9257 2.2008-5.1353h17.698q0 8.8033-6.6942 13.755-6.6942 4.9519-19.532 4.9519-13.48 0-20.908-6.2357-7.4278-6.3274-7.4278-19.074 0-12.471 7.2444-18.89 7.2444-6.4191 19.991-6.4191zm0.73361 11.646q-8.6199 0-9.6286 8.1614h17.79q0-3.7597-2.2008-5.9606-2.1091-2.2008-5.9606-2.2008z"/>
   <path d="m445.56 34.052q9.7203 0 16.414 3.8514 6.7859 3.7597 6.7859 11.738h-16.965q0-2.6593-2.3842-3.7597-1.6506-0.91701-4.1266-0.91701-6.6025 0-6.6025 3.1178 0 1.7423 2.2925 2.4759 2.2925 0.73361 7.5195 1.5589 6.4191 0.91701 10.729 2.2008 4.31 1.1921 7.5195 4.4017 3.2095 3.1178 3.2095 8.8033 0 9.2618-6.9693 13.205-6.8776 3.9431-18.065 3.9431-6.4191 0-12.105-1.7423-5.6855-1.834-9.2618-5.5938-3.5763-3.7597-3.5763-9.5369h16.965v0.3668q0.0917 3.1178 2.5676 4.4017 2.5676 1.1921 5.4104 1.1921 7.6112 0 7.6112-3.5763 0-1.834-2.3842-2.6593-2.3842-0.82531-7.7946-1.7423-6.5108-1.1004-10.729-2.3842-4.1266-1.2838-7.2444-4.31-3.1178-3.1178-3.1178-8.6199 0-8.895 6.6942-12.655 6.7859-3.7597 17.607-3.7597z"/>
   <path d="m501.81 34.052q11.921 0 19.257 5.1353 7.4278 5.0436 7.4278 15.497h-17.698q0-8.2531-8.9867-8.2531-8.9867 0-8.9867 10.362v5.227q0 10.271 9.3535 10.271t9.3535-8.4365h16.965q0 10.546-7.4278 15.681-7.3361 5.1353-19.257 5.1353-12.746 0-19.991-6.4191-7.2444-6.4191-7.2444-18.89t7.2444-18.89q7.2444-6.4191 19.991-6.4191z"/>
   <path d="m561.24 34.052q12.746 0 19.991 6.5108 7.3361 6.4191 7.3361 18.799t-7.3361 18.89q-7.2444 6.4191-19.991 6.4191t-19.991-6.4191q-7.2444-6.4191-7.2444-18.89t7.2444-18.89q7.2444-6.4191 19.991-6.4191zm0 12.38q-8.9867 0-8.9867 10.362v5.227q0 10.271 8.9867 10.271 9.0784 0 9.0784-10.271v-5.227q0-10.362-9.0784-10.362z"/>
   <path d="m625.07 33.961q2.1091 0 3.7597 0.55021 1.6506 0.4585 1.6506 0.55021v15.314h-5.8689q-5.6855 0-8.2531 2.9344-2.4759 2.9344-2.4759 8.7116v21.55h-18.249v-48.418h14.947l1.1921 7.3361q1.6506-4.2182 5.227-6.3274 3.5763-2.2008 8.0697-2.2008z"/>
   <path d="m672 83.571-1.5589-6.8776q-5.3187 7.978-15.406 7.978-9.812 0-15.131-6.4191t-5.3187-18.982q0-12.471 5.3187-18.799 5.3187-6.4191 15.131-6.4191 8.3448 0 13.572 5.5938v-22.558h18.249v66.483zm-11.279-36.039q-7.8863 0-7.8863 9.4452v4.8602q0 9.3535 7.8863 9.3535 4.0348 0 6.0523-2.8427 2.0174-2.8427 2.0174-7.4278v-3.0261q0-4.5851-2.0174-7.4278-2.0174-2.9344-6.0523-2.9344z"/>
  </g>
  <path transform="translate(-.405)" d="m52.072 0c-10.25 1.7478-24.622-0.54429-34.078 3.7812-18.773 27.774-19.47 60.226-16.926 86.926 10.994 8.1226 36.381 18.264 36.381 18.264h69.775s25.407-10.122 36.402-18.252c2.9855-30.963-1.9278-63.654-18.201-87.447-9.4465-4.3248-22.592-1.5383-32.836-3.2715-1.4018 2.5059-2.6692 5.0848-3.7988 7.7246-10.912-1.6443-22.008-1.6443-32.92 0-1.1302-2.6395-2.3976-5.2184-3.7988-7.7246zm54.754 25.137a3.9372 3.9372 0 0 1 0.53711 7.8359c-0.40991 0.06332-0.82038 0.14111-1.2305 0.21094 2.4288 5.0054 2.4445 10.803 2.1641 16.189v0.0078c0.9685 9.4831-11.143 16.72-18.816 10.877-4.1078-2.4832-6.0279-6.4424-6.7441-10.738-0.59338-3.5589-0.37143-7.3448 0.0625-10.834-0.18817 0.0054-0.37631 0.0094-0.63281-0.0039-0.33408-0.01737-0.77979-0.03631-1.4883-0.34961-0.70849-0.3133-1.8041-1.2026-2.2012-2.4453-0.39702-1.2428-0.09869-2.2572 0.13672-2.8086 0.23541-0.55141 0.45793-0.82373 0.63281-1.0371 0.69954-0.85351 1.002-0.9559 1.4082-1.2422 1.6246-1.1452 4.0869-2.526 5.0391-3.1797a3.9372 3.9372 0 0 1 5.3809 0.80273c4.9245-1.2371 9.9109-2.4311 15.086-3.2305a3.9372 3.9372 0 0 1 0.66601-0.05469zm-58.529 6.4844c5.1989-0.06397 10.444 0.11836 15.707 0.74805a3.9372 3.9372 0 0 1 1.3164 7.4727c0.85748 4.0708 1.2299 8.2893 0.67578 12.453-0.0048 9.9503-10.27 16.394-19.129 12.012-5.2028-1.9693-7.745-6.2362-8.7695-11.053-0.92733-4.3595-0.64091-9.158-0.08203-13.332-1.5335 0.09177-3.0647 0.17554-4.6035 0.2832a3.9373 3.9373 0 1 1-0.54883-7.8555c5.0811-0.3555 10.235-0.66455 15.434-0.72852zm56.939 1.7168c-0.28003 0.05009-0.55972 0.0928-0.83985 0.14453 2.2329 2.5475 2.5784 6.3545 3.0195 9.5898 0.0357 0.17676 0.0524 0.37028 0.082 0.55273-0.12311-3.5906-0.67601-7.1294-2.2617-10.287zm-16.334 3.7363c-0.74531 0.19035-1.4856 0.37824-2.2344 0.56836-0.88191 0.30189-1.6281 0.5445-2.2344 0.71094-0.27682 0.07599-0.49038 0.1503-0.73633 0.21484-0.44617 3.5092-0.68126 7.3063-0.09766 10.807 0.691 4.1444 2.478 7.8196 6.3574 10.152l0.02148 0.01367 0.01953 0.01367c3.5679 2.7252 8.2213 2.3256 11.832 0.14258-1.9034 1.0419-4.2715 1.2064-7.1113-0.02734-7.6133-4.6851-5.6069-14.762-5.8164-22.596zm-43.777 2.5137c-2.0678 0.06911-4.1406 0.16045-6.2207 0.2793-0.5657 4.1615-0.85578 8.9524 0.04883 13.205 0.98755 4.6426 3.3245 8.5754 8.2422 10.428l0.02148 0.0078 0.01953 0.0098c8.3258 4.1344 17.9-1.8723 17.889-11.244v-0.0293l0.0039-0.0293c0.53892-4.0116 0.18674-8.109-0.64258-12.088a3.9372 3.9372 0 0 1-0.50781 0.07617c0.11445 1.349 0.19196 2.7014 0.22852 4.0547 0.17481 7.0767-0.0961 21.055-10.484 18.559-9.8381-2.888-9.0606-14.864-8.5977-23.229zm62.326 10.236c-0.57833 3.627-2.0785 7.1755-4.5352 9.1406 2.8394-2.1391 4.7734-5.447 4.5352-9.1406zm-25.301 22.455a3.9372 3.9372 0 0 1 1.1523 7.7324c-6.3644 1.8513-12.086 5.4735-15.793 10.686a3.9372 3.9372 0 1 1-6.418-4.5625c4.9148-6.9101 12.222-11.418 20.012-13.684a3.9372 3.9372 0 0 1 1.0469-0.17188z" stroke-width="1.1309"/>
  <path d="m50.211 42.206c0.18315 3.0206-0.69635 8.1166 3.0932 9.2796" stroke="#fff" stroke-linecap="round" stroke-width="2.6245"/>
  <path d="m93.985 39.019c0.3373 2.7274-1.2349 7.76 2.1558 8.9984" stroke="#fff" stroke-linecap="round" stroke-linejoin="round" stroke-width="2.6245"/>
 </g>
</svg>
