<svg width="689" height="352" fill="none" version="1.1" viewBox="0 0 689 352" xmlns="http://www.w3.org/2000/svg">
 <path d="m701.35 355.54h-273.3c-54.859-105.26 29.435-84.169 61.451-68.47 34.558-35.829 67.514-18.523 91.756 6.5866 26.401-24.899 67.792-36.288 84.392-18.016 9.6 11.8 2.2 34.5-16 52.4 0 0 53.8 1.3 51.7 27.5z" fill="#404eed"/>
 <g fill-rule="evenodd" stroke="#000">
  <path d="m303.19 174.1 26.481 15.401 4.8032 4.6049 188.61 109.69s9.192 10.135 14.726 15.376c14.848 14.064 52.962 30.802 52.962 30.802l10.921-19.055s-33.447-24.88-52.962-30.802c-7.2729-2.2067-20.582-5.1579-20.582-5.1579l-188.61-109.69-6.6568-1.371-26.481-15.401z" fill="#ff8c19" stroke-width=".54036px"/>
  <path d="m646.34 254.28s-8.6084-7.7837-13.571-10.714c-4.2266-2.4958-8.7964-4.5776-13.571-5.7143-6.733-1.6027-13.839-2.2215-20.714-1.4286-3.2171 0.37115-9.2857 2.8572-9.2857 2.8572-170.71-4.94-341.43-14.594-512.14-27.143l-10-19.286-18.571 7.8572 8.5714 19.286 13.571-3.5715s29.362 4.241 44.286 6.4286c30.735 4.5052 61.91 8.0396 92.857 10.714 48.579 4.1984 97.055 6.866 145.71 10 29.249 1.8838 58.587 2.0426 87.857 3.5714 22.396 1.1698 44.72 1.5882 67.143 2 17.623 0.32353 35.238 1.34 52.857 0.85716 17.143-0.46976 34.281 0.80954 51.429 0.57143 7.3802-0.10243 26.429-0.57143 26.429-0.57143z" fill="#3f4eeb" stroke-width="1px"/>
  <path d="m587.22 240.55 5.2929 3.6568c-172.02-4.8039-344.04-15.48-516.07-29.699l0.70711-2.8284c169.25 12.036 339.65 20.79 510.07 28.87z" fill="#e6e6e6" stroke-width="1px"/>
  <path d="m380.2 211.27s-0.96484 8.5125 0 12.6c0.53938 2.2848 3.1503 6.2988 3.1503 6.2988h6.2988s1.3773-2.1245 2.3379-4.1621l-1.8476-0.92383c-0.15004 0.21883-0.31105 0.42425-0.49024 0.60351-1.4847 1.4848-4.814 1.4848-6.2988 0-3.3975-3.3976-1.334-14.416-1.334-14.416zm10.781 0s0.25058 1.3908 0.43358 3.2949l1.709 0.90822c-0.12661-2.3292-0.32617-4.2031-0.32617-4.2031z" fill="#ccc" stroke-width=".16667px"/>
 </g>
 <g display="none" opacity=".41">
  <path d="m291.4 351.9h-273.3c-11.3-10.1-18.2-21.8-17.1-32.6 2.3-23.3 39-26.7 74.6-9.9l7 3.5c1.1799-4.286 3.073-8.343 5.6-12 17.8-26.1 58-28.6 84-9.5 2.866 2.095 5.543 4.438 8 7 3.496-4.833 7.484-9.291 11.9-13.3 24.1-21.8 52.7-26.5 63.6-13.1 9.6 11.8 2.2 34.5-16 52.4 0 0 53.8 1.3 51.7 27.5z" fill="#404eed"/>
  <path d="m629.4 351.4c-22.1-45.6-34.5-100.2-34.5-100.2l-1-5.3-44.5 5.3v100.2z" fill="#2835bd"/>
  <path d="m619.8 351.4c-19.4-40-30.2-87.9-30.2-87.9l-2.6-13.4-37.3 13.4v87.9z" fill="#000"/>
  <path d="m626.8 218h-16.2v133.46h16.2z" fill="#2835bd"/>
  <path d="m626.8 235.3c-2.426 1.105-5.117 1.494-7.756 1.122-2.64-0.372-5.118-1.49-7.144-3.222l-1.3-1.1v-6l16.2-3.1z" fill="#000"/>
  <path d="m602 351.4c11.1-2.7 26.2-17.4 26.2-17.4s5.3 11.4 8.4 17.4h11.2c1.209 7e-3 2.406-0.242 3.513-0.729s2.098-1.203 2.91-2.099c0.811-0.897 1.425-1.954 1.8-3.104 0.375-1.149 0.504-2.365 0.377-3.568-0.5-4.9-2.8-10.4-6.3-18.4-5.9-13.3-7.8-20.3-19.3-20.3h-10.4l-24-10.6c-15.4 8.1-26 12.8-35.1 18.2-13.4 8.2-24 24.4-13.6 40.6z" fill="#ffc619"/>
  <path d="m433 263.5v87.9h121.8c19.4-40 30.2-87.9 30.2-87.9l2.9-12.3z" fill="#2835bd"/>
  <path d="m557.2 266.2-124.2 11.6v73.6h92.9c9-20.5 31.3-85.2 31.3-85.2z" fill="#000"/>
  <path d="m540.7 344.7c10.245-15.842 18.38-32.953 24.2-50.9" stroke="#000" stroke-linecap="round" stroke-linejoin="round" stroke-width="2"/>
  <path d="m526.2 332.5c-5.145 0-10.08 2.044-13.718 5.682s-5.682 8.573-5.682 13.718h38.8c0-5.145-2.044-10.08-5.682-13.718s-8.573-5.682-13.718-5.682z" fill="#404eed"/>
  <path d="m553.8 351.4c19.4-40 30.3-87.9 30.3-87.9z" fill="#2835bd"/>
  <path d="m591.3 351.3c-0.1-0.2-7-17.6-10.6-28.8l-0.2-0.7c-2.4-7.6-4.4-13.7-4.1-19.1l-1.7 0.9c0 5.4 1.9 11.4 4.3 18.7l0.2 0.7c3.3 10.2 9.2 25.5 10.4 28.4h1.7z" fill="#000"/>
  <path d="m653.8 349c0.617-0.603 1.083-1.343 1.361-2.159 0.277-0.817 0.36-1.687 0.239-2.541-0.7-7.1-4.4-15.6-8.3-24.4l-4-9.4-1.5 0.6c1.3 3.2 2.7 6.3 4 9.4 4.7 10.7 9.2 21 8.2 28.5z" fill="#fff"/>
  <path d="m620.4 322.9c-1.9 7.8-4.6 17.5-8.1 28.5h-21s-6.8-17.5-10.5-28.8-6.4-19.4-2.7-26.9 9.5-8.1 18.3-3.1l-1.3 14.2 6.7 19 3.1-10.1c6.6-4.3 14.9-1.9 15.5 7.2z" fill="#ffc619"/>
  <path d="m593.3 345.1-1.7-4.9c-3.7-10.9-6.9-20.2-9.1-28.7-1.8-7-3.3-15.3-2.4-19-0.735 0.896-1.372 1.868-1.9 2.9 0 5.4 1.8 12.9 2.7 16.5 2.3 8.6 5.5 17.9 9.2 28.8l1.7 5c0.733 2.067 1.433 3.967 2.1 5.7h1.8c-0.8-1.8-1.5-3.8-2.4-6.3z" fill="#fff"/>
  <path d="m608.5 351.4c2.3-7.7 5.6-19 9.9-33.6 0.03-0.105 0.038-0.215 0.023-0.323-0.014-0.109-0.05-0.213-0.107-0.307-0.056-0.093-0.131-0.175-0.22-0.238-0.088-0.064-0.189-0.109-0.296-0.132-0.097-0.048-0.204-0.073-0.312-0.073-0.109 0-0.216 0.025-0.313 0.074-0.097 0.048-0.181 0.119-0.246 0.205-0.065 0.087-0.109 0.188-0.129 0.294-4.4 14.9-7.7 26.4-10 34.1z" fill="#fff"/>
  <path d="m616.6 261.4c-12.6-1.8-17.4-0.9-22.1 9.7s-2.3 19.6 5.5 31 27 9.3 34.3 6.6 13.7-10 17.3-20.3 2.5-21.6-2.9-27.8-14.5-11.3-22.7-8.7-9.4 9.5-9.4 9.5z" fill="#de3a93"/>
  <g stroke="#000" stroke-linecap="round" stroke-linejoin="round" stroke-width="2">
   <path d="m622.7 276.3-3.8-1"/>
   <path d="m622.9 277.9-3.9 0.5"/>
   <path d="m650.5 276 3-2"/>
   <path d="m650.3 277.7 3.1-0.5"/>
  </g>
  <path d="m612.5 251.2c-2.1 0-3.7 1.4-3.8 2.4s3.7 4.2 8.6 10.3l1.3-0.5c-4.6-11.8-4-12.3-6.1-12.2z" fill="#000"/>
  <path d="m622.2 260.5c-3.8 2.4-8.2 5.7-8.2 5.7" stroke="#000" stroke-linecap="round" stroke-linejoin="round" stroke-width="2"/>
  <path d="m620.4 322.9c1.2-5.1 2.1-9.4 2.6-12.7 1.4-8.6-1.2-10-5-11.1s-6.5-3.2-8.3-9.7-2.9-6.4-5.1-5.3c-2.4 1.299-4.457 3.15-6 5.4-1.2 2.1-1 4.5 1.3 10.4 1.522 3.69 3.967 6.927 7.1 9.4l-2.1 6.4c7.7-0.3 12.3 0.7 15.5 7.2z" fill="#ff78b9"/>
  <path d="m632.9 318.9c-1.1-4.9-2.5-10.2 0-11.6s10.2-5 14.4-14.1c0.088-0.226 0.22-0.433 0.39-0.607 0.169-0.174 0.372-0.312 0.597-0.405 0.224-0.094 0.465-0.141 0.708-0.139 0.242 3e-3 0.482 0.054 0.705 0.151h0.2c0.182 0.066 0.349 0.168 0.49 0.302 0.141 0.133 0.252 0.294 0.327 0.472 0.075 0.179 0.113 0.371 0.11 0.565s-0.046 0.385-0.127 0.561c-2.046 4.35-4.489 8.501-7.3 12.4 0.583 2.345 1.318 4.65 2.2 6.9-4.6 2.3-12.7 5.5-12.7 5.5z" fill="#ff78b9"/>
  <path d="m608.3 302.9c0.148-0.165 0.229-0.378 0.229-0.6 0-0.221-0.081-0.435-0.229-0.6-1.495-1.567-2.834-3.275-4-5.1-1.9-3.3-3.7-9.2-2.4-10.7l-1.4 1.3c-0.222 0.24-0.391 0.525-0.494 0.835-0.104 0.311-0.14 0.64-0.106 0.965 0.529 2.947 1.543 5.785 3 8.4 1.209 1.972 2.617 3.814 4.2 5.5l0.6 0.2z" fill="#000"/>
  <g stroke="#000" stroke-linecap="round" stroke-linejoin="round" stroke-width="2">
   <path d="m607.8 309.5c2.885-0.356 5.794-0.489 8.7-0.4"/>
   <path d="m598.3 336.7 6.3-20"/>
   <path d="m601.8 325.8-6.1-17.5"/>
   <path d="m633 319.7c1.8 9.7 5.7 23.3 5.7 23.3"/>
  </g>
  <path d="m551.9 326c-3.474 0-6.806 1.38-9.263 3.837s-3.837 5.789-3.837 9.263v12.8h26.1v-12.8c0-3.457-1.366-6.774-3.801-9.228-2.436-2.454-5.742-3.845-9.199-3.872z" fill="#404eed"/>
  <path d="m564.9 339.1c-1.689-0.013-3.365 0.308-4.929 0.946-1.565 0.637-2.987 1.578-4.187 2.768-1.199 1.19-2.151 2.605-2.8 4.165-0.65 1.559-0.984 3.232-0.984 4.921h25.7c0-3.395-1.349-6.65-3.749-9.051-2.4-2.4-5.656-3.749-9.051-3.749z" fill="#404eed"/>
  <g stroke-linecap="round" stroke-linejoin="round">
   <path d="m605 227.5 19.7-3.1" stroke="#000" stroke-width="8"/>
   <path d="m646.2 264.1 0.7 1.1" stroke="#ffa8d2" stroke-width="3"/>
   <path d="m636.3 256.8c2.589 0.776 4.978 2.107 7 3.9" stroke="#ffa8d2" stroke-width="3"/>
   <path d="m624.2 224.5c16.7-2.8 43.5-9 57.4-12.7" stroke="#2835bd" stroke-width="8"/>
   <path d="m676.6 214.5 5.3 24.6" stroke="#000" stroke-width="2"/>
  </g>
  <path d="m686.9 238.3v-3.2h-20.6v3.3c-0.042 0.457-0.178 0.899-0.4 1.3-1.032 1.502-1.589 3.278-1.6 5.1v13.1c2e-3 2.214 0.802 4.352 2.253 6.024 1.451 1.671 3.456 2.763 5.647 3.076 2.953 0.4 5.947 0.4 8.9 0 2.164-0.337 4.133-1.442 5.547-3.114 1.415-1.671 2.179-3.796 2.153-5.986v-13.1c0.025-1.812-0.498-3.59-1.5-5.1-0.281-0.411-0.422-0.902-0.4-1.4z" fill="#8cd9ff"/>
  <path d="m685 239.7v-4.1h-16.9v4.1c5e-3 0.806-0.202 1.599-0.6 2.3-0.798 1.18-1.216 2.576-1.2 4v11.2c2e-3 1.86 0.668 3.657 1.878 5.069s2.885 2.345 4.722 2.631c2.391 0.3 4.809 0.3 7.2 0 1.864-0.244 3.575-1.162 4.809-2.58 1.234-1.419 1.907-3.24 1.891-5.12v-11.2c-9e-3 -1.407-0.388-2.786-1.1-4-0.425-0.695-0.666-1.486-0.7-2.3z" fill="#5865f2"/>
  <path d="m666.3 236.7c0 1.4 4.6 2.5 10.3 2.5s10.3-1.1 10.3-2.5l-10.3-4.1z" fill="#8cd9ff"/>
  <path d="m665.7 235.9c-0.088 0.15-0.145 0.317-0.168 0.49-0.022 0.173-0.01 0.348 0.037 0.516 0.046 0.168 0.126 0.325 0.235 0.461 0.108 0.137 0.243 0.25 0.396 0.333 1.7 1 5.7 1.7 10.4 1.7s8.7-0.7 10.4-1.7c0.29-0.186 0.502-0.472 0.594-0.804s0.059-0.687-0.094-0.996l-10.9-21.4z" stroke="#000" stroke-linecap="round" stroke-linejoin="round" stroke-width="2"/>
  <path d="m675.6 258-3.1-0.7c-0.299-0.108-0.548-0.321-0.7-0.6-0.142-0.279-0.169-0.603-0.076-0.902 0.094-0.299 0.3-0.549 0.576-0.698 0.15-0.088 0.317-0.145 0.49-0.168 0.172-0.022 0.348-0.01 0.516 0.037 0.168 0.046 0.325 0.126 0.461 0.235 0.136 0.108 0.25 0.243 0.333 0.396z" fill="#fff"/>
  <path d="m675.6 258-0.2-3.1c-6e-3 -0.147 0.018-0.293 0.069-0.43 0.052-0.138 0.13-0.263 0.231-0.37 0.085-0.13 0.2-0.239 0.334-0.317 0.135-0.079 0.286-0.124 0.441-0.134s0.311 0.017 0.454 0.078 0.27 0.154 0.371 0.273c0.261 0.215 0.428 0.523 0.465 0.86 0.037 0.336-0.058 0.673-0.265 0.94z" fill="#fff"/>
  <path d="m676.2 260.9c-1.7 0.5-3.3 0-3.7-1.1s0.2-1.7 1.8-2.1c0.698-0.18 1.37-0.449 2-0.8 1.3-0.7 2 0.1 2.3 1s-0.7 2.4-2.4 3z" fill="#121b80"/>
  <path d="m673.14 257.88-1.2-0.021c-0.828-0.014-1.512 0.645-1.526 1.474l-2e-3 0.09c-0.014 0.828 0.646 1.511 1.474 1.526l1.2 0.021c0.828 0.014 1.511-0.646 1.526-1.474l1e-3 -0.09c0.015-0.828-0.645-1.511-1.473-1.526z" fill="#ffe75c"/>
  <path d="m678.8 246.2 2.8-1.5c0.221-0.189 0.392-0.43 0.5-0.7 0.046-0.151 0.062-0.31 0.047-0.467s-0.061-0.31-0.136-0.449c-0.074-0.139-0.175-0.263-0.297-0.363s-0.263-0.175-0.414-0.221c-0.332-0.092-0.686-0.049-0.986 0.119-0.3 0.169-0.521 0.45-0.614 0.781z" fill="#fff"/>
  <path d="m678.8 246.2-0.5-3.1c-0.107-0.3-0.277-0.573-0.5-0.8-0.276-0.147-0.594-0.197-0.902-0.143s-0.589 0.21-0.798 0.443c-0.192 0.307-0.257 0.676-0.183 1.031 0.075 0.354 0.284 0.666 0.583 0.869z" fill="#fff"/>
  <path d="m679.6 245.8c1.4 1 2.1 2.6 1.4 3.5s-1.5 1-2.8-0.1c-0.547-0.446-1.153-0.816-1.8-1.1-0.247-0.061-0.472-0.188-0.653-0.368-0.18-0.179-0.307-0.405-0.369-0.651-0.062-0.247-0.055-0.506 0.019-0.749 0.075-0.243 0.214-0.462 0.403-0.632 0.6-1 2.4-0.9 3.8 0.1z" fill="#121b80"/>
  <path d="m678.9 249.4 0.707 0.97c0.488 0.669 1.426 0.816 2.096 0.328l0.072-0.053c0.67-0.488 0.817-1.427 0.329-2.096l-0.707-0.97c-0.489-0.669-1.427-0.816-2.096-0.328l-0.073 0.053c-0.669 0.488-0.816 1.427-0.328 2.096z" fill="#ffe75c"/>
  <path d="m676.6 237.6c5.689 0 10.3-1.119 10.3-2.5s-4.611-2.5-10.3-2.5-10.3 1.119-10.3 2.5 4.611 2.5 10.3 2.5z" fill="#8cd9ff"/>
  <path d="m687 235.1h-20.7v1.42h20.7z" fill="#8cd9ff"/>
  <path d="m680.8 235.9c-0.5 0.1-0.9 0.4-0.9 0.9 0.012 0.106 0.046 0.207 0.098 0.3 0.052 0.092 0.122 0.173 0.205 0.239 0.084 0.065 0.18 0.113 0.282 0.14 0.103 0.028 0.21 0.035 0.315 0.021l1.7-0.3c0.225-0.038 0.432-0.145 0.593-0.306 0.162-0.162 0.269-0.369 0.307-0.594-0.01-0.103-0.043-0.202-0.097-0.291-0.053-0.088-0.125-0.164-0.211-0.222-0.086-0.057-0.184-0.094-0.286-0.11-0.103-0.015-0.207-7e-3 -0.306 0.023z" fill="#fff"/>
  <g stroke="#000" stroke-linecap="round" stroke-linejoin="round" stroke-width="2">
   <path d="m676.6 214.5-5.3 24.6"/>
   <path d="m677.4 216.2-2.6-5.6"/>
   <path d="m676.8 216.5 0.3-6.4"/>
  </g>
  <path d="m648.7 281.4c3.3-3.8 2.8-6.1 1.7-6.8s-2.8 0.6-5.8 5.4-0.5 6.6 4.1 1.4z" fill="#fff"/>
  <path d="m633 281.4c-2.2-4.6-6-7.9-9.5-7.4s-2.1 5.7 2.5 9.2 9.4 3.2 7-1.8z" fill="#fff"/>
  <path d="m650.2 277.2c0.194-0.9 0.124-1.838-0.2-2.7-0.9-0.1-2.3 0.9-4.2 3.6 0.2 1.4 0.9 2.4 1.7 2.5s2.5-1.3 2.7-3.4z" fill="#000"/>
  <path d="m633.1 281.7c0-0.1-0.1-0.2-0.1-0.3-1.067-2.317-2.68-4.342-4.7-5.9-0.577 1.143-0.82 2.425-0.7 3.7 0.2 2.7 1.6 4.8 3.2 4.7 0.567-0.076 1.095-0.33 1.509-0.725 0.413-0.395 0.69-0.912 0.791-1.475z" fill="#000"/>
  <path d="m635 291.7c6.3-1.6 8.8-2.3 9.8-0.9s0.1 3-1.4 4.6c1.6 3.5 1.1 5.1-2 5.1-2.26-0.161-4.451-0.846-6.4-2" stroke="#000" stroke-linecap="round" stroke-linejoin="round" stroke-width="2"/>
  <path d="m641.7 293.7c-0.392 1.038-0.931 2.015-1.6 2.9" stroke="#000" stroke-linecap="round" stroke-linejoin="round" stroke-width="2"/>
  <path d="m213.6 351.4h10.4l7.8-23.8h-20.5z" fill="#000"/>
  <path d="m344.7 351.4h-55.7c-35.8 0-56.4-10.3-71.8-22l-3.6 22h-9.1c0-105.6 13.6-205.8 13.6-205.8 2-11.3 23.5-16.4 50.2-7.1s33.8 21.2 32.8 32-9.5 83.6-12.7 117.7l5.7 6.2c1.966 2.043 3.424 4.519 4.258 7.228 0.834 2.71 1.02 5.577 0.542 8.372l-0.6 3.3c22 14.2 56 7.1 46.4 38.1z" fill="#29cc7a"/>
  <g stroke-linecap="round" stroke-miterlimit="10">
   <path d="m229.2 165c-0.9 12.6-1.1 17.8-1.1 19.8-7e-3 0.316 0.052 0.63 0.173 0.923 0.12 0.292 0.3 0.557 0.527 0.777 5.9 5.9 12.9 7.8 18.4 8.5 0.318 0.042 0.641 0.017 0.949-0.073 0.308-0.091 0.593-0.244 0.838-0.451 0.245-0.208 0.444-0.464 0.584-0.752 0.14-0.289 0.218-0.603 0.229-0.924l1.1-16" stroke="#fff" stroke-width="2"/>
   <path d="m224.8 282.3c-3.313 0.07-6.586-0.722-9.5-2.3" stroke="#000" stroke-width="4"/>
   <path d="m216.5 286.9c4.3 0.6 9.6-1.3 9.6-1.3" stroke="#000" stroke-width="4"/>
  </g>
  <path d="m275.8 215.1c-0.9 9-1.1 18.9 3.4 21.5 2.8 1.7 8.5 1.5 14.8-1.5 2.5-24.9 5.2-46.3 6.5-58.4l-29.8 4.9c-2.9 25.7-3.4 34.1 5.1 33.5z" fill="#15ad75"/>
  <path d="m296.53 178.68c4.779-10.02-8.036-26.102-28.624-35.922-20.587-9.82-41.151-9.658-45.93 0.362-4.779 10.019 8.036 26.102 28.624 35.922 20.587 9.819 41.151 9.657 45.93-0.362z" fill="#000"/>
  <path d="m217.2 329.4c15.4 11.7 36 22 71.8 22h55.7c0.948-2.877 1.487-5.873 1.6-8.9-59.1 0-93.4-1.2-141-36.8-0.4 14.2-0.7 29.5-0.8 45.7h9.1z" fill="#57f287"/>
  <path d="m221.2 279.1c2.6 10.1 9.7 17.8 15.9 17.2s6.4-6.4 4-16.1c-0.6-2.6-1.1-5.1-1.6-7.7-1.8-9.2-6.3-13.2-11.8-12.7s-9.2 9.3-6.5 19.3z" fill="#fff"/>
  <path d="m221.2 279.1c2.6 10.1 9.7 17.8 15.9 17.2s6.4-6.4 4-16.1c-0.6-2.6-1.1-5.1-1.6-7.7-1.8-9.2-6.3-13.2-11.8-12.7s-9.2 9.3-6.5 19.3z" fill="#fff"/>
  <path d="m237.5 279.2c1 4.4 0.3 8.3-1.4 8.6s-3.8-2-4.5-7.5-0.3-8.5 1.4-8.5 3.6 2.9 4.5 7.4z" fill="#000"/>
  <path d="m295.4 312.5c0.148 9e-3 0.296-0.02 0.431-0.082 0.135-0.063 0.252-0.158 0.341-0.277 0.089-0.118 0.147-0.257 0.17-0.404 0.022-0.147 8e-3 -0.297-0.042-0.437-2-10-8.1-11.4-19.4-8.8s-15.8 3.6-18 4.4-1.2 1.3 13.7 3.6c7.535 1.267 15.159 1.936 22.8 2z" fill="#15ad75"/>
  <path d="m345.8 337.4c-11.1 0.1-29.6-0.1-47.8-1.3-33.8-2.3-64.9-14.9-92.5-37.4v1.8c27.6 22.3 58.6 34.8 92.4 37 17 1.2 34.2 1.4 45.5 1.4h2.7z" fill="#000"/>
  <path d="m239.5 272.6c-1.8-9.2-6.3-13.2-11.8-12.7s-7 4.6-7.4 10.5c6.191 1.998 12.717 2.746 19.2 2.2z" fill="#5865f2"/>
  <path d="m381.4 192.3-33.3 18.6c0.57 0.527 1.287 0.867 2.056 0.975 0.769 0.107 1.552-0.024 2.244-0.375 1.9-0.8 6.5-5 8.3-6s6.9-3 9.4-4c3.083-1.221 5.978-2.871 8.6-4.9 2.2-1.8 3-2.5 2.7-4.3z" fill="#000"/>
  <path d="m299.2 123.2c-6.1-3.8-6.4-3.7-9.8-9.8s-7.7-9.1-12.7-9.8l6.2 44.9c13 3.8 21-2.8 22.8-9.3s-0.3-12.2-6.5-16z" fill="#3442d9"/>
  <path d="m293.1 129.1c-1.7-7.3-6.2-15.8-11.5-22.2-1.899-2.312-3.246-5.027-3.939-7.9382-0.693-2.9109-0.714-5.9415-0.061-8.8617l2.2-10c1.547-6.9406 0.722-14.199-2.341-20.616-3.064-6.4171-8.19-11.622-14.559-14.784-3.655-1.7995-7.633-2.8533-11.7-3.1-7.653-0.5606-15.223 1.8829-21.104 6.8117-5.881 4.9289-9.61 11.955-10.396 19.588-0.166 1.293-0.233 2.5968-0.2 3.9v4.3l0.2 18c0.217 8.0869-1.497 16.108-5 23.4-1.454 2.893-2.561 5.948-3.3 9.1l48.9 52c23.3-3.9 37.9-26.4 32.8-49.6z" fill="#3442d9"/>
  <path d="m260.4 178.7c23.2-3.9 37.8-26.4 32.7-49.6-1.6-6.9-5.7-14.9-10.6-21.1" stroke="#000" stroke-linecap="round" stroke-miterlimit="10" stroke-width="2"/>
  <path d="m277.5 130.6c4.6-7.6 6.4-6.6 14.6-4.4 6.6 1.7 14.2 15.2 4.1 22s-30.7 2.7-18.7-17.6z" fill="#3442d9"/>
  <path d="m254.7 108.19c0.922-0.705 1.07-2.058 0.332-3.024-0.738-0.965-2.083-1.176-3.004-0.472-0.921 0.705-1.07 2.058-0.332 3.023 0.738 0.966 2.083 1.177 3.004 0.473z" fill="#000"/>
  <path d="m267.3 108.97c0.921-0.704 1.07-2.058 0.332-3.023s-2.083-1.177-3.005-0.472c-0.921 0.704-1.07 2.058-0.332 3.023s2.083 1.177 3.005 0.472z" fill="#000"/>
  <path d="m266 107.4c10.7 8.8 6.3 15.1 14.9 28.1" stroke="#fff" stroke-linecap="round" stroke-miterlimit="10" stroke-width="3.0059"/>
  <path d="m253.9 127.1c6.6-4.6 8.6-5.9 11.1-5.8l6.5 0.6-1.7 26.4-16.5-0.5z" fill="#ffc619"/>
  <path d="m285.9 120.4c0.125-0.349 0.166-0.723 0.122-1.091s-0.173-0.721-0.376-1.031c-0.204-0.31-0.476-0.569-0.796-0.756-0.321-0.187-0.68-0.297-1.05-0.322l-11-1.6c-0.798-0.085-1.602 0.107-2.275 0.544-0.674 0.437-1.177 1.092-1.425 1.856l-6.2 23c-0.124 0.35-0.166 0.723-0.122 1.091s0.173 0.721 0.376 1.031c0.204 0.31 0.476 0.569 0.797 0.756 0.32 0.187 0.679 0.297 1.049 0.322l11 1.6c0.799 0.085 1.602-0.107 2.276-0.544 0.673-0.437 1.176-1.092 1.424-1.856z" fill="#000"/>
  <path d="m285.4 118.1 1.2 1.4-3.3 0.3z" fill="#000"/>
  <path d="m290.8 133.3c-1.4-2.3-2.7-5.2-6.5-5.8l-0.5 4.8z" fill="#ffc619"/>
  <path d="m287 121.7c0.105-0.349 0.132-0.717 0.079-1.078s-0.184-0.706-0.384-1.011-0.464-0.562-0.774-0.754-0.659-0.314-1.021-0.357l-11.1-1.6c-0.795-0.067-1.591 0.133-2.26 0.567-0.67 0.435-1.177 1.079-1.44 1.833l-6.2 23c-0.105 0.349-0.132 0.717-0.079 1.078s0.184 0.706 0.384 1.011 0.464 0.563 0.774 0.754c0.311 0.192 0.659 0.314 1.021 0.357l11.1 1.5c0.778 0.128 1.576-0.037 2.24-0.461 0.664-0.425 1.149-1.079 1.36-1.839z" fill="#fff"/>
  <g fill="#ffc619">
   <path d="m283.6 130.8 4.5 0.7c0.912 0.101 1.747 0.556 2.327 1.266 0.58 0.711 0.857 1.621 0.773 2.534-0.023 0.475-0.145 0.94-0.358 1.365-0.214 0.424-0.514 0.8-0.881 1.101-0.368 0.302-0.794 0.523-1.253 0.649-0.458 0.127-0.938 0.156-1.408 0.085l-3.3-0.5c-1.025-0.147-1.973-0.629-2.697-1.37-0.723-0.742-1.181-1.701-1.303-2.73-0.025-0.458 0.056-0.916 0.236-1.338s0.455-0.797 0.802-1.097c0.348-0.299 0.76-0.515 1.204-0.63s0.909-0.127 1.358-0.035z"/>
   <path d="m282.1 137.5 3.1 0.5c0.519 0.066 1.017 0.243 1.46 0.52s0.82 0.648 1.105 1.085c0.286 0.438 0.473 0.933 0.548 1.45s0.036 1.044-0.113 1.545c-0.213 0.806-0.723 1.502-1.428 1.947s-1.552 0.607-2.372 0.453l-1.9-0.3c-1.037-0.143-1.999-0.621-2.739-1.361s-1.218-1.702-1.361-2.739c-0.029-0.469 0.053-0.937 0.238-1.369 0.186-0.431 0.47-0.813 0.83-1.115 0.36-0.301 0.785-0.514 1.243-0.621 0.457-0.107 0.933-0.105 1.389 5e-3z"/>
   <path d="m272.4 148.9-10.8-1.5 0.5-4.4 10.8 1.6z"/>
   <path d="m275 131.4-6.8-1c-0.324-0.044-0.628-0.181-0.877-0.393-0.248-0.213-0.43-0.493-0.523-0.807l-0.6-1.8-0.5-3.7-3.7 13 11 1.6c1.024 0.137 2.064-0.075 2.953-0.601s1.575-1.335 1.947-2.299c0.119-0.457 0.135-0.935 0.048-1.399-0.088-0.464-0.277-0.903-0.554-1.285-0.277-0.383-0.636-0.699-1.049-0.926-0.414-0.228-0.873-0.361-1.345-0.39z"/>
   <path d="m272.8 138.2-10.8-1.5 0.5 7.2 8.3 1.2c1.013 0.151 2.046-0.057 2.922-0.586s1.54-1.348 1.878-2.314c0.137-0.45 0.17-0.925 0.097-1.39-0.074-0.465-0.253-0.906-0.522-1.292-0.27-0.385-0.624-0.704-1.036-0.933-0.411-0.228-0.869-0.36-1.339-0.385z"/>
  </g>
  <path d="m349.4 182.3c0.3-10.8-8.6-12.5-14.7-16.3s-13.3-11.8-20.8-17.2-14-5.3-26.7-1.4l14.5 28.2c8.2 4.2 10 8.8 14.4 15s10.3 8.6 16.2 7.5c3.1 5.1 3.7 6.3 8.2 4.7s11.9-5 13.9-10.9-0.9-6.9-5-9.6z" fill="#66bcff"/>
  <path d="m341.9 199.4c-3.8-0.9-5.3-3-7.7-6.3l-2.1-2.8c-10.3-2.1-14.5-7.6-16.8-11.6-1.1-1.9-3.1-3.4-5-4.8s-3.8-2.9-4.9-4.7c-0.828-1.348-1.563-2.751-2.2-4.2-0.8-2.1-1.5-3.5-2.8-3.9s-3.5 0.4-5.6 1.3c-1.907 0.919-3.923 1.591-6 2-0.172 0.032-0.349-2e-3 -0.497-0.095-0.148-0.092-0.256-0.237-0.303-0.405-6e-3 -0.181 0.051-0.36 0.16-0.505 0.109-0.146 0.264-0.249 0.44-0.295 1.957-0.329 3.847-0.97 5.6-1.9 2.4-1 4.4-1.9 6.5-1.3s2.8 2.4 3.7 4.6 1.2 2.6 2 4c1.323 1.679 2.911 3.131 4.7 4.3 2 1.6 4.1 3.2 5.3 5.3 2.3 4.1 6.3 9 16.2 11h0.2l0.2 0.2c0.9 1.1 1.6 2.2 2.3 3.1 2.2 3.1 3.6 5 6.8 5.8 0.087-7e-3 0.173 8e-3 0.252 0.044 0.079 0.037 0.147 0.093 0.197 0.164 0.051 0.07 0.082 0.153 0.091 0.239 9e-3 0.087-5e-3 0.174-0.04 0.253 7e-3 0.087-8e-3 0.174-0.044 0.252-0.037 0.079-0.093 0.147-0.163 0.198-0.071 0.05-0.154 0.081-0.24 0.09s-0.173-5e-3 -0.253-0.04z" fill="#45aaf7"/>
  <path d="m301.1 159c-1.344 4.293-2.215 8.719-2.6 13.2" stroke="#000" stroke-linecap="round" stroke-miterlimit="10" stroke-width="2"/>
  <path d="m307 211c-9.1 8.2-16.8 5.9-20.4 5.5s-3.2-3-3.5-5.2-0.5-5.5-0.5-5.5c-9.1-0.6-10.2-6.8-10.4-12.3s-1.6-6.3-2.3-10.2c-10.972-1.971-21.342-6.441-30.308-13.066-8.966-6.624-16.285-15.225-21.392-25.134l9.5-6.9 21.2 13.8c14.3-5.3 22.2-8 29.9-8.5s15.3 2.4 17.8 13.1 2.8 14 5.1 19.1c0.6 1.3 1.6 3.1 2.6 5 2.8 5.7 5.7 13.7 0 22.4 0.695 2.699 1.598 5.341 2.7 7.9z" fill="#8cd9ff"/>
  <path d="m233.7 165.3c-0.3-7.1 2.4-12.1 7.3-12.9l-12.4-8.6-9 3.9c2.3 6.4 8.2 13.4 14.1 17.6z" fill="#000"/>
  <path d="m289.6 212.9 0.2-1.3c-1.8-0.3-1.9-1.6-2.4-7.7v-0.8l-0.4-0.2c-4-1-6.7-3.4-6.9-11.5-0.034-3.847-0.815-7.651-2.3-11.2-0.388-0.833-0.69-1.705-0.9-2.6-0.2-0.8-0.5-1.6-0.7-2.3-1.129-2.823-1.441-5.907-0.9-8.9 0.4-3.1 0.1-4.8-0.9-5.7s-3.5-0.6-7.2 0.6h-0.5c-5.9 1.9-17.7 5.8-29.6 6.8l1.5 1.1c11.6-1.1 22.8-4.8 28.5-6.6l0.5-0.2c3-1 5.1-1.5 6-0.8s0.7 2 0.4 4.5c-0.533 3.199-0.188 6.483 1 9.5 0.259 0.716 0.46 1.452 0.6 2.2 0.3 0.9 0.6 1.8 1 2.7 1.427 3.424 2.174 7.092 2.2 10.8 0.2 7.5 2.3 11.2 7.4 12.7 0.4 6.1 0.6 8.4 3.4 8.9z" fill="#66bcff"/>
  <path d="m254.1 125.7c-2.9-2.5-5.1-2.3-8.6-0.8-3.7-3.4-8.5-3.9-13.5-2.2s-12.7 4-17.2 5.2c-0.251 0.094-0.524 0.113-0.786 0.056-0.262-0.058-0.502-0.189-0.692-0.378-0.189-0.19-0.32-0.43-0.377-0.692-0.058-0.262-0.038-0.535 0.055-0.786l3.3-12c-10.7 8-14.2 25.1-10.8 34.4s18.2 9.2 22.9 6.6 6.3-3.4 11.7-2.4 9.6 1.7 16.7-3.7l4.2-1.4c1.6-9.1 0.2-15.7-6.9-21.9z" fill="#3442d9"/>
  <path d="m254.1 125.7c-2.9-2.5-5.1-2.3-8.6-0.8-3.7-3.4-8.5-3.9-13.5-2.2s-12.7 4-17.2 5.2" stroke="#000" stroke-linecap="round" stroke-miterlimit="10" stroke-width="2"/>
  <path d="m245.5 124.9c2.987 2.313 5.474 5.207 7.313 8.506 1.839 3.3 2.991 6.938 3.387 10.694" stroke="#000" stroke-linecap="round" stroke-miterlimit="10" stroke-width="2"/>
  <path d="m275.8 121.9c0.045-0.138 0.06-0.284 0.043-0.429-0.017-0.144-0.065-0.283-0.142-0.406-0.076-0.124-0.178-0.23-0.299-0.31s-0.258-0.133-0.402-0.155h-1c-0.278-0.061-0.569-0.011-0.811 0.138-0.243 0.149-0.418 0.386-0.489 0.662l-0.9 3.3c-0.046 0.146-0.058 0.3-0.035 0.451s0.08 0.294 0.166 0.42c0.087 0.125 0.202 0.229 0.335 0.304 0.133 0.074 0.282 0.117 0.434 0.125h1c0.263 0.034 0.529-0.029 0.75-0.176 0.22-0.147 0.38-0.368 0.45-0.624z" fill="#29cc7a"/>
  <path d="m259.8 102.7c0.773-1.565 1.914-2.9187 3.324-3.9462 1.411-1.0276 3.05-1.6979 4.776-1.9537 0.2 0 0.3-0.2 0.2-0.3-1.3-4.8-0.7-7.5 1-11 0.017-0.0254 0.028-0.0543 0.032-0.0845 4e-3 -0.0303 1e-3 -0.0611-8e-3 -0.09-0.01-0.029-0.026-0.0553-0.048-0.0771-0.021-0.0217-0.047-0.0383-0.076-0.0484-5.6-2.4-7.7-6.4-8.3-9.4-0.1-0.2-0.4-0.3-0.5-0.1-2.5 5-5.9 5.2-8.8 4.8-0.2 0-0.3 0.2-0.2 0.3 2.9 5.6 0.8 9.6-2.1 12.4-0.015 0.0392-0.023 0.0813-0.021 0.1235s0.013 0.0834 0.032 0.1212 0.045 0.0711 0.078 0.0979c0.032 0.0267 0.07 0.0463 0.111 0.0574 5.6 1 8.6 4.7 10 8.9999 0.1 0.2 0.4 0.3 0.5 0.1z" fill="#ffc619"/>
  <g stroke="#000" stroke-linecap="round" stroke-miterlimit="10" stroke-width="2">
   <path d="m272.8 138.2-5.7-0.8"/>
   <path d="m283.2 137.9 3.2 0.5"/>
   <path d="m260.5 75.6c2.5-5.6 2.3-9.5 1.6-11.7"/>
   <path d="m268.5 85.4c1.56 0.2391 3.154 0.1396 4.672-0.2918 1.519-0.4313 2.927-1.1844 4.128-2.2082"/>
   <path d="m259.8 102.7c8e-3 0.744-0.093 1.486-0.3 2.2"/>
   <path d="m249.6 93.3c-3.7 2.6-9.3 2.2-13.2 1"/>
   <path d="m251.4 80.5c-1.4-2.9-4-6.2-6.4-7.3"/>
   <path d="m268.1 96.5c1.29 0.6885 2.67 1.1934 4.1 1.5"/>
  </g>
  <path d="m257.4 85.8c1.7 6.6 3.9 6.2 4.9 4.2s1.7-4.5 3.3-4.3 1.2 3-0.7 7-5 4.9-7.9 1.4-3-6.9-3.1-9.3 2.4-3 3.5 1z" fill="#c40655"/>
  <path d="m253.4 106.6c1.2 13.8-5.8 20.4-8 34.1" stroke="#fff" stroke-linecap="round" stroke-miterlimit="10" stroke-width="3.0059"/>
  <g stroke="#000" stroke-linecap="round" stroke-miterlimit="10" stroke-width="2">
   <path d="m269.1 183.4c-1.8-5.9-2.6-16.7 2.3-26.2"/>
   <path d="m268 168.7c-1.128-2.192-1.679-4.636-1.6-7.1"/>
   <path d="m218.7 126.8-7.4 2.4"/>
   <path d="m292.2 125.9 5 1.4"/>
  </g>
  <path d="m381.4 192.2c-0.549 0.802-1.186 1.54-1.9 2.2-3.2 3.2-10.5 6.8-14.4 8.3-2.967 0.939-5.696 2.508-8 4.6-2.9 2.3-6.5 5.4-9 3.6-3.149-2.899-6.027-6.079-8.6-9.5-0.146-0.179-0.241-0.394-0.276-0.623-0.036-0.228-9e-3 -0.462 0.076-0.677 1.4-4 5.9-9.7 12.4-12.7 0.215-0.085 0.449-0.112 0.677-0.076 0.229 0.035 0.444 0.13 0.623 0.276 3.8 2.7 6.1 3.4 9.2 3.3s9.1-2.1 14-3.5 5 0.8 5.2 4.8z" fill="#ffc619"/>
  <path d="m342.3 204.9c1.786 2.138 3.724 4.143 5.8 6 2.5 1.8 6.1-1.3 9-3.6 2.304-2.092 5.033-3.661 8-4.6 3.9-1.5 11.2-5.1 14.4-8.3 0.714-0.66 1.351-1.398 1.9-2.2-0.2-4-1.1-6-5.2-4.8s-6.4 2.2-9.4 2.9c-0.892 0.239-1.701 0.721-2.337 1.391-0.635 0.671-1.073 1.505-1.263 2.409-0.1 1.1-0.3 2.2-0.5 3.5-5.4-1.1-10.6 0.7-11.7 7.8 0 0-4.6-2.5-8.7-0.5z" fill="#ffe75c"/>
  <path d="m379.5 194.4 1.9-2.1c0.127-0.211 0.196-0.453 0.2-0.7-0.092-0.758-0.295-1.499-0.6-2.2-0.8 1.5-2.2 3-5.3 5.3-4.9 3.6-10.4 4.9-13.7 6-3.021 1.126-5.778 2.862-8.1 5.1-1.825 2.062-4.23 3.525-6.9 4.2l1.1 0.9c2.5 1.8 6.1-1.3 9-3.6 2.304-2.092 5.033-3.661 8-4.6 3.9-1.5 11.2-5.1 14.4-8.3z" fill="#fff"/>
  <path d="m318.5 198.9c-5.1-1.4-10.3 1-14.9 9.7-1.3-1-4.5-2.1-9.3-1.2s-6.6 3-7.4 4.6c-0.476 0.924-0.617 1.984-0.4 3 0.3 1.3 0.7 3 1.3 5.8 0.9 4.3 0.4 8.1 2.8 8.5l33.6-24.2s0.9-4.4-5.7-6.2z" fill="#ffc619"/>
  <path d="m318.5 198.9c-5.1-1.4-10.3 1-14.9 9.7-0.638 1.302-1.206 2.637-1.7 4-5.3-0.5-7.8 1.8-8.7 6.9 0 0-3.5-2.4-5.6 0.4 0.1 0.3 0.1 0.6 0.2 0.9 0.9 4.3 0.4 8.1 2.8 8.5l33.6-24.2s0.9-4.4-5.7-6.2z" fill="#ffe75c"/>
  <path d="m324.2 203.7-2.5-2.3c-4.3-0.7-7.9-0.8-11.7 3.5s-6.3 9-10.3 11.8c-5.7 4.2-10.5 5.9-11.2 9s0.7 3.4 2.1 3.6l33.6-24.2c0.123-0.458 0.123-0.941 0-1.4z" fill="#fff"/>
  <path d="m319.9 199.9 2.4 0.7c0.209 0.034 0.407 0.114 0.58 0.235 0.174 0.122 0.317 0.281 0.42 0.465 0.927 1.566 1.313 3.393 1.1 5.2l-8.8-1.6c2.9-1.4 3.9-2.7 3.6-4.4-0.03-0.094-0.032-0.194-5e-3 -0.289s0.081-0.179 0.156-0.243c0.075-0.065 0.167-0.105 0.264-0.117 0.098-0.012 0.197 5e-3 0.285 0.049z" fill="#fff"/>
  <path d="m290.8 229.4c8.6 1.7 12.4-1 16.1-4.8 1.535-1.698 3.322-3.148 5.3-4.3 5.1-2.9 9.1-6 11.8-10.9s-5.6-8.1-11-3.6-5.7 9.8-16.4 16.4c-7.3 4.6-8.3 6.7-5.8 7.2z" fill="#000"/>
  <g fill="#fff">
   <path d="m292.02 213.79c0.05-0.992-0.401-1.822-1.008-1.853-0.606-0.031-1.139 0.749-1.189 1.742-0.051 0.993 0.401 1.823 1.007 1.853 0.607 0.031 1.14-0.749 1.19-1.742z"/>
   <path d="m381.7 191c-0.176-1.014-0.513-1.993-1-2.9-0.1-0.1-0.2-0.2-0.3-0.1h-0.1c-0.2 0-0.2 0.1-0.2 0.2 0.5 2.1 0.7 4.5-0.4 5.9 2.3-1.8 2.1-2.8 2-3.1z"/>
   <path d="m346.02 201.63c0.917-0.205 1.406-1.507 1.092-2.909-0.313-1.401-1.31-2.371-2.226-2.166s-1.405 1.507-1.092 2.908 1.31 2.371 2.226 2.167z"/>
  </g>
  <path d="m421 351.4c42.3 0 77-17.6 122.6-57.8s61.6-53.4 74.5-65.9 12-20.6 5.3-36.6-11.1-13.7-11.1-13.7c-0.8-13-13.5-34.5-27.5-51.8s-22.4-14.5-37.8-14.5-20.5 4.2-27.4 22.6-24.1 34-56.6 39.7-50.3 5.4-51.2 21.7 0 44.4-14.4 66.6c-17.901 8.652-36.72 15.26-56.1 19.7-11.4 2.6-13.8 10.1-14.9 19.9s2.9 15.1 4.8 18.2c-3.9 3.7-3.1 5.3-1.2 14 0.8 3.5 1.7 7 2.5 10.1 0.652 2.253 2.019 4.233 3.895 5.64s4.16 2.165 6.505 2.16z" fill="#66bcff"/>
  <path d="m326.4 301.3c-1.1 9.8 2.9 15.1 4.8 18.2l78.3 9 75.8-11.1s50-40.3 43.2-53.7-21.1-0.8-40.2 12.2-38.9 14.2-61.6 10.9-50.2-13-85.4-5.4c-11.4 2.6-13.8 10.1-14.9 19.9z" fill="#45aaf7"/>
  <g fill="#a3e1ff">
   <path d="m536.6 257c0.1-17.3-0.5-21.4 5.3-20.6s15.3 2.7 15.3 2.7l-10.3 16.3z"/>
   <path d="m567 230.1c0-8.4-0.7-13.9 1.6-15.1s5 0.3 9.8 4.6-11.4 10.5-11.4 10.5z"/>
   <path d="m336.2 317.4c-1.3-10.1-1-18.1 1.7-20.1s5.3 2.6 7.2 6.6c2.422 5.076 5.444 9.843 9 14.2z"/>
   <path d="m423 319.6c3.3-13.5 6.1-16.8 8.9-17s4.2 6.2 8.2 15.3l-6.6 3.1z"/>
  </g>
  <path d="m603 196.1c-42.5 41.1-67.9 63.7-103.5 90.2s-51.5 33.4-81.4 33.4-49.1-16.8-86.9-0.2c-3.9 3.7-3.1 5.3-1.2 14 0.8 3.5 1.7 7 2.5 10.1 0.652 2.253 2.019 4.233 3.895 5.64s4.16 2.165 6.505 2.16h78.1c42.3 0 77-17.6 122.6-57.8s61.6-53.4 74.5-65.9 12-20.6 5.3-36.6-11.1-13.7-11.1-13.7c0 4.5 0.3 9.3-9.3 18.7z" fill="#fff"/>
  <path d="m623.9 192.2c-0.1 5.8-3.7 12.4-13.5 21.4-19.2 17.5-58.9 53.3-86.2 76.5-29.9 25.7-57.7 46.9-94.7 46.9-12.9 0-27-2.7-40.7-5.3-24.1-4.6-47-8.9-58.6 2.7 0.1 0.6 0.3 1.3 0.4 1.9 10.8-11.9 33.7-7.6 57.9-3 13.8 2.6 28 5.3 41 5.3 37.5 0 66.7-22.4 95.7-47.2 27.3-23.3 67.1-59.2 86.2-76.6 7.2-6.6 12.4-12.7 13.7-19.4z" fill="#ffe75c"/>
  <path d="m512 319-13.9-31.6c-5.333 3.933-10.233 7.433-14.7 10.5l-1.2 1.4c5.2-2.2 10.4 0.7 10.8 9.6 0.1 4.8 0.1 14.5 0.1 22.3 6.517-3.721 12.826-7.793 18.9-12.2z" fill="#000"/>
  <path d="m348.7 343.4c-8 0.1-11.9 3.3-8.7 6.4 1.165 1.082 2.711 1.657 4.3 1.6h68.7c-34.2 0-37.7-8.4-64.3-8z" fill="#000"/>
  <path d="m584.3 166.9c-10.3 13.2-13.9 18.4-9.6 32.5 1.8 6.1 4.1 12.6 6 18l22.3-21.3c9.6-9.4 9.3-14.2 9.3-18.7-0.7-11.1-10-28.4-21.5-44 5.8 8.4 3.8 20.3-6.5 33.5z" fill="#45aaf7"/>
  <path d="m570.6 150.1c5.9-22.5 5.3-37.5-9.2-39-4.3-0.4-8.9 0-14.4 0-15.5 0-20.5 4.2-27.4 22.6s-24.1 34-56.6 39.7-50.3 5.4-51.2 21.7 0 44.4-14.4 66.6c-2.1 3.7 0.4 6.2 30.3 6.2s47.7-1.8 52.7-14.3 12.2-39.8 15.8-50.6 3-17 22.9-21.5 45.9-9.7 51.5-31.4z" fill="#8cd9ff"/>
  <path d="m501.5 178.7c16-6.6 27.3-5.1 44.3-13.2s19.2-14.1 21.3-25.2 3.6-24.2-6.7-25.1-19.6-0.5-24.3 1.1-5.9 4.5-11 15-7.6 26.1-30.5 36.3z" fill="#000"/>
  <path d="m366.7 312.4c0.1 5.1 1.5 12.4 4.3 13.1s4.1-5 7-12.1c-3.1-3.2-11.3-6.5-11.3-1z" fill="#a3e1ff"/>
  <path d="m494.3 289.2c-2.478 0.102-4.902 0.751-7.1 1.9-9.3 4.7-9.2 8.7-8.9 10.1 12.7-7.7 18.3 0.8 21.9 25.7 1.4 9.8 3.9 14.6 11.1 14.6 8.8 0 14-6.2 13.4-22.2-0.135-3.019-0.469-6.025-1-9-2.5-13.4-7.7-26.9-20.3-26.9-1.89 0.094-3.722 0.678-5.318 1.695s-2.899 2.432-3.782 4.105z" fill="#ff78b9"/>
  <path d="m588.2 244.1c-5.4 4.8-10.8 5.2-12 1s2.1-11.6 7.5-16.3l9.4-8.3c5.4-4.8 10.8-5.2 12-1s-2.2 11.6-7.5 16.3z" fill="#ffa8d2"/>
  <path d="m494.3 289.2c8.4 0.9 14.8 4.8 17.5 15.4 1.9 7.5 1.3 16.3 2.6 23.9" stroke="#000" stroke-linecap="round" stroke-linejoin="round" stroke-width="2"/>
  <path d="m590 169.2-2.5 3.4c-7.9 10.3-10.8 14.1-2.4 40.6l1.3-1.2c-7.9-25-5.3-28.5 2.3-38.4l2.6-3.4c6.2-8.4 8.5-16.7 8.3-23.8l-1.8-2.8c1 7.3-1 16.4-7.8 25.6z" fill="#5865f2"/>
  <path d="m476.1 307.6c0.8-4.5-0.2-6.7-2.5-6.4s-4.3 1.7-6.5 6.8c1.8 19.5 7 11.9 9-0.4z" fill="#a3e1ff"/>
  <path d="m558.3 118.4 15.7-2c2.5-0.3 3.4-6 4.5-13.2 1.1-7.1999-0.2-20.3-0.2-20.3l-16.2 4.9z" fill="#ff78b9"/>
  <path d="m601.9 78.2c-6.7-7.5-40.7-33.7-40.7-33.7l-8 11.5s11.3 12.5 19.4 20.9c-16.4 1.3-46 5.2-46 5.2-21-4.2-29.9-6.2-29.9-6.2l21.6-20.5-7.9-11.8s-20.6 12.6-32.2 21.7-13.5 20.3-2.5 28.8c11 8.4999 14.7 11.1 14.7 11.1l70.9 7.3c20.8-5.8 33.2-12.1 40.7-18.6 7.5-6.5 6.6-8.2-0.1-15.7z" fill="#ffc619"/>
  <path d="m484.5 74.8c2.5 0.4 6.9 1.6001 6.9 1.6001" stroke="#000" stroke-linecap="round" stroke-linejoin="round" stroke-width="2"/>
  <path d="m556.9 40.9-7.1 11.9 8 8.2001c2.6-2.9 5.2-8.0001 4.4-15.7z" fill="#000"/>
  <path d="m510.9 92.9c-9.6-11.8-13-16.9-15-22.8-1.4-4.3 7.1-1.7 18.1 1.6s9.3 6.4-3.1 21.2z" fill="#ff78b9"/>
  <path d="m497.1 75.6c-10.1 11.3-10.3 25.1-9.2 44.4 0 0-17.4 17.5-14.9 32.8s26.3 21.9 53.4 21.6c21.8-0.2 24.2-5.3 26.2-15.6 1.2-6.7 2.1-14.4 2.7-20.4 0.605-6.307 2.191-12.482 4.7-18.3 13.4-31.1 2.6-42.3 2.6-42.3l-36.2 2.9z" fill="#ff78b9"/>
  <path d="m505.1 59.4c-8.5 6.3-6.7 15.9 5.3 29.1l5.4 5.4 34.9-5.7c11.2-13.9 9-23.2 4.9-29 5.7-9.4 6.1-15.9 6-21.7-0.1-9.8-9-25.2-31.4-25-12.2 0.1-23 4.9-26.9 20.4-1.4 5.4-1.7 14.2 1.8 26.5z" fill="#ffe75c"/>
  <path d="m548.3 25.2c0.267-0.0015 0.532 0.0535 0.776 0.1612 0.245 0.1077 0.464 0.2659 0.643 0.464 0.18 0.1982 0.315 0.432 0.398 0.6862 0.083 0.2541 0.111 0.5228 0.083 0.7886l-1.2 13.5c-0.355 3.0278-1.779 5.8295-4.015 7.901-2.237 2.0715-5.139 3.2768-8.185 3.399h-2.7c-3.184 0.0302-6.27-1.1002-8.681-3.1799s-3.982-4.9663-4.419-8.1201l-0.5-4.5c-0.073-0.5301-0.337-1.0154-0.742-1.3651s-0.923-0.5399-1.458-0.5349c-0.551-0.0023-1.082 0.2019-1.489 0.5721-0.407 0.3703-0.661 0.8798-0.711 1.4279l-0.6 7.2c-0.222 2.3794-1.314 4.5934-3.067 6.2174s-4.044 2.5436-6.433 2.5826c-1.433 0.0541-2.86-0.2035-4.183-0.755s-2.511-1.3838-3.481-2.4394c-0.97-1.0555-1.699-2.3091-2.137-3.674-0.438-1.365-0.574-2.8088-0.399-4.2316l1.2-13.6c0.071-0.5398 0.33-1.037 0.733-1.4033 0.403-0.3662 0.923-0.5776 1.467-0.5967z" fill="#000"/>
  <path d="m549.6 25.7 12 11.8v2.4l-11.9-8.3z" fill="#000"/>
  <g fill="#ff78b9">
   <path d="m562.6 77.7c-5.629-5.317-12.257-9.4638-19.5-12.2-6.5-2.3-8-2.9-9.5 0.8s-3.1 7.9-3.7 9.3-7.7 6.2-12 9.8-8.8 11.3-8.8 11.3l45.6 3.5z"/>
   <path d="m572.4 76.7 5.9 6.2c-2.7 8.4-4.4 18.9-5.4 30.6l-23.3 1.7 13-37.4z"/>
   <path d="m497.1 75.6-4.3-0.8c-0.66-0.0956-1.332-0.0468-1.971 0.1432-0.639 0.1899-1.229 0.5164-1.729 0.9569-4.895 4.4553-8.197 10.391-9.4 16.9-1.3 7.6-0.9 8.4 7.9 13.1 5.9 3.2 12-10.8 15.3-20.3 0.383-1.0357 0.533-2.1433 0.438-3.2436-0.094-1.1003-0.43-2.1662-0.984-3.1215-0.555-0.9553-1.313-1.7764-2.221-2.4048-0.908-0.6283-1.944-1.0483-3.033-1.2301z"/>
  </g>
  <path d="m501.3 153.4c-7.656-8.923-16.275-16.972-25.7-24l-22.4 11.7 7.3 21.8s6 7.6 11.6 13.6 15.7 6.2 34.3 7.8c7-12.5 3.8-20.4-5.1-30.9z" fill="#2835bd"/>
  <path d="m464.8 162.5 2-9.7" stroke="#000" stroke-linecap="round" stroke-linejoin="round" stroke-width="2"/>
  <path d="m543.4 149.3c-1.8-4.9-7.3-8.8-31.9-10l-9.1-9.2-25.3 19.3c9 15.2 19.2 33.5 29.3 34.9s19.2 0.7 31.2-6.6c7.6-4.7 8.6-6.9 8.8-10.9-0.153-5.947-1.163-11.841-3-17.5z" fill="#3442d9"/>
  <path d="m570.6 150.1c-5.6 21.7-31.6 26.8-51.5 31.4-18 4.1-19.2 9.5-21.9 18.5l-13.6-3.6v-14l17.9-3.7c16-6.6 27.3-5.1 44.3-13.2s19.2-14.1 21.3-25.2c1.3-6.5 2.3-13.9 0.7-19l5.7 0.8c1.5 6.8 0.2 16.4-2.9 28z" fill="#8cd9ff"/>
  <path d="m418.4 171.6c-1.326 0.803-2.343 2.029-2.887 3.48-0.545 1.451-0.584 3.043-0.113 4.52 2.9 9.2 4.2 16.3 1.5 38.7s-7.2 34.8-9.3 39.4c-0.129 0.273-0.191 0.573-0.182 0.875 0.01 0.301 0.092 0.596 0.238 0.86 0.147 0.264 0.354 0.489 0.605 0.657s0.539 0.274 0.839 0.308c11.2 1.7 28 1.5 46.4-0.9 3.104-0.407 6.045-1.631 8.522-3.546s4.402-4.452 5.578-7.354c4.73-11.738 8.607-23.803 11.6-36.1 6.7-27.6 5.9-27.1 20.3-33.8-1.1-9.9-1-19.4-11.8-20.8-12.6-1.6-26.4 4.6-46.2 10-4.5-4-8.6-6-25.1 3.7z" fill="#45aaf7"/>
  <path d="m472.6 159.4c-8.3 2-17.7 5.4-29.1 8.5-3.3-2.9-6.4-4.8-14.3-1.7-0.293 0.748-0.527 1.517-0.7 2.3-3.6 17.9-10.4 47.2 10 45.6s22.7-13.7 22.1-24.7-1.9-17.1 0-20.3 8.6-8.8 12-9.7z" fill="#287ceb"/>
  <path d="m490.9 184.7c-1.4-11.7-2.3-17.3-5.5-19.5s-4.3-1.5-8.5-0.6-9.5 2.5-16.3 4.5c-12.7 3.7-28.5 8.4-34.5 8l-2-0.3c1.4-1.5 10-4.6 15.7-6.7l4-1.5c0.094-0.023 0.182-0.065 0.259-0.123 0.077-0.059 0.141-0.133 0.188-0.217 0.047-0.085 0.076-0.178 0.085-0.275 9e-3 -0.096-2e-3 -0.193-0.032-0.285l-0.8 0.2-0.7-0.6-3.6 1.3c-13.3 4.9-17.1 6.6-16.8 8.5s1.8 1.5 3.6 1.6c6.2 0.4 21.5-4.1 35.1-8.1 6.7-2 12.5-3.7 16.1-4.4s5.9-0.7 7.3 0.3 3.6 8 4.9 19.8z" fill="#000"/>
  <g fill="#5865f2">
   <path d="m496 39.3 19-13.8-7.1 0.1-11.4 8.3z"/>
   <path d="m500.6 51c1.637 0.9545 3.505 1.439 5.4 1.4 2.389-0.039 4.68-0.9586 6.433-2.5826s2.845-3.838 3.067-6.2174l0.3-3.6z"/>
   <path d="m548.3 25.2h-7.9l-19.5 14.1v1.5c0.225 1.5464 0.733 3.0381 1.5 4.4l27.1-19.5c-0.337-0.2894-0.757-0.4645-1.2-0.5z"/>
   <path d="m549 40.8 0.6-6.5-22.2 16.1c2.05 1.1342 4.357 1.7198 6.7 1.6999h2.7c3.046-0.1221 5.948-1.3274 8.185-3.399 2.236-2.0715 3.66-4.8732 4.015-7.901z"/>
  </g>
  <path d="m514.5 53.6c2.668-0.5822 5.431-0.5822 8.1 0" stroke="#000" stroke-linecap="round" stroke-linejoin="round" stroke-width="2"/>
  <path d="m430.7 133c0.1 0.3 0.2 0.5 0.3 0.5s0.2-0.1 0.3-0.4" fill="#000"/>
  <path d="m447.7 128.4c-10.8 4.2-25.9 13-38.9 20.3-7.2 4-9.4 6.4-5.6 13.7s11 14.3 16.4 19.1 8.4 2.8 12.4 0.2l28.5-18.8 15.1-33.5c-6.3-4.4-17-5.3-27.9-1z" fill="#2835bd"/>
  <path d="m417.2 168.1c4.6 0.9 4.6 1.4 10.3-2.3s34.4-21 37.3-22.9" stroke="#4150f2" stroke-linecap="round" stroke-miterlimit="10" stroke-width="2"/>
  <path d="m489.4 117.8c-4.5-3.3-7.6-3.5-31.8-5.5s-35.5-4.5-38.3-0.1-0.3 15.4 2.5 23.7 4.4 11 8.3 11.3 40.3 1.5 47 2.2l3.3 5.6 31.1-15.7s-17.7-18.2-22.1-21.5z" fill="#3442d9"/>
  <path d="m412.6 161.4c-6-4.9-8.4-5.8-7.7-2.5s4.5 8.2 8.6 12.6 8.8 8.9 10.4 8.6-0.3-3.3-2.8-8.1c-2.135-4.041-5.02-7.638-8.5-10.6z" fill="#000"/>
  <path d="m419.2 168.7-5 3.5-4.1 2.9c-4.9 3.6-2.9 6.5-2.5 9.9s-0.7 5.9-3 5.9-5.7-9.6-8.1-14.2-10.3-8.3-14.4-11.8c-1.7-1.5-2.1-4 0-4.8-0.9-1.3-2.1-4.6 0.9-5.6s7.5 4.5 10 6.2 5.6 3.3 7.9 2.3c1.581-0.704 3.117-1.506 4.6-2.4l3.4-2.1 3.7 2.9c2.511 2.133 4.73 4.587 6.6 7.3z" fill="#ff78b9"/>
  <path d="m570.6 150.1c-5.6 21.7-31.6 26.8-51.5 31.4s-19.3 10.6-22.9 21.5-10.8 38.2-15.8 50.6l66.5-39.1 27.2-51.6z" fill="#66bcff"/>
  <path d="m493.5 237.9c-2.2 7.7-4 13.5-5 17.7s3.6 3.8 8.5 2.4 7-3.5 6.2-7.8-7.3-21-9.7-12.3z" fill="#fff"/>
  <path d="m412.6 161.4-3.7-2.9c-0.9-0.1-1.4-0.1-1.8 0.2s-0.3 0.5-0.2 1c2.3-0.4 8 3.7 8.2 11.8 1.3 0.6 2 1 2.5 0.7s1.2-1.7 1.6-3.5c-1.87-2.713-4.089-5.167-6.6-7.3z" fill="#000"/>
  <path d="m403.8 186.5c-1-3.8-4.4-11.6-7.3-14.7s-7.5-10.4-9-12.8-5.4-5.4-6.3-2.7c-0.195 1.335 0.127 2.694 0.9 3.8-2.1 0.8-1.7 3.3 0 4.8 4.1 3.5 11.8 6.7 14.4 11.8s4.4 12.5 7.2 14l0.8 0.2c0.5-0.1 0.2-1.5-0.7-4.4z" fill="#de3a93"/>
  <path d="m518.2 6.5001c-1.267 3.5717-1.407 7.4464-0.4 11.1 0.159 0.6427 0.534 1.2114 1.062 1.6117 0.527 0.4002 1.176 0.6078 1.838 0.5883h6.1c0.679 0.0031 1.351-0.1378 1.972-0.4136 0.62-0.2759 1.175-0.6802 1.628-1.1864 3.7-3.9 10.4-4.9 15.6-2.7l3.1-4.5c0.332-0.4408 0.495-0.9864 0.458-1.5372-0.037-0.55077-0.27-1.07-0.658-1.4628-3.032-2.8653-6.65-5.0379-10.604-6.3674-3.954-1.3295-8.149-1.7842-12.296-1.3326-1.747 0.20987-3.401 0.90064-4.778 1.9953-1.377 1.0947-2.424 2.5503-3.022 4.2046z" fill="#ff8c19"/>
  <path d="m573.3 108.8c-0.4 4.7 0.4 6.3 1.5 4.4 0.773-1.706 1.247-3.533 1.4-5.4z" fill="#000"/>
  <g stroke="#000" stroke-linecap="round" stroke-linejoin="round" stroke-width="2">
   <path d="m561.3 78.1c-8.6 1.1-13.4 2.6-17.7 4.6"/>
   <path d="m578.9 84.1 3.7 3.7"/>
   <path d="m557 119.6s-4.5 3.3-7.4 5.7"/>
  </g>
  <path d="m517.5 93.8-0.8 11.8h-5.3c0.31-3.873 0.912-7.7172 1.8-11.5 0.198-0.6457 0.502-1.2539 0.9-1.8v0c1.33-1.6652 2.877-3.1449 4.6-4.3999l9.2-6.9c2.604-1.9198 4.586-4.5627 5.7-7.6 1.3-3.4 2.9-7.7001 3.6-8.6001" stroke="#f551a0" stroke-linecap="round" stroke-linejoin="round" stroke-width="2"/>
  <path d="m573.2 77.5c-4.2 10.6-8.8 28.6-5.3 37.2 0.351 0.81 0.787 1.581 1.3 2.3l2-0.2c-0.757-0.785-1.367-1.699-1.8-2.7-3.2-7.7 0.8-24.3 5-35.3z" fill="#f551a0"/>
  <path d="m480.6 101.4c0.4 0.472 0.872 0.877 1.4 1.2 1-11.7 5.8-21.6 13.2-27.4l-2-0.3c-6.9 5.9-11.5 15.4-12.6 26.5z" fill="#f551a0"/>
  <path d="m560.9 118.9-11.1 1.3" stroke="#000" stroke-linecap="round" stroke-linejoin="round" stroke-width="2"/>
  <path d="m546 161.3c-4 2.7-12.5 6.8-17.9 8-1.349 0.277-2.723 0.411-4.1 0.4-2.166 0.081-4.318-0.369-6.27-1.31-1.952-0.942-3.644-2.345-4.93-4.09l-5.2-7.3c-4.5-6.4-10.2-14.3-14.3-20-0.1-0.2-0.1-0.3-0.2-0.4-6.2-8.7-9.5-12.5-14.1-13.2s-17.9-1.9-41.2-3.7c-5.8-0.4-6.7-0.3-7.8 2.3-0.032 0.098-0.085 0.188-0.155 0.263s-0.156 0.134-0.251 0.172c-0.096 0.038-0.198 0.055-0.301 0.049s-0.203-0.035-0.293-0.084c-0.184-0.086-0.333-0.231-0.424-0.413-0.091-0.181-0.118-0.388-0.076-0.587 1.6-3.9 4-3.7 9.4-3.3 13.6 1.1 36.9 2.9 41.4 3.7s9.4 5.9 15.1 13.9c0 0.1 0.1 0.2 0.2 0.3 4.1 5.7 9.7 13.7 14.3 20l5.2 7.4c2.8 3.9 7.9 5.5 13.6 4.3s15-6 18.1-8.2c0.116 0.594 0.183 1.196 0.2 1.8z" fill="#5865f2"/>
  <path d="m422.4 113.9c-2.9 2.7-1.4 8 0.6 15.3s4.5 13.9 5.8 13.7 2-2.8 2.3-6.6 0.2-10.6-1.3-15.7-5.2-8.8-7.4-6.7z" fill="#000"/>
  <path d="m431.3 133.1-7.4-0.9c-3.6-0.5-7.2-0.8-10.8-1-0.7 4.3-2.2 9.8-4.3 12s-5.8 2.1-6.2-2.9-0.1-12.1-3.4-26.9c-1.2-5.5-3.4-8.8-4.2-13-0.8-4.1999 1.6-4.8999 3.8-4.4999-0.5-2.8-0.3-6.4 3.2-6.9s4.9 2.5 4.9 6.4c0.519-0.7186 1.267-1.2389 2.122-1.4752 0.854-0.2363 1.763-0.1745 2.578 0.1752 2.4 0.9 2.9 3.9 2.6 8.6999-0.3 4.8-0.4 9.9 1.6 11.6s2.5 1.1 5.3 1.5l6.8 0.6c0.811 1.277 1.45 2.656 1.9 4.1 1.034 4.085 1.538 8.286 1.5 12.5z" fill="#ff78b9"/>
  <path d="m431.3 133.1c0.038-4.214-0.466-8.415-1.5-12.5-0.45-1.444-1.089-2.823-1.9-4.1h-0.9c2.5 3.2 4 11.6 0 16.1 0.563 0.477 1.206 0.849 1.9 1.1 0.845 0.081 1.692-0.13 2.4-0.6z" fill="#000"/>
  <path d="m411.7 100c0.4-4.6999-2.9-6.6999-4.8-4.5999 0-3.9-1.3-6.9-4.9-6.4s-3.7 4.1-3.2 6.9c-2.2-0.4-4.6 0.4-3.8 4.4999 0.8 4.1 3 7.5 4.2 13 3.3 14.8 2.9 21 3.4 26.9 7e-3 1.189 0.392 2.345 1.1 3.3 2.3 2.4 3.3-0.5 3.2-4.9-0.055-6.886 0.346-13.767 1.2-20.6 1-8 3.3-13.4 3.6-18.1z" fill="#de3a93"/>
  <path d="m402.4 89c3.1-0.1 3.2 3.8 3.1 8.1l1.4-1.7c0-3.7-1.2-6.7-4.5-6.4z" fill="#ff78b9"/>
  <g stroke="#000" stroke-linecap="round" stroke-linejoin="round" stroke-width="2">
   <path d="m482.7 138.2c-1.572 3.874-3.444 7.619-5.6 11.2 4.6-2 6.5-3 6.5-3"/>
   <path d="m512.4 140.2 10.6 10.8c8.6 1.1 10.6 2.9 12.9 5.8"/>
   <path d="m523 151 9.7 0.3"/>
  </g>
  <path d="m496.6 252.1c-1.3 3.3-3.5 5.5-4.9 5s-1.4-2.1 0-5.2c0.603-1.258 1.105-2.562 1.5-3.9 0.8-2.9 2.3-3.4 3.4-2.9s1.4 3.6 0 7z" fill="#000"/>
  <path d="m418 207.6c-0.1 1.7-0.3 3.6-0.5 5.6l22.4 2.5-23.6 7.4c-0.5 3.4-1 6.5-1.5 9.4l15.6 1.6c-5.3 1.9-11.1 3.9-17.3 6.3-0.8 3.533-1.6 6.533-2.4 9l7.3 0.2-8.2 2.3c-0.601 1.981-1.336 3.919-2.2 5.8-0.102 0.257-0.169 0.526-0.2 0.8 8.9-2.8 17.9-5.1 26.6-7 8.882 1.603 17.638 3.842 26.2 6.7 2.164-0.91 4.108-2.274 5.7-4-3.4-1.2-8.4-2.8-14.5-4.5l-3.5-0.9c8.3-1.4 16-2.6 23-3.5 1.1-2.8 2.3-6.1 3.5-9.7-6.5-1.5-13.2-2.7-19.7-3.8 9.4-2.9 16.8-5 23-6.5 1-3.4 2-7 3-10.8l-13.5-1.4 14.9-4.6 1.6-6.3-30.5 9.3zm50.3 32.4c-10.2 1.4-22.1 3.2-34.5 5.9-4.667-0.8-9.567-1.4-14.7-1.8 8.9-3.3 16.7-6.1 23.7-8.4 8.1 1.1 16.9 2.5 25.5 4.3zm8.6-20.3c-8.5 2.1-19.5 5.2-34.6 10.3-8.1-1.1-15.4-1.9-21.3-2.5l32.8-10.3z" fill="#3f4eeb"/>
  <path d="m418.4 199.7c-0.1 1.9-0.1 4-0.3 6.4 25.6-0.8 54.9-3.9 65.9-5.2 0.6-2.6 1.2-4.8 1.8-6.7-7.9 1-39.8 4.7-67.4 5.5z" fill="#3f4eeb"/>
  <g fill="#000">
   <path d="m461.7 252.8 4.2 1.4c-1.592 1.726-3.536 3.09-5.7 4l-4-1.3c2.1-0.966 3.974-2.363 5.5-4.1z"/>
   <path d="m471.1 234.9 3.3 0.7c-1.2 3.6-2.4 6.9-3.5 9.7l-4.4 0.6c1.867-3.518 3.407-7.2 4.6-11z"/>
   <path d="m476.8 214.1 3.9 0.4c-1 3.8-2 7.4-3 10.8l-4 1c0.6-2 1.1-4.1 1.6-6.2 0.1-0.2 0.1-0.4 0.2-0.6 0.4-1.8 0.9-3.6 1.3-5.4z"/>
   <path d="m479.4 203.5 4.3-1.3-1.6 6.3-4.3 1.3c0.5-2.1 1.1-4.2 1.6-6.3z"/>
   <path d="m485.8 194.2c-0.6 1.9-1.2 4.1-1.8 6.7l-4.1 0.4 1.8-6.6z"/>
   <path d="m409.8 251.9 5-1.4c-0.7 2.2-1.4 4.3-2.2 6.4l-5.2 1.6c0.031-0.274 0.098-0.543 0.2-0.8 0.864-1.881 1.599-3.819 2.2-5.8z"/>
   <path d="m413.1 240.4 4.5-1.7c-0.7 3.8-1.5 7.3-2.5 10.8h-4.4c0.8-2.533 1.6-5.567 2.4-9.1z"/>
   <path d="m416.3 223.1 3.7-1.2c-0.4 3.9-0.9 7.5-1.4 11l-3.8-0.4c0.5-2.9 1-6 1.5-9.4z"/>
   <path d="m418 207.6 3.4 0.4-0.6 5.5-3.3-0.3c0.2-2 0.4-3.9 0.5-5.6z"/>
   <path d="m422.2 199.6-0.6 6.4h-3.5c0.2-2.4 0.2-4.5 0.3-6.4z"/>
  </g>
  <path d="m519.6 225 0.2 8.5c6e-3 0.441 0.129 0.872 0.355 1.25 0.227 0.378 0.55 0.69 0.935 0.903 0.386 0.213 0.822 0.321 1.262 0.311 0.441-9e-3 0.871-0.135 1.248-0.364 0.451-0.295 0.799-0.723 0.996-1.225 0.197-0.501 0.233-1.052 0.104-1.575l-2.9-10z" fill="#fff"/>
  <path d="m505 199.4c8 2.5 9.6 11 11.3 25.4 0.034 0.354 0.163 0.693 0.372 0.981 0.209 0.289 0.491 0.516 0.817 0.658 0.326 0.143 0.684 0.196 1.038 0.154 0.353-0.042 0.689-0.178 0.973-0.393l2.8-2.1c0.733-0.524 1.308-1.24 1.661-2.069s0.47-1.739 0.339-2.631c-0.3-1.8-0.8-4.6-1.3-8.4-1.2-7.4-6.1-16.4-15.5-17.5-0.51-0.051-1.023 0.056-1.471 0.306-0.447 0.251-0.806 0.633-1.029 1.094-0.478 1.139-0.716 2.365-0.7 3.6 0.011 0.204 0.084 0.399 0.209 0.56 0.125 0.16 0.296 0.279 0.491 0.34z" fill="#3f4eeb"/>
 </g>
 <g>
  <path d="m291.4 351.9h-273.3c-54.859-105.26 29.435-84.169 61.451-68.47 34.558-35.829 67.514-18.523 91.756 6.5866 26.401-24.899 67.792-36.288 84.392-18.016 9.6 11.8 2.2 34.5-16 52.4 0 0 53.8 1.3 51.7 27.5z" fill="#404eed"/>
  <path d="m249.89 231.1c-0.9 12.6-1.1 17.8-1.1 19.8-7e-3 0.316 0.052 0.63 0.173 0.923 0.12 0.292 0.3 0.557 0.527 0.777 5.9 5.9 12.9 7.8 18.4 8.5 0.318 0.042 0.641 0.017 0.949-0.073 0.308-0.091 0.593-0.244 0.838-0.451 0.245-0.208 0.444-0.464 0.584-0.752 0.14-0.289 0.218-0.603 0.229-0.924l1.1-16" stroke="#fff" stroke-linecap="round" stroke-miterlimit="10" stroke-width="2"/>
  <path d="m317.22 244.78c4.779-10.02-8.036-26.102-28.624-35.922-20.587-9.82-41.151-9.658-45.93 0.362-4.779 10.019 8.036 26.102 28.624 35.922 20.587 9.819 41.151 9.657 45.93-0.362z" fill="#000"/>
  <path d="m402.09 258.4-33.3 18.6c0.57 0.527 1.287 0.867 2.056 0.975 0.769 0.107 1.552-0.024 2.244-0.375 1.9-0.8 6.5-5 8.3-6s6.9-3 9.4-4c3.083-1.221 5.978-2.871 8.6-4.9 2.2-1.8 3-2.5 2.7-4.3z" fill="#000"/>
  <path d="m319.89 189.3c-6.1-3.8-6.4-3.7-9.8-9.8s-7.7-9.1-12.7-9.8l6.2 44.9c13 3.8 21-2.8 22.8-9.3s-0.3-12.2-6.5-16z" fill="#3442d9"/>
  <path d="m313.79 195.2c-1.7-7.3-6.2-15.8-11.5-22.2-1.899-2.312-3.246-5.027-3.939-7.9382-0.693-2.9109-0.714-5.9415-0.061-8.8617l2.2-10c1.547-6.9406 0.722-14.199-2.341-20.616-3.064-6.4171-8.19-11.622-14.559-14.784-3.655-1.7995-7.633-2.8533-11.7-3.1-7.653-0.5606-15.223 1.8829-21.104 6.8117-5.881 4.9289-9.61 11.955-10.396 19.588-0.166 1.293-0.233 2.5968-0.2 3.9v4.3l0.2 18c0.217 8.0869-1.497 16.108-5 23.4-1.454 2.893-2.561 5.948-3.3 9.1l48.9 52c23.3-3.9 37.9-26.4 32.8-49.6z" fill="#3442d9"/>
  <path d="m281.09 244.8c23.2-3.9 37.8-26.4 32.7-49.6-1.6-6.9-5.7-14.9-10.6-21.1" stroke="#000" stroke-linecap="round" stroke-miterlimit="10" stroke-width="2"/>
  <path d="m298.19 196.7c4.6-7.6 6.4-6.6 14.6-4.4 6.6 1.7 14.2 15.2 4.1 22s-30.7 2.7-18.7-17.6z" fill="#3442d9"/>
  <path d="m275.39 174.29c0.922-0.705 1.07-2.058 0.332-3.024-0.738-0.965-2.083-1.176-3.004-0.472-0.921 0.705-1.07 2.058-0.332 3.023 0.738 0.966 2.083 1.177 3.004 0.473z" fill="#000"/>
  <path d="m287.99 175.07c0.921-0.704 1.07-2.058 0.332-3.023s-2.083-1.177-3.005-0.472c-0.921 0.704-1.07 2.058-0.332 3.023s2.083 1.177 3.005 0.472z" fill="#000"/>
  <path d="m286.69 173.5c10.7 8.8 6.3 15.1 14.9 28.1" stroke="#fff" stroke-linecap="round" stroke-miterlimit="10" stroke-width="3.0059"/>
  <path d="m274.59 193.2c6.6-4.6 8.6-5.9 11.1-5.8l6.5 0.6-1.7 26.4-16.5-0.5z" fill="#ffc619"/>
  <path d="m306.59 186.5c0.125-0.349 0.166-0.723 0.122-1.091s-0.173-0.721-0.376-1.031c-0.204-0.31-0.476-0.569-0.796-0.756-0.321-0.187-0.68-0.297-1.05-0.322l-11-1.6c-0.798-0.085-1.602 0.107-2.275 0.544-0.674 0.437-1.177 1.092-1.425 1.856l-6.2 23c-0.124 0.35-0.166 0.723-0.122 1.091s0.173 0.721 0.376 1.031c0.204 0.31 0.476 0.569 0.797 0.756 0.32 0.187 0.679 0.297 1.049 0.322l11 1.6c0.799 0.085 1.602-0.107 2.276-0.544 0.673-0.437 1.176-1.092 1.424-1.856z" fill="#000"/>
  <path d="m306.09 184.2 1.2 1.4-3.3 0.3z" fill="#000"/>
  <path d="m311.49 199.4c-1.4-2.3-2.7-5.2-6.5-5.8l-0.5 4.8z" fill="#ffc619"/>
  <path d="m307.69 187.8c0.105-0.349 0.132-0.717 0.079-1.078s-0.184-0.706-0.384-1.011-0.464-0.562-0.774-0.754-0.659-0.314-1.021-0.357l-11.1-1.6c-0.795-0.067-1.591 0.133-2.26 0.567-0.67 0.435-1.177 1.079-1.44 1.833l-6.2 23c-0.105 0.349-0.132 0.717-0.079 1.078s0.184 0.706 0.384 1.011 0.464 0.563 0.774 0.754c0.311 0.192 0.659 0.314 1.021 0.357l11.1 1.5c0.778 0.128 1.576-0.037 2.24-0.461 0.664-0.425 1.149-1.079 1.36-1.839z" fill="#fff"/>
  <g fill="#ffc619">
   <path d="m304.29 196.9 4.5 0.7c0.912 0.101 1.747 0.556 2.327 1.266 0.58 0.711 0.857 1.621 0.773 2.534-0.023 0.475-0.145 0.94-0.358 1.365-0.214 0.424-0.514 0.8-0.881 1.101-0.368 0.302-0.794 0.523-1.253 0.649-0.458 0.127-0.938 0.156-1.408 0.085l-3.3-0.5c-1.025-0.147-1.973-0.629-2.697-1.37-0.723-0.742-1.181-1.701-1.303-2.73-0.025-0.458 0.056-0.916 0.236-1.338s0.455-0.797 0.802-1.097c0.348-0.299 0.76-0.515 1.204-0.63s0.909-0.127 1.358-0.035z"/>
   <path d="m302.79 203.6 3.1 0.5c0.519 0.066 1.017 0.243 1.46 0.52s0.82 0.648 1.105 1.085c0.286 0.438 0.473 0.933 0.548 1.45s0.036 1.044-0.113 1.545c-0.213 0.806-0.723 1.502-1.428 1.947s-1.552 0.607-2.372 0.453l-1.9-0.3c-1.037-0.143-1.999-0.621-2.739-1.361s-1.218-1.702-1.361-2.739c-0.029-0.469 0.053-0.937 0.238-1.369 0.186-0.431 0.47-0.813 0.83-1.115 0.36-0.301 0.785-0.514 1.243-0.621 0.457-0.107 0.933-0.105 1.389 5e-3z"/>
   <path d="m293.09 215-10.8-1.5 0.5-4.4 10.8 1.6z"/>
   <path d="m295.69 197.5-6.8-1c-0.324-0.044-0.628-0.181-0.877-0.393-0.248-0.213-0.43-0.493-0.523-0.807l-0.6-1.8-0.5-3.7-3.7 13 11 1.6c1.024 0.137 2.064-0.075 2.953-0.601s1.575-1.335 1.947-2.299c0.119-0.457 0.135-0.935 0.048-1.399-0.088-0.464-0.277-0.903-0.554-1.285-0.277-0.383-0.636-0.699-1.049-0.926-0.414-0.228-0.873-0.361-1.345-0.39z"/>
   <path d="m293.49 204.3-10.8-1.5 0.5 7.2 8.3 1.2c1.013 0.151 2.046-0.057 2.922-0.586s1.54-1.348 1.878-2.314c0.137-0.45 0.17-0.925 0.097-1.39-0.074-0.465-0.253-0.906-0.522-1.292-0.27-0.385-0.624-0.704-1.036-0.933-0.411-0.228-0.869-0.36-1.339-0.385z"/>
  </g>
  <path d="m370.09 248.4c0.3-10.8-8.6-12.5-14.7-16.3s-13.3-11.8-20.8-17.2-14-5.3-26.7-1.4l14.5 28.2c8.2 4.2 10 8.8 14.4 15s10.3 8.6 16.2 7.5c3.1 5.1 3.7 6.3 8.2 4.7s11.9-5 13.9-10.9-0.9-6.9-5-9.6z" fill="#66bcff"/>
  <path d="m362.59 265.5c-3.8-0.9-5.3-3-7.7-6.3l-2.1-2.8c-10.3-2.1-14.5-7.6-16.8-11.6-1.1-1.9-3.1-3.4-5-4.8s-3.8-2.9-4.9-4.7c-0.828-1.348-1.563-2.751-2.2-4.2-0.8-2.1-1.5-3.5-2.8-3.9s-3.5 0.4-5.6 1.3c-1.907 0.919-3.923 1.591-6 2-0.172 0.032-0.349-2e-3 -0.497-0.095-0.148-0.092-0.256-0.237-0.303-0.405-6e-3 -0.181 0.051-0.36 0.16-0.505 0.109-0.146 0.264-0.249 0.44-0.295 1.957-0.329 3.847-0.97 5.6-1.9 2.4-1 4.4-1.9 6.5-1.3s2.8 2.4 3.7 4.6 1.2 2.6 2 4c1.323 1.679 2.911 3.131 4.7 4.3 2 1.6 4.1 3.2 5.3 5.3 2.3 4.1 6.3 9 16.2 11h0.2l0.2 0.2c0.9 1.1 1.6 2.2 2.3 3.1 2.2 3.1 3.6 5 6.8 5.8 0.087-7e-3 0.173 8e-3 0.252 0.044 0.079 0.037 0.147 0.093 0.197 0.164 0.051 0.07 0.082 0.153 0.091 0.239 9e-3 0.087-5e-3 0.174-0.04 0.253 7e-3 0.087-8e-3 0.174-0.044 0.252-0.037 0.079-0.093 0.147-0.163 0.198-0.071 0.05-0.154 0.081-0.24 0.09s-0.173-5e-3 -0.253-0.04z" fill="#45aaf7"/>
  <path d="m321.79 225.1c-1.344 4.293-2.215 8.719-2.6 13.2" stroke="#000" stroke-linecap="round" stroke-miterlimit="10" stroke-width="2"/>
  <path d="m327.69 277.1c-9.1 8.2-16.8 5.9-20.4 5.5s-3.2-3-3.5-5.2-0.5-5.5-0.5-5.5c-9.1-0.6-10.2-6.8-10.4-12.3s-1.6-6.3-2.3-10.2c-10.972-1.971-21.342-6.441-30.308-13.066-8.966-6.624-16.285-15.225-21.392-25.134l9.5-6.9 21.2 13.8c14.3-5.3 22.2-8 29.9-8.5s15.3 2.4 17.8 13.1 2.8 14 5.1 19.1c0.6 1.3 1.6 3.1 2.6 5 2.8 5.7 5.7 13.7 0 22.4 0.695 2.699 1.598 5.341 2.7 7.9z" fill="#8cd9ff"/>
  <path d="m254.39 231.4c-0.3-7.1 2.4-12.1 7.3-12.9l-12.4-8.6-9 3.9c2.3 6.4 8.2 13.4 14.1 17.6z" fill="#000"/>
  <path d="m310.29 279 0.2-1.3c-1.8-0.3-1.9-1.6-2.4-7.7v-0.8l-0.4-0.2c-4-1-6.7-3.4-6.9-11.5-0.034-3.847-0.815-7.651-2.3-11.2-0.388-0.833-0.69-1.705-0.9-2.6-0.2-0.8-0.5-1.6-0.7-2.3-1.129-2.823-1.441-5.907-0.9-8.9 0.4-3.1 0.1-4.8-0.9-5.7s-3.5-0.6-7.2 0.6h-0.5c-5.9 1.9-17.7 5.8-29.6 6.8l1.5 1.1c11.6-1.1 22.8-4.8 28.5-6.6l0.5-0.2c3-1 5.1-1.5 6-0.8s0.7 2 0.4 4.5c-0.533 3.199-0.188 6.483 1 9.5 0.259 0.716 0.46 1.452 0.6 2.2 0.3 0.9 0.6 1.8 1 2.7 1.427 3.424 2.174 7.092 2.2 10.8 0.2 7.5 2.3 11.2 7.4 12.7 0.4 6.1 0.6 8.4 3.4 8.9z" fill="#66bcff"/>
  <path d="m274.79 191.8c-2.9-2.5-5.1-2.3-8.6-0.8-3.7-3.4-8.5-3.9-13.5-2.2s-12.7 4-17.2 5.2c-0.251 0.094-0.524 0.113-0.786 0.056-0.262-0.058-0.502-0.189-0.692-0.378-0.189-0.19-0.32-0.43-0.377-0.692-0.058-0.262-0.038-0.535 0.055-0.786l3.3-12c-10.7 8-14.2 25.1-10.8 34.4s18.2 9.2 22.9 6.6 6.3-3.4 11.7-2.4 9.6 1.7 16.7-3.7l4.2-1.4c1.6-9.1 0.2-15.7-6.9-21.9z" fill="#3442d9"/>
  <path d="m274.79 191.8c-2.9-2.5-5.1-2.3-8.6-0.8-3.7-3.4-8.5-3.9-13.5-2.2s-12.7 4-17.2 5.2" stroke="#000" stroke-linecap="round" stroke-miterlimit="10" stroke-width="2"/>
  <path d="m266.19 191c2.987 2.313 5.474 5.207 7.313 8.506 1.839 3.3 2.991 6.938 3.387 10.694" stroke="#000" stroke-linecap="round" stroke-miterlimit="10" stroke-width="2"/>
  <path d="m296.49 188c0.045-0.138 0.06-0.284 0.043-0.429-0.017-0.144-0.065-0.283-0.142-0.406-0.076-0.124-0.178-0.23-0.299-0.31s-0.258-0.133-0.402-0.155h-1c-0.278-0.061-0.569-0.011-0.811 0.138-0.243 0.149-0.418 0.386-0.489 0.662l-0.9 3.3c-0.046 0.146-0.058 0.3-0.035 0.451s0.08 0.294 0.166 0.42c0.087 0.125 0.202 0.229 0.335 0.304 0.133 0.074 0.282 0.117 0.434 0.125h1c0.263 0.034 0.529-0.029 0.75-0.176 0.22-0.147 0.38-0.368 0.45-0.624z" fill="#29cc7a"/>
  <path d="m286.45 143.74c-1.835-5.2226-0.84365-9.091 0.0843-12.813-2.9603-0.44453-9.093-2.4134-11.771-5.6618-2.6707 2.7742-8.6936 3.8959-13.378 3.2384 0.84678 5.371-0.77584 9.3-1.6985 11.857 5.6 1 9.5923 3.3856 13.025 6.5422 4.7022-2.5989 7.1856-3.0605 13.739-3.1627z" fill="#ffc619"/>
  <g stroke="#000" stroke-linecap="round" stroke-miterlimit="10" stroke-width="2">
   <path d="m293.49 204.3-5.7-0.8"/>
   <path d="m303.89 204 3.2 0.5"/>
   <path d="m274.77 125.27c2.5-5.6 0.0994-9.9491-0.60065-12.149"/>
   <path d="m286.54 130.93c3.412-0.42317 5.3868-3.3515 7.0851-5.6757"/>
   <path d="m272.71 146.9c0.13503 1.8872-0.79165 4.4076-1.9514 5.3122"/>
   <path d="m259.69 140.36c-3.7 2.6-9.3 2.2-13.2 1"/>
   <path d="m261.39 128.5c-1.4-2.9-4-6.2-6.4-7.3"/>
   <path d="m286.45 143.74c1.5441 1.1966 5.2106 2.1461 7.0216 1.0554"/>
  </g>
  <path d="m274.09 172.7c1.2 13.8-5.8 20.4-8 34.1" stroke="#fff" stroke-linecap="round" stroke-miterlimit="10" stroke-width="3.0059"/>
  <g stroke="#000" stroke-linecap="round" stroke-miterlimit="10" stroke-width="2">
   <path d="m289.79 249.5c-1.8-5.9-2.6-16.7 2.3-26.2"/>
   <path d="m288.69 234.8c-1.128-2.192-1.679-4.636-1.6-7.1"/>
   <path d="m239.39 192.9-7.4 2.4"/>
   <path d="m312.89 192 5 1.4"/>
  </g>
  <path d="m402.09 258.3c-0.549 0.802-1.186 1.54-1.9 2.2-3.2 3.2-10.5 6.8-14.4 8.3-2.967 0.939-5.696 2.508-8 4.6-2.9 2.3-6.5 5.4-9 3.6-3.149-2.899-6.027-6.079-8.6-9.5-0.146-0.179-0.241-0.394-0.276-0.623-0.036-0.228-9e-3 -0.462 0.076-0.677 1.4-4 5.9-9.7 12.4-12.7 0.215-0.085 0.449-0.112 0.677-0.076 0.229 0.035 0.444 0.13 0.623 0.276 3.8 2.7 6.1 3.4 9.2 3.3s9.1-2.1 14-3.5 5 0.8 5.2 4.8z" fill="#ffc619"/>
  <path d="m362.99 271c1.786 2.138 3.724 4.143 5.8 6 2.5 1.8 6.1-1.3 9-3.6 2.304-2.092 5.033-3.661 8-4.6 3.9-1.5 11.2-5.1 14.4-8.3 0.714-0.66 1.351-1.398 1.9-2.2-0.2-4-1.1-6-5.2-4.8s-6.4 2.2-9.4 2.9c-0.892 0.239-1.701 0.721-2.337 1.391-0.635 0.671-1.073 1.505-1.263 2.409-0.1 1.1-0.3 2.2-0.5 3.5-5.4-1.1-10.6 0.7-11.7 7.8 0 0-4.6-2.5-8.7-0.5z" fill="#ffe75c"/>
  <path d="m400.19 260.5 1.9-2.1c0.127-0.211 0.196-0.453 0.2-0.7-0.092-0.758-0.295-1.499-0.6-2.2-0.8 1.5-2.2 3-5.3 5.3-4.9 3.6-10.4 4.9-13.7 6-3.021 1.126-5.778 2.862-8.1 5.1-1.825 2.062-4.23 3.525-6.9 4.2l1.1 0.9c2.5 1.8 6.1-1.3 9-3.6 2.304-2.092 5.033-3.661 8-4.6 3.9-1.5 11.2-5.1 14.4-8.3z" fill="#fff"/>
  <path d="m339.19 265c-5.1-1.4-10.3 1-14.9 9.7-1.3-1-4.5-2.1-9.3-1.2s-6.6 3-7.4 4.6c-0.476 0.924-0.617 1.984-0.4 3 0.3 1.3 0.7 3 1.3 5.8 0.9 4.3 0.4 8.1 2.8 8.5l33.6-24.2s0.9-4.4-5.7-6.2z" fill="#ffc619"/>
  <path d="m339.19 265c-5.1-1.4-10.3 1-14.9 9.7-0.638 1.302-1.206 2.637-1.7 4-5.3-0.5-7.8 1.8-8.7 6.9 0 0-3.5-2.4-5.6 0.4 0.1 0.3 0.1 0.6 0.2 0.9 0.9 4.3 0.4 8.1 2.8 8.5l33.6-24.2s0.9-4.4-5.7-6.2z" fill="#ffe75c"/>
  <path d="m344.89 269.8-2.5-2.3c-4.3-0.7-7.9-0.8-11.7 3.5s-6.3 9-10.3 11.8c-5.7 4.2-10.5 5.9-11.2 9s0.7 3.4 2.1 3.6l33.6-24.2c0.123-0.458 0.123-0.941 0-1.4z" fill="#fff"/>
  <path d="m340.59 266 2.4 0.7c0.209 0.034 0.407 0.114 0.58 0.235 0.174 0.122 0.317 0.281 0.42 0.465 0.927 1.566 1.313 3.393 1.1 5.2l-8.8-1.6c2.9-1.4 3.9-2.7 3.6-4.4-0.03-0.094-0.032-0.194-5e-3 -0.289s0.081-0.179 0.156-0.243c0.075-0.065 0.167-0.105 0.264-0.117 0.098-0.012 0.197 5e-3 0.285 0.049z" fill="#fff"/>
  <path d="m311.49 295.5c8.6 1.7 12.4-1 16.1-4.8 1.535-1.698 3.322-3.148 5.3-4.3 5.1-2.9 9.1-6 11.8-10.9s-5.6-8.1-11-3.6-5.7 9.8-16.4 16.4c-7.3 4.6-8.3 6.7-5.8 7.2z" fill="#000"/>
  <g fill="#fff">
   <path d="m312.71 279.9c0.05-0.992-0.401-1.822-1.008-1.853-0.606-0.031-1.139 0.749-1.189 1.742-0.051 0.993 0.401 1.823 1.007 1.853 0.607 0.031 1.14-0.749 1.19-1.742z"/>
   <path d="m414.77 222.39c0.30354-0.98339 0.44776-2.0086 0.42558-3.0379-0.0436-0.13454-0.0874-0.269-0.22191-0.22532l-0.0891-0.0455c-0.17819-0.0908-0.22361-2e-3 -0.26902 0.0873-0.50786 2.0981-1.4192 4.3274-3.0349 5.0753 2.8666-0.55925 3.1423-1.5414 3.1894-1.8541z"/>
   <path d="m366.71 267.74c0.917-0.205 1.406-1.507 1.092-2.909-0.313-1.401-1.31-2.371-2.226-2.166s-1.405 1.507-1.092 2.908 1.31 2.371 2.226 2.167z"/>
  </g>
  <path d="m605.08 237.88 14.897 5.3456c2.3637 0.86769 5.7534-3.8024 10.002-9.7183 4.2488-5.9158 9.0378-18.178 9.0378-18.178l-16.659-2.9887z" fill="#ff78b9"/>
  <path d="m662.18 221.86c-2.5648-9.7243-20.964-48.504-20.964-48.504l-12.349 6.6147s4.3935 16.268 7.7971 27.429c-15.203-6.2872-43.347-16.25-43.347-16.25-16.804-13.276-23.826-19.099-23.826-19.099l28.553-8.4594-1.6818-14.1s-24.075 1.8745-38.542 4.7163c-14.467 2.8418-21.245 11.959-15.302 24.526 5.9422 12.567 8.0585 16.564 8.0585 16.564l59.858 38.692c21.166 4.2752 35.075 4.2913 44.708 1.9048 9.6335-2.3866 9.6034-4.3099 7.0385-14.034z" fill="#ffc619"/>
  <path d="m559.12 165.53c2.0459 1.4914 5.4215 4.5582 5.4215 4.5582" stroke="#000" stroke-linecap="round" stroke-linejoin="round" stroke-width="2"/>
  <path d="m639.01 168.19-11.729 7.3796 3.4053 10.938c3.6332-1.4035 8.2652-4.7674 11.048-11.991z" fill="#000"/>
  <path d="m574.42 193.64c-3.1966-14.872-3.9107-20.96-3.0141-27.125 0.70476-4.4669 7.0979 1.7086 15.401 9.6428 8.3029 7.9342 5.3808 9.9245-12.387 17.482z" fill="#ff78b9"/>
  <path d="m569.98 171.96c-14.129 5.4831-20.572 17.688-28.354 35.384 0 0-23.448 7.6932-28.167 22.461-4.7186 14.767 13.491 31.453 37.774 43.489 19.515 9.7188 23.969 6.2642 30.427-2.0052 4.1109-5.4249 8.4086-11.877 11.667-16.951 3.4024-5.3449 7.6189-10.127 12.496-14.172 26.059-21.627 21.52-36.509 21.52-36.509l-33.571-13.851z" fill="#ff78b9"/>
  <path d="m584.46 161.16c-10.434 1.7544-13.188 11.125-8.4888 28.334l2.3599 7.263 33.684 10.766c16.29-7.3003 18.552-16.585 17.532-23.615 9.3462-5.7877 12.654-11.398 15.198-16.611 4.36-8.7773 3.4215-26.539-16.628-36.53-10.916-5.4496-22.718-6.0758-33.229 5.9642-3.6989 4.1758-7.9614 11.88-10.427 24.429z" fill="#ffe75c"/>
  <path d="m638.48 150.3c0.23858 0.1199 0.44973 0.28919 0.61828 0.49593 0.16936 0.20719 0.29269 0.44757 0.36222 0.70533 0.0705 0.2583 0.0845 0.52793 0.0435 0.7921-0.0413 0.26406-0.13845 0.5162-0.28406 0.74033l-7.1981 11.484c-1.6909 2.5366-4.2316 4.3865-7.1644 5.2171-2.9336 0.83014-6.0665 0.58666-8.836-0.68739l-2.4057-1.2258c-2.8507-1.4186-5.0872-3.8268-6.2912-6.7744-1.204-2.9476-1.2934-6.2328-0.25102-9.2412l1.5975-4.2365c0.1756-0.50547 0.1607-1.0577-0.0414-1.5532-0.2021-0.49543-0.57729-0.90009-1.0562-1.1385-0.4899-0.25216-1.0557-0.31133-1.5864-0.16624-0.53077 0.14522-0.98841 0.48381-1.2818 0.94949l-3.8033 6.1428c-1.278 2.0193-3.2562 3.4962-5.5554 4.1474-2.2992 0.65115-4.758 0.43044-6.9043-0.6194-1.3014-0.60238-2.4559-1.4797-3.3843-2.5718-0.92842-1.092-1.6091-2.373-1.9941-3.7539-0.38511-1.3808-0.46542-2.8288-0.23615-4.2437 0.22943-1.4151 0.76375-2.7633 1.5656-3.9516l7.2435-11.573c0.30832-0.44874 0.76481-0.77415 1.2902-0.91755 0.52534-0.14344 1.0846-0.0957 1.578 0.13432z" fill="#000"/>
  <path d="m639.41 151.34 5.335 15.962-1.0896 2.1384-6.8348-12.798z" fill="#000"/>
  <g fill="#ff78b9">
   <path d="m627.39 203.57c-2.6016-7.293-6.6246-13.997-11.836-19.723-4.7474-5.0002-5.8115-6.2158-8.8277-3.6001-3.0163 2.6157-6.3486 5.6316-7.5188 6.6066-1.1702 0.97505-9.6755 2.0285-15.141 3.284-5.4656 1.2557-12.971 6.0732-12.971 6.0732l39.041 23.821z"/>
   <path d="m636.57 207.13 2.4422 8.2028c-6.2192 6.2587-12.501 14.842-18.703 24.813l-21.532-9.0633 28.562-27.422z"/>
   <path d="m569.98 171.96-3.4681-2.665c-0.54467-0.38483-1.1656-0.64644-1.8212-0.76724-0.65555-0.12088-1.3295-0.0978-1.975 0.068-6.3841 1.7474-12.021 5.5372-16.048 10.79-4.6086 6.1815-4.6154 7.0759 1.0917 15.259 3.8042 5.5298 15.595-4.175 22.848-11.141 0.81144-0.74891 1.4479-1.6677 1.8628-2.6912 0.41577-1.023 0.6003-2.1253 0.54037-3.228-0.0609-1.1031-0.36333-2.1789-0.88714-3.151-0.52383-0.97204-1.2562-1.8166-2.144-2.473z"/>
  </g>
  <path d="m538.4 243.19c-2.7706-11.426-6.796-22.511-12.003-33.052l-25.27 0.25538-3.3927 22.738s1.8957 9.4956 4.1614 17.384c2.2657 7.8883 11.174 12.652 27.02 22.522 11.912-7.9597 12.647-16.451 9.4842-29.847z" fill="#2835bd"/>
  <path d="m501.75 234.73 6.1857-7.7348" stroke="#000" stroke-linecap="round" stroke-linejoin="round" stroke-width="2"/>
  <path d="m577.77 258.65c0.62075-5.1832-2.5092-11.155-23.883-23.392l-3.9315-12.329-31.304 5.7104c1.1184 17.629 1.8987 38.565 10.262 44.398 8.3636 5.8327 16.79 9.3403 30.796 8.2838 8.9054-0.73745 10.795-2.2436 12.789-5.7168 2.5635-5.3683 4.3394-11.078 5.2718-16.955z" fill="#3442d9"/>
  <g fill="#5865f2">
   <path d="m585.48 139.12 23.194-3.6706-6.3716-3.1343-13.926 2.2199z"/>
   <path d="m584.27 151.63c1.0253 1.5937 2.4697 2.8734 4.1759 3.699 2.1463 1.0498 4.6051 1.2705 6.9043 0.61938 2.2992-0.65115 4.2773-2.1281 5.5554-4.1474l1.9017-3.0714z"/>
   <path d="m638.48 150.3-7.039-3.5865-23.776 3.7104-0.681 1.3365c-0.50159 1.48-0.72616 3.0397-0.66105 4.6014l32.999-5.0715c-0.16882-0.41086-0.46359-0.75755-0.84222-0.9903z"/>
   <path d="m632.02 164.52 3.4855-5.5191-27.09 4.2667c1.3117 1.9413 3.1014 3.5104 5.198 4.5564l2.4057 1.2258c2.7695 1.2741 5.9024 1.5176 8.836 0.6874 2.9328-0.83062 5.4735-2.6805 7.1644-5.2171z"/>
  </g>
  <path d="m595.47 160.26c2.6415 0.69247 5.1034 1.9469 7.2172 3.6773" stroke="#000" stroke-linecap="round" stroke-linejoin="round" stroke-width="2"/>
  <path d="m484.76 192.96c-0.047 0.3127-0.0487 0.53632 0.0406 0.58169 0.0891 0.0454 0.22359 1e-3 0.44891-0.22021" fill="#000"/>
  <path d="m501.99 196.58c-11.53-1.1609-28.979-0.17527-43.876 0.42718-8.2312 0.29545-11.281 1.4349-11.209 9.6645 0.0717 8.2295 3.309 17.735 5.9413 24.464 2.6323 6.7284 6.2133 6.3083 10.958 5.8076l33.929-3.8122 28.663-22.993c-3.6158-6.7806-12.741-12.44-24.405-13.557z" fill="#2835bd"/>
  <path d="m456.79 218.11c3.6901 2.8903 3.4631 3.3358 10.222 2.6268 6.7585-0.70933 40.184-3.0938 43.631-3.4702" stroke="#4150f2" stroke-linecap="round" stroke-miterlimit="10" stroke-width="2"/>
  <path d="m543.96 206.07c-2.5113-4.9833-5.1826-6.5688-25.837-19.337-20.654-12.769-29.588-20.126-34.08-17.477-4.4924 2.6492-7.2588 13.585-8.5321 22.252-1.2733 8.6665-1.0735 11.799 2.2653 13.836 3.3387 2.0379 35.227 19.632 40.879 23.298l0.398 6.4878 34.838 0.1303s-7.5082-24.252-9.9305-29.19z" fill="#3442d9"/>
  <path d="m455.74 210.05c-3.1215-7.0899-4.8513-8.9814-5.7258-5.7232-0.87446 3.2581 0.28676 9.3492 1.9424 15.131 1.6555 5.7818 3.8003 11.925 5.3622 12.384 1.5618 0.45905 1.2308-3.0765 1.1825-8.4883-0.0678-4.5698-1.0053-9.0845-2.7612-13.304z" fill="#000"/>
  <path d="m458.3 219.55-6.044 0.84855-4.9697 0.72258c-6.0003 0.98304-5.5349 4.475-6.722 7.686-1.1872 3.211-3.3023 4.9392-5.3516 3.895-2.0493-1.0442-0.72043-11.141-0.77047-16.33-0.0501-5.1882-5.4093-12.071-7.4734-17.051-0.83371-2.1083-0.0552-4.5174 2.1792-4.2768-0.21216-1.5668 0.21723-5.052 3.3443-4.581 3.127 0.47096 4.6396 7.4145 6.0953 10.064 1.4557 2.6497 3.4915 5.4827 5.9948 5.6358 1.7283 0.0905 3.461 0.0732 5.1882-0.05l3.9828-0.32753 1.9802 4.2637c1.269 3.0405 2.132 6.2344 2.5665 9.5007z" fill="#ff78b9"/>
  <path d="m455.74 210.05-1.9801-4.2637c-0.7565-0.49768-1.202-0.72469-1.6946-0.63897-0.49255 0.086-0.4943 0.30931-0.6322 0.8002 2.2309 0.68777 5.4483 6.9286 1.9491 14.237 0.8859 1.1248 1.328 1.799 1.9097 1.7587 0.58171-0.0406 1.841-0.96991 3.0146-2.3921-0.43449-3.2663-1.2976-6.4602-2.5665-9.5007z" fill="#000"/>
  <path d="m436.5 228.42c0.83415-3.8398 1.3459-12.333 0.16931-16.412-1.1766-4.0787-1.9611-12.671-2.208-15.491-0.24699-2.8194-2.3599-7.263-4.3876-5.2658-0.77983 1.101-1.1099 2.458-0.92326 3.7944-2.2343-0.24058-3.0129 2.1685-2.1792 4.2768 2.0642 4.9799 7.4722 11.327 7.4734 17.051 1e-3 5.7245-1.7545 13.135 0.0594 15.743l0.62199 0.54138c0.49091 0.13788 0.8592-1.2457 1.3739-4.2382z" fill="#de3a93"/>
  <path d="m620.15 119.97c-2.7504 2.6072-4.6343 5.996-5.3957 9.7086-0.15013 0.64483-0.0741 1.3218 0.21463 1.9182 0.28786 0.59583 0.77189 1.0754 1.3706 1.3586l5.4351 2.7694c0.60358 0.31102 1.2663 0.49055 1.9448 0.52674 0.67768 0.0357 1.3557-0.0731 1.9891-0.3181 5.0673-1.7952 11.491 0.35557 15.125 4.6765l4.8051-2.6022c0.49595-0.24203 0.88889-0.65414 1.106-1.1617 0.21707-0.50752 0.2452-1.0759 0.0778-1.6021-1.4007-3.9295-3.638-7.5078-6.5575-10.488-2.9195-2.9796-6.4508-5.2893-10.351-6.7696-1.6518-0.60612-3.4392-0.74156-5.1631-0.3913-1.7239 0.35029-3.3176 1.1719-4.6015 2.3744z" fill="#ff8c19"/>
  <path d="m622.8 236.14c-2.4902 4.0061-2.5037 5.795-0.66104 4.6014 1.4632-1.1691 2.715-2.5818 3.699-4.1758z" fill="#000"/>
  <g stroke="#000" stroke-linecap="round" stroke-linejoin="round" stroke-width="2">
   <path d="m626.05 203.34c-8.1621-2.9242-13.12-3.7669-17.859-3.937"/>
   <path d="m639 216.67 1.617 4.9765"/>
   <path d="m603.37 238.36s-5.5077 0.89736-9.1812 1.7191"/>
  </g>
  <path d="m579.89 197.44-6.0699 10.151-4.7223-2.4061c2.0345-3.3102 4.3161-6.4621 6.8247-9.4294 0.46956-0.48544 1.0165-0.88935 1.6191-1.1952v0c1.941-0.87988 3.9912-1.496 6.0962-1.832l11.33-1.9712c3.1917-0.52833 6.1576-1.9834 8.529-4.1839 2.7019-2.4392 6.0797-5.5443 7.112-6.0284" stroke="#f551a0" stroke-linecap="round" stroke-linejoin="round" stroke-width="2"/>
  <path d="m636.92 208.21c-8.5545 7.5379-20.825 21.488-21.611 30.739-0.0549 0.88104-0.0166 1.766 0.11408 2.6395l1.8728 0.72979c-0.31813-1.0431-0.44663-2.1344-0.37796-3.2229 0.6445-8.3135 11.745-21.288 20.481-29.182z" fill="#f551a0"/>
  <path d="m543.56 187.46c0.14226 0.60213 0.37883 1.1773 0.70263 1.7048 6.2026-9.9707 14.974-16.612 24.201-18.421l-1.6458-1.1753c-8.8265 2.1244-17.238 8.5006-23.257 17.891z" fill="#f551a0"/>
  <path d="m607.17 239.51-10.48-3.881" stroke="#000" stroke-linecap="round" stroke-linejoin="round" stroke-width="2"/>
  <path d="m574.64 270.52c-4.7898 0.59009-14.225 0.38395-19.581-0.99839-1.3277-0.36562-2.6128-0.87-3.8347-1.505-1.9667-0.91119-3.6798-2.2891-4.9919-4.0137-1.3116-1.7255-2.1822-3.7438-2.5358-5.8824l-1.3191-8.8651c-1.104-7.7454-2.5962-17.372-3.6616-24.312 1e-3 -0.2236 0.0471-0.31272 3e-3 -0.44722-1.5746-10.566-2.7896-15.45-6.5705-18.163-3.7808-2.7121-15.086-9.8194-35.03-22.001-4.9862-2.9896-5.8336-3.309-7.994-1.4918-0.0731 0.0727-0.16111 0.12893-0.25752 0.16396-0.0965 0.0352-0.19972 0.0492-0.30178 0.0388-0.10284-0.01-0.20141-0.0409-0.29044-0.0931-0.0892-0.0521-0.165-0.12333-0.22294-0.20786-0.12501-0.16014-0.19183-0.35697-0.19032-0.56047 4.6e-4 -0.20254 0.071-0.39928 0.19879-0.5575 3.1962-2.7485 5.2438-1.4808 9.8736 1.3272 11.618 7.1544 31.562 19.336 35.208 22.092 3.6464 2.7558 5.6969 9.5245 7.1437 19.24-0.0455 0.0891-2e-3 0.22362 0.0418 0.35811 1.0654 6.9401 2.4231 16.61 3.6616 24.312l1.2737 8.9542c0.72428 4.7461 4.542 8.4871 10.166 10.006 5.6235 1.5186 16.089 1.4638 19.85 0.91098-0.16631 0.58192-0.37992 1.1487-0.63898 1.6946z" fill="#5865f2"/>
  <path d="m486.03 172.18c-3.8097 1.0891-4.8793 6.4924-6.4114 13.905-1.5321 7.4123-2.301 14.428-1.0518 14.84 1.2491 0.41197 3.0532-1.5869 5.0457-4.8365 1.9925-3.2496 4.9905-9.3539 5.9693-14.579 0.97886-5.2251-0.63808-10.202-3.5517-9.3293z" fill="#000"/>
  <path d="m485.25 193.32-6.1849-4.1614c-2.9806-2.0799-6.052-3.9815-9.1689-5.7941-2.5759 3.5135-6.4093 7.733-9.2792 8.7399-2.8699 1.0068-6.1212-0.76207-4.2077-5.3987 1.9136-4.6367 5.4042-10.827 9.1829-25.512 1.4278-5.4453 0.96572-9.3844 2.1597-13.49 1.1939-4.1053 3.6501-3.6394 5.4287-2.2843 0.82567-2.7218 2.6382-5.8386 5.9838-4.6952 3.3455 1.1435 3.231 4.452 1.4604 7.927 0.78865-0.40463 1.6914-0.52865 2.5605-0.35077 0.86817 0.17717 1.65 0.64491 2.2175 1.3265 1.7298 1.8915 0.81337 4.7915-1.6331 8.932-2.4465 4.1406-4.8509 8.6394-3.8407 11.062 1.0102 2.4227 1.7281 2.1151 4.0413 3.7427l5.7864 3.6217c0.14295 1.506 0.0861 3.0248-0.16845 4.5157-0.93324 4.1092-2.3914 8.0811-4.3384 11.819z" fill="#ff78b9"/>
  <path d="m485.25 193.32c1.947-3.7375 3.4051-7.7094 4.3384-11.819 0.25461-1.4909 0.31131-3.0097 0.16847-4.5157l-0.80193-0.40857c0.77468 3.9862-1.7022 12.152-7.3092 14.345 0.28506 0.68059 0.6891 1.304 1.1935 1.8427 0.71613 0.4558 1.5666 0.65234 2.4108 0.555z" fill="#000"/>
  <path d="m482.81 154.93c2.4901-4.0061 0.45776-7.2862-2.1885-6.2777 1.7706-3.4749 1.9742-6.7381-1.4604-7.927-3.4346-1.1889-5.1581 1.9734-5.9838 4.6952-1.7786-1.3552-4.2802-1.732-5.4287 2.2843-1.1486 4.0163-0.73191 8.0445-2.1597 13.49-3.7787 14.685-6.9499 20.028-9.1829 25.512-0.53355 1.0626-0.71534 2.2674-0.51805 3.4397 0.95974 3.1826 3.1673 1.0527 5.0758-2.9131 3.0772-6.1605 6.5584-12.109 10.421-17.81 4.5229-6.674 9.0238-10.441 11.425-14.493z" fill="#de3a93"/>
  <path d="m479.52 140.91c2.8075 1.3182 1.1263 4.8385-0.9152 8.6245l2.0192-0.87913c1.6797-3.2967 1.9725-6.5145-1.104-7.7454z" fill="#ff78b9"/>
  <g stroke="#000" stroke-linecap="round" stroke-linejoin="round" stroke-width="2">
   <path d="m528.73 221.2c-3.1594 2.7381-6.5276 5.225-10.074 7.4369 5.0066 0.30636 7.1535 0.27794 7.1535 0.27794"/>
   <path d="m554.28 236.47 4.5415 14.435c7.1633 4.8845 8.1281 7.3962 8.8608 11.024"/>
   <path d="m558.83 250.9 8.5066 4.671"/>
  </g>
  <g>
   <path d="m259.45 132.78c-0.57655 3.7986-0.73507 9.2074 3.6162 10.846 3.6911 1.8329 7.9559-0.84363 7.9508-4.9956 0.25678-1.9114 0.0524-3.8597-0.38049-5.73" fill="#fff"/>
   <path d="m278.72 131.89c-0.51987 3.4458-0.76895 7.9448 2.6685 10.012 3.1655 2.4178 8.2079-0.60729 7.7819-4.5266 0.1406-2.6976 0.10483-5.5974-1.5172-7.8996" fill="#fff"/>
   <path d="m262.26 132.74c-0.18735 3.5949-0.72728 9.1272 3.6677 10.417 4.4597 1.0718 4.5755-4.9291 4.5005-7.9671-0.031-1.1462-0.12736-2.2906-0.2878-3.426" fill="#000"/>
   <path d="m281.01 131.61c0.20628 3.4206-0.91458 8.0824 2.5152 10.193 4.3416 1.8862 6.1163-3.8297 5.4511-7.1251-0.20618-1.512-0.36042-3.3166-1.5682-4.3958" fill="#000"/>
  </g>
  <g fill="none" stroke-linecap="round">
   <path d="m264.6 134.31c0.0786 1.2968-0.29894 3.4844 1.3279 3.9837" stroke="#c8c8c8" stroke-width="1.1267"/>
   <path d="m283.39 132.94c0.14481 1.1709-0.53014 3.3314 0.92551 3.863" stroke="#c8c8c8" stroke-linejoin="round" stroke-width="1.1267"/>
   <path d="m257.09 131.76c4.3389-0.30357 8.7187-0.51813 13.05 0" stroke="#000" stroke-width="3.3801"/>
   <path d="m280.61 129.44c-1.1125 0.76382-4.2768 2.4164-1.0017 1.284 3.0097-0.76378 6.0174-1.5739 9.0898-2.0485" stroke="#000" stroke-linejoin="round" stroke-width="3.3801"/>
  </g>
  <path d="m525.74 354.07h-273.3c-54.859-105.26 29.435-84.169 61.451-68.47 34.558-35.829 67.514-18.523 91.756 6.5866 26.401-24.899 67.792-36.288 84.392-18.016 9.6 11.8 2.2 34.5-16 52.4 0 0 53.8 1.3 51.7 27.5z" fill="#404eed"/>
 </g>
 <g>
  <g stroke="#000" stroke-width="1px">
   <path d="m647.05 255c-199.52 3.7973-397.74 2.1312-587.86-33.571l14.286-7.8572c186.06 27.167 373.47 34.144 561.43 32.857z" fill="#e6e6e6" fill-rule="evenodd"/>
   <path d="m646.34 254.28z" fill="none"/>
   <path d="m644.91 264.28-4.2857 2.8571" fill="none"/>
   <path d="m573.48 310.71c-37.655 1.3661-75.201 2.941-112.86 4.2857-32.84 1.1728-65.711 1.4472-98.571 1.4286-30.48-0.0189-60.988 0.11187-91.429-1.4286-25.06-1.2682-50.026-3.9964-75-6.4286-13.111-1.2769-26.462-1.272-39.286-4.2857-9.3864-2.2059-18.57-5.5871-27.143-10-12.037-6.1959-23.512-13.797-33.571-22.857-9.0386-8.1402-16.324-18.088-23.571-27.857-5.7449-7.7438-15.714-24.286-15.714-24.286 139.99 22.075 303.37 40.006 592.14 35.714l-4.2857 11.429-5.7143-0.71429-19.286 42.143s-30.484 2.3046-45.714 2.8571z" fill="#45aaf7" fill-rule="evenodd"/>
   <path d="m627.35 290.86-9.1924 18.385s-178.16 7.2074-267.29 7.7782c-73.171 0.46859-193.75-11.314-193.75-11.314-23.85-4.5842-37.141-14.081-51.619-26.163 185.91 11.814 354.57 12.545 521.84 11.314z" fill="#fff" fill-rule="evenodd"/>
  </g>
  <g fill="none" stroke="#000" stroke-width="1px">
   <path d="m637.04 266.49-272.13-2.1788-118.57-7.1357-76.429-7.1357-104.96-17.85"/>
   <path d="m632.05 280.71-118.57 0.71429-69.286-0.71429-94.286-3.5714-107.14-7.1428-92.857-10-47.857-9.2857-27.857-5.7143"/>
   <path d="m626.34 290.71-206.43-1.4286-99.286-3.5714-79.286-5.7143-99.286-12.143-58.571-12.143"/>
   <path d="m622.77 300s-108.1 0.33638-162.14-0.71425c-48.353-0.93997-96.717-2.2376-145-5-47.693-2.7286-95.561-4.7063-142.86-11.429-26.952-3.8308-80-16.429-80-16.429"/>
   <path d="m619.91 307.14s-127.16 1.3911-190.71 0c-65.285-1.4289-130.77-1.7626-195.71-8.5714-43.211-4.5303-127.16-20.721-127.16-20.721"/>
   <path d="m519.2 312.14s-126.21 2.3118-173.57 0.71429c-45.263-1.5266-90.62-5.0895-135.71-9.2857-27.526-2.5614-90.628-13.55-90.628-13.55"/>
  </g>
  <g fill-rule="evenodd">
   <path d="m77.053 212.14-8.5714-20-21.429 7.8572 9.2857 20.714z" fill="#3f4eeb"/>
   <path d="m303.35 163.07 21.775 21.838 3.4769 5.7194 155.09 155.54s6.3085 12.229 10.331 18.756c10.793 17.514 43.55 43.676 43.55 43.676l15.61-15.656s-26.086-32.852-43.55-43.676c-6.5082-4.0339-18.702-10.361-18.702-10.361l-155.09-155.54-6.1262-3.0625-21.775-21.838z" fill="#ff8c19" stroke="#000" stroke-width=".54396px"/>
   <path d="m368.18 227.29s-0.96492 8.5125 0 12.6c0.53933 2.2848 3.1503 6.2988 3.1503 6.2988h6.2987s1.3773-2.1245 2.3379-4.1621l-1.8476-0.92383c-0.15004 0.21883-0.31105 0.42425-0.49024 0.60351-1.4847 1.4848-4.814 1.4848-6.2987 0-3.3975-3.3976-1.334-14.416-1.334-14.416zm10.781 0s0.25058 1.3908 0.43357 3.2949l1.7089 0.90822c-0.12662-2.3292-0.32618-4.2031-0.32618-4.2031z" fill="#ccc" stroke="#000" stroke-width=".16667px"/>
   <path d="m51.692 203.29-5.1244 19.124s5.0491 5.7452 6.1471 1.6471l1.0981-4.0981 3.3433-15.209z" fill="#808080"/>
  </g>
  <path d="m645.03 254.09-7.0711 12.021" fill="none" stroke="#000" stroke-width="1px"/>
 </g>
</svg>
