<svg width="689" height="352" fill="none" version="1.1" viewBox="0 0 689 352" xmlns="http://www.w3.org/2000/svg">
 <g display="none" opacity=".41">
  <path d="m291.4 351.9h-273.3c-11.3-10.1-18.2-21.8-17.1-32.6 2.3-23.3 39-26.7 74.6-9.9l7 3.5c1.1799-4.286 3.073-8.343 5.6-12 17.8-26.1 58-28.6 84-9.5 2.866 2.095 5.543 4.438 8 7 3.496-4.833 7.484-9.291 11.9-13.3 24.1-21.8 52.7-26.5 63.6-13.1 9.6 11.8 2.2 34.5-16 52.4 0 0 53.8 1.3 51.7 27.5z" fill="#404eed"/>
  <path d="m629.4 351.4c-22.1-45.6-34.5-100.2-34.5-100.2l-1-5.3-44.5 5.3v100.2z" fill="#2835bd"/>
  <path d="m619.8 351.4c-19.4-40-30.2-87.9-30.2-87.9l-2.6-13.4-37.3 13.4v87.9z" fill="#000"/>
  <path d="m626.8 218h-16.2v133.46h16.2z" fill="#2835bd"/>
  <path d="m626.8 235.3c-2.426 1.105-5.117 1.494-7.756 1.122-2.64-0.372-5.118-1.49-7.144-3.222l-1.3-1.1v-6l16.2-3.1z" fill="#000"/>
  <path d="m602 351.4c11.1-2.7 26.2-17.4 26.2-17.4s5.3 11.4 8.4 17.4h11.2c1.209 7e-3 2.406-0.242 3.513-0.729s2.098-1.203 2.91-2.099c0.811-0.897 1.425-1.954 1.8-3.104 0.375-1.149 0.504-2.365 0.377-3.568-0.5-4.9-2.8-10.4-6.3-18.4-5.9-13.3-7.8-20.3-19.3-20.3h-10.4l-24-10.6c-15.4 8.1-26 12.8-35.1 18.2-13.4 8.2-24 24.4-13.6 40.6z" fill="#ffc619"/>
  <path d="m433 263.5v87.9h121.8c19.4-40 30.2-87.9 30.2-87.9l2.9-12.3z" fill="#2835bd"/>
  <path d="m557.2 266.2-124.2 11.6v73.6h92.9c9-20.5 31.3-85.2 31.3-85.2z" fill="#000"/>
  <path d="m540.7 344.7c10.245-15.842 18.38-32.953 24.2-50.9" stroke="#000" stroke-linecap="round" stroke-linejoin="round" stroke-width="2"/>
  <path d="m526.2 332.5c-5.145 0-10.08 2.044-13.718 5.682s-5.682 8.573-5.682 13.718h38.8c0-5.145-2.044-10.08-5.682-13.718s-8.573-5.682-13.718-5.682z" fill="#404eed"/>
  <path d="m553.8 351.4c19.4-40 30.3-87.9 30.3-87.9z" fill="#2835bd"/>
  <path d="m591.3 351.3c-0.1-0.2-7-17.6-10.6-28.8l-0.2-0.7c-2.4-7.6-4.4-13.7-4.1-19.1l-1.7 0.9c0 5.4 1.9 11.4 4.3 18.7l0.2 0.7c3.3 10.2 9.2 25.5 10.4 28.4h1.7z" fill="#000"/>
  <path d="m653.8 349c0.617-0.603 1.083-1.343 1.361-2.159 0.277-0.817 0.36-1.687 0.239-2.541-0.7-7.1-4.4-15.6-8.3-24.4l-4-9.4-1.5 0.6c1.3 3.2 2.7 6.3 4 9.4 4.7 10.7 9.2 21 8.2 28.5z" fill="#fff"/>
  <path d="m620.4 322.9c-1.9 7.8-4.6 17.5-8.1 28.5h-21s-6.8-17.5-10.5-28.8-6.4-19.4-2.7-26.9 9.5-8.1 18.3-3.1l-1.3 14.2 6.7 19 3.1-10.1c6.6-4.3 14.9-1.9 15.5 7.2z" fill="#ffc619"/>
  <path d="m593.3 345.1-1.7-4.9c-3.7-10.9-6.9-20.2-9.1-28.7-1.8-7-3.3-15.3-2.4-19-0.735 0.896-1.372 1.868-1.9 2.9 0 5.4 1.8 12.9 2.7 16.5 2.3 8.6 5.5 17.9 9.2 28.8l1.7 5c0.733 2.067 1.433 3.967 2.1 5.7h1.8c-0.8-1.8-1.5-3.8-2.4-6.3z" fill="#fff"/>
  <path d="m608.5 351.4c2.3-7.7 5.6-19 9.9-33.6 0.03-0.105 0.038-0.215 0.023-0.323-0.014-0.109-0.05-0.213-0.107-0.307-0.056-0.093-0.131-0.175-0.22-0.238-0.088-0.064-0.189-0.109-0.296-0.132-0.097-0.048-0.204-0.073-0.312-0.073-0.109 0-0.216 0.025-0.313 0.074-0.097 0.048-0.181 0.119-0.246 0.205-0.065 0.087-0.109 0.188-0.129 0.294-4.4 14.9-7.7 26.4-10 34.1z" fill="#fff"/>
  <path d="m616.6 261.4c-12.6-1.8-17.4-0.9-22.1 9.7s-2.3 19.6 5.5 31 27 9.3 34.3 6.6 13.7-10 17.3-20.3 2.5-21.6-2.9-27.8-14.5-11.3-22.7-8.7-9.4 9.5-9.4 9.5z" fill="#de3a93"/>
  <g stroke="#000" stroke-linecap="round" stroke-linejoin="round" stroke-width="2">
   <path d="m622.7 276.3-3.8-1"/>
   <path d="m622.9 277.9-3.9 0.5"/>
   <path d="m650.5 276 3-2"/>
   <path d="m650.3 277.7 3.1-0.5"/>
  </g>
  <path d="m612.5 251.2c-2.1 0-3.7 1.4-3.8 2.4s3.7 4.2 8.6 10.3l1.3-0.5c-4.6-11.8-4-12.3-6.1-12.2z" fill="#000"/>
  <path d="m622.2 260.5c-3.8 2.4-8.2 5.7-8.2 5.7" stroke="#000" stroke-linecap="round" stroke-linejoin="round" stroke-width="2"/>
  <path d="m620.4 322.9c1.2-5.1 2.1-9.4 2.6-12.7 1.4-8.6-1.2-10-5-11.1s-6.5-3.2-8.3-9.7-2.9-6.4-5.1-5.3c-2.4 1.299-4.457 3.15-6 5.4-1.2 2.1-1 4.5 1.3 10.4 1.522 3.69 3.967 6.927 7.1 9.4l-2.1 6.4c7.7-0.3 12.3 0.7 15.5 7.2z" fill="#ff78b9"/>
  <path d="m632.9 318.9c-1.1-4.9-2.5-10.2 0-11.6s10.2-5 14.4-14.1c0.088-0.226 0.22-0.433 0.39-0.607 0.169-0.174 0.372-0.312 0.597-0.405 0.224-0.094 0.465-0.141 0.708-0.139 0.242 3e-3 0.482 0.054 0.705 0.151h0.2c0.182 0.066 0.349 0.168 0.49 0.302 0.141 0.133 0.252 0.294 0.327 0.472 0.075 0.179 0.113 0.371 0.11 0.565s-0.046 0.385-0.127 0.561c-2.046 4.35-4.489 8.501-7.3 12.4 0.583 2.345 1.318 4.65 2.2 6.9-4.6 2.3-12.7 5.5-12.7 5.5z" fill="#ff78b9"/>
  <path d="m608.3 302.9c0.148-0.165 0.229-0.378 0.229-0.6 0-0.221-0.081-0.435-0.229-0.6-1.495-1.567-2.834-3.275-4-5.1-1.9-3.3-3.7-9.2-2.4-10.7l-1.4 1.3c-0.222 0.24-0.391 0.525-0.494 0.835-0.104 0.311-0.14 0.64-0.106 0.965 0.529 2.947 1.543 5.785 3 8.4 1.209 1.972 2.617 3.814 4.2 5.5l0.6 0.2z" fill="#000"/>
  <g stroke="#000" stroke-linecap="round" stroke-linejoin="round" stroke-width="2">
   <path d="m607.8 309.5c2.885-0.356 5.794-0.489 8.7-0.4"/>
   <path d="m598.3 336.7 6.3-20"/>
   <path d="m601.8 325.8-6.1-17.5"/>
   <path d="m633 319.7c1.8 9.7 5.7 23.3 5.7 23.3"/>
  </g>
  <path d="m551.9 326c-3.474 0-6.806 1.38-9.263 3.837s-3.837 5.789-3.837 9.263v12.8h26.1v-12.8c0-3.457-1.366-6.774-3.801-9.228-2.436-2.454-5.742-3.845-9.199-3.872z" fill="#404eed"/>
  <path d="m564.9 339.1c-1.689-0.013-3.365 0.308-4.929 0.946-1.565 0.637-2.987 1.578-4.187 2.768-1.199 1.19-2.151 2.605-2.8 4.165-0.65 1.559-0.984 3.232-0.984 4.921h25.7c0-3.395-1.349-6.65-3.749-9.051-2.4-2.4-5.656-3.749-9.051-3.749z" fill="#404eed"/>
  <g stroke-linecap="round" stroke-linejoin="round">
   <path d="m605 227.5 19.7-3.1" stroke="#000" stroke-width="8"/>
   <path d="m646.2 264.1 0.7 1.1" stroke="#ffa8d2" stroke-width="3"/>
   <path d="m636.3 256.8c2.589 0.776 4.978 2.107 7 3.9" stroke="#ffa8d2" stroke-width="3"/>
   <path d="m624.2 224.5c16.7-2.8 43.5-9 57.4-12.7" stroke="#2835bd" stroke-width="8"/>
   <path d="m676.6 214.5 5.3 24.6" stroke="#000" stroke-width="2"/>
  </g>
  <path d="m686.9 238.3v-3.2h-20.6v3.3c-0.042 0.457-0.178 0.899-0.4 1.3-1.032 1.502-1.589 3.278-1.6 5.1v13.1c2e-3 2.214 0.802 4.352 2.253 6.024 1.451 1.671 3.456 2.763 5.647 3.076 2.953 0.4 5.947 0.4 8.9 0 2.164-0.337 4.133-1.442 5.547-3.114 1.415-1.671 2.179-3.796 2.153-5.986v-13.1c0.025-1.812-0.498-3.59-1.5-5.1-0.281-0.411-0.422-0.902-0.4-1.4z" fill="#8cd9ff"/>
  <path d="m685 239.7v-4.1h-16.9v4.1c5e-3 0.806-0.202 1.599-0.6 2.3-0.798 1.18-1.216 2.576-1.2 4v11.2c2e-3 1.86 0.668 3.657 1.878 5.069s2.885 2.345 4.722 2.631c2.391 0.3 4.809 0.3 7.2 0 1.864-0.244 3.575-1.162 4.809-2.58 1.234-1.419 1.907-3.24 1.891-5.12v-11.2c-9e-3 -1.407-0.388-2.786-1.1-4-0.425-0.695-0.666-1.486-0.7-2.3z" fill="#5865f2"/>
  <path d="m666.3 236.7c0 1.4 4.6 2.5 10.3 2.5s10.3-1.1 10.3-2.5l-10.3-4.1z" fill="#8cd9ff"/>
  <path d="m665.7 235.9c-0.088 0.15-0.145 0.317-0.168 0.49-0.022 0.173-0.01 0.348 0.037 0.516 0.046 0.168 0.126 0.325 0.235 0.461 0.108 0.137 0.243 0.25 0.396 0.333 1.7 1 5.7 1.7 10.4 1.7s8.7-0.7 10.4-1.7c0.29-0.186 0.502-0.472 0.594-0.804s0.059-0.687-0.094-0.996l-10.9-21.4z" stroke="#000" stroke-linecap="round" stroke-linejoin="round" stroke-width="2"/>
  <path d="m675.6 258-3.1-0.7c-0.299-0.108-0.548-0.321-0.7-0.6-0.142-0.279-0.169-0.603-0.076-0.902 0.094-0.299 0.3-0.549 0.576-0.698 0.15-0.088 0.317-0.145 0.49-0.168 0.172-0.022 0.348-0.01 0.516 0.037 0.168 0.046 0.325 0.126 0.461 0.235 0.136 0.108 0.25 0.243 0.333 0.396z" fill="#fff"/>
  <path d="m675.6 258-0.2-3.1c-6e-3 -0.147 0.018-0.293 0.069-0.43 0.052-0.138 0.13-0.263 0.231-0.37 0.085-0.13 0.2-0.239 0.334-0.317 0.135-0.079 0.286-0.124 0.441-0.134s0.311 0.017 0.454 0.078 0.27 0.154 0.371 0.273c0.261 0.215 0.428 0.523 0.465 0.86 0.037 0.336-0.058 0.673-0.265 0.94z" fill="#fff"/>
  <path d="m676.2 260.9c-1.7 0.5-3.3 0-3.7-1.1s0.2-1.7 1.8-2.1c0.698-0.18 1.37-0.449 2-0.8 1.3-0.7 2 0.1 2.3 1s-0.7 2.4-2.4 3z" fill="#121b80"/>
  <path d="m673.14 257.88-1.2-0.021c-0.828-0.014-1.512 0.645-1.526 1.474l-2e-3 0.09c-0.014 0.828 0.646 1.511 1.474 1.526l1.2 0.021c0.828 0.014 1.511-0.646 1.526-1.474l1e-3 -0.09c0.015-0.828-0.645-1.511-1.473-1.526z" fill="#ffe75c"/>
  <path d="m678.8 246.2 2.8-1.5c0.221-0.189 0.392-0.43 0.5-0.7 0.046-0.151 0.062-0.31 0.047-0.467s-0.061-0.31-0.136-0.449c-0.074-0.139-0.175-0.263-0.297-0.363s-0.263-0.175-0.414-0.221c-0.332-0.092-0.686-0.049-0.986 0.119-0.3 0.169-0.521 0.45-0.614 0.781z" fill="#fff"/>
  <path d="m678.8 246.2-0.5-3.1c-0.107-0.3-0.277-0.573-0.5-0.8-0.276-0.147-0.594-0.197-0.902-0.143s-0.589 0.21-0.798 0.443c-0.192 0.307-0.257 0.676-0.183 1.031 0.075 0.354 0.284 0.666 0.583 0.869z" fill="#fff"/>
  <path d="m679.6 245.8c1.4 1 2.1 2.6 1.4 3.5s-1.5 1-2.8-0.1c-0.547-0.446-1.153-0.816-1.8-1.1-0.247-0.061-0.472-0.188-0.653-0.368-0.18-0.179-0.307-0.405-0.369-0.651-0.062-0.247-0.055-0.506 0.019-0.749 0.075-0.243 0.214-0.462 0.403-0.632 0.6-1 2.4-0.9 3.8 0.1z" fill="#121b80"/>
  <path d="m678.9 249.4 0.707 0.97c0.488 0.669 1.426 0.816 2.096 0.328l0.072-0.053c0.67-0.488 0.817-1.427 0.329-2.096l-0.707-0.97c-0.489-0.669-1.427-0.816-2.096-0.328l-0.073 0.053c-0.669 0.488-0.816 1.427-0.328 2.096z" fill="#ffe75c"/>
  <path d="m676.6 237.6c5.689 0 10.3-1.119 10.3-2.5s-4.611-2.5-10.3-2.5-10.3 1.119-10.3 2.5 4.611 2.5 10.3 2.5z" fill="#8cd9ff"/>
  <path d="m687 235.1h-20.7v1.42h20.7z" fill="#8cd9ff"/>
  <path d="m680.8 235.9c-0.5 0.1-0.9 0.4-0.9 0.9 0.012 0.106 0.046 0.207 0.098 0.3 0.052 0.092 0.122 0.173 0.205 0.239 0.084 0.065 0.18 0.113 0.282 0.14 0.103 0.028 0.21 0.035 0.315 0.021l1.7-0.3c0.225-0.038 0.432-0.145 0.593-0.306 0.162-0.162 0.269-0.369 0.307-0.594-0.01-0.103-0.043-0.202-0.097-0.291-0.053-0.088-0.125-0.164-0.211-0.222-0.086-0.057-0.184-0.094-0.286-0.11-0.103-0.015-0.207-7e-3 -0.306 0.023z" fill="#fff"/>
  <g stroke="#000" stroke-linecap="round" stroke-linejoin="round" stroke-width="2">
   <path d="m676.6 214.5-5.3 24.6"/>
   <path d="m677.4 216.2-2.6-5.6"/>
   <path d="m676.8 216.5 0.3-6.4"/>
  </g>
  <path d="m648.7 281.4c3.3-3.8 2.8-6.1 1.7-6.8s-2.8 0.6-5.8 5.4-0.5 6.6 4.1 1.4z" fill="#fff"/>
  <path d="m633 281.4c-2.2-4.6-6-7.9-9.5-7.4s-2.1 5.7 2.5 9.2 9.4 3.2 7-1.8z" fill="#fff"/>
  <path d="m650.2 277.2c0.194-0.9 0.124-1.838-0.2-2.7-0.9-0.1-2.3 0.9-4.2 3.6 0.2 1.4 0.9 2.4 1.7 2.5s2.5-1.3 2.7-3.4z" fill="#000"/>
  <path d="m633.1 281.7c0-0.1-0.1-0.2-0.1-0.3-1.067-2.317-2.68-4.342-4.7-5.9-0.577 1.143-0.82 2.425-0.7 3.7 0.2 2.7 1.6 4.8 3.2 4.7 0.567-0.076 1.095-0.33 1.509-0.725 0.413-0.395 0.69-0.912 0.791-1.475z" fill="#000"/>
  <path d="m635 291.7c6.3-1.6 8.8-2.3 9.8-0.9s0.1 3-1.4 4.6c1.6 3.5 1.1 5.1-2 5.1-2.26-0.161-4.451-0.846-6.4-2" stroke="#000" stroke-linecap="round" stroke-linejoin="round" stroke-width="2"/>
  <path d="m641.7 293.7c-0.392 1.038-0.931 2.015-1.6 2.9" stroke="#000" stroke-linecap="round" stroke-linejoin="round" stroke-width="2"/>
  <path d="m213.6 351.4h10.4l7.8-23.8h-20.5z" fill="#000"/>
  <path d="m344.7 351.4h-55.7c-35.8 0-56.4-10.3-71.8-22l-3.6 22h-9.1c0-105.6 13.6-205.8 13.6-205.8 2-11.3 23.5-16.4 50.2-7.1s33.8 21.2 32.8 32-9.5 83.6-12.7 117.7l5.7 6.2c1.966 2.043 3.424 4.519 4.258 7.228 0.834 2.71 1.02 5.577 0.542 8.372l-0.6 3.3c22 14.2 56 7.1 46.4 38.1z" fill="#29cc7a"/>
  <g stroke-linecap="round" stroke-miterlimit="10">
   <path d="m229.2 165c-0.9 12.6-1.1 17.8-1.1 19.8-7e-3 0.316 0.052 0.63 0.173 0.923 0.12 0.292 0.3 0.557 0.527 0.777 5.9 5.9 12.9 7.8 18.4 8.5 0.318 0.042 0.641 0.017 0.949-0.073 0.308-0.091 0.593-0.244 0.838-0.451 0.245-0.208 0.444-0.464 0.584-0.752 0.14-0.289 0.218-0.603 0.229-0.924l1.1-16" stroke="#fff" stroke-width="2"/>
   <path d="m224.8 282.3c-3.313 0.07-6.586-0.722-9.5-2.3" stroke="#000" stroke-width="4"/>
   <path d="m216.5 286.9c4.3 0.6 9.6-1.3 9.6-1.3" stroke="#000" stroke-width="4"/>
  </g>
  <path d="m275.8 215.1c-0.9 9-1.1 18.9 3.4 21.5 2.8 1.7 8.5 1.5 14.8-1.5 2.5-24.9 5.2-46.3 6.5-58.4l-29.8 4.9c-2.9 25.7-3.4 34.1 5.1 33.5z" fill="#15ad75"/>
  <path d="m296.53 178.68c4.779-10.02-8.036-26.102-28.624-35.922-20.587-9.82-41.151-9.658-45.93 0.362-4.779 10.019 8.036 26.102 28.624 35.922 20.587 9.819 41.151 9.657 45.93-0.362z" fill="#000"/>
  <path d="m217.2 329.4c15.4 11.7 36 22 71.8 22h55.7c0.948-2.877 1.487-5.873 1.6-8.9-59.1 0-93.4-1.2-141-36.8-0.4 14.2-0.7 29.5-0.8 45.7h9.1z" fill="#57f287"/>
  <path d="m221.2 279.1c2.6 10.1 9.7 17.8 15.9 17.2s6.4-6.4 4-16.1c-0.6-2.6-1.1-5.1-1.6-7.7-1.8-9.2-6.3-13.2-11.8-12.7s-9.2 9.3-6.5 19.3z" fill="#fff"/>
  <path d="m221.2 279.1c2.6 10.1 9.7 17.8 15.9 17.2s6.4-6.4 4-16.1c-0.6-2.6-1.1-5.1-1.6-7.7-1.8-9.2-6.3-13.2-11.8-12.7s-9.2 9.3-6.5 19.3z" fill="#fff"/>
  <path d="m237.5 279.2c1 4.4 0.3 8.3-1.4 8.6s-3.8-2-4.5-7.5-0.3-8.5 1.4-8.5 3.6 2.9 4.5 7.4z" fill="#000"/>
  <path d="m295.4 312.5c0.148 9e-3 0.296-0.02 0.431-0.082 0.135-0.063 0.252-0.158 0.341-0.277 0.089-0.118 0.147-0.257 0.17-0.404 0.022-0.147 8e-3 -0.297-0.042-0.437-2-10-8.1-11.4-19.4-8.8s-15.8 3.6-18 4.4-1.2 1.3 13.7 3.6c7.535 1.267 15.159 1.936 22.8 2z" fill="#15ad75"/>
  <path d="m345.8 337.4c-11.1 0.1-29.6-0.1-47.8-1.3-33.8-2.3-64.9-14.9-92.5-37.4v1.8c27.6 22.3 58.6 34.8 92.4 37 17 1.2 34.2 1.4 45.5 1.4h2.7z" fill="#000"/>
  <path d="m239.5 272.6c-1.8-9.2-6.3-13.2-11.8-12.7s-7 4.6-7.4 10.5c6.191 1.998 12.717 2.746 19.2 2.2z" fill="#5865f2"/>
  <path d="m381.4 192.3-33.3 18.6c0.57 0.527 1.287 0.867 2.056 0.975 0.769 0.107 1.552-0.024 2.244-0.375 1.9-0.8 6.5-5 8.3-6s6.9-3 9.4-4c3.083-1.221 5.978-2.871 8.6-4.9 2.2-1.8 3-2.5 2.7-4.3z" fill="#000"/>
  <path d="m299.2 123.2c-6.1-3.8-6.4-3.7-9.8-9.8s-7.7-9.1-12.7-9.8l6.2 44.9c13 3.8 21-2.8 22.8-9.3s-0.3-12.2-6.5-16z" fill="#3442d9"/>
  <path d="m293.1 129.1c-1.7-7.3-6.2-15.8-11.5-22.2-1.899-2.312-3.246-5.027-3.939-7.9382-0.693-2.9109-0.714-5.9415-0.061-8.8617l2.2-10c1.547-6.9406 0.722-14.199-2.341-20.616-3.064-6.4171-8.19-11.622-14.559-14.784-3.655-1.7995-7.633-2.8533-11.7-3.1-7.653-0.5606-15.223 1.8829-21.104 6.8117-5.881 4.9289-9.61 11.955-10.396 19.588-0.166 1.293-0.233 2.5968-0.2 3.9v4.3l0.2 18c0.217 8.0869-1.497 16.108-5 23.4-1.454 2.893-2.561 5.948-3.3 9.1l48.9 52c23.3-3.9 37.9-26.4 32.8-49.6z" fill="#3442d9"/>
  <path d="m260.4 178.7c23.2-3.9 37.8-26.4 32.7-49.6-1.6-6.9-5.7-14.9-10.6-21.1" stroke="#000" stroke-linecap="round" stroke-miterlimit="10" stroke-width="2"/>
  <path d="m277.5 130.6c4.6-7.6 6.4-6.6 14.6-4.4 6.6 1.7 14.2 15.2 4.1 22s-30.7 2.7-18.7-17.6z" fill="#3442d9"/>
  <path d="m254.7 108.19c0.922-0.705 1.07-2.058 0.332-3.024-0.738-0.965-2.083-1.176-3.004-0.472-0.921 0.705-1.07 2.058-0.332 3.023 0.738 0.966 2.083 1.177 3.004 0.473z" fill="#000"/>
  <path d="m267.3 108.97c0.921-0.704 1.07-2.058 0.332-3.023s-2.083-1.177-3.005-0.472c-0.921 0.704-1.07 2.058-0.332 3.023s2.083 1.177 3.005 0.472z" fill="#000"/>
  <path d="m266 107.4c10.7 8.8 6.3 15.1 14.9 28.1" stroke="#fff" stroke-linecap="round" stroke-miterlimit="10" stroke-width="3.0059"/>
  <path d="m253.9 127.1c6.6-4.6 8.6-5.9 11.1-5.8l6.5 0.6-1.7 26.4-16.5-0.5z" fill="#ffc619"/>
  <path d="m285.9 120.4c0.125-0.349 0.166-0.723 0.122-1.091s-0.173-0.721-0.376-1.031c-0.204-0.31-0.476-0.569-0.796-0.756-0.321-0.187-0.68-0.297-1.05-0.322l-11-1.6c-0.798-0.085-1.602 0.107-2.275 0.544-0.674 0.437-1.177 1.092-1.425 1.856l-6.2 23c-0.124 0.35-0.166 0.723-0.122 1.091s0.173 0.721 0.376 1.031c0.204 0.31 0.476 0.569 0.797 0.756 0.32 0.187 0.679 0.297 1.049 0.322l11 1.6c0.799 0.085 1.602-0.107 2.276-0.544 0.673-0.437 1.176-1.092 1.424-1.856z" fill="#000"/>
  <path d="m285.4 118.1 1.2 1.4-3.3 0.3z" fill="#000"/>
  <path d="m290.8 133.3c-1.4-2.3-2.7-5.2-6.5-5.8l-0.5 4.8z" fill="#ffc619"/>
  <path d="m287 121.7c0.105-0.349 0.132-0.717 0.079-1.078s-0.184-0.706-0.384-1.011-0.464-0.562-0.774-0.754-0.659-0.314-1.021-0.357l-11.1-1.6c-0.795-0.067-1.591 0.133-2.26 0.567-0.67 0.435-1.177 1.079-1.44 1.833l-6.2 23c-0.105 0.349-0.132 0.717-0.079 1.078s0.184 0.706 0.384 1.011 0.464 0.563 0.774 0.754c0.311 0.192 0.659 0.314 1.021 0.357l11.1 1.5c0.778 0.128 1.576-0.037 2.24-0.461 0.664-0.425 1.149-1.079 1.36-1.839z" fill="#fff"/>
  <g fill="#ffc619">
   <path d="m283.6 130.8 4.5 0.7c0.912 0.101 1.747 0.556 2.327 1.266 0.58 0.711 0.857 1.621 0.773 2.534-0.023 0.475-0.145 0.94-0.358 1.365-0.214 0.424-0.514 0.8-0.881 1.101-0.368 0.302-0.794 0.523-1.253 0.649-0.458 0.127-0.938 0.156-1.408 0.085l-3.3-0.5c-1.025-0.147-1.973-0.629-2.697-1.37-0.723-0.742-1.181-1.701-1.303-2.73-0.025-0.458 0.056-0.916 0.236-1.338s0.455-0.797 0.802-1.097c0.348-0.299 0.76-0.515 1.204-0.63s0.909-0.127 1.358-0.035z"/>
   <path d="m282.1 137.5 3.1 0.5c0.519 0.066 1.017 0.243 1.46 0.52s0.82 0.648 1.105 1.085c0.286 0.438 0.473 0.933 0.548 1.45s0.036 1.044-0.113 1.545c-0.213 0.806-0.723 1.502-1.428 1.947s-1.552 0.607-2.372 0.453l-1.9-0.3c-1.037-0.143-1.999-0.621-2.739-1.361s-1.218-1.702-1.361-2.739c-0.029-0.469 0.053-0.937 0.238-1.369 0.186-0.431 0.47-0.813 0.83-1.115 0.36-0.301 0.785-0.514 1.243-0.621 0.457-0.107 0.933-0.105 1.389 5e-3z"/>
   <path d="m272.4 148.9-10.8-1.5 0.5-4.4 10.8 1.6z"/>
   <path d="m275 131.4-6.8-1c-0.324-0.044-0.628-0.181-0.877-0.393-0.248-0.213-0.43-0.493-0.523-0.807l-0.6-1.8-0.5-3.7-3.7 13 11 1.6c1.024 0.137 2.064-0.075 2.953-0.601s1.575-1.335 1.947-2.299c0.119-0.457 0.135-0.935 0.048-1.399-0.088-0.464-0.277-0.903-0.554-1.285-0.277-0.383-0.636-0.699-1.049-0.926-0.414-0.228-0.873-0.361-1.345-0.39z"/>
   <path d="m272.8 138.2-10.8-1.5 0.5 7.2 8.3 1.2c1.013 0.151 2.046-0.057 2.922-0.586s1.54-1.348 1.878-2.314c0.137-0.45 0.17-0.925 0.097-1.39-0.074-0.465-0.253-0.906-0.522-1.292-0.27-0.385-0.624-0.704-1.036-0.933-0.411-0.228-0.869-0.36-1.339-0.385z"/>
  </g>
  <path d="m349.4 182.3c0.3-10.8-8.6-12.5-14.7-16.3s-13.3-11.8-20.8-17.2-14-5.3-26.7-1.4l14.5 28.2c8.2 4.2 10 8.8 14.4 15s10.3 8.6 16.2 7.5c3.1 5.1 3.7 6.3 8.2 4.7s11.9-5 13.9-10.9-0.9-6.9-5-9.6z" fill="#66bcff"/>
  <path d="m341.9 199.4c-3.8-0.9-5.3-3-7.7-6.3l-2.1-2.8c-10.3-2.1-14.5-7.6-16.8-11.6-1.1-1.9-3.1-3.4-5-4.8s-3.8-2.9-4.9-4.7c-0.828-1.348-1.563-2.751-2.2-4.2-0.8-2.1-1.5-3.5-2.8-3.9s-3.5 0.4-5.6 1.3c-1.907 0.919-3.923 1.591-6 2-0.172 0.032-0.349-2e-3 -0.497-0.095-0.148-0.092-0.256-0.237-0.303-0.405-6e-3 -0.181 0.051-0.36 0.16-0.505 0.109-0.146 0.264-0.249 0.44-0.295 1.957-0.329 3.847-0.97 5.6-1.9 2.4-1 4.4-1.9 6.5-1.3s2.8 2.4 3.7 4.6 1.2 2.6 2 4c1.323 1.679 2.911 3.131 4.7 4.3 2 1.6 4.1 3.2 5.3 5.3 2.3 4.1 6.3 9 16.2 11h0.2l0.2 0.2c0.9 1.1 1.6 2.2 2.3 3.1 2.2 3.1 3.6 5 6.8 5.8 0.087-7e-3 0.173 8e-3 0.252 0.044 0.079 0.037 0.147 0.093 0.197 0.164 0.051 0.07 0.082 0.153 0.091 0.239 9e-3 0.087-5e-3 0.174-0.04 0.253 7e-3 0.087-8e-3 0.174-0.044 0.252-0.037 0.079-0.093 0.147-0.163 0.198-0.071 0.05-0.154 0.081-0.24 0.09s-0.173-5e-3 -0.253-0.04z" fill="#45aaf7"/>
  <path d="m301.1 159c-1.344 4.293-2.215 8.719-2.6 13.2" stroke="#000" stroke-linecap="round" stroke-miterlimit="10" stroke-width="2"/>
  <path d="m307 211c-9.1 8.2-16.8 5.9-20.4 5.5s-3.2-3-3.5-5.2-0.5-5.5-0.5-5.5c-9.1-0.6-10.2-6.8-10.4-12.3s-1.6-6.3-2.3-10.2c-10.972-1.971-21.342-6.441-30.308-13.066-8.966-6.624-16.285-15.225-21.392-25.134l9.5-6.9 21.2 13.8c14.3-5.3 22.2-8 29.9-8.5s15.3 2.4 17.8 13.1 2.8 14 5.1 19.1c0.6 1.3 1.6 3.1 2.6 5 2.8 5.7 5.7 13.7 0 22.4 0.695 2.699 1.598 5.341 2.7 7.9z" fill="#8cd9ff"/>
  <path d="m233.7 165.3c-0.3-7.1 2.4-12.1 7.3-12.9l-12.4-8.6-9 3.9c2.3 6.4 8.2 13.4 14.1 17.6z" fill="#000"/>
  <path d="m289.6 212.9 0.2-1.3c-1.8-0.3-1.9-1.6-2.4-7.7v-0.8l-0.4-0.2c-4-1-6.7-3.4-6.9-11.5-0.034-3.847-0.815-7.651-2.3-11.2-0.388-0.833-0.69-1.705-0.9-2.6-0.2-0.8-0.5-1.6-0.7-2.3-1.129-2.823-1.441-5.907-0.9-8.9 0.4-3.1 0.1-4.8-0.9-5.7s-3.5-0.6-7.2 0.6h-0.5c-5.9 1.9-17.7 5.8-29.6 6.8l1.5 1.1c11.6-1.1 22.8-4.8 28.5-6.6l0.5-0.2c3-1 5.1-1.5 6-0.8s0.7 2 0.4 4.5c-0.533 3.199-0.188 6.483 1 9.5 0.259 0.716 0.46 1.452 0.6 2.2 0.3 0.9 0.6 1.8 1 2.7 1.427 3.424 2.174 7.092 2.2 10.8 0.2 7.5 2.3 11.2 7.4 12.7 0.4 6.1 0.6 8.4 3.4 8.9z" fill="#66bcff"/>
  <path d="m254.1 125.7c-2.9-2.5-5.1-2.3-8.6-0.8-3.7-3.4-8.5-3.9-13.5-2.2s-12.7 4-17.2 5.2c-0.251 0.094-0.524 0.113-0.786 0.056-0.262-0.058-0.502-0.189-0.692-0.378-0.189-0.19-0.32-0.43-0.377-0.692-0.058-0.262-0.038-0.535 0.055-0.786l3.3-12c-10.7 8-14.2 25.1-10.8 34.4s18.2 9.2 22.9 6.6 6.3-3.4 11.7-2.4 9.6 1.7 16.7-3.7l4.2-1.4c1.6-9.1 0.2-15.7-6.9-21.9z" fill="#3442d9"/>
  <path d="m254.1 125.7c-2.9-2.5-5.1-2.3-8.6-0.8-3.7-3.4-8.5-3.9-13.5-2.2s-12.7 4-17.2 5.2" stroke="#000" stroke-linecap="round" stroke-miterlimit="10" stroke-width="2"/>
  <path d="m245.5 124.9c2.987 2.313 5.474 5.207 7.313 8.506 1.839 3.3 2.991 6.938 3.387 10.694" stroke="#000" stroke-linecap="round" stroke-miterlimit="10" stroke-width="2"/>
  <path d="m275.8 121.9c0.045-0.138 0.06-0.284 0.043-0.429-0.017-0.144-0.065-0.283-0.142-0.406-0.076-0.124-0.178-0.23-0.299-0.31s-0.258-0.133-0.402-0.155h-1c-0.278-0.061-0.569-0.011-0.811 0.138-0.243 0.149-0.418 0.386-0.489 0.662l-0.9 3.3c-0.046 0.146-0.058 0.3-0.035 0.451s0.08 0.294 0.166 0.42c0.087 0.125 0.202 0.229 0.335 0.304 0.133 0.074 0.282 0.117 0.434 0.125h1c0.263 0.034 0.529-0.029 0.75-0.176 0.22-0.147 0.38-0.368 0.45-0.624z" fill="#29cc7a"/>
  <path d="m259.8 102.7c0.773-1.565 1.914-2.9187 3.324-3.9462 1.411-1.0276 3.05-1.6979 4.776-1.9537 0.2 0 0.3-0.2 0.2-0.3-1.3-4.8-0.7-7.5 1-11 0.017-0.0254 0.028-0.0543 0.032-0.0845 4e-3 -0.0303 1e-3 -0.0611-8e-3 -0.09-0.01-0.029-0.026-0.0553-0.048-0.0771-0.021-0.0217-0.047-0.0383-0.076-0.0484-5.6-2.4-7.7-6.4-8.3-9.4-0.1-0.2-0.4-0.3-0.5-0.1-2.5 5-5.9 5.2-8.8 4.8-0.2 0-0.3 0.2-0.2 0.3 2.9 5.6 0.8 9.6-2.1 12.4-0.015 0.0392-0.023 0.0813-0.021 0.1235s0.013 0.0834 0.032 0.1212 0.045 0.0711 0.078 0.0979c0.032 0.0267 0.07 0.0463 0.111 0.0574 5.6 1 8.6 4.7 10 8.9999 0.1 0.2 0.4 0.3 0.5 0.1z" fill="#ffc619"/>
  <g stroke="#000" stroke-linecap="round" stroke-miterlimit="10" stroke-width="2">
   <path d="m272.8 138.2-5.7-0.8"/>
   <path d="m283.2 137.9 3.2 0.5"/>
   <path d="m260.5 75.6c2.5-5.6 2.3-9.5 1.6-11.7"/>
   <path d="m268.5 85.4c1.56 0.2391 3.154 0.1396 4.672-0.2918 1.519-0.4313 2.927-1.1844 4.128-2.2082"/>
   <path d="m259.8 102.7c8e-3 0.744-0.093 1.486-0.3 2.2"/>
   <path d="m249.6 93.3c-3.7 2.6-9.3 2.2-13.2 1"/>
   <path d="m251.4 80.5c-1.4-2.9-4-6.2-6.4-7.3"/>
   <path d="m268.1 96.5c1.29 0.6885 2.67 1.1934 4.1 1.5"/>
  </g>
  <path d="m257.4 85.8c1.7 6.6 3.9 6.2 4.9 4.2s1.7-4.5 3.3-4.3 1.2 3-0.7 7-5 4.9-7.9 1.4-3-6.9-3.1-9.3 2.4-3 3.5 1z" fill="#c40655"/>
  <path d="m253.4 106.6c1.2 13.8-5.8 20.4-8 34.1" stroke="#fff" stroke-linecap="round" stroke-miterlimit="10" stroke-width="3.0059"/>
  <g stroke="#000" stroke-linecap="round" stroke-miterlimit="10" stroke-width="2">
   <path d="m269.1 183.4c-1.8-5.9-2.6-16.7 2.3-26.2"/>
   <path d="m268 168.7c-1.128-2.192-1.679-4.636-1.6-7.1"/>
   <path d="m218.7 126.8-7.4 2.4"/>
   <path d="m292.2 125.9 5 1.4"/>
  </g>
  <path d="m381.4 192.2c-0.549 0.802-1.186 1.54-1.9 2.2-3.2 3.2-10.5 6.8-14.4 8.3-2.967 0.939-5.696 2.508-8 4.6-2.9 2.3-6.5 5.4-9 3.6-3.149-2.899-6.027-6.079-8.6-9.5-0.146-0.179-0.241-0.394-0.276-0.623-0.036-0.228-9e-3 -0.462 0.076-0.677 1.4-4 5.9-9.7 12.4-12.7 0.215-0.085 0.449-0.112 0.677-0.076 0.229 0.035 0.444 0.13 0.623 0.276 3.8 2.7 6.1 3.4 9.2 3.3s9.1-2.1 14-3.5 5 0.8 5.2 4.8z" fill="#ffc619"/>
  <path d="m342.3 204.9c1.786 2.138 3.724 4.143 5.8 6 2.5 1.8 6.1-1.3 9-3.6 2.304-2.092 5.033-3.661 8-4.6 3.9-1.5 11.2-5.1 14.4-8.3 0.714-0.66 1.351-1.398 1.9-2.2-0.2-4-1.1-6-5.2-4.8s-6.4 2.2-9.4 2.9c-0.892 0.239-1.701 0.721-2.337 1.391-0.635 0.671-1.073 1.505-1.263 2.409-0.1 1.1-0.3 2.2-0.5 3.5-5.4-1.1-10.6 0.7-11.7 7.8 0 0-4.6-2.5-8.7-0.5z" fill="#ffe75c"/>
  <path d="m379.5 194.4 1.9-2.1c0.127-0.211 0.196-0.453 0.2-0.7-0.092-0.758-0.295-1.499-0.6-2.2-0.8 1.5-2.2 3-5.3 5.3-4.9 3.6-10.4 4.9-13.7 6-3.021 1.126-5.778 2.862-8.1 5.1-1.825 2.062-4.23 3.525-6.9 4.2l1.1 0.9c2.5 1.8 6.1-1.3 9-3.6 2.304-2.092 5.033-3.661 8-4.6 3.9-1.5 11.2-5.1 14.4-8.3z" fill="#fff"/>
  <path d="m318.5 198.9c-5.1-1.4-10.3 1-14.9 9.7-1.3-1-4.5-2.1-9.3-1.2s-6.6 3-7.4 4.6c-0.476 0.924-0.617 1.984-0.4 3 0.3 1.3 0.7 3 1.3 5.8 0.9 4.3 0.4 8.1 2.8 8.5l33.6-24.2s0.9-4.4-5.7-6.2z" fill="#ffc619"/>
  <path d="m318.5 198.9c-5.1-1.4-10.3 1-14.9 9.7-0.638 1.302-1.206 2.637-1.7 4-5.3-0.5-7.8 1.8-8.7 6.9 0 0-3.5-2.4-5.6 0.4 0.1 0.3 0.1 0.6 0.2 0.9 0.9 4.3 0.4 8.1 2.8 8.5l33.6-24.2s0.9-4.4-5.7-6.2z" fill="#ffe75c"/>
  <path d="m324.2 203.7-2.5-2.3c-4.3-0.7-7.9-0.8-11.7 3.5s-6.3 9-10.3 11.8c-5.7 4.2-10.5 5.9-11.2 9s0.7 3.4 2.1 3.6l33.6-24.2c0.123-0.458 0.123-0.941 0-1.4z" fill="#fff"/>
  <path d="m319.9 199.9 2.4 0.7c0.209 0.034 0.407 0.114 0.58 0.235 0.174 0.122 0.317 0.281 0.42 0.465 0.927 1.566 1.313 3.393 1.1 5.2l-8.8-1.6c2.9-1.4 3.9-2.7 3.6-4.4-0.03-0.094-0.032-0.194-5e-3 -0.289s0.081-0.179 0.156-0.243c0.075-0.065 0.167-0.105 0.264-0.117 0.098-0.012 0.197 5e-3 0.285 0.049z" fill="#fff"/>
  <path d="m290.8 229.4c8.6 1.7 12.4-1 16.1-4.8 1.535-1.698 3.322-3.148 5.3-4.3 5.1-2.9 9.1-6 11.8-10.9s-5.6-8.1-11-3.6-5.7 9.8-16.4 16.4c-7.3 4.6-8.3 6.7-5.8 7.2z" fill="#000"/>
  <g fill="#fff">
   <path d="m292.02 213.79c0.05-0.992-0.401-1.822-1.008-1.853-0.606-0.031-1.139 0.749-1.189 1.742-0.051 0.993 0.401 1.823 1.007 1.853 0.607 0.031 1.14-0.749 1.19-1.742z"/>
   <path d="m381.7 191c-0.176-1.014-0.513-1.993-1-2.9-0.1-0.1-0.2-0.2-0.3-0.1h-0.1c-0.2 0-0.2 0.1-0.2 0.2 0.5 2.1 0.7 4.5-0.4 5.9 2.3-1.8 2.1-2.8 2-3.1z"/>
   <path d="m346.02 201.63c0.917-0.205 1.406-1.507 1.092-2.909-0.313-1.401-1.31-2.371-2.226-2.166s-1.405 1.507-1.092 2.908 1.31 2.371 2.226 2.167z"/>
  </g>
  <path d="m421 351.4c42.3 0 77-17.6 122.6-57.8s61.6-53.4 74.5-65.9 12-20.6 5.3-36.6-11.1-13.7-11.1-13.7c-0.8-13-13.5-34.5-27.5-51.8s-22.4-14.5-37.8-14.5-20.5 4.2-27.4 22.6-24.1 34-56.6 39.7-50.3 5.4-51.2 21.7 0 44.4-14.4 66.6c-17.901 8.652-36.72 15.26-56.1 19.7-11.4 2.6-13.8 10.1-14.9 19.9s2.9 15.1 4.8 18.2c-3.9 3.7-3.1 5.3-1.2 14 0.8 3.5 1.7 7 2.5 10.1 0.652 2.253 2.019 4.233 3.895 5.64s4.16 2.165 6.505 2.16z" fill="#66bcff"/>
  <path d="m326.4 301.3c-1.1 9.8 2.9 15.1 4.8 18.2l78.3 9 75.8-11.1s50-40.3 43.2-53.7-21.1-0.8-40.2 12.2-38.9 14.2-61.6 10.9-50.2-13-85.4-5.4c-11.4 2.6-13.8 10.1-14.9 19.9z" fill="#45aaf7"/>
  <g fill="#a3e1ff">
   <path d="m536.6 257c0.1-17.3-0.5-21.4 5.3-20.6s15.3 2.7 15.3 2.7l-10.3 16.3z"/>
   <path d="m567 230.1c0-8.4-0.7-13.9 1.6-15.1s5 0.3 9.8 4.6-11.4 10.5-11.4 10.5z"/>
   <path d="m336.2 317.4c-1.3-10.1-1-18.1 1.7-20.1s5.3 2.6 7.2 6.6c2.422 5.076 5.444 9.843 9 14.2z"/>
   <path d="m423 319.6c3.3-13.5 6.1-16.8 8.9-17s4.2 6.2 8.2 15.3l-6.6 3.1z"/>
  </g>
  <path d="m603 196.1c-42.5 41.1-67.9 63.7-103.5 90.2s-51.5 33.4-81.4 33.4-49.1-16.8-86.9-0.2c-3.9 3.7-3.1 5.3-1.2 14 0.8 3.5 1.7 7 2.5 10.1 0.652 2.253 2.019 4.233 3.895 5.64s4.16 2.165 6.505 2.16h78.1c42.3 0 77-17.6 122.6-57.8s61.6-53.4 74.5-65.9 12-20.6 5.3-36.6-11.1-13.7-11.1-13.7c0 4.5 0.3 9.3-9.3 18.7z" fill="#fff"/>
  <path d="m623.9 192.2c-0.1 5.8-3.7 12.4-13.5 21.4-19.2 17.5-58.9 53.3-86.2 76.5-29.9 25.7-57.7 46.9-94.7 46.9-12.9 0-27-2.7-40.7-5.3-24.1-4.6-47-8.9-58.6 2.7 0.1 0.6 0.3 1.3 0.4 1.9 10.8-11.9 33.7-7.6 57.9-3 13.8 2.6 28 5.3 41 5.3 37.5 0 66.7-22.4 95.7-47.2 27.3-23.3 67.1-59.2 86.2-76.6 7.2-6.6 12.4-12.7 13.7-19.4z" fill="#ffe75c"/>
  <path d="m512 319-13.9-31.6c-5.333 3.933-10.233 7.433-14.7 10.5l-1.2 1.4c5.2-2.2 10.4 0.7 10.8 9.6 0.1 4.8 0.1 14.5 0.1 22.3 6.517-3.721 12.826-7.793 18.9-12.2z" fill="#000"/>
  <path d="m348.7 343.4c-8 0.1-11.9 3.3-8.7 6.4 1.165 1.082 2.711 1.657 4.3 1.6h68.7c-34.2 0-37.7-8.4-64.3-8z" fill="#000"/>
  <path d="m584.3 166.9c-10.3 13.2-13.9 18.4-9.6 32.5 1.8 6.1 4.1 12.6 6 18l22.3-21.3c9.6-9.4 9.3-14.2 9.3-18.7-0.7-11.1-10-28.4-21.5-44 5.8 8.4 3.8 20.3-6.5 33.5z" fill="#45aaf7"/>
  <path d="m570.6 150.1c5.9-22.5 5.3-37.5-9.2-39-4.3-0.4-8.9 0-14.4 0-15.5 0-20.5 4.2-27.4 22.6s-24.1 34-56.6 39.7-50.3 5.4-51.2 21.7 0 44.4-14.4 66.6c-2.1 3.7 0.4 6.2 30.3 6.2s47.7-1.8 52.7-14.3 12.2-39.8 15.8-50.6 3-17 22.9-21.5 45.9-9.7 51.5-31.4z" fill="#8cd9ff"/>
  <path d="m501.5 178.7c16-6.6 27.3-5.1 44.3-13.2s19.2-14.1 21.3-25.2 3.6-24.2-6.7-25.1-19.6-0.5-24.3 1.1-5.9 4.5-11 15-7.6 26.1-30.5 36.3z" fill="#000"/>
  <path d="m366.7 312.4c0.1 5.1 1.5 12.4 4.3 13.1s4.1-5 7-12.1c-3.1-3.2-11.3-6.5-11.3-1z" fill="#a3e1ff"/>
  <path d="m494.3 289.2c-2.478 0.102-4.902 0.751-7.1 1.9-9.3 4.7-9.2 8.7-8.9 10.1 12.7-7.7 18.3 0.8 21.9 25.7 1.4 9.8 3.9 14.6 11.1 14.6 8.8 0 14-6.2 13.4-22.2-0.135-3.019-0.469-6.025-1-9-2.5-13.4-7.7-26.9-20.3-26.9-1.89 0.094-3.722 0.678-5.318 1.695s-2.899 2.432-3.782 4.105z" fill="#ff78b9"/>
  <path d="m588.2 244.1c-5.4 4.8-10.8 5.2-12 1s2.1-11.6 7.5-16.3l9.4-8.3c5.4-4.8 10.8-5.2 12-1s-2.2 11.6-7.5 16.3z" fill="#ffa8d2"/>
  <path d="m494.3 289.2c8.4 0.9 14.8 4.8 17.5 15.4 1.9 7.5 1.3 16.3 2.6 23.9" stroke="#000" stroke-linecap="round" stroke-linejoin="round" stroke-width="2"/>
  <path d="m590 169.2-2.5 3.4c-7.9 10.3-10.8 14.1-2.4 40.6l1.3-1.2c-7.9-25-5.3-28.5 2.3-38.4l2.6-3.4c6.2-8.4 8.5-16.7 8.3-23.8l-1.8-2.8c1 7.3-1 16.4-7.8 25.6z" fill="#5865f2"/>
  <path d="m476.1 307.6c0.8-4.5-0.2-6.7-2.5-6.4s-4.3 1.7-6.5 6.8c1.8 19.5 7 11.9 9-0.4z" fill="#a3e1ff"/>
  <path d="m558.3 118.4 15.7-2c2.5-0.3 3.4-6 4.5-13.2 1.1-7.1999-0.2-20.3-0.2-20.3l-16.2 4.9z" fill="#ff78b9"/>
  <path d="m601.9 78.2c-6.7-7.5-40.7-33.7-40.7-33.7l-8 11.5s11.3 12.5 19.4 20.9c-16.4 1.3-46 5.2-46 5.2-21-4.2-29.9-6.2-29.9-6.2l21.6-20.5-7.9-11.8s-20.6 12.6-32.2 21.7-13.5 20.3-2.5 28.8c11 8.4999 14.7 11.1 14.7 11.1l70.9 7.3c20.8-5.8 33.2-12.1 40.7-18.6 7.5-6.5 6.6-8.2-0.1-15.7z" fill="#ffc619"/>
  <path d="m484.5 74.8c2.5 0.4 6.9 1.6001 6.9 1.6001" stroke="#000" stroke-linecap="round" stroke-linejoin="round" stroke-width="2"/>
  <path d="m556.9 40.9-7.1 11.9 8 8.2001c2.6-2.9 5.2-8.0001 4.4-15.7z" fill="#000"/>
  <path d="m510.9 92.9c-9.6-11.8-13-16.9-15-22.8-1.4-4.3 7.1-1.7 18.1 1.6s9.3 6.4-3.1 21.2z" fill="#ff78b9"/>
  <path d="m497.1 75.6c-10.1 11.3-10.3 25.1-9.2 44.4 0 0-17.4 17.5-14.9 32.8s26.3 21.9 53.4 21.6c21.8-0.2 24.2-5.3 26.2-15.6 1.2-6.7 2.1-14.4 2.7-20.4 0.605-6.307 2.191-12.482 4.7-18.3 13.4-31.1 2.6-42.3 2.6-42.3l-36.2 2.9z" fill="#ff78b9"/>
  <path d="m505.1 59.4c-8.5 6.3-6.7 15.9 5.3 29.1l5.4 5.4 34.9-5.7c11.2-13.9 9-23.2 4.9-29 5.7-9.4 6.1-15.9 6-21.7-0.1-9.8-9-25.2-31.4-25-12.2 0.1-23 4.9-26.9 20.4-1.4 5.4-1.7 14.2 1.8 26.5z" fill="#ffe75c"/>
  <path d="m548.3 25.2c0.267-0.0015 0.532 0.0535 0.776 0.1612 0.245 0.1077 0.464 0.2659 0.643 0.464 0.18 0.1982 0.315 0.432 0.398 0.6862 0.083 0.2541 0.111 0.5228 0.083 0.7886l-1.2 13.5c-0.355 3.0278-1.779 5.8295-4.015 7.901-2.237 2.0715-5.139 3.2768-8.185 3.399h-2.7c-3.184 0.0302-6.27-1.1002-8.681-3.1799s-3.982-4.9663-4.419-8.1201l-0.5-4.5c-0.073-0.5301-0.337-1.0154-0.742-1.3651s-0.923-0.5399-1.458-0.5349c-0.551-0.0023-1.082 0.2019-1.489 0.5721-0.407 0.3703-0.661 0.8798-0.711 1.4279l-0.6 7.2c-0.222 2.3794-1.314 4.5934-3.067 6.2174s-4.044 2.5436-6.433 2.5826c-1.433 0.0541-2.86-0.2035-4.183-0.755s-2.511-1.3838-3.481-2.4394c-0.97-1.0555-1.699-2.3091-2.137-3.674-0.438-1.365-0.574-2.8088-0.399-4.2316l1.2-13.6c0.071-0.5398 0.33-1.037 0.733-1.4033 0.403-0.3662 0.923-0.5776 1.467-0.5967z" fill="#000"/>
  <path d="m549.6 25.7 12 11.8v2.4l-11.9-8.3z" fill="#000"/>
  <g fill="#ff78b9">
   <path d="m562.6 77.7c-5.629-5.317-12.257-9.4638-19.5-12.2-6.5-2.3-8-2.9-9.5 0.8s-3.1 7.9-3.7 9.3-7.7 6.2-12 9.8-8.8 11.3-8.8 11.3l45.6 3.5z"/>
   <path d="m572.4 76.7 5.9 6.2c-2.7 8.4-4.4 18.9-5.4 30.6l-23.3 1.7 13-37.4z"/>
   <path d="m497.1 75.6-4.3-0.8c-0.66-0.0956-1.332-0.0468-1.971 0.1432-0.639 0.1899-1.229 0.5164-1.729 0.9569-4.895 4.4553-8.197 10.391-9.4 16.9-1.3 7.6-0.9 8.4 7.9 13.1 5.9 3.2 12-10.8 15.3-20.3 0.383-1.0357 0.533-2.1433 0.438-3.2436-0.094-1.1003-0.43-2.1662-0.984-3.1215-0.555-0.9553-1.313-1.7764-2.221-2.4048-0.908-0.6283-1.944-1.0483-3.033-1.2301z"/>
  </g>
  <path d="m501.3 153.4c-7.656-8.923-16.275-16.972-25.7-24l-22.4 11.7 7.3 21.8s6 7.6 11.6 13.6 15.7 6.2 34.3 7.8c7-12.5 3.8-20.4-5.1-30.9z" fill="#2835bd"/>
  <path d="m464.8 162.5 2-9.7" stroke="#000" stroke-linecap="round" stroke-linejoin="round" stroke-width="2"/>
  <path d="m543.4 149.3c-1.8-4.9-7.3-8.8-31.9-10l-9.1-9.2-25.3 19.3c9 15.2 19.2 33.5 29.3 34.9s19.2 0.7 31.2-6.6c7.6-4.7 8.6-6.9 8.8-10.9-0.153-5.947-1.163-11.841-3-17.5z" fill="#3442d9"/>
  <path d="m570.6 150.1c-5.6 21.7-31.6 26.8-51.5 31.4-18 4.1-19.2 9.5-21.9 18.5l-13.6-3.6v-14l17.9-3.7c16-6.6 27.3-5.1 44.3-13.2s19.2-14.1 21.3-25.2c1.3-6.5 2.3-13.9 0.7-19l5.7 0.8c1.5 6.8 0.2 16.4-2.9 28z" fill="#8cd9ff"/>
  <path d="m418.4 171.6c-1.326 0.803-2.343 2.029-2.887 3.48-0.545 1.451-0.584 3.043-0.113 4.52 2.9 9.2 4.2 16.3 1.5 38.7s-7.2 34.8-9.3 39.4c-0.129 0.273-0.191 0.573-0.182 0.875 0.01 0.301 0.092 0.596 0.238 0.86 0.147 0.264 0.354 0.489 0.605 0.657s0.539 0.274 0.839 0.308c11.2 1.7 28 1.5 46.4-0.9 3.104-0.407 6.045-1.631 8.522-3.546s4.402-4.452 5.578-7.354c4.73-11.738 8.607-23.803 11.6-36.1 6.7-27.6 5.9-27.1 20.3-33.8-1.1-9.9-1-19.4-11.8-20.8-12.6-1.6-26.4 4.6-46.2 10-4.5-4-8.6-6-25.1 3.7z" fill="#45aaf7"/>
  <path d="m472.6 159.4c-8.3 2-17.7 5.4-29.1 8.5-3.3-2.9-6.4-4.8-14.3-1.7-0.293 0.748-0.527 1.517-0.7 2.3-3.6 17.9-10.4 47.2 10 45.6s22.7-13.7 22.1-24.7-1.9-17.1 0-20.3 8.6-8.8 12-9.7z" fill="#287ceb"/>
  <path d="m490.9 184.7c-1.4-11.7-2.3-17.3-5.5-19.5s-4.3-1.5-8.5-0.6-9.5 2.5-16.3 4.5c-12.7 3.7-28.5 8.4-34.5 8l-2-0.3c1.4-1.5 10-4.6 15.7-6.7l4-1.5c0.094-0.023 0.182-0.065 0.259-0.123 0.077-0.059 0.141-0.133 0.188-0.217 0.047-0.085 0.076-0.178 0.085-0.275 9e-3 -0.096-2e-3 -0.193-0.032-0.285l-0.8 0.2-0.7-0.6-3.6 1.3c-13.3 4.9-17.1 6.6-16.8 8.5s1.8 1.5 3.6 1.6c6.2 0.4 21.5-4.1 35.1-8.1 6.7-2 12.5-3.7 16.1-4.4s5.9-0.7 7.3 0.3 3.6 8 4.9 19.8z" fill="#000"/>
  <g fill="#5865f2">
   <path d="m496 39.3 19-13.8-7.1 0.1-11.4 8.3z"/>
   <path d="m500.6 51c1.637 0.9545 3.505 1.439 5.4 1.4 2.389-0.039 4.68-0.9586 6.433-2.5826s2.845-3.838 3.067-6.2174l0.3-3.6z"/>
   <path d="m548.3 25.2h-7.9l-19.5 14.1v1.5c0.225 1.5464 0.733 3.0381 1.5 4.4l27.1-19.5c-0.337-0.2894-0.757-0.4645-1.2-0.5z"/>
   <path d="m549 40.8 0.6-6.5-22.2 16.1c2.05 1.1342 4.357 1.7198 6.7 1.6999h2.7c3.046-0.1221 5.948-1.3274 8.185-3.399 2.236-2.0715 3.66-4.8732 4.015-7.901z"/>
  </g>
  <path d="m514.5 53.6c2.668-0.5822 5.431-0.5822 8.1 0" stroke="#000" stroke-linecap="round" stroke-linejoin="round" stroke-width="2"/>
  <path d="m430.7 133c0.1 0.3 0.2 0.5 0.3 0.5s0.2-0.1 0.3-0.4" fill="#000"/>
  <path d="m447.7 128.4c-10.8 4.2-25.9 13-38.9 20.3-7.2 4-9.4 6.4-5.6 13.7s11 14.3 16.4 19.1 8.4 2.8 12.4 0.2l28.5-18.8 15.1-33.5c-6.3-4.4-17-5.3-27.9-1z" fill="#2835bd"/>
  <path d="m417.2 168.1c4.6 0.9 4.6 1.4 10.3-2.3s34.4-21 37.3-22.9" stroke="#4150f2" stroke-linecap="round" stroke-miterlimit="10" stroke-width="2"/>
  <path d="m489.4 117.8c-4.5-3.3-7.6-3.5-31.8-5.5s-35.5-4.5-38.3-0.1-0.3 15.4 2.5 23.7 4.4 11 8.3 11.3 40.3 1.5 47 2.2l3.3 5.6 31.1-15.7s-17.7-18.2-22.1-21.5z" fill="#3442d9"/>
  <path d="m412.6 161.4c-6-4.9-8.4-5.8-7.7-2.5s4.5 8.2 8.6 12.6 8.8 8.9 10.4 8.6-0.3-3.3-2.8-8.1c-2.135-4.041-5.02-7.638-8.5-10.6z" fill="#000"/>
  <path d="m419.2 168.7-5 3.5-4.1 2.9c-4.9 3.6-2.9 6.5-2.5 9.9s-0.7 5.9-3 5.9-5.7-9.6-8.1-14.2-10.3-8.3-14.4-11.8c-1.7-1.5-2.1-4 0-4.8-0.9-1.3-2.1-4.6 0.9-5.6s7.5 4.5 10 6.2 5.6 3.3 7.9 2.3c1.581-0.704 3.117-1.506 4.6-2.4l3.4-2.1 3.7 2.9c2.511 2.133 4.73 4.587 6.6 7.3z" fill="#ff78b9"/>
  <path d="m570.6 150.1c-5.6 21.7-31.6 26.8-51.5 31.4s-19.3 10.6-22.9 21.5-10.8 38.2-15.8 50.6l66.5-39.1 27.2-51.6z" fill="#66bcff"/>
  <path d="m493.5 237.9c-2.2 7.7-4 13.5-5 17.7s3.6 3.8 8.5 2.4 7-3.5 6.2-7.8-7.3-21-9.7-12.3z" fill="#fff"/>
  <path d="m412.6 161.4-3.7-2.9c-0.9-0.1-1.4-0.1-1.8 0.2s-0.3 0.5-0.2 1c2.3-0.4 8 3.7 8.2 11.8 1.3 0.6 2 1 2.5 0.7s1.2-1.7 1.6-3.5c-1.87-2.713-4.089-5.167-6.6-7.3z" fill="#000"/>
  <path d="m403.8 186.5c-1-3.8-4.4-11.6-7.3-14.7s-7.5-10.4-9-12.8-5.4-5.4-6.3-2.7c-0.195 1.335 0.127 2.694 0.9 3.8-2.1 0.8-1.7 3.3 0 4.8 4.1 3.5 11.8 6.7 14.4 11.8s4.4 12.5 7.2 14l0.8 0.2c0.5-0.1 0.2-1.5-0.7-4.4z" fill="#de3a93"/>
  <path d="m518.2 6.5001c-1.267 3.5717-1.407 7.4464-0.4 11.1 0.159 0.6427 0.534 1.2114 1.062 1.6117 0.527 0.4002 1.176 0.6078 1.838 0.5883h6.1c0.679 0.0031 1.351-0.1378 1.972-0.4136 0.62-0.2759 1.175-0.6802 1.628-1.1864 3.7-3.9 10.4-4.9 15.6-2.7l3.1-4.5c0.332-0.4408 0.495-0.9864 0.458-1.5372-0.037-0.55077-0.27-1.07-0.658-1.4628-3.032-2.8653-6.65-5.0379-10.604-6.3674-3.954-1.3295-8.149-1.7842-12.296-1.3326-1.747 0.20987-3.401 0.90064-4.778 1.9953-1.377 1.0947-2.424 2.5503-3.022 4.2046z" fill="#ff8c19"/>
  <path d="m573.3 108.8c-0.4 4.7 0.4 6.3 1.5 4.4 0.773-1.706 1.247-3.533 1.4-5.4z" fill="#000"/>
  <g stroke="#000" stroke-linecap="round" stroke-linejoin="round" stroke-width="2">
   <path d="m561.3 78.1c-8.6 1.1-13.4 2.6-17.7 4.6"/>
   <path d="m578.9 84.1 3.7 3.7"/>
   <path d="m557 119.6s-4.5 3.3-7.4 5.7"/>
  </g>
  <path d="m517.5 93.8-0.8 11.8h-5.3c0.31-3.873 0.912-7.7172 1.8-11.5 0.198-0.6457 0.502-1.2539 0.9-1.8v0c1.33-1.6652 2.877-3.1449 4.6-4.3999l9.2-6.9c2.604-1.9198 4.586-4.5627 5.7-7.6 1.3-3.4 2.9-7.7001 3.6-8.6001" stroke="#f551a0" stroke-linecap="round" stroke-linejoin="round" stroke-width="2"/>
  <path d="m573.2 77.5c-4.2 10.6-8.8 28.6-5.3 37.2 0.351 0.81 0.787 1.581 1.3 2.3l2-0.2c-0.757-0.785-1.367-1.699-1.8-2.7-3.2-7.7 0.8-24.3 5-35.3z" fill="#f551a0"/>
  <path d="m480.6 101.4c0.4 0.472 0.872 0.877 1.4 1.2 1-11.7 5.8-21.6 13.2-27.4l-2-0.3c-6.9 5.9-11.5 15.4-12.6 26.5z" fill="#f551a0"/>
  <path d="m560.9 118.9-11.1 1.3" stroke="#000" stroke-linecap="round" stroke-linejoin="round" stroke-width="2"/>
  <path d="m546 161.3c-4 2.7-12.5 6.8-17.9 8-1.349 0.277-2.723 0.411-4.1 0.4-2.166 0.081-4.318-0.369-6.27-1.31-1.952-0.942-3.644-2.345-4.93-4.09l-5.2-7.3c-4.5-6.4-10.2-14.3-14.3-20-0.1-0.2-0.1-0.3-0.2-0.4-6.2-8.7-9.5-12.5-14.1-13.2s-17.9-1.9-41.2-3.7c-5.8-0.4-6.7-0.3-7.8 2.3-0.032 0.098-0.085 0.188-0.155 0.263s-0.156 0.134-0.251 0.172c-0.096 0.038-0.198 0.055-0.301 0.049s-0.203-0.035-0.293-0.084c-0.184-0.086-0.333-0.231-0.424-0.413-0.091-0.181-0.118-0.388-0.076-0.587 1.6-3.9 4-3.7 9.4-3.3 13.6 1.1 36.9 2.9 41.4 3.7s9.4 5.9 15.1 13.9c0 0.1 0.1 0.2 0.2 0.3 4.1 5.7 9.7 13.7 14.3 20l5.2 7.4c2.8 3.9 7.9 5.5 13.6 4.3s15-6 18.1-8.2c0.116 0.594 0.183 1.196 0.2 1.8z" fill="#5865f2"/>
  <path d="m422.4 113.9c-2.9 2.7-1.4 8 0.6 15.3s4.5 13.9 5.8 13.7 2-2.8 2.3-6.6 0.2-10.6-1.3-15.7-5.2-8.8-7.4-6.7z" fill="#000"/>
  <path d="m431.3 133.1-7.4-0.9c-3.6-0.5-7.2-0.8-10.8-1-0.7 4.3-2.2 9.8-4.3 12s-5.8 2.1-6.2-2.9-0.1-12.1-3.4-26.9c-1.2-5.5-3.4-8.8-4.2-13-0.8-4.1999 1.6-4.8999 3.8-4.4999-0.5-2.8-0.3-6.4 3.2-6.9s4.9 2.5 4.9 6.4c0.519-0.7186 1.267-1.2389 2.122-1.4752 0.854-0.2363 1.763-0.1745 2.578 0.1752 2.4 0.9 2.9 3.9 2.6 8.6999-0.3 4.8-0.4 9.9 1.6 11.6s2.5 1.1 5.3 1.5l6.8 0.6c0.811 1.277 1.45 2.656 1.9 4.1 1.034 4.085 1.538 8.286 1.5 12.5z" fill="#ff78b9"/>
  <path d="m431.3 133.1c0.038-4.214-0.466-8.415-1.5-12.5-0.45-1.444-1.089-2.823-1.9-4.1h-0.9c2.5 3.2 4 11.6 0 16.1 0.563 0.477 1.206 0.849 1.9 1.1 0.845 0.081 1.692-0.13 2.4-0.6z" fill="#000"/>
  <path d="m411.7 100c0.4-4.6999-2.9-6.6999-4.8-4.5999 0-3.9-1.3-6.9-4.9-6.4s-3.7 4.1-3.2 6.9c-2.2-0.4-4.6 0.4-3.8 4.4999 0.8 4.1 3 7.5 4.2 13 3.3 14.8 2.9 21 3.4 26.9 7e-3 1.189 0.392 2.345 1.1 3.3 2.3 2.4 3.3-0.5 3.2-4.9-0.055-6.886 0.346-13.767 1.2-20.6 1-8 3.3-13.4 3.6-18.1z" fill="#de3a93"/>
  <path d="m402.4 89c3.1-0.1 3.2 3.8 3.1 8.1l1.4-1.7c0-3.7-1.2-6.7-4.5-6.4z" fill="#ff78b9"/>
  <g stroke="#000" stroke-linecap="round" stroke-linejoin="round" stroke-width="2">
   <path d="m482.7 138.2c-1.572 3.874-3.444 7.619-5.6 11.2 4.6-2 6.5-3 6.5-3"/>
   <path d="m512.4 140.2 10.6 10.8c8.6 1.1 10.6 2.9 12.9 5.8"/>
   <path d="m523 151 9.7 0.3"/>
  </g>
  <path d="m496.6 252.1c-1.3 3.3-3.5 5.5-4.9 5s-1.4-2.1 0-5.2c0.603-1.258 1.105-2.562 1.5-3.9 0.8-2.9 2.3-3.4 3.4-2.9s1.4 3.6 0 7z" fill="#000"/>
  <path d="m418 207.6c-0.1 1.7-0.3 3.6-0.5 5.6l22.4 2.5-23.6 7.4c-0.5 3.4-1 6.5-1.5 9.4l15.6 1.6c-5.3 1.9-11.1 3.9-17.3 6.3-0.8 3.533-1.6 6.533-2.4 9l7.3 0.2-8.2 2.3c-0.601 1.981-1.336 3.919-2.2 5.8-0.102 0.257-0.169 0.526-0.2 0.8 8.9-2.8 17.9-5.1 26.6-7 8.882 1.603 17.638 3.842 26.2 6.7 2.164-0.91 4.108-2.274 5.7-4-3.4-1.2-8.4-2.8-14.5-4.5l-3.5-0.9c8.3-1.4 16-2.6 23-3.5 1.1-2.8 2.3-6.1 3.5-9.7-6.5-1.5-13.2-2.7-19.7-3.8 9.4-2.9 16.8-5 23-6.5 1-3.4 2-7 3-10.8l-13.5-1.4 14.9-4.6 1.6-6.3-30.5 9.3zm50.3 32.4c-10.2 1.4-22.1 3.2-34.5 5.9-4.667-0.8-9.567-1.4-14.7-1.8 8.9-3.3 16.7-6.1 23.7-8.4 8.1 1.1 16.9 2.5 25.5 4.3zm8.6-20.3c-8.5 2.1-19.5 5.2-34.6 10.3-8.1-1.1-15.4-1.9-21.3-2.5l32.8-10.3z" fill="#3f4eeb"/>
  <path d="m418.4 199.7c-0.1 1.9-0.1 4-0.3 6.4 25.6-0.8 54.9-3.9 65.9-5.2 0.6-2.6 1.2-4.8 1.8-6.7-7.9 1-39.8 4.7-67.4 5.5z" fill="#3f4eeb"/>
  <g fill="#000">
   <path d="m461.7 252.8 4.2 1.4c-1.592 1.726-3.536 3.09-5.7 4l-4-1.3c2.1-0.966 3.974-2.363 5.5-4.1z"/>
   <path d="m471.1 234.9 3.3 0.7c-1.2 3.6-2.4 6.9-3.5 9.7l-4.4 0.6c1.867-3.518 3.407-7.2 4.6-11z"/>
   <path d="m476.8 214.1 3.9 0.4c-1 3.8-2 7.4-3 10.8l-4 1c0.6-2 1.1-4.1 1.6-6.2 0.1-0.2 0.1-0.4 0.2-0.6 0.4-1.8 0.9-3.6 1.3-5.4z"/>
   <path d="m479.4 203.5 4.3-1.3-1.6 6.3-4.3 1.3c0.5-2.1 1.1-4.2 1.6-6.3z"/>
   <path d="m485.8 194.2c-0.6 1.9-1.2 4.1-1.8 6.7l-4.1 0.4 1.8-6.6z"/>
   <path d="m409.8 251.9 5-1.4c-0.7 2.2-1.4 4.3-2.2 6.4l-5.2 1.6c0.031-0.274 0.098-0.543 0.2-0.8 0.864-1.881 1.599-3.819 2.2-5.8z"/>
   <path d="m413.1 240.4 4.5-1.7c-0.7 3.8-1.5 7.3-2.5 10.8h-4.4c0.8-2.533 1.6-5.567 2.4-9.1z"/>
   <path d="m416.3 223.1 3.7-1.2c-0.4 3.9-0.9 7.5-1.4 11l-3.8-0.4c0.5-2.9 1-6 1.5-9.4z"/>
   <path d="m418 207.6 3.4 0.4-0.6 5.5-3.3-0.3c0.2-2 0.4-3.9 0.5-5.6z"/>
   <path d="m422.2 199.6-0.6 6.4h-3.5c0.2-2.4 0.2-4.5 0.3-6.4z"/>
  </g>
  <path d="m519.6 225 0.2 8.5c6e-3 0.441 0.129 0.872 0.355 1.25 0.227 0.378 0.55 0.69 0.935 0.903 0.386 0.213 0.822 0.321 1.262 0.311 0.441-9e-3 0.871-0.135 1.248-0.364 0.451-0.295 0.799-0.723 0.996-1.225 0.197-0.501 0.233-1.052 0.104-1.575l-2.9-10z" fill="#fff"/>
  <path d="m505 199.4c8 2.5 9.6 11 11.3 25.4 0.034 0.354 0.163 0.693 0.372 0.981 0.209 0.289 0.491 0.516 0.817 0.658 0.326 0.143 0.684 0.196 1.038 0.154 0.353-0.042 0.689-0.178 0.973-0.393l2.8-2.1c0.733-0.524 1.308-1.24 1.661-2.069s0.47-1.739 0.339-2.631c-0.3-1.8-0.8-4.6-1.3-8.4-1.2-7.4-6.1-16.4-15.5-17.5-0.51-0.051-1.023 0.056-1.471 0.306-0.447 0.251-0.806 0.633-1.029 1.094-0.478 1.139-0.716 2.365-0.7 3.6 0.011 0.204 0.084 0.399 0.209 0.56 0.125 0.16 0.296 0.279 0.491 0.34z" fill="#3f4eeb"/>
 </g>
 <g>
  <path d="m291.4 351.9h-273.3c-54.859-105.26 29.435-84.169 61.451-68.47 34.558-35.829 67.514-18.523 91.756 6.5866 26.401-24.899 67.792-36.288 84.392-18.016 9.6 11.8 2.2 34.5-16 52.4 0 0 53.8 1.3 51.7 27.5z" fill="#404eed"/>
  <path d="m213.6 351.4h10.4l7.8-23.8h-20.5z" fill="#000"/>
  <path d="m344.7 351.4h-55.7c-35.8 0-56.4-10.3-71.8-22l-3.6 22h-9.1c0-105.6 13.6-205.8 13.6-205.8 2-11.3 23.5-16.4 50.2-7.1s33.8 21.2 32.8 32-9.5 83.6-12.7 117.7l5.7 6.2c1.966 2.043 3.424 4.519 4.258 7.228 0.834 2.71 1.02 5.577 0.542 8.372l-0.6 3.3c22 14.2 56 7.1 46.4 38.1z" fill="#29cc7a"/>
  <path d="m229.2 165c-0.9 12.6-1.1 17.8-1.1 19.8-7e-3 0.316 0.052 0.63 0.173 0.923 0.12 0.292 0.3 0.557 0.527 0.777 5.9 5.9 12.9 7.8 18.4 8.5 0.318 0.042 0.641 0.017 0.949-0.073 0.308-0.091 0.593-0.244 0.838-0.451 0.245-0.208 0.444-0.464 0.584-0.752 0.14-0.289 0.218-0.603 0.229-0.924l1.1-16" stroke="#fff" stroke-linecap="round" stroke-miterlimit="10" stroke-width="2"/>
  <path d="m275.8 215.1c-0.9 9-1.1 18.9 3.4 21.5 2.8 1.7 8.5 1.5 14.8-1.5 2.5-24.9 5.2-46.3 6.5-58.4l-29.8 4.9c-2.9 25.7-3.4 34.1 5.1 33.5z" fill="#15ad75"/>
  <path d="m296.53 178.68c4.779-10.02-8.036-26.102-28.624-35.922-20.587-9.82-41.151-9.658-45.93 0.362-4.779 10.019 8.036 26.102 28.624 35.922 20.587 9.819 41.151 9.657 45.93-0.362z" fill="#000"/>
  <path d="m217.2 329.4c15.4 11.7 36 22 71.8 22h55.7c0.948-2.877 1.487-5.873 1.6-8.9-59.1 0-93.4-1.2-141-36.8-0.4 14.2-0.7 29.5-0.8 45.7h9.1z" fill="#57f287"/>
  <path d="m295.4 312.5c0.148 9e-3 0.296-0.02 0.431-0.082 0.135-0.063 0.252-0.158 0.341-0.277 0.089-0.118 0.147-0.257 0.17-0.404 0.022-0.147 8e-3 -0.297-0.042-0.437-2-10-8.1-11.4-19.4-8.8s-15.8 3.6-18 4.4-1.2 1.3 13.7 3.6c7.535 1.267 15.159 1.936 22.8 2z" fill="#15ad75"/>
  <path d="m345.8 337.4c-11.1 0.1-29.6-0.1-47.8-1.3-33.8-2.3-64.9-14.9-92.5-37.4v1.8c27.6 22.3 58.6 34.8 92.4 37 17 1.2 34.2 1.4 45.5 1.4h2.7z" fill="#000"/>
  <path d="m381.4 192.3-33.3 18.6c0.57 0.527 1.287 0.867 2.056 0.975 0.769 0.107 1.552-0.024 2.244-0.375 1.9-0.8 6.5-5 8.3-6s6.9-3 9.4-4c3.083-1.221 5.978-2.871 8.6-4.9 2.2-1.8 3-2.5 2.7-4.3z" fill="#000"/>
  <path d="m299.2 123.2c-6.1-3.8-6.4-3.7-9.8-9.8s-7.7-9.1-12.7-9.8l6.2 44.9c13 3.8 21-2.8 22.8-9.3s-0.3-12.2-6.5-16z" fill="#3442d9"/>
  <path d="m293.1 129.1c-1.7-7.3-6.2-15.8-11.5-22.2-1.899-2.312-3.246-5.027-3.939-7.9382-0.693-2.9109-0.714-5.9415-0.061-8.8617l2.2-10c1.547-6.9406 0.722-14.199-2.341-20.616-3.064-6.4171-8.19-11.622-14.559-14.784-3.655-1.7995-7.633-2.8533-11.7-3.1-7.653-0.5606-15.223 1.8829-21.104 6.8117-5.881 4.9289-9.61 11.955-10.396 19.588-0.166 1.293-0.233 2.5968-0.2 3.9v4.3l0.2 18c0.217 8.0869-1.497 16.108-5 23.4-1.454 2.893-2.561 5.948-3.3 9.1l48.9 52c23.3-3.9 37.9-26.4 32.8-49.6z" fill="#3442d9"/>
  <path d="m260.4 178.7c23.2-3.9 37.8-26.4 32.7-49.6-1.6-6.9-5.7-14.9-10.6-21.1" stroke="#000" stroke-linecap="round" stroke-miterlimit="10" stroke-width="2"/>
  <path d="m277.5 130.6c4.6-7.6 6.4-6.6 14.6-4.4 6.6 1.7 14.2 15.2 4.1 22s-30.7 2.7-18.7-17.6z" fill="#3442d9"/>
  <path d="m254.7 108.19c0.922-0.705 1.07-2.058 0.332-3.024-0.738-0.965-2.083-1.176-3.004-0.472-0.921 0.705-1.07 2.058-0.332 3.023 0.738 0.966 2.083 1.177 3.004 0.473z" fill="#000"/>
  <path d="m267.3 108.97c0.921-0.704 1.07-2.058 0.332-3.023s-2.083-1.177-3.005-0.472c-0.921 0.704-1.07 2.058-0.332 3.023s2.083 1.177 3.005 0.472z" fill="#000"/>
  <path d="m266 107.4c10.7 8.8 6.3 15.1 14.9 28.1" stroke="#fff" stroke-linecap="round" stroke-miterlimit="10" stroke-width="3.0059"/>
  <path d="m253.9 127.1c6.6-4.6 8.6-5.9 11.1-5.8l6.5 0.6-1.7 26.4-16.5-0.5z" fill="#ffc619"/>
  <path d="m285.9 120.4c0.125-0.349 0.166-0.723 0.122-1.091s-0.173-0.721-0.376-1.031c-0.204-0.31-0.476-0.569-0.796-0.756-0.321-0.187-0.68-0.297-1.05-0.322l-11-1.6c-0.798-0.085-1.602 0.107-2.275 0.544-0.674 0.437-1.177 1.092-1.425 1.856l-6.2 23c-0.124 0.35-0.166 0.723-0.122 1.091s0.173 0.721 0.376 1.031c0.204 0.31 0.476 0.569 0.797 0.756 0.32 0.187 0.679 0.297 1.049 0.322l11 1.6c0.799 0.085 1.602-0.107 2.276-0.544 0.673-0.437 1.176-1.092 1.424-1.856z" fill="#000"/>
  <path d="m285.4 118.1 1.2 1.4-3.3 0.3z" fill="#000"/>
  <path d="m290.8 133.3c-1.4-2.3-2.7-5.2-6.5-5.8l-0.5 4.8z" fill="#ffc619"/>
  <path d="m287 121.7c0.105-0.349 0.132-0.717 0.079-1.078s-0.184-0.706-0.384-1.011-0.464-0.562-0.774-0.754-0.659-0.314-1.021-0.357l-11.1-1.6c-0.795-0.067-1.591 0.133-2.26 0.567-0.67 0.435-1.177 1.079-1.44 1.833l-6.2 23c-0.105 0.349-0.132 0.717-0.079 1.078s0.184 0.706 0.384 1.011 0.464 0.563 0.774 0.754c0.311 0.192 0.659 0.314 1.021 0.357l11.1 1.5c0.778 0.128 1.576-0.037 2.24-0.461 0.664-0.425 1.149-1.079 1.36-1.839z" fill="#fff"/>
  <g fill="#ffc619">
   <path d="m283.6 130.8 4.5 0.7c0.912 0.101 1.747 0.556 2.327 1.266 0.58 0.711 0.857 1.621 0.773 2.534-0.023 0.475-0.145 0.94-0.358 1.365-0.214 0.424-0.514 0.8-0.881 1.101-0.368 0.302-0.794 0.523-1.253 0.649-0.458 0.127-0.938 0.156-1.408 0.085l-3.3-0.5c-1.025-0.147-1.973-0.629-2.697-1.37-0.723-0.742-1.181-1.701-1.303-2.73-0.025-0.458 0.056-0.916 0.236-1.338s0.455-0.797 0.802-1.097c0.348-0.299 0.76-0.515 1.204-0.63s0.909-0.127 1.358-0.035z"/>
   <path d="m282.1 137.5 3.1 0.5c0.519 0.066 1.017 0.243 1.46 0.52s0.82 0.648 1.105 1.085c0.286 0.438 0.473 0.933 0.548 1.45s0.036 1.044-0.113 1.545c-0.213 0.806-0.723 1.502-1.428 1.947s-1.552 0.607-2.372 0.453l-1.9-0.3c-1.037-0.143-1.999-0.621-2.739-1.361s-1.218-1.702-1.361-2.739c-0.029-0.469 0.053-0.937 0.238-1.369 0.186-0.431 0.47-0.813 0.83-1.115 0.36-0.301 0.785-0.514 1.243-0.621 0.457-0.107 0.933-0.105 1.389 5e-3z"/>
   <path d="m272.4 148.9-10.8-1.5 0.5-4.4 10.8 1.6z"/>
   <path d="m275 131.4-6.8-1c-0.324-0.044-0.628-0.181-0.877-0.393-0.248-0.213-0.43-0.493-0.523-0.807l-0.6-1.8-0.5-3.7-3.7 13 11 1.6c1.024 0.137 2.064-0.075 2.953-0.601s1.575-1.335 1.947-2.299c0.119-0.457 0.135-0.935 0.048-1.399-0.088-0.464-0.277-0.903-0.554-1.285-0.277-0.383-0.636-0.699-1.049-0.926-0.414-0.228-0.873-0.361-1.345-0.39z"/>
   <path d="m272.8 138.2-10.8-1.5 0.5 7.2 8.3 1.2c1.013 0.151 2.046-0.057 2.922-0.586s1.54-1.348 1.878-2.314c0.137-0.45 0.17-0.925 0.097-1.39-0.074-0.465-0.253-0.906-0.522-1.292-0.27-0.385-0.624-0.704-1.036-0.933-0.411-0.228-0.869-0.36-1.339-0.385z"/>
  </g>
  <path d="m349.4 182.3c0.3-10.8-8.6-12.5-14.7-16.3s-13.3-11.8-20.8-17.2-14-5.3-26.7-1.4l14.5 28.2c8.2 4.2 10 8.8 14.4 15s10.3 8.6 16.2 7.5c3.1 5.1 3.7 6.3 8.2 4.7s11.9-5 13.9-10.9-0.9-6.9-5-9.6z" fill="#66bcff"/>
  <path d="m341.9 199.4c-3.8-0.9-5.3-3-7.7-6.3l-2.1-2.8c-10.3-2.1-14.5-7.6-16.8-11.6-1.1-1.9-3.1-3.4-5-4.8s-3.8-2.9-4.9-4.7c-0.828-1.348-1.563-2.751-2.2-4.2-0.8-2.1-1.5-3.5-2.8-3.9s-3.5 0.4-5.6 1.3c-1.907 0.919-3.923 1.591-6 2-0.172 0.032-0.349-2e-3 -0.497-0.095-0.148-0.092-0.256-0.237-0.303-0.405-6e-3 -0.181 0.051-0.36 0.16-0.505 0.109-0.146 0.264-0.249 0.44-0.295 1.957-0.329 3.847-0.97 5.6-1.9 2.4-1 4.4-1.9 6.5-1.3s2.8 2.4 3.7 4.6 1.2 2.6 2 4c1.323 1.679 2.911 3.131 4.7 4.3 2 1.6 4.1 3.2 5.3 5.3 2.3 4.1 6.3 9 16.2 11h0.2l0.2 0.2c0.9 1.1 1.6 2.2 2.3 3.1 2.2 3.1 3.6 5 6.8 5.8 0.087-7e-3 0.173 8e-3 0.252 0.044 0.079 0.037 0.147 0.093 0.197 0.164 0.051 0.07 0.082 0.153 0.091 0.239 9e-3 0.087-5e-3 0.174-0.04 0.253 7e-3 0.087-8e-3 0.174-0.044 0.252-0.037 0.079-0.093 0.147-0.163 0.198-0.071 0.05-0.154 0.081-0.24 0.09s-0.173-5e-3 -0.253-0.04z" fill="#45aaf7"/>
  <path d="m301.1 159c-1.344 4.293-2.215 8.719-2.6 13.2" stroke="#000" stroke-linecap="round" stroke-miterlimit="10" stroke-width="2"/>
  <path d="m307 211c-9.1 8.2-16.8 5.9-20.4 5.5s-3.2-3-3.5-5.2-0.5-5.5-0.5-5.5c-9.1-0.6-10.2-6.8-10.4-12.3s-1.6-6.3-2.3-10.2c-10.972-1.971-21.342-6.441-30.308-13.066-8.966-6.624-16.285-15.225-21.392-25.134l9.5-6.9 21.2 13.8c14.3-5.3 22.2-8 29.9-8.5s15.3 2.4 17.8 13.1 2.8 14 5.1 19.1c0.6 1.3 1.6 3.1 2.6 5 2.8 5.7 5.7 13.7 0 22.4 0.695 2.699 1.598 5.341 2.7 7.9z" fill="#8cd9ff"/>
  <path d="m233.7 165.3c-0.3-7.1 2.4-12.1 7.3-12.9l-12.4-8.6-9 3.9c2.3 6.4 8.2 13.4 14.1 17.6z" fill="#000"/>
  <path d="m289.6 212.9 0.2-1.3c-1.8-0.3-1.9-1.6-2.4-7.7v-0.8l-0.4-0.2c-4-1-6.7-3.4-6.9-11.5-0.034-3.847-0.815-7.651-2.3-11.2-0.388-0.833-0.69-1.705-0.9-2.6-0.2-0.8-0.5-1.6-0.7-2.3-1.129-2.823-1.441-5.907-0.9-8.9 0.4-3.1 0.1-4.8-0.9-5.7s-3.5-0.6-7.2 0.6h-0.5c-5.9 1.9-17.7 5.8-29.6 6.8l1.5 1.1c11.6-1.1 22.8-4.8 28.5-6.6l0.5-0.2c3-1 5.1-1.5 6-0.8s0.7 2 0.4 4.5c-0.533 3.199-0.188 6.483 1 9.5 0.259 0.716 0.46 1.452 0.6 2.2 0.3 0.9 0.6 1.8 1 2.7 1.427 3.424 2.174 7.092 2.2 10.8 0.2 7.5 2.3 11.2 7.4 12.7 0.4 6.1 0.6 8.4 3.4 8.9z" fill="#66bcff"/>
  <path d="m254.1 125.7c-2.9-2.5-5.1-2.3-8.6-0.8-3.7-3.4-8.5-3.9-13.5-2.2s-12.7 4-17.2 5.2c-0.251 0.094-0.524 0.113-0.786 0.056-0.262-0.058-0.502-0.189-0.692-0.378-0.189-0.19-0.32-0.43-0.377-0.692-0.058-0.262-0.038-0.535 0.055-0.786l3.3-12c-10.7 8-14.2 25.1-10.8 34.4s18.2 9.2 22.9 6.6 6.3-3.4 11.7-2.4 9.6 1.7 16.7-3.7l4.2-1.4c1.6-9.1 0.2-15.7-6.9-21.9z" fill="#3442d9"/>
  <path d="m254.1 125.7c-2.9-2.5-5.1-2.3-8.6-0.8-3.7-3.4-8.5-3.9-13.5-2.2s-12.7 4-17.2 5.2" stroke="#000" stroke-linecap="round" stroke-miterlimit="10" stroke-width="2"/>
  <path d="m245.5 124.9c2.987 2.313 5.474 5.207 7.313 8.506 1.839 3.3 2.991 6.938 3.387 10.694" stroke="#000" stroke-linecap="round" stroke-miterlimit="10" stroke-width="2"/>
  <path d="m275.8 121.9c0.045-0.138 0.06-0.284 0.043-0.429-0.017-0.144-0.065-0.283-0.142-0.406-0.076-0.124-0.178-0.23-0.299-0.31s-0.258-0.133-0.402-0.155h-1c-0.278-0.061-0.569-0.011-0.811 0.138-0.243 0.149-0.418 0.386-0.489 0.662l-0.9 3.3c-0.046 0.146-0.058 0.3-0.035 0.451s0.08 0.294 0.166 0.42c0.087 0.125 0.202 0.229 0.335 0.304 0.133 0.074 0.282 0.117 0.434 0.125h1c0.263 0.034 0.529-0.029 0.75-0.176 0.22-0.147 0.38-0.368 0.45-0.624z" fill="#29cc7a"/>
  <path d="m265.76 77.637c-1.835-5.2226-0.84365-9.091 0.0843-12.813-2.9603-0.44454-9.093-2.4134-11.771-5.6618-2.6707 2.7742-8.6936 3.8959-13.378 3.2384 0.84678 5.371-0.77584 9.3-1.6985 11.857 5.6 1 9.5923 3.3856 13.025 6.5422 4.7022-2.5989 7.1856-3.0605 13.739-3.1627z" fill="#ffc619"/>
  <g stroke="#000" stroke-linecap="round" stroke-miterlimit="10" stroke-width="2">
   <path d="m272.8 138.2-5.7-0.8"/>
   <path d="m283.2 137.9 3.2 0.5"/>
   <path d="m254.08 59.163c2.5-5.6 0.0994-9.9491-0.60065-12.149"/>
   <path d="m265.85 64.824c3.412-0.42317 5.3868-3.3515 7.0851-5.6757"/>
   <path d="m252.03 80.8c0.13503 1.8873-0.79165 4.4076-1.9514 5.3122"/>
   <path d="m239 74.258c-3.7 2.6-9.3 2.2-13.2 1"/>
   <path d="m240.7 62.401c-1.4-2.9-4-6.2-6.4-7.3"/>
   <path d="m265.76 77.637c1.5441 1.1966 5.2106 2.1461 7.0216 1.0554"/>
  </g>
  <path d="m253.4 106.6c1.2 13.8-5.8 20.4-8 34.1" stroke="#fff" stroke-linecap="round" stroke-miterlimit="10" stroke-width="3.0059"/>
  <g stroke="#000" stroke-linecap="round" stroke-miterlimit="10" stroke-width="2">
   <path d="m269.1 183.4c-1.8-5.9-2.6-16.7 2.3-26.2"/>
   <path d="m268 168.7c-1.128-2.192-1.679-4.636-1.6-7.1"/>
   <path d="m218.7 126.8-7.4 2.4"/>
   <path d="m292.2 125.9 5 1.4"/>
  </g>
  <path d="m381.4 192.2c-0.549 0.802-1.186 1.54-1.9 2.2-3.2 3.2-10.5 6.8-14.4 8.3-2.967 0.939-5.696 2.508-8 4.6-2.9 2.3-6.5 5.4-9 3.6-3.149-2.899-6.027-6.079-8.6-9.5-0.146-0.179-0.241-0.394-0.276-0.623-0.036-0.228-9e-3 -0.462 0.076-0.677 1.4-4 5.9-9.7 12.4-12.7 0.215-0.085 0.449-0.112 0.677-0.076 0.229 0.035 0.444 0.13 0.623 0.276 3.8 2.7 6.1 3.4 9.2 3.3s9.1-2.1 14-3.5 5 0.8 5.2 4.8z" fill="#ffc619"/>
  <path d="m342.3 204.9c1.786 2.138 3.724 4.143 5.8 6 2.5 1.8 6.1-1.3 9-3.6 2.304-2.092 5.033-3.661 8-4.6 3.9-1.5 11.2-5.1 14.4-8.3 0.714-0.66 1.351-1.398 1.9-2.2-0.2-4-1.1-6-5.2-4.8s-6.4 2.2-9.4 2.9c-0.892 0.239-1.701 0.721-2.337 1.391-0.635 0.671-1.073 1.505-1.263 2.409-0.1 1.1-0.3 2.2-0.5 3.5-5.4-1.1-10.6 0.7-11.7 7.8 0 0-4.6-2.5-8.7-0.5z" fill="#ffe75c"/>
  <path d="m379.5 194.4 1.9-2.1c0.127-0.211 0.196-0.453 0.2-0.7-0.092-0.758-0.295-1.499-0.6-2.2-0.8 1.5-2.2 3-5.3 5.3-4.9 3.6-10.4 4.9-13.7 6-3.021 1.126-5.778 2.862-8.1 5.1-1.825 2.062-4.23 3.525-6.9 4.2l1.1 0.9c2.5 1.8 6.1-1.3 9-3.6 2.304-2.092 5.033-3.661 8-4.6 3.9-1.5 11.2-5.1 14.4-8.3z" fill="#fff"/>
  <path d="m318.5 198.9c-5.1-1.4-10.3 1-14.9 9.7-1.3-1-4.5-2.1-9.3-1.2s-6.6 3-7.4 4.6c-0.476 0.924-0.617 1.984-0.4 3 0.3 1.3 0.7 3 1.3 5.8 0.9 4.3 0.4 8.1 2.8 8.5l33.6-24.2s0.9-4.4-5.7-6.2z" fill="#ffc619"/>
  <path d="m318.5 198.9c-5.1-1.4-10.3 1-14.9 9.7-0.638 1.302-1.206 2.637-1.7 4-5.3-0.5-7.8 1.8-8.7 6.9 0 0-3.5-2.4-5.6 0.4 0.1 0.3 0.1 0.6 0.2 0.9 0.9 4.3 0.4 8.1 2.8 8.5l33.6-24.2s0.9-4.4-5.7-6.2z" fill="#ffe75c"/>
  <path d="m324.2 203.7-2.5-2.3c-4.3-0.7-7.9-0.8-11.7 3.5s-6.3 9-10.3 11.8c-5.7 4.2-10.5 5.9-11.2 9s0.7 3.4 2.1 3.6l33.6-24.2c0.123-0.458 0.123-0.941 0-1.4z" fill="#fff"/>
  <path d="m319.9 199.9 2.4 0.7c0.209 0.034 0.407 0.114 0.58 0.235 0.174 0.122 0.317 0.281 0.42 0.465 0.927 1.566 1.313 3.393 1.1 5.2l-8.8-1.6c2.9-1.4 3.9-2.7 3.6-4.4-0.03-0.094-0.032-0.194-5e-3 -0.289s0.081-0.179 0.156-0.243c0.075-0.065 0.167-0.105 0.264-0.117 0.098-0.012 0.197 5e-3 0.285 0.049z" fill="#fff"/>
  <path d="m290.8 229.4c8.6 1.7 12.4-1 16.1-4.8 1.535-1.698 3.322-3.148 5.3-4.3 5.1-2.9 9.1-6 11.8-10.9s-5.6-8.1-11-3.6-5.7 9.8-16.4 16.4c-7.3 4.6-8.3 6.7-5.8 7.2z" fill="#000"/>
  <g fill="#fff">
   <path d="m292.02 213.79c0.05-0.992-0.401-1.822-1.008-1.853-0.606-0.031-1.139 0.749-1.189 1.742-0.051 0.993 0.401 1.823 1.007 1.853 0.607 0.031 1.14-0.749 1.19-1.742z"/>
   <path d="m399.69 173.52c0.51697-0.8899 0.8881-1.8565 1.098-2.8643-0.0123-0.14088-0.0247-0.28176-0.16553-0.26944l-0.0766-0.0643c-0.1532-0.12855-0.21748-0.052-0.28176 0.0246-0.96683 1.9301-2.3563 3.8972-4.0989 4.2626 2.9189 0.0995 3.4085-0.79507 3.5247-1.0892z"/>
   <path d="m346.02 201.63c0.917-0.205 1.406-1.507 1.092-2.909-0.313-1.401-1.31-2.371-2.226-2.166s-1.405 1.507-1.092 2.908 1.31 2.371 2.226 2.167z"/>
  </g>
  <path d="m326.69 321.66c32.404 27.19 70.298 36.012 131.07 34.528 60.772-1.4839 81.513-1.3111 99.43-2.5946 17.917-1.2836 22.434-8.0671 27.586-24.63 5.1521-16.563 0.3031-17.63 0.3031-17.63 7.7434-10.473 11.835-35.106 12.23-57.358 0.39561-22.252-7.839-25.506-19.636-35.405-11.797-9.8989-18.404-9.9598-35.517-0.29978-17.113 9.66-40.316 10.554-68.877-5.9698-28.56-16.524-42.003-28.196-53.17-16.288-11.167 11.908-28.54 34.012-53.841 41.762-19.274-4.8787-37.938-11.913-55.638-20.969-10.404-5.3361-17.064-1.1334-24.206 5.6668-7.142 6.8002-7.4846 13.431-8.0217 17.027-5.3659 0.3275-5.7815 2.0674-9.9183 9.9533-1.6369 3.1954-3.1972 6.455-4.577 9.344-0.94874 2.145-1.1743 4.5404-0.64158 6.8242 0.5327 2.2837 1.7951 4.3325 3.5947 5.836z" fill="#66bcff"/>
  <path d="m286.43 222.47c-7.142 6.8002-7.4846 13.431-8.0217 17.027l54.196 57.225 65.201 40.22s64.207 1.2678 67.611-13.368-15.649-14.176-38.637-16.494c-22.988-2.3187-38.927-14.127-54.195-31.246-15.268-17.119-30.099-42.227-61.949-59.031-10.404-5.3361-17.064-1.1334-24.206 5.6668z" fill="#45aaf7"/>
  <path d="m565.94 319.68c-58.975 4.166-92.96 5.1518-137.27 2.5687-44.305-2.5831-60.92-7.5177-83.825-26.737-22.905-19.219-26.814-44.43-66.441-56.011-5.3659 0.3275-5.7815 2.0674-9.9183 9.9533-1.6369 3.1954-3.1972 6.455-4.577 9.344-0.94874 2.145-1.1743 4.5404-0.64158 6.8242 0.5327 2.2837 1.7951 4.3325 3.5947 5.836l59.828 50.202c32.404 27.19 70.298 36.012 131.07 34.528 60.772-1.4839 81.513-1.3111 99.43-2.5946 17.917-1.2836 22.434-8.0671 27.586-24.63 5.1521-16.563 0.3031-17.63 0.3031-17.63-2.8926 3.4472-5.7481 7.317-19.144 8.3471z" fill="#fff"/>
  <path d="m584.46 330.13c-3.8048 4.3788-10.805 7.1206-24.097 7.7157-25.957 1.0642-79.381 2.97-115.21 3.1941-39.424 0.46799-74.348-1.1614-102.69-24.945-9.882-8.292-18.948-19.424-27.771-30.221-15.505-19.015-30.283-37.029-46.626-35.599-0.30907 0.5239-0.60582 1.1887-0.91488 1.7126 15.922-2.1738 30.701 15.84 46.282 34.919 8.9002 10.862 18.042 22.058 28.001 30.414 28.727 24.105 65.494 25.715 103.65 25.357 35.89-0.30073 89.455-2.2188 115.27-3.2707 9.7579-0.42782 17.662-1.7582 22.965-6.0551z" fill="#ffe75c"/>
  <path d="m570.38 285.29c-16.375 3.4911-22.475 5.1605-28.245 18.726-2.5421 5.8299-4.9583 12.288-6.9739 17.646l30.774-1.9826c13.396-1.0301 16.252-4.8999 19.144-8.3471 6.5987-8.953 10.595-28.184 11.813-47.526-0.95636 10.163-10.138 17.993-26.513 21.484z" fill="#45aaf7"/>
  <path d="m570.69 263.61c18.982-13.444 28.165-25.32 18.021-35.789-3.0369-3.0704-6.8178-5.7208-11.031-9.2561-11.874-9.9632-18.404-9.9598-35.517-0.29978-17.113 9.66-40.316 10.554-68.877-5.9698-28.56-16.524-42.003-28.196-53.17-16.288-11.167 11.908-28.54 34.012-53.841 41.762-3.987 1.4845-3.6789 5.0066 19.226 24.226 22.905 19.219 37.697 29.282 49.562 22.92 11.865-6.3616 34.929-22.647 44.629-28.606 9.6999-5.9592 13.226-11.094 31.362-1.7501 18.137 9.3443 41.396 22.073 59.635 9.0498z" fill="#8cd9ff"/>
  <path d="m499.37 241.11c16.499 5.2287 24.191 13.641 42.421 18.364 18.229 4.7224 23.771 1.5403 32.515-5.6129 8.7436-7.1532 18.313-16.224 11.001-23.534-7.3118-7.3102-14.693-12.982-19.322-14.777s-7.4122-0.34524-18.068 4.42-22.599 15.109-46.698 8.2024z" fill="#000"/>
  <path d="m523.75 346.94c-7.222 0.20596-11.616-2.9587-9.8353-6.9474 1.7805-3.9887 9.065-7.5363 16.223-7.6656l12.536-0.31596c7.222-0.20596 11.616 2.9587 9.8353 6.9474-1.7805 3.9887-9.1416 7.472-16.223 7.6656z" fill="#ffa8d2"/>
  <path d="m573.27 290.72-4.1006 0.99758c-12.672 2.8122-17.337 3.8591-27.936 29.559l1.7672-0.0836c10.018-24.229 14.259-25.239 26.445-27.938l4.1772-0.93331c10.149-2.4495 17.246-7.3292 21.657-12.897l0.42092-3.3019c-3.9263 6.2349-11.308 11.92-22.431 14.597z" fill="#5865f2"/>
  <path d="m581.64 231.43 13.312 8.5597c2.108 1.3772 6.4613-2.4108 11.932-7.2192 5.4706-4.8084 12.895-15.679 12.895-15.679l-15.56-6.6595z" fill="#ff78b9"/>
  <path d="m640.88 228.66c-0.31159-10.052-9.5161-51.977-9.5161-51.977l-13.52 3.6672s0.62146 16.839 1.427 28.48c-13.399-9.5459-38.581-25.585-38.581-25.585-13.387-16.716-18.919-23.969-18.919-23.969l29.724-1.8197 1.5331-14.117s-23.88-3.5893-38.615-4.0746c-14.735-0.48534-23.39 6.8731-20.427 20.455 2.9629 13.582 4.126 17.952 4.126 17.952l49.62 51.166c19.662 8.9269 33.21 12.071 43.134 11.913 9.9235-0.15838 10.327-2.0392 10.015-12.091z" fill="#ffc619"/>
  <path d="m553.13 150.59c1.658 1.9134 4.2572 5.661 4.2572 5.661" stroke="#000" stroke-linecap="round" stroke-linejoin="round" stroke-width="2"/>
  <path d="m630.39 171.16-13.088 4.5521 0.85744 11.424c3.8558-0.55029 9.1258-2.7859 13.462-9.1987z" fill="#000"/>
  <path d="m561.72 181.42c0.23087-15.21 0.90453-21.302 3.1649-27.108 1.6915-4.1939 6.5317 3.2615 12.837 12.86s3.0104 10.881-16.002 14.248z" fill="#ff78b9"/>
  <path d="m562.27 159.3c-15.001 2.1642-24.024 12.607-35.587 28.099 0 0-24.578 2.2213-32.498 15.549s6.0699 33.682 27.023 50.871c16.828 13.86 21.945 11.495 30.098 4.8907 5.2259-4.3612 10.865-9.6812 15.181-13.892 4.5175-4.4426 9.7017-8.1534 15.363-10.998 30.256-15.211 29.182-30.732 29.182-30.732l-29.595-21.047z" fill="#ff78b9"/>
  <path d="m578.81 152.03c-10.561-0.63761-15.353 7.8734-14.645 25.699l0.66558 7.6077 30.399 18.067c17.514-3.4488 21.807-11.987 22.394-19.066 10.409-3.5369 14.893-8.2591 18.545-12.766 6.2227-7.5715 9.3038-25.089-7.9841-39.335-9.41-7.7654-20.769-11.03-33.719-1.6637-4.5435 3.2367-10.43 9.7851-15.655 21.457z" fill="#ffe75c"/>
  <path d="m633.89 153.6c0.20549 0.17047 0.37314 0.38294 0.49083 0.62229 0.11845 0.23998 0.18453 0.50194 0.19431 0.76875 0.0105 0.26753-0.0364 0.53341-0.13619 0.78149-0.0997 0.248-0.25102 0.47184-0.44332 0.65746l-9.5969 9.5702c-2.2182 2.0912-5.1099 3.3221-8.1543 3.4717-3.0452 0.14894-6.043-0.79312-8.4549-2.6574l-2.0683-1.7355c-2.4585-2.0235-4.0959-4.8731-4.606-8.016-0.51013-3.1429 0.14188-6.364 1.8344-9.0608l2.5095-3.7686c0.28482-0.453 0.39453-0.99446 0.30906-1.5227-0.0855-0.52822-0.36002-1.0069-0.77306-1.3469-0.42062-0.35594-0.95864-0.54084-1.5084-0.51886-0.54981 0.022-1.0719 0.24908-1.4625 0.63681l-5.0877 5.1298c-1.6995 1.68-3.9592 2.6741-6.3459 2.7914-2.3868 0.11725-4.7329-0.65092-6.588-2.1567-1.1325-0.87967-2.0601-1.9943-2.7191-3.2672-0.65898-1.2729-1.034-2.6741-1.0986-4.1062-0.0646-1.4321 0.18275-2.861 0.72456-4.1881 0.54188-1.3272 1.3658-2.5206 2.4144-3.4981l9.6612-9.6469c0.40136-0.36787 0.91936-0.58227 1.4635-0.60383 0.54411-0.0215 1.0783 0.15083 1.5073 0.48588z" fill="#000"/>
  <path d="m634.56 154.82 1.6076 16.753-1.5427 1.8385-3.7808-14.007z" fill="#000"/>
  <g fill="#ff78b9">
   <path d="m611.1 203.01c-0.89437-7.6913-3.3062-15.128-7.0959-21.88-3.5009-5.94-4.2643-7.3638-7.7916-5.4936-3.5274 1.8702-7.4528 4.0591-8.8123 4.7459s-9.8838-0.19999-15.492-0.20622c-5.608-6e-3 -14.005 2.9998-14.005 2.9998l32.682 31.992z"/>
   <path d="m619.25 208.54 0.53438 8.5419c-7.4677 4.6992-15.519 11.65-23.806 19.97l-18.942-13.675 33.999-20.294z"/>
   <path d="m562.27 159.3-2.7798-3.3768c-0.44414-0.49747-0.99029-0.89204-1.6019-1.1572-0.61157-0.26527-1.2734-0.3944-1.9396-0.37835-6.6136 0.26651-12.959 2.6911-18.064 6.9039-5.881 4.9863-6.0889 5.8563-2.3688 15.113 2.4627 6.2438 16.135-0.55983 24.769-5.716 0.95913-0.54721 1.786-1.2993 2.4205-2.2032 0.63525-0.90331 1.063-1.9358 1.2527-3.0237 0.1889-1.0886 0.13603-2.2048-0.15561-3.2698-0.29171-1.065-0.81536-2.0526-1.5327-2.8919z"/>
  </g>
  <path d="m515.48 221.6c-0.12924-11.757-1.558-23.463-4.2604-34.905l-24.68-5.4357-8.4206 21.392s-0.28892 9.6787 0.14421 17.875c0.43312 8.1959 8.0416 14.841 21.262 28.023 13.397-5.076 16.024-13.185 15.955-26.949z" fill="#2835bd"/>
  <path d="m481.67 205.11 7.7671-6.1451" stroke="#000" stroke-linecap="round" stroke-linejoin="round" stroke-width="2"/>
  <path d="m550.37 245.52c1.7708-4.9106 0.0644-11.434-18.009-28.165l-1.0574-12.897-31.787-1.4779c-2.876 17.429-6.8253 38.004 0.0118 45.569 6.8371 7.5646 14.258 12.878 28.143 14.999 8.843 1.2848 11.023 0.24227 13.748-2.6934 3.7054-4.654 6.7203-9.8183 8.9506-15.334z" fill="#3442d9"/>
  <path d="m570.69 263.62c-18.238 13.024-41.434 0.21791-59.635-9.0498-16.424-8.4294-20.815-5.0641-28.668 0.0948l-8.1042-11.5 8.999-10.725 16.091 8.6715c16.499 5.2287 24.191 13.641 42.421 18.364 18.229 4.7224 23.771 1.5403 32.515-5.613 5.174-4.1437 10.697-9.1696 12.749-14.105l3.8522 4.2767c-3.2219 6.1733-10.389 12.692-20.22 19.585z" fill="#8cd9ff"/>
  <path d="m440.28 182.25c-1.5319-0.2372-3.0991 0.0483-4.4485 0.81011-1.3502 0.76121-2.4034 1.9557-2.992 3.3899-3.6921 8.9117-7.2601 15.186-23.727 30.61s-27.885 22.03-32.45 24.204c-0.2743 0.12621-0.51463 0.31617-0.70186 0.5533-0.18582 0.237-0.31263 0.5157-0.37048 0.81178-0.0571 0.29672-0.0431 0.60214 0.0411 0.89218 0.0843 0.29003 0.23678 0.55635 0.44474 0.77524 7.487 8.5015 20.485 19.147 36.123 29.136 2.6394 1.6834 5.6791 2.6362 8.8076 2.7614s6.2338-0.58087 9.0001-2.048c11.168-5.9514 21.894-12.702 32.091-20.198 22.873-16.836 21.939-16.967 37.277-12.844 5.521-8.2909 11.704-15.504 4.3307-23.519-8.6237-9.3248-23.18-13.446-41.819-22.036-0.87605-5.9567-2.7313-10.124-21.606-13.3z" fill="#45aaf7"/>
  <path d="m489.64 207.75c-7.6438-3.803-17.03-7.2407-27.756-12.194-0.66386-4.3427-1.8173-7.7908-9.8617-10.494-0.70525 0.38467-1.3788 0.82334-2.0146 1.312-14.264 11.398-38.306 29.472-21.651 41.36 16.656 11.887 26.195 4.0965 32.806-4.7157 6.611-8.8122 9.5362-14.321 13.049-15.551 3.5124-1.23 12.245-1.2132 15.428 0.28282z" fill="#287ceb"/>
  <path d="m487.39 238.89c6.4482-9.8626 9.3583-14.731 8.3211-18.473s-2.3298-3.913-6.1257-5.9233c-3.7959-2.0103-8.8844-4.1914-15.379-7.0302-12.107-5.329-27.232-11.885-31.571-16.048l-1.3392-1.5154c2.0366-0.24917 10.617 2.9041 16.334 4.9593l4.0284 1.4221c0.0868 0.0428 0.1812 0.0672 0.27747 0.0723 0.0969 4e-3 0.1935-0.0113 0.2835-0.0454 0.0906-0.0349 0.17264-0.0875 0.24188-0.15603 0.0686-0.0677 0.12253-0.14913 0.15868-0.23889l-0.74139-0.36102-0.15056-0.90958-3.5934-1.3182c-13.338-4.7954-17.342-5.9358-18.333-4.2874-0.99149 1.6483 0.41469 2.3061 1.7293 3.5397 4.4924 4.2917 19.105 10.679 32.095 16.357 6.4181 2.7746 11.954 5.2005 15.162 6.9783 3.2077 1.7778 4.9696 3.2562 5.3993 4.9222 0.42968 1.666-2.3845 8.4424-8.9736 18.317z" fill="#000"/>
  <g fill="#5865f2">
   <path d="m584.76 130.79 23.425 1.6416-5.5032-4.4872-14.068-0.96961z"/>
   <path d="m580.77 142.71c0.64048 1.7834 1.76 3.3553 3.2367 4.5435 1.8552 1.5057 4.2013 2.2739 6.588 2.1567 2.3868-0.11724 4.6464-1.1113 6.3459-2.7914l2.5438-2.5649z"/>
   <path d="m633.89 153.6-6.0518-5.078-24.001-1.7331-0.96418 1.1491c-0.82165 1.3292-1.3913 2.7985-1.6792 4.3348l33.294 2.4817c-0.0721-0.43831-0.28132-0.84241-0.59785-1.1544z"/>
   <path d="m624.4 166 4.6378-4.5936-27.355-1.9365c0.84134 2.1866 2.2322 4.1181 4.0398 5.6089l2.0683 1.7355c2.4119 1.8644 5.4097 2.8064 8.4549 2.6574 3.0444-0.14959 5.9362-1.3805 8.1543-3.4717z"/>
  </g>
  <path d="m589.74 153.63c2.418 1.269 4.5346 3.045 6.205 5.2066" stroke="#000" stroke-linecap="round" stroke-linejoin="round" stroke-width="2"/>
  <path d="m474.51 160.59c-0.11623 0.29409-0.16819 0.51158-0.0916 0.57586 0.0766 0.0643 0.21749 0.052 0.48693-0.11359" fill="#000"/>
  <path d="m490.49 167.99c-10.973-3.7247-28.197-6.6896-42.848-9.4537-8.0867-1.5639-11.315-1.1395-13.096 6.8952-1.7814 8.0347-0.76537 18.025 0.28589 25.173s4.635 7.5443 9.3704 8.1238l33.917 3.9178 33.101-15.956c-1.9978-7.4202-9.616-14.987-20.73-18.7z" fill="#2835bd"/>
  <path d="m441.61 178.8c2.9453 3.6463 2.6239 4.0293 9.3687 4.8588 6.7448 0.82953 39.85 6.025 43.293 6.4336" stroke="#4150f2" stroke-linecap="round" stroke-miterlimit="10" stroke-width="2"/>
  <path d="m529.25 186.68c-1.326-5.4205-3.5722-7.5663-20.825-24.654s-24.302-26.266-29.275-24.695-10.129 11.604-13.319 19.762c-3.1902 8.158-3.7001 11.255-0.90533 13.991 2.7947 2.7367 29.907 27.053 34.59 31.896l-1.0717 6.411 33.916 7.9638s-1.8602-25.319-3.1096-30.676z" fill="#3442d9"/>
  <path d="m442.39 170.71c-1.4466-7.6103-2.7066-9.8425-4.2916-6.8646s-1.8237 9.1741-1.5111 15.18c0.31252 6.006 1.0204 12.474 2.4389 13.273 1.4185 0.79865 1.8914-2.7208 3.0617-8.0048 0.96199-4.4679 1.0641-9.0778 0.30217-13.584z" fill="#000"/>
  <path d="m442.75 180.55-6.08-0.53279-5.0049-0.4139c-6.0676-0.3919-6.3996 3.1152-8.2787 5.9769-1.8791 2.8617-4.3287 4.0697-6.0906 2.5913-1.7619-1.4784 1.8043-11.018 2.9226-16.084 1.1183-5.0665-2.5551-12.979-3.4462-18.295-0.33809-2.2418 0.96246-4.414 3.0854-3.677 0.14619-1.5744 1.3481-4.8737 4.2891-3.7113 2.9409 1.1623 2.8528 8.2681 3.6752 11.177 0.82237 2.9092 2.1686 6.1276 4.5733 6.8399 1.6636 0.47695 3.3558 0.84991 5.0665 1.1183l3.9544 0.57678 0.97028 4.5998c0.55247 3.248 0.67492 6.5542 0.36354 9.8345z" fill="#ff78b9"/>
  <path d="m570.69 263.62c-18.238 13.024-41.434 0.21791-59.635-9.0498s-21.598-4.2857-31.362 1.7501c-9.7642 6.0358-32.828 22.321-44.629 28.606l76.075 12.793 54.004-22.044z" fill="#66bcff"/>
  <path d="m442.39 170.71-0.97028-4.5998c-0.62517-0.65511-1.0082-0.97651-1.5074-1.0038-0.49926-0.0273-0.55121 0.19019-0.796 0.63749 2.019 1.172 3.75 7.9767-1.3033 14.31 0.61019 1.2952 0.8893 2.0516 1.4652 2.1432 0.57586 0.0916 2.012-0.53093 3.4754-1.6527 0.31138-3.2803 0.18893-6.5865-0.36354-9.8345z" fill="#000"/>
  <path d="m419.52 184.28c1.6765-3.5538 4.0857-11.714 3.8568-15.953-0.22889-4.2388 0.93966-12.788 1.3333-15.59s-0.66559-7.6077-3.0906-6.1179c-1.0075 0.89732-1.6344 2.1454-1.7532 3.4895-2.1229-0.73701-3.4235 1.4352-3.0854 3.677 0.89103 5.3166 4.7326 12.717 3.4462 18.295-1.2865 5.5781-4.6642 12.404-3.4835 15.353l0.48428 0.66743c0.4473 0.24479 1.1174-1.0205 2.292-3.8205z" fill="#de3a93"/>
  <path d="m622.85 119.93c-3.2664 1.9217-5.8643 4.7999-7.4414 8.246-0.29132 0.59454-0.36961 1.2712-0.22245 1.9173 0.14647 0.64532 0.51019 1.2215 1.0298 1.6321l4.6729 3.921c0.51815 0.43883 1.1235 0.76285 1.7765 0.95074 0.65229 0.18718 1.3373 0.23421 2.0097 0.13763 5.3412-0.60926 11.117 2.9314 13.686 7.9592l5.2673-1.4546c0.53767-0.12426 1.0132-0.43744 1.339-0.88316 0.32568-0.4457 0.48093-0.9932 0.43621-1.5435-0.48084-4.1439-1.8559-8.1338-4.0303-11.694s-5.0956-6.6048-8.5627-8.9246c-1.4732-0.96219-3.1842-1.4962-4.9427-1.5427-1.7585-0.0465-3.4962 0.39554-5.0177 1.2784z" fill="#ff8c19"/>
  <path d="m599.3 233.71c-3.3275 3.3433-3.7432 5.0832-1.6792 4.3348 1.6888-0.81 3.2262-1.9049 4.5435-3.2367z" fill="#000"/>
  <g stroke="#000" stroke-linecap="round" stroke-linejoin="round" stroke-width="2">
   <path d="m609.85 202.48c-7.295-4.6853-11.936-6.6216-16.516-7.8535"/>
   <path d="m619.47 218.39 0.45606 5.2127"/>
   <path d="m579.88 231.51s-5.5684-0.3646-9.3326-0.39018"/>
  </g>
  <path d="m566.2 186.36-8.1977 8.5251-4.06-3.4068c2.727-2.7676 5.6592-5.3255 8.7709-7.6525 0.56673-0.36737 1.1906-0.63787 1.8465-0.80038v0c2.0892-0.4207 4.2254-0.55983 6.352-0.41369l11.483 0.62794c3.2288 0.20317 6.4459-0.54741 9.2516-2.158 3.1813-1.7689 7.1711-4.0345 8.2858-4.274" stroke="#f551a0" stroke-linecap="round" stroke-linejoin="round" stroke-width="2"/>
  <path d="m619.35 209.67c-10.031 5.4204-25.125 16.252-27.972 25.09-0.25178 0.84612-0.41337 1.717-0.48255 2.5975l1.6606 1.1324c-0.0753-1.0879 0.0449-2.1802 0.35665-3.2253 2.4981-7.9555 16.233-18.101 26.521-23.827z" fill="#f551a0"/>
  <path d="m533.05 168.46c3e-3 0.61869 0.10427 1.2323 0.30112 1.8192 8.2866-8.3199 18.327-12.818 27.724-12.505l-1.3392-1.5154c-9.0782 0.0844-18.708 4.405-26.686 12.201z" fill="#f551a0"/>
  <path d="m583.31 233.48-9.3387-6.1391" stroke="#000" stroke-linecap="round" stroke-linejoin="round" stroke-width="2"/>
  <path d="m544.65 256.38c-4.7997-0.50283-13.947-2.8258-18.854-5.3776-1.2114-0.65492-2.3501-1.4355-3.3979-2.329-1.7113-1.3302-3.0706-3.0582-3.961-5.0338-0.88981-1.9763-1.2841-4.1387-1.1476-6.3021l0.70891-8.9346c0.66664-7.7952 1.3782-17.511 1.9013-24.513 0.0519-0.21749 0.11623-0.29409 0.10391-0.43498 0.84277-10.65 0.75742-15.682-2.3164-19.175-3.0739-3.493-12.491-12.961-29.183-29.317-4.1859-4.0346-4.9397-4.5365-7.4536-3.2518-0.0875 0.0545-0.18596 0.0894-0.28779 0.10183-0.10183 0.0125-0.20564 2e-3 -0.30284-0.0296-0.098-0.0326-0.18703-0.0851-0.26207-0.15594-0.0751-0.0708-0.13301-0.1573-0.17046-0.25268-0.0857-0.18416-0.10661-0.39101-0.0593-0.58892 0.0466-0.19715 0.15901-0.37308 0.3191-0.49852 3.7325-1.9591 5.4425-0.26322 9.322 3.5143 9.7111 9.5846 26.403 25.94 29.336 29.446s3.4084 10.562 2.6325 20.354c-0.0643 0.0766-0.052 0.21749-0.0396 0.35837-0.52311 7.0019-1.3756 16.73-1.9013 24.513l-0.7732 9.0112c-0.36195 4.7874 2.5164 9.2913 7.6542 12.036 5.1378 2.7446 15.347 5.0455 19.136 5.3529-0.29295 0.52959-0.62859 1.0338-1.0038 1.5074z" fill="#5865f2"/>
  <path d="m480.43 140.62c-3.957 0.20424-6.2148 5.2284-9.375 12.106s-5.4876 13.541-4.3631 14.223c1.1244 0.68242 3.3319-0.85935 6.0043-3.5775 2.6724-2.7181 6.9668-7.9915 9.0959-12.863 2.1292-4.871 1.6731-10.084-1.362-9.8891z" fill="#000"/>
  <path d="m474.91 161.05-5.0902-5.4461c-2.4364-2.6971-5.0013-5.2409-7.6305-7.7082-3.3002 2.844-7.9846 6.0931-11.007 6.4285-3.0228 0.33545-5.7929-2.1195-2.8854-6.2068s7.7011-9.3334 14.686-22.792c2.6161-4.9846 3.052-8.9267 5.1388-12.658 2.0868-3.7315 4.3753-2.7251 5.8034-1.0045 1.4168-2.4663 3.884-5.0955 6.8866-3.2288 3.0026 1.8667 2.1466 5.0648-0.36022 8.0524 0.85948-0.21688 1.7669-0.13464 2.5738 0.23392 0.80609 0.36793 1.4627 0.99956 1.8622 1.7913 1.26 2.2321-0.28534 4.8517-3.6005 8.3358-3.3152 3.4842-6.67 7.3267-6.2307 9.9146 0.43935 2.5879 1.208 2.4496 3.0958 4.5558l4.8234 4.8306c-0.19958 1.4995-0.59648 2.9666-1.18 4.3621-1.8337 3.7939-4.148 7.336-6.8858 10.54z" fill="#ff78b9"/>
  <path d="m474.91 161.05c2.7378-3.2037 5.0521-6.7458 6.8858-10.54 0.58347-1.3954 0.98037-2.8625 1.18-4.3621l-0.68944-0.57851c-0.14181 4.0583-4.3922 11.457-10.349 12.333 0.12467 0.72729 0.37812 1.4256 0.74842 2.0639 0.59524 0.60521 1.3797 0.98801 2.2242 1.0831z" fill="#000"/>
  <path d="m481.17 123.1c3.3274-3.3432 2.0851-6.9965-0.72026-6.6091 2.5069-2.9876 3.4394-6.1213 0.36022-8.0524-3.0792-1.931-5.4698 0.76247-6.8866 3.2288-1.4282-1.7206-3.7809-2.6504-5.8034 1.0045-2.0226 3.655-2.5228 7.6737-5.1388 12.658-6.9853 13.459-11.277 17.951-14.686 22.792-0.75891 0.91533-1.207 2.0484-1.2786 3.235 0.21921 3.3169 2.8493 1.7382 5.601-1.6967 4.3841-5.3103 9.1143-10.324 14.161-15.009 5.9083-5.4856 11.141-8.1438 14.392-11.551z" fill="#de3a93"/>
  <path d="m481.11 108.69c2.439 1.916 9e-3 4.9679-2.8318 8.1976l2.1652-0.40237c2.3783-2.8344 3.3874-5.9038 0.66664-7.7952z" fill="#ff78b9"/>
  <g stroke="#000" stroke-linecap="round" stroke-linejoin="round" stroke-width="2">
   <path d="m511 198c-3.6944 1.9572-7.5356 3.6227-11.489 4.9801 4.8094 1.4247 6.9077 1.88 6.9077 1.88"/>
   <path d="m532.47 218.62 1.178 15.087c5.8809 6.3706 6.256 9.0351 6.1538 12.735"/>
   <path d="m533.65 233.71 7.2378 6.4649"/>
  </g>
  <path d="m416.83 209.57c-1.1693 1.238-2.5438 2.5649-3.9826 3.9684l15.552 16.314-22.835-9.5011c-2.5685 2.2832-4.9442 4.3365-7.1913 6.2366l10.922 11.253c-5.2813-1.9513-11.01-4.1474-17.302-6.2941-2.8838 2.1922-5.425 3.9761-7.6236 5.3517l5.4636 4.8456-7.76-3.509c-1.7338 1.1312-3.5425 2.1434-5.4135 3.0289-0.24334 0.1313-0.46757 0.2943-0.66744 0.48427 8.6176 3.5759 16.99 7.5991 24.876 11.736 5.7736 6.9372 11.042 14.281 15.764 21.974 2.2427 0.69389 4.6086 0.89858 6.9376 0.59971-1.8332-3.1047-4.635-7.5443-8.2151-12.768l-2.1026-2.9392c7.2581 4.2627 13.928 8.2929 19.869 12.103 2.6424-1.4379 5.6829-3.1945 8.9162-5.1809-4.0151-5.3272-8.3763-10.553-12.648-15.574 9.0649 3.8207 16.083 6.9686 21.797 9.8048 2.9515-1.9618 6.0316-4.0767 9.2402-6.3449l-9.4417-9.7501 14.371 6.0537 5.2752-3.7976-29.342-12.481zm17.706 57.152c-8.7136-5.484-18.987-11.754-30.221-17.657-3.0609-3.6127-6.4288-7.222-10.104-10.828 8.939 3.1929 16.714 6.0617 23.555 8.7993 5.4979 6.0492 11.339 12.778 16.77 19.685zm19.637-10.023c-7.8612-3.855-18.28-8.5509-33.126-14.35-5.4979-6.0492-10.576-11.354-14.71-15.606l31.747 13.193z" fill="#3f4eeb"/>
  <path d="m422.21 203.78c-1.2979 1.3912-2.6478 2.9999-4.3437 4.7098 20.125 15.843 44.563 32.301 53.825 38.376 2.1309-1.606 4.0046-2.9057 5.6856-3.9755-6.6945-4.312-33.51-21.983-55.167-39.111z" fill="#3f4eeb"/>
  <g fill="#000">
   <path d="m421.25 272.29 2.3175 3.7722c-2.329 0.29887-4.6949 0.0942-6.9376-0.59971l-2.2286-3.567c2.2296 0.60985 4.5632 0.74427 6.8487 0.39455z"/>
   <path d="m439.96 264.62 2.078 2.6574c-3.2333 1.9864-6.2737 3.743-8.9162 5.1809l-3.7563-2.3686c3.6915-1.4949 7.238-3.3255 10.594-5.4697z"/>
   <path d="m457.7 252.35 2.7305 2.8133c-3.2086 2.2682-6.2887 4.3832-9.2402 6.3449l-3.707-1.8051c1.7452-1.1464 3.4781-2.4337 5.211-3.721 0.20516-0.0889 0.33372-0.24214 0.53888-0.33107 1.4634-1.1218 3.0035-2.1792 4.4669-3.301z"/>
   <path d="m466.5 245.9 4.1296 1.7681-5.2752 3.7976-4.1296-1.7681c1.7329-1.2873 3.5424-2.5103 5.2752-3.7976z"/>
   <path d="m477.38 242.89c-1.6809 1.0698-3.5547 2.3694-5.6856 3.9755l-3.3979-2.329 5.6213-3.8989z"/>
   <path d="m382.07 238.24 4.7301 2.1415c-1.9504 1.2353-3.8364 2.3941-5.7991 3.4886l-5.0119-2.1168c0.19987-0.18997 0.4241-0.35297 0.66744-0.48427 1.8709-0.88557 3.6797-1.8977 5.4135-3.0289z"/>
   <path d="m391.99 231.55 4.5399 1.5903c-2.9788 2.461-5.8414 4.6279-8.8572 6.6663l-3.3706-2.8283c2.241-1.4262 4.8041-3.2361 7.6879-5.4283z"/>
   <path d="m405.56 220.35 3.6057 1.4591c-2.8133 2.7305-5.5103 5.1668-8.1431 7.5266l-2.6539-2.749c2.2471-1.9001 4.6228-3.9535 7.1913-6.2366z"/>
   <path d="m416.83 209.57 2.3474 2.4919-3.995 3.8276-2.3351-2.351c1.4388-1.4035 2.8133-2.7304 3.9826-3.9684z"/>
   <path d="m425.19 206.14-4.5735 4.517-2.6812-2.2498c1.6959-1.71 3.0458-3.3186 4.3437-4.7098z"/>
  </g>
  <path d="m483.48 288.21-5.3105 6.6399c-0.27887 0.34168-0.46169 0.75091-0.53154 1.1857-0.0691 0.43548-0.0222 0.88211 0.13582 1.2928 0.15878 0.41128 0.42335 0.77427 0.76684 1.0494 0.34361 0.27657 0.754 0.45645 1.19 0.52336 0.53511 0.0639 1.0768-0.0403 1.5504-0.29819 0.47295-0.25716 0.8547-0.65611 1.0921-1.1397l4.2064-9.5245z" fill="#fff"/>
  <path d="m488.75 259.21c4.5214 7.0574 0.28337 14.597-7.6705 26.721-0.2015 0.29303-0.32059 0.63564-0.34561 0.9906-0.0257 0.35573 0.0445 0.71089 0.20291 1.0292 0.15781 0.31909 0.39799 0.58981 0.69616 0.78518 0.29741 0.19473 0.64222 0.30653 0.99798 0.32438l3.4948 0.19111c0.89833 0.0698 1.799-0.10913 2.6023-0.51727 0.80328-0.40815 1.4778-1.03 1.9509-1.7976 0.9272-1.5717 2.344-4.038 4.4036-7.2704 3.8374-6.4401 5.8688-16.484-0.62491-23.369-0.3579-0.36689-0.81966-0.61467-1.3235-0.71113-0.50376-0.0951-1.0243-0.0332-1.4915 0.17663-1.0983 0.56527-2.0687 1.3515-2.8503 2.3078-0.1227 0.16334-0.19212 0.35964-0.19986 0.56332-7e-3 0.20292 0.0474 0.404 0.15758 0.57607z" fill="#3f4eeb"/>
  <g>
   <path d="m238.76 66.674c-0.57655 3.7986-0.73507 9.2074 3.6162 10.846 3.6911 1.8329 7.9559-0.84362 7.9508-4.9956 0.25678-1.9114 0.0524-3.8597-0.38049-5.73" fill="#fff"/>
   <path d="m258.03 65.788c-0.51987 3.4458-0.76895 7.9448 2.6685 10.012 3.1655 2.4178 8.2079-0.60729 7.7819-4.5266 0.1406-2.6976 0.10483-5.5974-1.5172-7.8996" fill="#fff"/>
   <path d="m241.57 66.633c-0.18735 3.5949-0.72728 9.1272 3.6677 10.417 4.4597 1.0718 4.5755-4.9291 4.5005-7.9671-0.031-1.1462-0.12736-2.2906-0.2878-3.4259" fill="#000"/>
   <path d="m260.33 65.507c0.20628 3.4206-0.91458 8.0824 2.5152 10.193 4.3416 1.8862 6.1163-3.8297 5.4511-7.1251-0.20618-1.512-0.36042-3.3166-1.5682-4.3958" fill="#000"/>
  </g>
  <g fill="none" stroke-linecap="round">
   <path d="m243.91 68.203c0.0786 1.2968-0.29894 3.4844 1.3279 3.9837" stroke="#c8c8c8" stroke-width="1.1267"/>
   <path d="m262.7 66.835c0.14481 1.1709-0.53014 3.3314 0.92551 3.863" stroke="#c8c8c8" stroke-linejoin="round" stroke-width="1.1267"/>
   <path d="m236.4 65.658c4.3389-0.30358 8.7187-0.51814 13.05 0" stroke="#000" stroke-width="3.3801"/>
   <path d="m259.92 63.334c-1.1125 0.76382-4.2768 2.4164-1.0017 1.284 3.0097-0.76378 6.0174-1.5739 9.0898-2.0485" stroke="#000" stroke-linejoin="round" stroke-width="3.3801"/>
  </g>
 </g>
</svg>
