<svg width="698" height="362.74" fill="none" version="1.1" viewBox="0 0 698 362.74" xmlns="http://www.w3.org/2000/svg">
 <g transform="translate(46,2)" display="none">
  <rect x="-68.213" y="-36.285" width="852.12" height="579.27" fill="#595959" stroke="#e5ad00" stroke-dashoffset="310" stroke-linecap="round" stroke-linejoin="round" stroke-width="2" style="paint-order:normal"/>
 </g>
 <g transform="translate(46,2)">
  <path d="m267.4 316.5 20.3 3.5c1.6 4.2 2.4 7 2.6 9.7s-2.4 4.2-6.4 5.8c-2.871 1.199-5.511 2.892-7.8 5-5.8 5.1-10.7 8.2-19.2 8.2-1.7 0-2.9 0.1-3.9-1-1.062-1.196-1.69-2.716-1.78-4.313-0.091-1.597 0.36-3.178 1.28-4.487 1.028-1.395 2.278-2.611 3.7-3.6 3.022-1.96 5.575-4.563 7.476-7.622 1.902-3.059 3.105-6.5 3.524-10.078 0.1-0.5 0.1-0.8 0.2-1.1z" fill="#de3a93"/>
  <path d="m283.9 335.5c1.686-0.631 3.269-1.507 4.699-2.6 1.9-1.8 1.1-3.5-3-3.4s-8.4 3.3-17 8.6-21.399 10.6-11.699 10.6 13.399-3.1 19.199-8.2c2.289-2.108 4.929-3.801 7.801-5z" fill="#000"/>
  <path d="m265.2 310.4c-1.5 0.3-1.3 2-0.5 3.7-1.6 3-0.599 4.2 2.201 5.4 5.657 1.924 11.633 2.738 17.6 2.4 6.1-0.6 5.699-2.6 5.099-4.6 2.1-1.8 1.801-3.9-0.299-4.8s-13.401-4.4-24.101-2.1z" fill="#66bcff"/>
  <path d="m310.3 206h-26.201v14.29h26.201z" fill="#fff"/>
  <path d="m363.6 206.3c0.501 2.032 0.533 4.152 0.093 6.198-0.439 2.047-1.339 3.966-2.63 5.614-1.291 1.647-2.94 2.98-4.822 3.896s-3.947 1.392-6.041 1.392h-28.6l-13.4 7.5v-0.4c-6.1 0-9.599-2-6.899-24.4-1.2-6.3-6.8-31.1-9.9-49.6-2.8-16.9 3.5-23.1 20.9-32.9 7.4-22 26.599-20.7 30.299-7.5s15.9 69.3 21 90.2z" fill="#66bcff"/>
  <path d="m309.9 238-4.6 0.8c-0.225 0.044-0.438 0.137-0.625 0.271-0.186 0.133-0.341 0.306-0.455 0.505s-0.184 0.42-0.204 0.649c-0.021 0.228 7e-3 0.459 0.084 0.675l1 2.5c-13.9 0.8-26 2-30.8 6.2s-4.8 10.6-7 29.7-5.8 30.5 0 33.1c5.888 2.528 12.329 3.493 18.7 2.8 6.4-0.6 7-3.9 8.3-13.8s4.399-31.9 4.399-31.9h50.5c12.5 0 19.901-8.2 21.601-15.2 1.2-5-0.4-16.8-3.3-30.8h-45.9l-13.401 7.5 1 4.3z" fill="#3442d9"/>
  <path d="m352 223.7c5 25 6 43.8-13 52.4" stroke="#2330bf" stroke-miterlimit="10" stroke-width="2"/>
  <g stroke-linecap="round" stroke-linejoin="round" stroke-width="2">
   <path d="m312.7 211.1s2.1 12.3 5 26.9c3.3 16.8 2.4 16.2-20.5 17.7-20.1 1.3-18.3 0.3-22.5 23.2-1.6 9-4.4 25.3-3.6 34.3 0 0-0.9 5.3-0.7 6.4" stroke="#2467d4"/>
   <path d="m298.7 269.5c-11.1-1.7-16.5-11.7-16.5-11.7" stroke="#000"/>
   <path d="m298.7 269.5c-2.271-1.338-4.255-3.115-5.834-5.227-1.579-2.111-2.723-4.516-3.366-7.073" stroke="#000"/>
  </g>
  <path d="m363.6 206.3c-2.6-10.8-7.2-30.8-11.5-49.5l-22.4-1.7-17.299 12.2-10 13.4-5.1 6.9c1.8 8.6 3.299 15.6 3.899 18.6-2.7 22.4 0.8 24.4 6.9 24.4l17.701-7.5 41-2.9c-1-4.5-2.101-9.2-3.201-13.9z" fill="#eb459f"/>
  <path d="m317.77 195.04c1.261-7.46 0.607-13.792-1.463-14.142-2.069-0.35-4.769 5.414-6.031 12.875-1.262 7.46-0.607 13.791 1.462 14.141s4.77-5.414 6.032-12.874z" fill="#000"/>
  <path d="m304.7 176.5c1-1.8 2.101-3.6 3.201-5.2 11.3-16.3 21.899-20.7 32.099-20.7h12.7c0.19 5e-3 0.375 0.055 0.542 0.145 0.166 0.09 0.309 0.219 0.416 0.375s0.176 0.335 0.201 0.523 5e-3 0.379-0.058 0.557l-1.701 4.6c-19.5 0-26.4-0.6-42.6 16.4l-7.099 7.5z" fill="#d11583"/>
  <path d="m366.8 220.2h-33.101c-7.4 0-16.5-0.4-25.6 10.4l1.1 4.7c5.3-5.1 10.2-7.3 20.8-7.3h38.401z" fill="#000"/>
  <path d="m309.5 173.8c-6.7 1.2-12 4.7-15 10.9-0.852 1.72-2.082 3.224-3.6 4.4l-18 13.1c-2.023 1.436-3.433 3.579-3.952 6.005-0.518 2.426-0.107 4.958 1.152 7.095 0.878 1.5 2.135 2.742 3.644 3.602 1.51 0.86 3.219 1.308 4.956 1.298h7.5c15.6-8.7 22.8-14.6 26.5-18s7.8-9.5 7.1-16.5-2.7-13.3-10.3-11.9z" fill="#fff"/>
  <path d="m315.1 122.1c-2.4-4-5.6-9.3-6.8-11.8s-4.1-1.9 0 9.3c-10-3.8-12.1-2.4-12.6-1s1.7 2.1 5.9 4.5 8.7 5.3 8.7 5.3z" fill="#66bcff"/>
  <path d="m325.5 122.4c1.7-2.1 2.301-4.4 1.301-5.2s-2.101-0.4-3.601 1.6c-0.647 0.813-1.348 1.582-2.1 2.3-1.7 1.6-1.3 2.8-0.5 3.5s3.2-0.1 4.9-2.2z" fill="#000"/>
  <path d="m342.5 116.2s-11.9-5.4-17-8.7-7.7-8.2-5.4-9.5 6.701 1.8 9.801 5.8c-0.1-7.1 1.1-8.5999 3-8.6999s2.099 2.6999 2.199 6.6999 0.801 5.6 3.801 8.3c1.796 1.617 3.052 3.746 3.599 6.1z" fill="#3442d9"/>
  <path d="m298.8 149.4c-2.8 0-5.2-2.4-3-6.6s9.399-8.4 12.899-10 5.101 0 5.201 1.2-0.401 3-2.901 6.2-7.099 9.2-12.199 9.2z" fill="#fff"/>
  <g fill="#8cd9ff">
   <path d="m301 149.1-1.699 0.3-2.4-8.2 1.4-1.5z"/>
   <path d="m307.2 144.7-1.399 1.4-2.801-10.1 1.5-1z"/>
   <path d="m312.8 137.7-1.301 1.8-2-7 1.7-0.3z"/>
  </g>
  <path d="m310.6 131.3c1.851 0.884 3.755 1.653 5.701 2.3" stroke="#000" stroke-linecap="round" stroke-linejoin="round" stroke-width="2"/>
  <path d="m308.1 242.7 11 13.4" stroke="#000" stroke-linecap="round" stroke-linejoin="round" stroke-width="2"/>
  <g fill="#3442d9">
   <path d="m316.7 238.7h-3.899l-1.201-5.5-1.1-5.1c1.013-0.993 2.082-1.928 3.2-2.8l1.3 5.6z"/>
   <path d="m334 233.4h-3.9l-1.199-5.4-1.6-7.6h3.899l1.601 7.7z"/>
   <path d="m365.9 233.2h-3.901l-1.199-5.2-1.601-7.8h3.9l1.6 7.8z"/>
  </g>
  <path d="m355.2 170c-1.914-1.518-4.259-2.393-6.699-2.5-5.2 0-8.1 5.1-9.1 10-0.161 0.786-0.586 1.492-1.205 2.002s-1.394 0.791-2.195 0.798h-0.7c-0.451-0.083-0.881-0.256-1.263-0.51-0.383-0.253-0.71-0.581-0.962-0.964s-0.425-0.813-0.506-1.264c-0.082-0.452-0.071-0.915 0.031-1.362 1.9-9.5 8.1-15.6 15.9-15.6 1.29 0.016 2.537 0.47 3.537 1.288 0.999 0.817 1.691 1.95 1.963 3.212z" fill="#fff"/>
  <path d="m363.6 206.3c0.221 0.894 0.257 1.824 0.107 2.732-0.15 0.909-0.482 1.778-0.978 2.554s-1.144 1.443-1.905 1.961c-0.761 0.519-1.62 0.877-2.523 1.053l-2.5 0.2c-5.7 0-11.601-3.4-16.201-9.3-0.275-0.368-0.476-0.786-0.59-1.231-0.114-0.446-0.139-0.909-0.074-1.364s0.219-0.893 0.453-1.288c0.234-0.396 0.544-0.741 0.912-1.017 0.362-0.289 0.78-0.501 1.227-0.623 0.447-0.121 0.915-0.15 1.374-0.085 0.459 0.066 0.899 0.224 1.295 0.467 0.395 0.242 0.737 0.562 1.003 0.941 3.2 4.1 7.101 6.6 10.601 6.6s5.6-2 7.1-4.6c0.2 1.1 0.499 2.1 0.699 3z" fill="#2331b5"/>
  <path d="m356.9 177.7c-0.706 4e-3 -1.393 0.227-1.967 0.639-0.573 0.412-1.004 0.993-1.233 1.661l-4.2 11.3c-0.367 1.061-0.359 2.216 0.023 3.272 0.383 1.056 1.116 1.948 2.077 2.528 0.435 0.267 0.925 0.434 1.432 0.486 0.508 0.053 1.021-0.01 1.502-0.183 0.48-0.173 0.915-0.452 1.273-0.816s0.629-0.804 0.793-1.287l2.701-7.3c-0.7-3.3-1.501-6.7-2.401-10.3z" fill="#5865f2"/>
  <path d="m351.6 197.1c-0.961-0.58-1.694-1.472-2.077-2.528-0.382-1.056-0.39-2.211-0.023-3.272l1.2-3.1c0.201-0.541 0.517-1.032 0.925-1.44 0.409-0.407 0.901-0.721 1.442-0.921 0.542-0.199 1.12-0.279 1.696-0.234 0.575 0.045 1.134 0.214 1.637 0.495 0.823 0.481 1.453 1.232 1.781 2.127 0.328 0.894 0.335 1.874 0.019 2.773l-1.6 4.3c-0.164 0.483-0.435 0.923-0.793 1.287s-0.793 0.643-1.273 0.816c-0.481 0.173-0.994 0.236-1.502 0.183-0.507-0.052-0.997-0.218-1.432-0.486z" fill="#ffe75c"/>
  <path d="m298.6 213.1c-3.202 2.226-6.8 3.821-10.6 4.7" stroke="#a3d7ff" stroke-linecap="round" stroke-linejoin="round" stroke-width="2"/>
 </g>
 <g transform="translate(46,2)">
  <path d="m614.2 359.4h-164.9v-51.5c38.4-36.6 82.2-11.4 85.1 15.8 43.7-28.4 84.8-5.7 79.8 35.7z" fill="#404eed"/>
  <path d="m449.3 223.5h-435.6v135.9h435.6z" fill="#5865f2"/>
  <path d="m13.701 265.5 435.6-35.1v-6.9h-435.6z" fill="#4b59f2"/>
  <g fill="#3543de">
   <path d="m449.3 223.5h-3.2v135.9h3.2z"/>
   <path d="m410 223.5h-3.2v135.9h3.2z"/>
   <path d="m370.7 223.5h-3.2v135.9h3.2z"/>
   <path d="m331.4 223.5h-3.2v135.9h3.2z"/>
   <path d="m292 223.5h-3.2v135.9h3.2z"/>
   <path d="m252.7 223.5h-3.2v135.9h3.2z"/>
   <path d="m213.4 223.5h-3.2v135.9h3.2z"/>
   <path d="m174.1 223.5h-3.2v135.9h3.2z"/>
   <path d="m134.8 223.5h-3.2v135.9h3.2z"/>
   <path d="m95.501 223.5h-3.1999v135.9h3.1999z"/>
   <path d="m16.901 223.5h-3.2001v135.9h3.2001z"/>
  </g>
  <path d="m465.4 223.5h-461.1" stroke="#2835bd" stroke-linecap="round" stroke-linejoin="round" stroke-width="8"/>
  <path d="m220.9 359.4h-66.5v-14c-0.011-3.618 1.388-7.097 3.9-9.7l6.6-6.4c0.846-0.797 1.521-1.758 1.985-2.823 0.465-1.066 0.708-2.215 0.715-3.377v-16c8e-3 -3.204 1.099-6.311 3.096-8.816 1.997-2.506 4.783-4.262 7.904-4.984 10.7-2.7 21.8-3.2 30.9-1.4 3.221 0.667 6.113 2.423 8.189 4.973 2.077 2.551 3.211 5.738 3.211 9.027z" fill="#45aaf7"/>
  <path d="m171.5 332.6h0.4c0.157 9e-3 0.313-0.023 0.454-0.094 0.14-0.07 0.259-0.175 0.346-0.306 3-5.8 3-14.8 3-24.4s0.9-13.2 7.3-15.6l-3.4 0.7c-0.877 0.198-1.699 0.588-2.408 1.141-0.708 0.553-1.286 1.256-1.692 2.059-1.4 2.8-1.6 6.5-1.6 11.7 0 9.4 0 18.2-2.8 23.6-0.067 0.101-0.111 0.217-0.128 0.338-0.016 0.121-4e-3 0.244 0.034 0.36 0.039 0.116 0.103 0.221 0.189 0.308s0.19 0.154 0.305 0.194z" fill="#bae8ff"/>
  <path d="m220.9 305.9c-6e-3 -3.303-1.154-6.501-3.25-9.053-2.097-2.552-5.012-4.3-8.25-4.947-5.348-0.92-10.784-1.222-16.201-0.9-12.8 0.9-10.899 9-10.899 20.8v10.1c5e-3 3.375-0.892 6.69-2.601 9.6-1.9 3.1-2.399 6.9-2.399 14.3v13.6h43.6z" fill="#3f99f2"/>
  <path d="m204.9 343.3c-0.6-17.4-8.5-32.6-16.5-47.1-0.204-0.288-0.324-0.627-0.347-0.979-0.022-0.352 0.054-0.704 0.22-1.016 0.166-0.311 0.416-0.57 0.721-0.748 0.305-0.177 0.654-0.266 1.006-0.257h2c0.42 0.023 0.828 0.144 1.192 0.352 0.365 0.208 0.676 0.499 0.908 0.848 8.2 15.1 16.8 30.8 17.4 48.9 0.3 9.1-6.6 16.1-15.8 16.1h-6.6c9.2 0 16.1-7 15.8-16.1z" fill="#3543de"/>
  <path d="m223.7 343.3c-0.6-17.4-8.6-32.6-16.5-47.1-0.204-0.288-0.324-0.627-0.347-0.979s0.054-0.704 0.22-1.016c0.166-0.311 0.415-0.57 0.721-0.748 0.305-0.177 0.654-0.266 1.007-0.257h2c0.407 0.014 0.805 0.131 1.155 0.341s0.641 0.506 0.845 0.859c8.3 15.1 16.8 30.8 17.5 48.9 0.097 2.115-0.244 4.227-0.999 6.204-0.756 1.977-1.911 3.777-3.394 5.288s-3.261 2.7-5.224 3.493c-1.962 0.793-4.067 1.172-6.184 1.115h-6.6c2.117 0.057 4.222-0.322 6.184-1.115 1.963-0.793 3.741-1.982 5.224-3.493s2.638-3.311 3.394-5.288 1.095-4.089 0.998-6.204z" fill="#3543de"/>
  <path d="m277.3 359.4h-17.5c-10.7 0-20.601-8.6-22.101-19.2s5.301-16.2 16.801-18.7l2-0.5c1.619-0.339 3.048-1.283 3.996-2.639 0.948-1.357 1.342-3.024 1.104-4.661-0.195-1.593-0.924-3.074-2.068-4.2s-2.636-1.831-4.232-2l-2.9-0.3c-12.4-1.3-20.6-8.6-22.1-19.2s5.9-18.7 16.3-18.7h17.5c10.7 0 20.599 8.6 22.099 19.2l7.401 52.2c1.4 10.3-5.9 18.7-16.3 18.7z" fill="#adb4ff"/>
  <path d="m297.6 359.4h-17.5c-10.7 0-20.6-8.6-22.1-19.2-0.609-3.901 0.235-7.889 2.374-11.208s5.422-5.736 9.226-6.792c1.404-0.377 2.62-1.259 3.413-2.477 0.794-1.218 1.11-2.686 0.887-4.123l-0.5-3.8c-0.191-1.209-0.742-2.332-1.58-3.224-0.838-0.891-1.925-1.51-3.12-1.776-9.1-1.9-16.8-9.6-18.1-18.8s5.9-18.7 16.3-18.7h17.5c10.7 0 20.6 8.6 22.1 19.2l7.4 52.2c1.4 10.3-5.9 18.7-16.3 18.7z" fill="#fff"/>
  <path d="m293.2 286.9c0.073 0.5 0.036 1.009-0.107 1.493-0.144 0.485-0.39 0.932-0.723 1.312-0.332 0.38-0.743 0.684-1.204 0.89s-0.961 0.31-1.466 0.305h-18.399c-1.112-0.031-2.178-0.446-3.017-1.176s-1.399-1.728-1.584-2.824v-0.6c-0.091-0.489-0.07-0.993 0.061-1.473s0.369-0.924 0.696-1.299 0.735-0.672 1.193-0.867c0.457-0.195 0.953-0.284 1.45-0.261h18.5c1.097 0.026 2.152 0.428 2.989 1.137 0.837 0.71 1.406 1.685 1.611 2.763z" fill="#66bcff"/>
  <path d="m285.2 294.3c0.089 0.494 0.067 1.002-0.063 1.486-0.131 0.485-0.368 0.934-0.693 1.317-0.325 0.382-0.73 0.688-1.187 0.895s-0.955 0.31-1.456 0.302h-0.5c-1.112-0.031-2.178-0.446-3.017-1.176-0.839-0.729-1.399-1.728-1.584-2.824l-2.199-15.4c-0.075-0.495-0.038-1 0.106-1.48 0.143-0.479 0.391-0.921 0.726-1.294 0.334-0.372 0.746-0.666 1.208-0.861 0.461-0.195 0.959-0.285 1.46-0.265h0.5c1.097 0.026 2.152 0.428 2.989 1.137 0.837 0.71 1.405 1.685 1.61 2.763z" fill="#66bcff"/>
  <path d="m287.5 317.5c0.027 0.205 0.013 0.413-0.044 0.612-0.056 0.199-0.153 0.384-0.285 0.544-0.131 0.16-0.294 0.291-0.479 0.384-0.184 0.094-0.386 0.148-0.593 0.16h-0.299c-0.46-0.036-0.895-0.221-1.238-0.529-0.343-0.307-0.576-0.718-0.662-1.171l-0.9-6.4c-0.031-0.209-0.015-0.421 0.048-0.623 0.063-0.201 0.171-0.385 0.315-0.539s0.321-0.273 0.518-0.349 0.408-0.106 0.619-0.089h0.199c0.456-6e-3 0.899 0.153 1.248 0.447 0.349 0.293 0.581 0.703 0.652 1.153z" fill="#adb4ff"/>
  <path d="m289.7 352.6h-0.5c-1.102-7e-3 -2.167-0.402-3.008-1.115-0.84-0.713-1.404-1.699-1.592-2.785v-0.9c-0.042-0.48 0.017-0.963 0.175-1.418 0.158-0.454 0.411-0.871 0.742-1.22 0.331-0.35 0.732-0.626 1.178-0.809 0.445-0.183 0.924-0.269 1.405-0.253h0.5c1.084 0.021 2.127 0.409 2.963 1.098 0.835 0.69 1.412 1.642 1.637 2.702v0.7c0.091 0.503 0.067 1.019-0.069 1.511s-0.382 0.947-0.718 1.331c-0.336 0.385-0.754 0.688-1.224 0.889-0.47 0.2-0.978 0.292-1.489 0.269z" fill="#ff78b9"/>
  <path d="m287.6 337.7h-0.5c-1.097-0.026-2.151-0.428-2.988-1.137-0.837-0.71-1.406-1.685-1.611-2.763v-0.6c-0.092-0.489-0.071-0.993 0.06-1.473s0.369-0.924 0.696-1.299 0.735-0.672 1.193-0.867c0.457-0.195 0.953-0.284 1.451-0.261h0.5c1.083 0.021 2.127 0.409 2.962 1.099 0.835 0.689 1.412 1.642 1.638 2.701v0.7c0.072 0.487 0.038 0.983-0.1 1.455s-0.377 0.909-0.701 1.279c-0.323 0.371-0.723 0.667-1.172 0.869-0.448 0.201-0.936 0.302-1.428 0.297z" fill="#5865f2"/>
  <path d="m297.6 345.1h-0.5c-1.097-0.026-2.151-0.428-2.988-1.137-0.837-0.71-1.406-1.685-1.611-2.763v-0.6c-0.092-0.489-0.071-0.993 0.06-1.473s0.369-0.924 0.696-1.299 0.735-0.672 1.193-0.867c0.457-0.195 0.953-0.284 1.451-0.261h0.5c1.083 0.021 2.127 0.409 2.962 1.099 0.835 0.689 1.412 1.642 1.638 2.701v0.7c0.091 0.489 0.07 0.993-0.061 1.473s-0.369 0.924-0.696 1.299-0.735 0.672-1.193 0.867c-0.457 0.195-0.953 0.285-1.451 0.261z" fill="#5865f2"/>
  <path d="m279.7 345.3h-0.6c-1.099-0.035-2.152-0.454-2.974-1.185s-1.362-1.727-1.526-2.815v-0.9c-0.058-0.474-0.012-0.955 0.134-1.41s0.389-0.873 0.712-1.225 0.719-0.629 1.16-0.813 0.917-0.27 1.394-0.252h0.6c1.08 0.049 2.112 0.46 2.928 1.168 0.817 0.708 1.371 1.67 1.572 2.732v0.6c0.106 0.501 0.097 1.02-0.026 1.517s-0.357 0.96-0.683 1.354c-0.327 0.394-0.739 0.71-1.205 0.923-0.466 0.212-0.974 0.317-1.486 0.306z" fill="#ff78b9"/>
  <path d="m56.201 223.5h-3.2v135.9h3.2z" fill="#3543de"/>
  <path d="m28.1 312.5h66.6c0.9547 0 1.8705 0.379 2.5456 1.054 0.6751 0.676 1.0544 1.591 1.0544 2.546v43.3h-73.8v-43.3c0-0.955 0.3793-1.87 1.0544-2.546 0.6752-0.675 1.5908-1.054 2.5456-1.054z" fill="#8cd9ff"/>
  <path d="m91.7 312.5h3c0.9547 0 1.8705 0.379 2.5456 1.054 0.6751 0.676 1.0544 1.591 1.0544 2.546v43.3h-10.2v-43.3c0-0.473 0.0931-0.941 0.274-1.378 0.1809-0.436 0.4461-0.833 0.7804-1.168 0.3343-0.334 0.7312-0.599 1.168-0.78s0.9048-0.274 1.3776-0.274z" fill="#45aaf7"/>
  <path d="m34.3 345.6h44c0.7957 0 1.5587 0.316 2.1213 0.879 0.5626 0.562 0.8787 1.325 0.8787 2.121v10.8h-49.9v-10.8c-4e-4 -0.779 0.3019-1.527 0.843-2.087 0.5412-0.56 1.2789-0.887 2.057-0.913z" fill="#45aaf7"/>
  <path d="m36.3 312.5v46.9" stroke="#5865f2" stroke-miterlimit="10" stroke-width="2"/>
  <path d="m76.2 312.5v46.9" stroke="#5865f2" stroke-miterlimit="10" stroke-width="2"/>
  <path d="m78.7 316.1h-44.9c-1.3807 0-2.5 1.119-2.5 2.5v15.99c0 1.381 1.1193 2.5 2.5 2.5h44.9c1.3807 0 2.5-1.119 2.5-2.5v-15.99c0-1.381-1.1193-2.5-2.5-2.5z" fill="#000"/>
  <g fill="#5865f2">
   <path d="m87.2 319.5c-0.1352-0.016-0.2722-1e-3 -0.4009 0.043-0.1286 0.045-0.2455 0.118-0.3418 0.214-0.0963 0.097-0.1694 0.213-0.214 0.342-0.0445 0.129-0.0594 0.266-0.0433 0.401 0 0.265 0.1054 0.52 0.293 0.707 0.1875 0.188 0.4418 0.293 0.707 0.293h11.1v-2z"/>
   <path d="m86.2 324.8c-0.0161 0.135-0.0012 0.272 0.0433 0.401 0.0446 0.129 0.1177 0.245 0.214 0.342 0.0963 0.096 0.2132 0.169 0.3418 0.214 0.1287 0.044 0.2657 0.059 0.4009 0.043h11.1v-2h-11.1c-0.2652 0-0.5195 0.105-0.707 0.293-0.1876 0.187-0.293 0.442-0.293 0.707z"/>
   <path d="m86.2 329.2c0 0.265 0.1054 0.52 0.293 0.707 0.1875 0.188 0.4418 0.293 0.707 0.293h11.1v-2h-11.1c-0.1352-0.016-0.2722-1e-3 -0.4009 0.043-0.1286 0.045-0.2455 0.118-0.3418 0.214-0.0963 0.097-0.1694 0.214-0.214 0.342-0.0445 0.129-0.0594 0.266-0.0433 0.401z"/>
   <path d="m26.3 320.5c-0.0225 0.258-0.1351 0.499-0.3179 0.682-0.1829 0.183-0.4244 0.295-0.6821 0.318h-0.8v-2h0.8c0.2653 0 0.5195 0.105 0.7071 0.293 0.1875 0.187 0.2929 0.442 0.2929 0.707z"/>
   <path d="m26.3 324.8c0 0.265-0.1054 0.52-0.2929 0.707-0.1876 0.188-0.4418 0.293-0.7071 0.293h-0.8v-2h0.8c0.2577 0.023 0.4992 0.135 0.6821 0.318 0.1828 0.183 0.2954 0.424 0.3179 0.682z"/>
   <path d="m26.3 329.2c-0.0225 0.258-0.1351 0.499-0.3179 0.682-0.1829 0.183-0.4244 0.296-0.6821 0.318h-0.8v-2h0.8c0.2653 0 0.5195 0.105 0.7071 0.293 0.1875 0.187 0.2929 0.442 0.2929 0.707z"/>
  </g>
  <path d="m65.9 317.6h-29.3c-0.718 0-1.3 0.582-1.3 1.3v13.85c0 0.718 0.582 1.3 1.3 1.3h29.3c0.718 0 1.3-0.582 1.3-1.3v-13.85c0-0.718-0.582-1.3-1.3-1.3z" fill="#fff4b3"/>
  <path d="m78.3 334.1h-8c-0.497 0-0.9 0.403-0.9 0.9v1.22c0 0.497 0.403 0.9 0.9 0.9h8c0.4971 0 0.9-0.403 0.9-0.9v-1.22c0-0.497-0.4029-0.9-0.9-0.9z" fill="#ff78b9"/>
  <path d="m47.1 319.5c0 2.44 0.9694 4.78 2.6947 6.505 1.7253 1.726 4.0654 2.695 6.5054 2.695s4.78-0.969 6.5053-2.695c1.7254-1.725 2.6946-4.065 2.6946-6.505-0.0119-0.638-0.0788-1.274-0.1999-1.9h-18c-0.1713 0.618-0.2389 1.26-0.2001 1.9z" fill="#29cc7a"/>
  <path d="m38 334.1h15c-0.8504-1.197-1.975-2.173-3.2798-2.847-1.3048-0.673-2.7518-1.025-4.2202-1.025s-2.9154 0.352-4.2202 1.025c-1.3048 0.674-2.4294 1.65-3.2798 2.847z" fill="#29cc7a"/>
  <path d="m287.1 337.7c-1.097-0.026-2.151-0.428-2.988-1.137-0.837-0.71-1.406-1.685-1.611-2.763v-0.6c-0.092-0.489-0.071-0.993 0.06-1.473s0.369-0.924 0.696-1.299 0.735-0.672 1.193-0.867c0.457-0.195 0.953-0.284 1.451-0.261h0.5c1.083 0.021 2.127 0.409 2.962 1.099 0.835 0.689 1.412 1.642 1.638 2.701v0.7c0.074 0.495 0.037 1-0.107 1.48-0.143 0.479-0.391 0.921-0.726 1.294-0.334 0.372-0.746 0.666-1.208 0.861-0.461 0.195-0.959 0.285-1.459 0.265z" fill="#66bcff"/>
  <path d="m297.1 345.1c-1.097-0.026-2.151-0.428-2.988-1.137-0.837-0.71-1.406-1.685-1.611-2.763v-0.6c-0.092-0.489-0.071-0.993 0.06-1.473s0.369-0.924 0.696-1.299 0.735-0.672 1.193-0.867c0.457-0.195 0.953-0.284 1.451-0.261h0.5c1.083 0.021 2.127 0.409 2.962 1.099 0.835 0.689 1.412 1.642 1.638 2.701v0.7c0.091 0.489 0.07 0.993-0.061 1.473s-0.369 0.924-0.696 1.299-0.735 0.672-1.193 0.867c-0.457 0.195-0.953 0.285-1.451 0.261z" fill="#66bcff"/>
  <path d="m278.33 231.72h-1.1314c-2.0723 0.0657-4.0579 0.85609-5.6079 2.2345-1.55 1.3784-2.5683 3.2565-2.8775 5.3081v1.6971c-0.10937 0.89381-0.0226 1.8008 0.25263 2.6588 0.27531 0.85795 0.73354 1.6462 1.3426 2.3099 0.60909 0.66374 1.3558 1.1861 2.1874 1.533 0.83159 0.34696 1.7291 0.50915 2.6286 0.47519h1.1314c2.0365-0.0923 3.9825-0.8674 5.5212-2.2024 1.5406-1.335 2.5852-3.149 2.9642-5.1516v-1.1314c0.19986-0.9447 0.18288-1.9234-0.0489-2.8605-0.23194-0.93716-0.67318-1.8102-1.2879-2.5532-0.61659-0.74292-1.3935-1.3388-2.2722-1.7404-0.8787-0.39979-1.8366-0.59778-2.8021-0.57703z" fill="#29cc7a" stroke="#118c5f" stroke-width="1.8856"/>
  <g fill="none" stroke="#000" stroke-width="1px">
   <path d="m265.43 250.58c-3.7626 5.9084-3.9426 8.4802-5.1051 13.243"/>
   <path d="m270.2 253.58c-3.326 6.0104-5.6226 15.055-7.0551 19.563"/>
   <path d="m276.72 254.44c-2.6246 5.7524-3.1836 10.209-3.8651 13.193"/>
  </g>
 </g>
 <g transform="translate(46,2)">
  <g stroke-width=".75">
   <path d="m128.17 114.95c0.39805-3.2897-2.0129-6.2873-5.3845-6.6954-3.3724-0.40798-6.4287 1.928-6.8267 5.2177-0.39805 3.2898 2.0129 6.2873 5.3845 6.6954 3.3724 0.40798 6.4287-1.928 6.8267-5.2177z" fill="#2a39d4"/>
   <path d="m173.01 166.94c5.4803-0.17832 12.251 1.4879 21.267 9.884 4.227-5.0376 6.5796-3.9635 13.245 0.79866 6.6654 4.7622 20.847 13.685 24.429 16.76 3.5816 3.0746 6.6812 10.106-1.8073 16.345-8.4886 6.2386-25.279-2.3809-34.157-7.4765-8.8779-5.0956-20.755-10.908-20.755-10.908z" fill="#2331b5"/>
   <path d="m204.87 175.75c2.4858 3.3887 4.6431 7.0065 6.4412 10.805 2.1891 5.2291 0.29689 8.5567-3.791 12.603-4.0879 4.0467-5.9529 3.3817-8.4325 1.7165-0.14671-0.0678-0.31344-0.0802-0.46908-0.035-0.15496 0.0445-0.28934 0.14351-0.3776 0.27922-0.089 0.13578-0.12602 0.29787-0.10443 0.4586 0.021 0.16003 0.0999 0.30746 0.22077 0.41509 1.2752 0.93567 2.8292 1.4103 4.4091 1.3458 1.8679-0.16341 3.6573-1.2234 5.7353-3.2874 3.5294-3.5461 6.7954-7.5209 3.9656-14.049-1.0425-2.3466-2.2723-4.606-3.6778-6.7552-0.54911-0.86368-1.2536-1.6189-2.077-2.2274z" fill="#3442d9"/>
  </g>
  <path d="m195.54 199.08c4.3745 3.5322 14.614 9.5627 14.614 9.5627" stroke="#000" stroke-linecap="round" stroke-miterlimit="10" stroke-width="1.5"/>
  <g stroke-width=".75">
   <path d="m152.88 167.74c18.845-7.1964 28.863-26.801 22.376-43.789-6.4868-16.988-27.023-24.925-45.868-17.729-18.845 7.1962-28.863 26.801-22.376 43.789 6.4875 16.987 27.023 24.925 45.868 17.729z" fill="#ff78b9"/>
   <path d="m115.38 135.62c0.62752 7.1726 4.62 13.223 8.9376 13.522s5.0367-3.5274 4.5782-10.489c-0.15688-1.7932-0.23904-3.5928-0.25302-5.4737-0.11387-6.4647-2.7372-9.7737-6.6-10.038-3.8627-0.26435-7.2903 5.3056-6.6628 12.478z" fill="#fff"/>
   <path d="m147.1 133.3c-0.82305-0.89692-1.3623-2.0181-1.5482-3.2215-0.1851-1.2034-0.01-2.4349 0.50503-3.5383 5.0882-10.684 10.51-11.535 14.414-11.651 3.9048-0.11576 7.2136 3.2838 4.8115 12.829 4.989 4.5324 3.5199 9.2534-2.928 10.42-6.4479 1.1664-10.005 0.95063-15.255-4.8389z" fill="#d11583"/>
   <path d="m222.72 321.2c0.27568 0.53816 0.59621 0.98019 0.84624 1.4479 3.9234 6.3937 8.9684 13.896 8.9684 13.896l26.922-9.7989c7.8934-2.873 16.913-9.6678 18.322-11.936 1.409-2.2688 0.39618-3.7358-0.77037-4.7479-0.38704-0.28055-0.83346-0.46766-1.3053-0.54492-0.47144-0.0782-0.95476-0.0444-1.4116 0.0972-0.50061-2.6911-1.7635-4.6258-5.3581-4.1955-4.1244 0.56657-8.0475 2.1317-11.43 4.5592-1.9358-2.2485-4.3138-5.0544-6.942-8.3279-11.917 4.098-24.328 7.4978-27.842 19.552z" fill="#45aaf7"/>
   <path d="m198.55 229.15c-1.2474-24.585-9.367-27.036-10.755-34.293-1.3877-7.2567-2.9977-17.054-11.995-26.957 0 0 0.10192-10.022 0.0432-16.717-9e-3 -0.26297-0.0772-0.52047-0.19702-0.7546-0.12065-0.23397-0.2906-0.43886-0.4982-0.60011-0.20835-0.16125-0.44867-0.27499-0.70522-0.33317-0.25654-0.0582-0.52316-0.0593-0.78027-4e-3 -5.1631 1.2915-10.439 2.081-15.755 2.3571-9.1413 0.49862-21.548 0.6806-33.58 14.607l4.7817 5.6046-0.25311 0.54915c-0.17918 0.37856-0.27321 0.79258-0.2749 1.2121-1e-3 0.41868 0.0894 0.83312 0.26647 1.2129 0.17709 0.38051 0.43608 0.71622 0.75771 0.98471 0.32237 0.26842 0.69925 0.46282 1.1045 0.5689l0.84801 0.22695s-11.395 8.2997-6.3772 24.348c5.0178 16.049 2.5932 32.222 9.0699 36.549 1.3098 0.8664 2.8198 1.3802 4.3859 1.4939 1.5654 0.11375 3.1344-0.17786 4.5546-0.84568l29.013 12.368c11.06 10.25 26.497 21.472 26.497 21.472l-26.157 58.21 31.631-2.5256c7.8061-25.226 18.789-50.279 20.138-61.539 1.3487-11.26-6.6914-17.107-25.765-37.196z" fill="#b53223"/>
  </g>
  <path d="m190.42 327.14c4.032-17.593 13.399-47.176 14.874-51.822 0.12394-0.4076 0.12053-0.84246-9e-3 -1.2482-0.12949-0.40501-0.37984-0.7618-0.71656-1.0222-17.491-14.054-21.766-19.025-21.766-19.025" stroke="#3442d9" stroke-miterlimit="10" stroke-width="1.5"/>
  <path d="m198.7 272.2 7.2212-0.9329" stroke="#000" stroke-linecap="round" stroke-miterlimit="10" stroke-width="1.5"/>
  <g stroke-width=".75">
   <path d="m144.06 223.31-10.607-5.9231s5.3263-8.8228 8.2505-14.123l0.71073-1.342c0.0256-0.0782 0.0667-0.15038 0.12145-0.21239 0.0549-0.0613 0.12125-0.1115 0.19579-0.14587 0.0744-0.0351 0.15561-0.0543 0.23826-0.0562 0.0826-2e-3 0.16373 0.0128 0.24022 0.0437 0.1431 0.0522 0.26471 0.1515 0.34379 0.28085 0.0798 0.13004 0.11352 0.28218 0.0951 0.43361-1.0097 13.414 0.41069 21.044 0.41069 21.044z" fill="#000"/>
   <path d="m175.8 152.47c-5.1479 2.2572-12.178 2.797-20.565 3.305-8.3876 0.50796-16.85 1.0225-29.822 11.945l2.5225 3.0166c11.985-10.158 18.879-10.535 27.565-11.07 8.6865-0.53412 14.82-0.99541 20.367-2.9865-0.0495-1.4261-0.0242-2.8588-0.0672-4.2102z" fill="#3442d9"/>
   <path d="m178.5 229.7c0.16667-0.0138 0.32202-0.0884 0.43643-0.20908 0.11436-0.12143 0.18022-0.28077 0.1837-0.44746-0.90297-12.042-6.5326-23.897-8.887-28.434-2.4631-4.6698-4.15-9.7095-4.9945-14.921-1.1926-6.7467-3.0762-11.927-4.1558-13.941l0.78848-20.246-1.3449 0.11766-0.76886 20.47 0.0131 0.14943c0.97874 1.7212 2.9371 6.8952 4.1362 13.717 0.86383 5.33 2.5606 10.492 5.0272 15.295 2.4226 4.4558 7.9578 16.093 8.8347 27.836 0.0156 0.17857 0.10162 0.34345 0.23882 0.45793 0.13732 0.11522 0.31463 0.17123 0.49245 0.15567z" fill="#000"/>
   <path d="m203.42 271.47c-11.046-8.1481-22.938-13.702-28.895-29.526l-31.331-3.5829c0.43978 8.4689 2.3695 19.553 7.8029 35.189 5.4334 15.636 26.868 15.587 40.448 21.157 8.4568 3.4683 31.279 26.492 31.279 26.492 59.331-3.8823 14.177-9.0475 21.079-14.587-6.847-7.286-28.498-26.268-40.384-35.141z" fill="#b53223"/>
  </g>
  <path d="m231.2 317.2c-5.4485-6.3227-18.913-20.036-33.989-27.815-13.647-7.0422-37.717-14.233-39.788-20.586-6.7491-20.702-3.7221-7.677-10.546-30.455" stroke="#3442d9" stroke-miterlimit="10" stroke-width="1.5"/>
  <g stroke-width=".75">
   <path d="m222.72 321.2c0.27568 0.53816 0.59621 0.98019 0.84624 1.4479 3.9234 6.3937 8.9684 13.896 8.9684 13.896l26.922-9.7989c7.8934-2.873 16.913-9.6678 18.322-11.936 1.409-2.2688 0.39618-3.7358-0.77037-4.7479-0.38704-0.28055-0.83346-0.46766-1.3053-0.54492-0.47144-0.0782-0.95476-0.0444-1.4116 0.0972-0.50061-2.6911-1.7635-4.6258-5.3581-4.1955-4.1244 0.56657-8.0475 2.1317-11.43 4.5592-1.9358-2.2485-4.3138-5.0544-6.942-8.3279-11.917 4.098-24.328 7.4978-27.842 19.552z" fill="#ff8a1e"/>
   <path d="m161.34 232.41c-0.0401-2.1798-3.7412-10.062-7.8439-15.651-4.1027-5.5887-6.2619-9.6158-9.4541-7.3791-3.1922 2.2367-10.593 8.0037-10.593 8.0037s5.3263-8.8228 8.2505-14.123c6.293-11.542 2.4388-26.338-10.143-26.442-9.7391 6.5738-10.883 11.568-19.099 29.527s-12.374 36.693-1.2538 43.324c11.12 6.631 20.749 0.51857 38.852-9.422 7.8367-4.2241 11.406-5.5904 11.285-7.8384z" fill="#2331b5"/>
   <path d="m150.11 239.11c-2.177-0.78826-4.3194-3.7629-7.123-9.9922-4.6836-10.507-5.9424-13.709-3.8224-16.153l-1.3411 1.0208c-0.31775 0.23183-0.57228 0.54094-0.73835 0.89727-0.16676 0.35714-0.23926 0.75046-0.21241 1.1434 0.17368 2.8457 1.9593 6.9055 4.9581 13.645 1.8734 4.2027 3.4732 6.9989 5.0497 8.6679 0.6066 0.71184 1.4413 1.1914 2.3616 1.3586 0.92026 0.16643 1.8701 9e-3 2.6872-0.44514-0.60818 0.11343-1.2358 0.0645-1.8193-0.14198z" fill="#3442d9"/>
  </g>
  <path d="m153.5 216.76c-4.028-5.5952-6.2619-9.6158-9.4541-7.3791-3.1922 2.2367-19.429 14.574-19.429 14.574" stroke="#000" stroke-linecap="round" stroke-miterlimit="10" stroke-width="1.5"/>
  <path d="m190.62 191.9c1.6689 4.4465 3.0707 7.5611 5.9621 7.9105 2.8914 0.34932 5.9987-2.8587 9.953-7.5713 3.9543-4.7126 2.1397-8.2428-0.0288-11.516-2.1686-3.2734-2.8465-7.5808-5.3196-9.1713-3.0513-1.8576-6.2895-3.391-9.6605-4.5754-2.7131-0.89194-4.2821-0.75467-7.8497 4.0746-3.5677 4.8293-5.655 7.647-4.8257 9.3813s2.12 3.5788 2.12 3.5788c-1.6363 1.95-1.5055 3.4443-0.59498 5.2468 0.91057 1.8025 1.3598 3.4948 5.1702 3.1614z" fill="#ff78b9" stroke-width=".75"/>
  <path d="m181.05 183.18 9.5972-10.777" stroke="#000" stroke-linecap="round" stroke-miterlimit="10" stroke-width="1.5"/>
  <g stroke-width=".75">
   <path d="m146.82 211.02c2.1111-2.9424 3.5628-6.3045 4.257-9.8585 0.55104-2.3068 1.0918-5.5914 1.2861-6.813s1.555-2.0182 3.3061-1.795c1.7511 0.22323 2.5244 0.45672 2.4936 3.5462-0.0308 3.0894-0.0692 10.396-0.0692 10.396z" fill="#ff78b9"/>
   <path d="m181.35 209.8c-1.3887-2.9652-2.049-4.4885-3.1314-5.6737-1.0824-1.1852-1.9986-1.3309-6.3516-1.1759-1.725 0.0756-5.0059 0.43796-7.1661 0.70224 4.1607-1.4933 8.6333-2.8633 9.5784-3.2472 0.94515-0.38384 2.8616-0.85265 2.0257-2.6617-0.83585-1.809-1.4728-2.205-2.5188-2.1135-2.6853 0.18303-5.3448 0.64303-7.9356 1.3719-3.7782 1.0894-7.458 2.494-11.001 4.1998-2.0883 1.0861-4.4997 5.3626-8.0254 9.8118 2.2479 5.9015 7.1678 14.807 11.737 18.849 5.3393-2.6504 8.2084-7.7198 9.3964-9.6306 6.8439-1.8033 9.3001-1.2654 13.231-1.0823 2.417 0.0897 2.4908-1.6484 2.5683-2.4833 0.0775-0.83494-1.1879-4.1121-2.4076-6.8663z" fill="#ff78b9"/>
   <path d="m117.63 135.5c0.0504 3.1576 1.3252 5.6811 2.8326 5.6998 1.5074 0.0187 2.1499-1.2421 1.9697-4.1625-0.0734-1.2348-0.0304-2.4736 0.12799-3.7002 0.29422-2.6608-0.91147-3.534-2.1882-3.4976-1.2767 0.0364-2.786 2.5776-2.7421 5.6605z" fill="#000"/>
   <path d="m140.03 96.349c1.5222-0.45763 3.159-0.34387 4.6039 0.31986 1.4441 0.66379 2.5965 1.8319 3.2402 3.2852 1.428 3.4135 2.8633 8.6333-3.0288 10.128-2.5076 0.59582-5.2207-0.29611-9.5298-3.0811-3.1165-2.0612-6.3264-2.6086-12.818 1.4979-3.8833-2.22-2.6588-8.8771 7.5658-6.459-4.8237-5.2244-3.8935-9.2207-0.85349-10.616 3.04-1.3953 7.7993-1.2094 10.82 4.9257z" fill="#2a39d4"/>
   <path d="m140.97 107.11c-2.402-2.5002-4.509-5.9296-6.2712-8.8621-1.7623-2.9326-3.5377-6.0146-5.2664-6.842l-0.22414 0.0196c-0.56931 0.25658-1.076 0.63499-1.484 1.1086l0.50992-0.19519c1.4327 0.02523 3.2893 3.1754 5.3149 6.5367 2.0257 3.3612 3.957 6.5049 6.4468 9.1479 0.83109 0.82523 1.7538 1.5528 2.7495 2.1686 0.70081 0.0762 1.4098 0.0396 2.0986-0.10832l0.0747-7e-3c-1.4557-0.78819-2.7862-1.7881-3.9486-2.9671z" fill="#000"/>
   <path d="m148.61 107.49c-0.27945 0.49755-0.64893 0.93845-1.0908 1.3-0.78811-4.9292-3.4096-9.3788-7.3387-12.458 0.55057-0.18673 1.1319-0.26317 1.7119-0.22507 3.4105 2.9689 5.767 6.9624 6.7176 11.383z" fill="#000"/>
   <path d="m257.51 309.98-0.83925 0.54491-0.14093 0.0514-7.1177 4.3465c-0.18284-0.11862-0.32746-0.28787-0.41665-0.48687-1.3047-1.7822-2.3636-3.733-3.1479-5.798-1.6352-4.2734-4.0444-3.8755-7.895-2.3941l0.0318-0.57029c0.0237-1.5554 0.52576-3.0662 1.4382-4.3266 0.91175-1.2601 2.1901-2.2082 3.6602-2.717l6.4134-2.3343c0.37734-0.13199 0.77799-0.18035 1.1758-0.14222 0.39775 0.038 0.78237 0.1606 1.1276 0.36139 0.34568 0.19981 0.64424 0.47186 0.87451 0.79749 0.23121 0.32609 0.38895 0.69808 0.4623 1.0904 0.43039 3.5946 1.7067 7.7592 3.585 10.508 0.22491 0.38346 0.48887 0.74232 0.78846 1.0698z" fill="#ffb068"/>
   <path d="m231.87 324.18c-1.074 0.027-2.1312 0.27368-3.1058 0.72499-0.97562 0.45087-1.8477 1.0963-2.5642 1.8974 0.21708 0.40785 0.46524 0.798 0.74362 1.166 0.58615-0.75128 1.33-1.3652 2.1797-1.7982 0.8487-0.43341 1.7823-0.6751 2.7343-0.70862 4.4341-0.0974 9.1962 3.9957 11.959 6.9808l1.3391-0.48738c-2.8844-3.1005-8.1401-7.8919-13.285-7.775z" fill="#5865f2"/>
   <path d="m278.18 313.94-0.40343 0.86518c-1.409 2.2687-10.429 9.0635-18.322 11.936l-16.069 5.8485-0.10266-0.28189c18.362-7.0026 28.111-19.251 32.41-20.815 1.4096-0.51303 3.0248 1.2935 2.4869 2.447z" fill="#000"/>
  </g>
  <path d="m199.28 188.43c1.1897 1.3354 2.8123 2.2068 4.5818 2.46" stroke="#000" stroke-linecap="round" stroke-miterlimit="10" stroke-width="1.5"/>
  <path d="m165.98 185.55c-0.74306 0.069-1.485-0.14187-2.0814-0.59109-0.59561-0.44855-1.003-1.104-1.1425-1.8372l-1.1926-6.7467 1.3449-0.11766 4.5286 6.1537c0.1939 0.2887 0.30969 0.62263 0.33629 0.96963 0.0273 0.34619-0.0356 0.69425-0.18194 1.0097-0.14632 0.31545-0.37172 0.58738-0.6536 0.79047-0.28261 0.20316-0.61176 0.33058-0.95772 0.36913z" fill="#ffe75c" stroke-width=".75"/>
  <path d="m131.56 176.82 7.322-0.64059" stroke="#000" stroke-linecap="round" stroke-miterlimit="10" stroke-width="1.5"/>
  <g fill="#000" stroke-width=".75">
   <path d="m180.6 258.05c-1.1776-3.1343-2.9212-7.5742-2.9212-7.5742 5.6651-4.4429 11.004-9.2879 15.972-14.497 0 0-4.9986 14.29-6.6452 27.308z"/>
   <path d="m257.51 309.98-0.83925 0.54491-0.14093 0.0514c-2.799 1.8376-5.4777 3.8526-8.0206 6.032l-0.21143 0.077c-0.12703 0.0392-0.26376 0.0383-0.39197-2.4e-4 -0.12726-0.0383-0.24109-0.11417-0.32575-0.21745-0.0599-0.0612-0.10653-0.13444-0.13589-0.21551-0.0288-0.0805-0.0416-0.16684-0.0353-0.25216 7e-3 -0.0855 0.0319-0.16886 0.0733-0.24376 0.0417-0.0759 0.0989-0.14051 0.16794-0.19202l1.3196-1.1986c2.4574-2.0022 5.0375-3.8472 7.726-5.5257 0.22799 0.40946 0.50138 0.79202 0.81411 1.1403z"/>
   <path d="m181.62 210.38-0.27644-0.5781-0.36422-0.721c-6.559-0.10374-13.397 0.0428-19.988 1.297-0.0873 0.0177-0.17007 0.0525-0.24479 0.10203-0.074 0.0493-0.13762 0.11367-0.18683 0.18799-0.0493 0.0736-0.0833 0.15711-0.10057 0.24445-0.0172 0.0873-0.0176 0.17771-2.1e-4 0.26503 0.0177 0.0873 0.0526 0.17081 0.10203 0.24478 0.0501 0.0739 0.11367 0.13762 0.18799 0.18683 0.0743 0.0499 0.15718 0.0841 0.24452 0.10133 0.0873 0.0173 0.17764 0.0169 0.26495-6e-4 6.659-1.3354 13.653-1.4204 20.362-1.3297z"/>
  </g>
  <g stroke-width=".75">
   <path d="m123.61 131.59-4.1504 2.4711 6.2937 2.235z" fill="#fff"/>
   <path d="m247.92 299.42 0.84572-0.3078c1.9734-0.71823 3.3381-1.1351 3.9405-0.79574 0.6024 0.33943 0.46793 0.62781 0.5835 1.3839-0.0875-0.4287-0.13867-0.86339-0.15425-1.3007-0.0983-0.46066-0.37423-0.86385-0.76669-1.1241-0.39313-0.25997-0.87238-0.35531-1.3354-0.26579l-3.5238 1.2826c-3.2419 1.18-6.9067 2.5138-7.2962 7.3646 0.42862-0.16879 0.88539-0.2536 1.3455-0.25025 0.41535-3.9024 3.3306-4.8836 6.3611-5.9866z" fill="#3442d9"/>
   <path d="m278.18 313.94c0.21764-0.71771-0.40397-0.89054-1.743-0.40316-4.2991 1.5648-14.689 12.051-33.052 19.053l-10.853 3.9504-1.9039-2.8188c8.4572-3.0782 17.638-6.5795 25.236-12.458s12.46-10.282 18.425-11.655c0.45688-0.14159 0.94029-0.17492 1.4116-0.0972 0.47189 0.0773 0.9183 0.26436 1.3054 0.54492 0.59001 0.43253 1.0236 1.0449 1.2354 1.7452 0.21174 0.70031 0.19024 1.4504-0.0616 2.1375z" fill="#fff"/>
  </g>
  <path d="m160.61 124.21c-4.613 0.71269-5.518 3.2348-6.1406 4.678 3.3164 4.4283 7.7862 1.6768 7.6741 1.6625" stroke="#000" stroke-linecap="round" stroke-linejoin="round" stroke-width="1.5"/>
  <g stroke-width=".75">
   <path d="m173.11 321.33c-0.235 0.55712-0.36771 1.0868-0.56513 1.579-2.3759 7.1153-4.8799 15.802-4.8799 15.802l24.812 14.325c7.2746 4.2 18.278 6.742 20.921 6.3632 2.6437-0.37894 3.1165-2.0978 3.1419-3.642-0.0337-0.47684-0.17742-0.93909-0.42161-1.3502-0.24312-0.41144-0.5797-0.75992-0.98186-1.0189 1.7397-2.1133 2.4101-4.3244-0.23016-6.8013-3.0852-2.7953-6.8058-4.7945-10.84-5.8252 0.47814-2.9282 1.099-6.5535 1.9173-10.671-10.799-6.4948-21.381-13.817-32.874-8.7607z" fill="#45aaf7"/>
   <path d="m173.11 321.33c-0.235 0.55712-0.36771 1.0868-0.56513 1.579-2.3759 7.1153-4.8799 15.802-4.8799 15.802l24.812 14.325c7.2746 4.2 18.278 6.742 20.921 6.3632 2.6437-0.37894 3.1165-2.0978 3.1419-3.642-0.0337-0.47684-0.17742-0.93909-0.42161-1.3502-0.24312-0.41144-0.5797-0.75992-0.98186-1.0189 1.7397-2.1133 2.4101-4.3244-0.23016-6.8013-3.0852-2.7953-6.8058-4.7945-10.84-5.8252 0.47814-2.9282 1.099-6.5535 1.9173-10.671-10.799-6.4948-21.381-13.817-32.874-8.7607z" fill="#ff8a1e"/>
   <path d="m204.07 340.76-0.95689-0.29264-0.1299-0.075-7.9048-2.6586c-0.0269-0.21628 0.01-0.43592 0.10539-0.63209 0.52654-2.1451 1.3404-4.2101 2.4181-6.1383 2.2226-3.9996 0.36908-5.5893-3.2408-7.5868l0.45734-0.3422c1.2068-0.98164 2.6868-1.5682 4.2388-1.6793 1.5514-0.11153 3.0994 0.25831 4.4341 1.0575l5.9106 3.4125c0.3437 0.20416 0.63821 0.48011 0.86471 0.80926 0.22659 0.32911 0.37985 0.70256 0.44797 1.0961 0.0692 0.39325 0.0525 0.79685-0.0489 1.1825-0.10149 0.38664-0.28473 0.74667-0.53808 1.0551-2.477 2.6402-4.8468 6.295-5.7448 9.5004-0.14928 0.41875-0.25439 0.85166-0.31276 1.2917z" fill="#ffb068"/>
   <path d="m176.71 330.25c-0.71108-0.8054-1.5796-1.4567-2.5518-1.9132-0.97236-0.45787-2.0275-0.71072-3.1017-0.74466-0.17293 0.42849-0.31215 0.86939-0.41517 1.3192 0.9523-0.0339 1.9008 0.1413 2.7786 0.51391 0.87751 0.37151 1.6628 0.93137 2.3004 1.6391 2.9248 3.3341 2.8503 9.613 2.3393 13.648l1.2341 0.71249c0.52105-4.2025 0.81316-11.308-2.5837-15.175z" fill="#5865f2"/>
   <path d="m214.32 359.15-0.92209 0.24708c-2.6436 0.37894-13.647-2.1632-20.921-6.3632l-14.809-8.55 0.14995-0.25983c17.167 9.5652 32.816 9.1604 36.778 11.448 1.299 0.75 0.95345 3.1486-0.27599 3.478z" fill="#000"/>
   <path d="m204.07 340.76-0.95689-0.29264-0.1299-0.075c-3.2069-0.96298-6.4722-1.7197-9.7764-2.2669l-0.19486-0.11251c-0.11149-0.0725-0.1989-0.17743-0.25176-0.30043-0.0525-0.1221-0.0675-0.25806-0.0431-0.38928 8e-3 -0.0853 0.0347-0.16799 0.0777-0.24269 0.0433-0.0736 0.10111-0.1391 0.17039-0.18918 0.0702-0.0497 0.14983-0.0842 0.23386-0.10046 0.0849-0.0165 0.17117-0.0145 0.25503 5e-3l1.7665 0.24037c3.1133 0.59547 6.1851 1.386 9.1991 2.3666-0.16688 0.43796-0.28447 0.89319-0.35026 1.3566z" fill="#000"/>
   <path d="m214.32 359.15c0.6897-0.2946 0.4226-0.88186-0.81155-1.5944-3.962-2.2875-18.673-3.5065-35.841-13.072l-10.003-5.775 0.93552-3.2704c7.7942 4.5 16.378 9.2826 25.765 11.324 9.3866 2.0419 15.885 2.936 20.771 6.623 0.40214 0.25902 0.73842 0.60788 0.98185 1.0189 0.24414 0.41116 0.38778 0.8734 0.42163 1.3502 0.0479 0.73002-0.14252 1.4558-0.54278 2.0682-0.40032 0.61237-0.98877 1.078-1.677 1.3267z" fill="#fff"/>
   <path d="m205.99 326.63 0.77936 0.45003c1.8187 1.05 3.0153 1.8275 3.1425 2.5071 0.12721 0.67963-0.18017 0.76197-0.68505 1.3365 0.27224-0.34253 0.57227-0.66122 0.8972-0.95427 0.28972-0.37142 0.42118-0.84198 0.36826-1.3099-0.0536-0.46825-0.28859-0.89668-0.6548-1.1938l-3.2476-1.875c-2.9878-1.725-6.3653-3.675-10.331-0.85529 0.40476 0.21991 0.76339 0.51523 1.0566 0.86989 3.2564-2.1902 5.8819-0.58778 8.6748 1.0247z" fill="#3442d9"/>
  </g>
 </g>
 <g transform="translate(46,2)">
  <path d="m617.09 324.01c13.6 4.1 20.1 6.3 24.1-1.1 4-7.4 1.3-29.9-1.2-40.4-2.5-10.5-5.1-12-15.4-5.1z" fill="#fff4b3"/>
  <path d="m391.89 349.84 14.602 1.0006c5.1945-2.7319 19.951-21.898 30.888-33.541 7.0899 54.021 50.715 44.735 71.712 30.034l31.546-11.596c-1.0858-6.0625 1.7436-17.746-3.1766-24.773l-56.377 7.1113-14.081 5.0104 5.9066 4.6782c-5.5298-19.852-27.655-39.906-41.276-34.652-13.808 5.3538-26.92 29.257-39.743 56.729z" fill="#611b46" stroke="#3e112c" stroke-width="1.2656"/>
  <path d="m499.57 352.55c40.064-5.4397 72.98-12.259 90.382-16.648 5.4966 5.8342 9.3832 8.2966 11.48 9.247 0.40733 0.20234 0.87149 0.26063 1.3163 0.16294 0.44398-0.0966 0.84249-0.34148 1.1284-0.6955 11.257-12.748 21.101-23.725 24.769-34.018 3.6683-10.293 2.7896-23.339-21.092-40.147-0.29408-0.14921-0.63147-0.18924-0.95233-0.11434-0.32188 0.075-0.60585 0.26118-0.80297 0.52542-1.3217 1.9024-2.5329 3.8788-3.6271 5.9198-8.1154-2.8338-20.401-6.8616-20.401-6.8616l-0.83353-4.7271c-0.53413-3.0293-2.25-5.7232-4.7706-7.4874-2.5198-1.7652-5.6372-2.4564-8.6675-1.9221-9.1761 1.5164-19.824 5.6279-33.258 12.363-18.697-16.199-50.478-5.823-50.478-5.823z" fill="#29cc7a"/>
  <path d="m534.24 268.15c1.9639-0.95556 3.7308-1.8764 5.6136-2.7161l-5.6503 16.329s20.006 20.741 36.817 58.495c-18.196 3.9192-42.996 8.3936-71.451 12.294l-15.906-90.208s31.879-10.394 50.577 5.8057z" fill="#8cd9ff"/>
  <path d="m529.93 265.05c1.5152 0.91682 2.9541 1.9537 4.3037 3.0998 1.9639-0.95556 3.7308-1.8764 5.6136-2.7161l-5.6503 16.329s20.006 20.741 36.817 58.495c-2.2477 0.49788-4.6923 1.0305-7.1544 1.4646-17.838-28.028-42.172-40.492-72.736-37.032l-3.9418-22.355c16.638-6.9954 31.248-12.821 42.748-17.286z" fill="#bae8ff"/>
  <g fill="#000">
   <path d="m580.44 326.31-0.0695-0.39393c0.16222-0.23168 0.22598-0.44603 0.50405-0.5966l26.162-13.447c0.10618-0.0775 0.22746-0.13251 0.35694-0.15838 0.12848-0.0257 0.26182-0.0238 0.38921 8e-3 0.1282 0.0302 0.24827 0.0892 0.35097 0.17066 0.10286 0.0822 0.18603 0.18551 0.24454 0.30415 0.0583 0.11767 0.0903 0.24709 0.0941 0.3784 2e-3 0.13151-0.0229 0.26194-0.0756 0.38296-0.053 0.12002-0.13153 0.2273-0.23083 0.31486-0.0985 0.0864-0.21512 0.15066-0.3417 0.18719l-25.328 12.996c2.1547 3.3051 4.6057 6.4076 7.3209 9.2696l0.0347 0.19695c-0.59088 0.1042-1.2629 0.32423-1.8538 0.42843-2.7892-3.0165-5.3017-6.2778-7.5062-9.7446z"/>
   <path d="m624.19 279.81-2.6 35.8c-7.6-40-8.7-41.7 2.6-35.8z"/>
   <path d="m597.04 296.14c0.30954-1.4579 2.8386-2.1567 5.648-1.5595 2.8084 0.59739 2.2225 1.2815 1.9131 2.7404-0.31034 1.459-0.22676 3.138-3.0361 2.5408-2.8092-0.59623-4.8354-2.2627-4.525-3.7218z"/>
  </g>
  <path d="m597.39 292.97c3.368-1.783 6.978-1.567 8.063 0.48297 1.086 2.05-0.765 5.157-4.132 6.941-3.368 1.783-6.978 1.566-8.064-0.48298-1.085-2.05 0.765-5.158 4.133-6.941z" stroke="#fff" stroke-miterlimit="10" stroke-width="2"/>
  <path d="m597.37 278.25c3.367-1.783 6.977-1.567 8.063 0.483 1.085 2.05-0.76501 5.157-4.133 6.94-3.368 1.783-6.978 1.567-8.063-0.48299-1.085-2.05 0.76501-5.157 4.133-6.94z" stroke="#fff" stroke-miterlimit="10" stroke-width="2"/>
  <path d="m595.33 281.08c0.20625-0.97257 2.5629-1.2957 5.2648-0.72116 2.7006 0.57376 1.7104 1.1249 1.5032 2.0976-0.20641 0.97162 0.44961 1.9975-2.252 1.4239-2.7008-0.57473-4.7233-1.8286-4.5159-2.8004z" fill="#000"/>
  <path d="m564.88 275.54c1.3161 7.6081 5.2268 14.526 11.067 19.576 6.0991 5.2202 6.2559 2.654 5.6771-1.2041-0.57874-3.8581-4.5153-22.152-6.2409-27.332-1.7256-5.179-12.437-4.3058-10.504 8.9601z" fill="#912869"/>
  <path d="m564.88 275.54c1.3161 7.6081 5.2268 14.526 11.067 19.576 6.0991 5.2202 6.2559 2.654 5.6771-1.2041-0.57874-3.8581-4.5153-22.152-6.2409-27.332-1.7256-5.179-12.437-4.3058-10.504 8.9601z" fill="#611b46"/>
  <path d="m564.73 271.81c6.0587 4.415 11.167 10.927 12.625 24.378-12.552-9.5657-12.88-21.794-12.625-24.378z" fill="#eb459f"/>
  <path d="m600.93 292.33 1e-5 -6.1" stroke="#fff" stroke-miterlimit="10" stroke-width="2"/>
  <g stroke-linecap="round" stroke-miterlimit="10" stroke-width="2">
   <path d="m599.73 301.53 10.5 25.8c0.21001 0.541 0.285 1.125 0.22099 1.701-0.0649 0.57702-0.26802 1.129-0.592 1.611-0.32399 0.48101-0.75999 0.87699-1.27 1.153-0.51002 0.277-1.079 0.426-1.659 0.43498-0.68299 0.012-1.353-0.18201-1.924-0.55695-0.57-0.37401-1.015-0.91199-1.276-1.543l-0.79999-1.7" stroke="#fff"/>
   <path d="m610.82 297.93c-1.1058-2.2754-4.1413-4.0216-5.9557-5.2309" stroke="#000"/>
   <path d="m604.13 283.76c1.5185-1.4499 4.6864-3.0462 4.5939-4.2288" stroke="#000"/>
  </g>
  <path d="m620.59 320.61c0.5-35.7 4.5-47.8 8.2-58 3.7-10.2 6.6-9.2 6.3-1.4-0.30002 7.8-10.5 34.5-14.5 59.4z" fill="#fff4b3"/>
  <path d="m620.59 320.61 1-12.2 5.8-29.3 7.2 7.3-2e-5 34.9z" fill="#fff4b3"/>
  <path d="m580.07 291.96c-4.8834-0.0528-7.6579-1.3914-7.1653-3.2044 0.49265-1.8131 4.3624-2.9016 5.886-3.4749z" fill="#fff"/>
  <path d="m632.09 275.01c-4.1293 15.413-7.434 31.035-9.9 46.8" stroke="#ffc619" stroke-linecap="round" stroke-miterlimit="10" stroke-width="2"/>
  <path d="m553.92 277.88 3.7132-0.24858c-0.26901-2.8211 0.0231-5.6681 0.85851-8.3763" stroke="#000" stroke-linecap="round" stroke-linejoin="round" stroke-width="2"/>
  <path d="m575.43 270.84 1.6095 6.8242c-4.2751-0.0585-6.789-1.6461-6.3948-3.4418 0.39416-1.7957 3.9338-3.0291 4.7854-3.3824z" fill="#fff"/>
  <g>
   <path d="m446.45 226.32 3.2653 19.35c8.2248-2.8818 28.975 6.2842 43.514 6.8084-28.609 12.074-33.936 36.019-36.971 54.918-1.3899 8.6551-4.2433 47.353 17.547 51.013 7.0302 1.1808 18.763-0.86518 25.76-5.8508l-7.1113-56.377c-7.8484 3.6285-5.2988 2.4147-7.8484 3.6285 19.852-5.5298 38.066-39.458 32.812-53.079-6.6289-17.172-11.96-15.797-45.63-18.575-10.286-0.84889-25.338-1.8356-25.338-1.8356z" fill="#611b46" stroke="#421230" stroke-width="1.2656"/>
   <path d="m504.68 228.32c-1.3376-4.1305-5.4735-5.1274-10.299-2.5503-0.51207 0.28627-0.94092 0.69902-1.2456 1.1995-0.30569 0.50068-0.47607 1.072-0.49475 1.6571-0.0195 0.58629 0.11236 1.1672 0.38377 1.687 0.27218 0.5186 0.67288 0.95973 1.1647 1.2782 1.2048 0.79181 2.6452 1.1461 4.0804 1.0047 1.4351-0.14232 2.777-0.77295 3.8037-1.7856z" fill="#29cc7a" stroke="#135c37"/>
   <path d="m508.94 235.18c-3.6091 0.83946-6.8708 3.6485-8.9565 5.641-0.58775 0.54231-1.3408 0.87309-2.1372 0.94041-0.79755 0.0668-1.5945-0.13448-2.2655-0.57026l-0.82827-0.66631c-0.30711-0.20985-0.56908-0.48047-0.77145-0.79308-0.20154-0.31377-0.33832-0.66333-0.40308-1.0307-0.0646-0.36636-0.0559-0.74258 0.0265-1.1054 0.0831-0.36396 0.23684-0.70687 0.4535-1.0101 2.185-3.4448 5.3477-6.1592 9.0842-7.7959 5.1096-2.1195 9.5291 1.0614 8.9372 8.0707z" fill="#29cc7a" stroke="#135c37"/>
  </g>
  <path d="m496.45 232.31c2.0675-2.2167 4.693-3.8372 7.6008-4.6911" stroke="#000" stroke-linecap="round" stroke-linejoin="round" stroke-width="2"/>
  <path d="m497.15 345.18c-9.0498 6.3368-15.438 10.81-21.956 9.2058-1.65-0.32841-3.0865-1.2514-4.0351-2.5903l-2.9686-4.2396c9.0192 9.0292 14.875 4.9287 27.687-4.1928l0.85171-0.59643c0.10661-0.0745 0.28364-0.0482 0.39012-0.12267l0.56274 2.1633z" fill="#15ad75" stroke-width="1.2656"/>
  <path d="m449.13 239.59c22.366-3.9715 38.959 6.708 51.383 10.685 0.46588 8.8869 0.94812 8.544-10.773 12.464-12.987 4.3437-21.979 24.469-24.953 35.686" stroke="#15ad75" stroke-linecap="round" stroke-linejoin="round" stroke-width="2.5311"/>
  <g stroke-width="1.2656">
   <path d="m437.05 243.9c4.2864 0.96538 12.667 1.7616 12.667 1.7616 3.3312-2.3325 7.931-6.5054 3.3678-17.749-12.459-11.767-9.6117-33.492-17.606-34.939-0.53441-0.0547-1.297 0.0908-1.9003 0.43403l-3.1055 15.748z" fill="#fff"/>
   <path d="m432.69 193.91c0.214-0.14978 0.87845-0.7316 1.6875-0.51124 1.2374 0.27126 1.5582 1.1012 1.9255 2.2472 1.5162 4.7306 1.771 11.047 2.5276 17.499 1.2607 7.5648 2.9507 15.07 5.0592 22.479 1.0298 3.4043 1.4231 8.0478-2.1754 9.1393l-4.6637-0.85981-6.5771-34.745z" fill="#ff78b9"/>
   <path d="m436.17 207.18c-0.16232 2.2512-1.3952 4.3217-1.2397 6.6342 0.43988 8.5774 3.113 17.336 4.7564 22.691 1.6434 5.3548-1.7063 10.239-5.9866 4.9853-4.2804-5.2536-4.5369-11.421-8.0505-25.462-2.8068-11.601 12.689-38.92 10.52-8.8486z" fill="#000"/>
  </g>
  <path d="m500.51 250.28c-3.8689 2.2176-8.6896 2.746-11.193 2.6424" stroke="#000" stroke-linecap="round" stroke-linejoin="round" stroke-width="2.5311"/>
  <path d="m560.73 342.38-20.089-6.6392c-5.9253-2.8828-11.412-19.416-21.478-29.342 0 0-8.7284-28.137-8.3278-34.503 0.4006-6.3663-3.4799-11.673-8.3737-19.847-4.8938-8.1744-7.5473-5.371-10.016-2.0926-2.4682 3.2784 0.3856 4.132 2.9382 18.609 2.4099 13.524 8.1081 30.948 9.2124 41.769 2.1319 16.073 11.735 32.493 18.688 36.559 8.5265 4.9858 32.259 13.868 37.446-4.5118z" fill="#29cc7a" stroke="#135c37"/>
  <g stroke-width="1.2656">
   <path d="m404.74 358.85c2.6864-3.4768 6.9497-10.735 6.9497-10.735-0.70614-4.0048-2.5441-9.9372-14.663-10.553-15.93 6.319-34.416-5.4431-39.106 1.19-0.27541 0.46125-0.4658 1.2139-0.40974 1.9057l12.96 9.47z" fill="#fff"/>
   <path d="m357.59 341.67c-0.0452-0.25733-0.29209-1.1053 0.24978-1.7455 0.76882-1.0068 1.6564-0.94709 2.8504-0.79534 4.9282 0.62514 10.761 3.0638 16.928 5.1046 7.3889 2.0544 14.905 3.6946 22.511 4.9149 3.5206 0.50542 7.8952 2.1114 7.3637 5.834l-2.7502 3.8634-34.269-8.7228z" fill="#ff78b9"/>
   <path d="m370.2 345.11c1.9717 1.0985 4.212 2.1036 6.3736 2.94 7.9597 3.2263 15.452 5.895 20.771 7.6498 5.4641 1.8026 8.2006 2.0168 7.3675 3.1716-1.4708 2.0389-16.88-3.7826-30.85-7.5696-12.317-3.3388-27.864-17.466-3.662-6.1919z" fill="#000"/>
  </g>
 </g>
 <g transform="translate(46,2)">
  <path d="m4.2558 347.74-17.114-2.3649c3.0928-24.215 3.3798-28.831 4.6733-45.802-3.4366-5.6066-8.8743-25.971-10.449-27.483-6.9245-6.6467-5.8273-15.795-5.1022-23.992 0.03308-19.484 1.3124-18.833 10.455-26.557l18.038 18.8 0.5 4.6c-0.6 22.35 5.7882 49.367 6.3455 54.76-1.1191 7.107-3.523 30.884-7.3455 48.04z" fill="#29cc7a" stroke="#15ad75"/>
  <path d="m37.351 345.75-17.075 0.35c0.46782-14.215-6.2075-28.693-4.914-45.664-4.5596-3.8527-9.152-28.61-13.009-31.887l-6.1425-5.5243c-2.1-4.3-7.4509-10.247-7.4509-16.847l29.242-13.379 16.1 3.3 0.5 4.6c-0.6 22.35 5.5105 45.518 5.0071 50.91-0.05847 8.3445 1.5654 36.984-2.2571 54.14z" fill="#29cc7a" stroke="#15ad75"/>
  <path d="m-12.199 244.3c0 8.5 4.2497 16.439 8.3497 19.839 0.9863 0.895 4.206 4.5805 5.5375 4.5875l1.5438 0.0625c-2.3679-1.9178-13.731-12.389-13.631-24.489v-0.8c0-0.1-0.1-0.2-0.1-0.3l-1.7 0.6z" fill="#15ad75"/>
  <path d="m34.101 341.75c4.8563-21.914 1.6817-39.503 2.7341-48.939-3.3544-15.959-2.3524-12.877-8.2609-27.917-6.7481-9.0123-4.2732-18.894-3.9732-27.394" stroke="#15ad75" stroke-linecap="round" stroke-linejoin="round" stroke-width="2"/>
  <path d="m-7.2993 188.9c-7.1693-11.036-13.073-22.843-17.6-35.2-0.6402-2.055-0.7837-4.232-0.4186-6.353s1.2282-4.125 2.5186-5.847c7.3-8.8 16.9-13.5 29.7-15.7 1.3935-0.154 2.7921 0.241 3.9 1.1 15.2 13.3 19.7 28.3 22.3 42.9 0.0657 0.843-0.0834 1.688-0.4331 2.458-0.3498 0.769-0.8888 1.437-1.5669 1.942-7.5 4.6-11.5 6-11.5 6l1.5 11.1z" fill="#ffe75c"/>
  <path d="m7.2007 151.6c7.4935 0.696 14.94 1.831 22.3 3.4l4.1 1.1c0.1512 0.042 0.2889 0.123 0.3993 0.234s0.1897 0.25 0.2301 0.401c0.0404 0.152 0.0406 0.312 4e-4 0.463-0.0403 0.152-0.1195 0.29-0.2298 0.402l-0.9 0.8 1.6 6.2c0.5174 1.896 0.385 3.912-0.3762 5.724s-2.1073 3.318-3.8238 4.276l-3.7 2.1z" fill="#ffe75c"/>
  <path d="m10.406 158.97c1.9024-1.327 1.5234-5.157-0.8465-8.554-2.3699-3.398-5.8333-5.076-7.7357-3.749-1.9024 1.328-1.5234 5.157 0.8465 8.555 2.3699 3.397 5.8333 5.075 7.7357 3.748z" fill="#ff78b9"/>
  <path d="m22.201 145.1c-1.2-1.1-2.5-1.4-3-0.9s-0.2 1.3 0.9 2.1l1.2999 1.3c0.9 1 1.6 0.8 2 0.3s1e-4 -1.8-1.1999-2.8z" fill="#000"/>
  <path d="m-17.499 136.2c-1.6-16.1-1e-4 -21.5 3.3999-26.2s5.4-3.3 4.8 2.9c-0.3639 4.861-0.3305 9.744 0.1 14.6 2.9578-7.576 7.2603-14.554 12.7-20.6 1.6115-1.954 3.7706-3.382 6.1999-4.1 2.4-0.6 3.7 0.8 3 3.1-1.2 3.9-4.1 10.1-11.9 21.2l0.8 4.4z" fill="#ffe75c"/>
  <path d="m29.201 198.4c8.5 2.9 2.5 29.5 2.5 29.5l1.1999 0.9c0.9817 0.751 1.6762 1.816 1.9674 3.017s0.1616 2.466-0.3673 3.583l-0.4 0.7c-5.9 0-9.8001 0.5-17.8 6.2s-13.1 6-21.3 6h-19.5v-6.6c-7.3-2.9-7.9001-6.4-5.1001-10.9 1.5-2.6 3.9001-6.2 5.7001-8.9 0.6909-1.032 1.1703-2.191 1.4106-3.41s0.2367-2.473-0.0106-3.69c-1.6-8.6-0.3-13.7-0.3-13.7l21.2-5.7 26.9-1.1z" fill="#2331b5"/>
  <path d="m28.574 222.89c2.563-0.678 3.4627-5.685 2.0096-11.185s-4.7088-9.409-7.2718-8.732-3.4628 5.685-2.0097 11.184c1.4531 5.5 4.7089 9.41 7.2719 8.733z" fill="#000"/>
  <path d="m29.201 198.4 15.8 5.4c1.6-22.1 8.3-28.4 16.1-46 5.6-12.5 8.2-18.2 9.3-20.4 0.16-0.367 0.427-0.678 0.766-0.892 0.338-0.214 0.734-0.321 1.134-0.308h0.6c0.307-1e-3 0.61 0.062 0.891 0.184 0.281 0.123 0.533 0.303 0.74 0.529s0.365 0.493 0.463 0.784c0.098 0.29 0.134 0.598 0.106 0.903-0.995 5.907-2.569 11.702-4.7 17.3 4.7-3.2 6.8-3.2 9 0.1 5.4-2.8 7.4-2.9 9.3 1.3s1.6 5 0.6 8.4-2.5 3.7-4.8 3.7c0 23.2-1.5 31.9-12.4 47.5-9.7 13.9-10.2 12.2-23.4 8-7.6-2.4-15.1-5.1-20-7-2.8393-1.034-5.2254-3.032-6.7422-5.645-1.5169-2.614-2.0683-5.677-1.5579-8.655 0.9-4.2 3.7001-6.9 8.8001-5.2z" fill="#ffe75c"/>
  <path d="m29.201 198.4c0.5389-0.637 1.0397-1.304 1.5-2 0.2674-0.371 0.4523-0.795 0.5419-1.244 0.0897-0.448 0.0822-0.911-0.022-1.356-0.1043-0.446-0.3029-0.864-0.5823-1.226-0.2795-0.362-0.6332-0.66-1.0376-0.874-27.3-15-36.9-16.8-51.9-16.8-9.7 0-9.2001 2.5-8.3001 7.1-6.9 6.4-6.8 8.6-2 14.9s6.3001 8.8 10.8 8.8 15 0.1 24.2-4.6 13.6-7.1 26.8-2.7z" fill="#fff"/>
  <path d="m28.801 153.1c-11.1-1.9-22.4-3.1-22.5-3.1-0.1131-0.014-0.228-4e-3 -0.3369 0.03-0.1089 0.033-0.2093 0.09-0.2945 0.166-0.0853 0.076-0.1533 0.169-0.1996 0.273s-0.0699 0.217-0.069 0.331c-0.0303 0.224 0.0249 0.452 0.1547 0.637 0.1297 0.185 0.3244 0.315 0.5454 0.363 0.2 0 12 1.2 23.4 3.2-0.2-0.6-0.4001-1.2-0.7001-1.9z" fill="#000"/>
  <path d="m6.5007 149.5c-0.5939 0.863-1.1285 1.765-1.6 2.7" stroke="#000" stroke-linecap="round" stroke-linejoin="round" stroke-width="2"/>
  <path d="m45.001 203.8 6.6 1.9" stroke="#000" stroke-linecap="round" stroke-linejoin="round" stroke-width="2"/>
  <path d="m-11.899 134.8c-0.1024 0.377-0.2362 0.745-0.4 1.1-0.069 0.161-0.1791 0.302-0.3196 0.407-0.1404 0.105-0.3062 0.172-0.4804 0.193h-0.3c-0.1098-0.033-0.2114-0.088-0.2978-0.164-0.0864-0.075-0.1557-0.168-0.2032-0.272-0.0474-0.104-0.0718-0.218-0.0716-0.332 1e-4 -0.115 0.0249-0.228 0.0726-0.332 0.1-0.3 2.2-6.5 4.1-10.9 0.0802-0.178 0.2224-0.32 0.4-0.4 0 1.2 0.1 2.3 0.2 3.5s-2.1 5.4-2.7 7.2z" fill="#ffc619"/>
  <path d="m81.501 199.1c0.359-1.063 0.465-2.195 0.308-3.307-0.156-1.111-0.57-2.17-1.208-3.093-0.444-0.523-0.947-0.993-1.5-1.4-1.244-0.708-2.662-1.055-4.093-1.002-1.43 0.053-2.818 0.504-4.007 1.302 0.6-3.4 1.4-9.6 0.8-14.3s-2.4-4.1-3.5-4.3c-3.2-0.6-7.6 2.8-11.5 8.9-0.7-3.3-1.7-4.9-3.3-5.3-0.437-0.088-0.891-0.027-1.289 0.172-0.399 0.199-0.719 0.526-0.911 0.928l-1.5 3.6c2-3 3.1-3 3.4-3s1.6 0.8 2.3 6.2c0.021 0.178 0.102 0.344 0.229 0.471s0.293 0.208 0.471 0.229c0.187 0.036 0.381 0.017 0.558-0.054 0.178-0.071 0.331-0.191 0.442-0.346 4.1-7.5 8.5-10.5 10.8-10.1s1.9 1.7 2 2.9c0.9 6.1-1.1 15.8-1.1 15.9-0.028 0.173-5e-3 0.35 0.066 0.51 0.071 0.159 0.187 0.295 0.334 0.39 0.176 0.082 0.37 0.116 0.563 0.098 0.194-0.017 0.379-0.086 0.537-0.198 2.2-2.3 5.6-2.9 7.7-1.5s3.1 6.5 0.8 12.8c1.054-2.087 1.925-4.262 2.6-6.5z" fill="#fff4b3"/>
  <path d="m64.901 158.2c3.4-1.9 4.6-3 7.6 0 4-2.1 4.8-2.1 7 1.1" stroke="#ffc619" stroke-linecap="round" stroke-linejoin="round" stroke-width="2"/>
  <path d="m86.301 169c-0.1-2.8-0.4-7.1-0.5-7.2 1e-3 -0.114-0.023-0.227-0.069-0.331s-0.114-0.197-0.2-0.273c-0.085-0.076-0.185-0.133-0.294-0.166-0.109-0.034-0.224-0.044-0.337-0.03-0.114-1e-3 -0.227 0.023-0.331 0.069s-0.197 0.114-0.273 0.2c-0.076 0.085-0.133 0.185-0.166 0.294-0.034 0.109-0.044 0.224-0.03 0.337 0 0.1 0.4 4.4 0.4 7.2-5e-3 0.054 2e-3 0.109 0.019 0.16 0.017 0.052 0.045 0.099 0.081 0.14h1.6z" fill="#000"/>
  <path d="m87.401 165.6h-2.2c-0.118 0-0.235-0.023-0.344-0.068-0.11-0.046-0.209-0.112-0.292-0.196-0.084-0.083-0.15-0.182-0.196-0.292-0.045-0.109-0.068-0.226-0.068-0.344 0.025-0.221 0.13-0.425 0.296-0.573 0.167-0.147 0.382-0.228 0.604-0.227h2.2c0.222-1e-3 0.437 0.08 0.603 0.227 0.167 0.148 0.272 0.352 0.297 0.573 0 0.118-0.023 0.235-0.069 0.344-0.045 0.11-0.111 0.209-0.195 0.292-0.083 0.084-0.182 0.15-0.292 0.196-0.109 0.045-0.226 0.068-0.344 0.068z" fill="#000"/>
  <path d="m56.201 223.5c2.111-0.052 4.217-0.252 6.3-0.6" stroke="#ffc619" stroke-linecap="round" stroke-linejoin="round" stroke-width="2"/>
  <path d="m-7.7993 245.3c-11.4-1.4-16.5-3.5-16.6-3.5h-0.1v1.8c1.7 0.6 6.8 2.2 16.5 3.5h0.1c0.2224 1e-3 0.4374-0.08 0.6035-0.227 0.1662-0.148 0.2718-0.352 0.2965-0.573 0.0139-0.118 0.0042-0.238-0.0286-0.353-0.0328-0.114-0.0881-0.221-0.1625-0.314s-0.1665-0.17-0.271-0.228c-0.1045-0.057-0.2194-0.093-0.3379-0.105z" fill="#000"/>
  <g stroke="#000" stroke-linecap="round" stroke-linejoin="round" stroke-width="2">
   <path d="m34.601 240.7c-2.5514 0.813-4.856 2.258-6.7 4.2"/>
   <path d="m15.934 300.09c4.041-1.788 8.076-0.4225 11.825-2.7625"/>
   <path d="m17.246 299.87 6.1125 2.95"/>
  </g>
  <path d="m-29.699 181.5c16.6-1.6 28.4 2.2 44.7 9.5-16.3-1.1-35.5-1.7-35.5-1.7" stroke="#bae8ff" stroke-linecap="round" stroke-linejoin="round" stroke-width="2"/>
  <path d="m17.096 346.33c-0.17296-4.6084 0.94626-11.934 0.94626-11.934 5.0085-8.2165 11.72-3.3026 20.336 3.4661 5.5783 15.586 20.489 10.848 20.52 19.378-0.03265 0.56262-0.26375 1.3246-0.63478 1.8859l-13.449 0.33984z" fill="#fff" stroke-width="1.1872"/>
  <path d="m57.723 359.95c0.15473-0.19411 0.73182-0.77476 0.66757-1.6518-0.04384-1.329-0.68188-1.8122-1.5745-2.4008-3.6837-2.4303-8.86-3.8456-14.075-5.8043-6.0599-2.683-12.008-5.799-17.816-9.3302-2.6598-1.6856-6.435-2.9389-7.8595 0.5831l0.03093 4.9793 27.718 13.136z" fill="#ff78b9" stroke-width="1.1872"/>
  <path d="m-14.014 354.77c-1.295-4.1967 0.92881-12.399 0.92881-12.399 2.0821-2.6682 8.8241-1.6809 18.418 1.4847 8.0012 11.283 19.666 2.808 21.798 10.647 0.10865 0.52559 0.08388 1.2836-0.11909 1.8914l-12.702 1.8977z" fill="#fff" stroke-width="1.1306"/>
  <path d="m47.413 355.31c-1.8816-0.24261-3.9027-0.72737-5.7887-1.3098-7.0152-2.0188-13.014-5.6794-16.915-8.4819-4.9424-3.5501-7.62-0.65198-7.6032 0.84303 0.02965 2.6395 13.406 6.9125 24.817 12.069 10.06 4.5461 27.525 1.7589 5.4903-3.1203z" fill="#000" stroke-width="1.1872"/>
  <path d="m-8.1851 299.58c4.5377-1.4569 6.8144-0.76182 10.887-0.46961" stroke="#000" stroke-linecap="round" stroke-linejoin="round" stroke-width="2"/>
  <path d="m-8.1851 299.58 5.1269 3.091" stroke="#000" stroke-linecap="round" stroke-linejoin="round" stroke-width="2"/>
  <path d="m26.718 357.29c0.24376-0.14819 0.78053-1.5048 0.44704-2.273-0.18025-0.41522-1.1067-0.2237-2.0966-0.46248-4.3263-1.0436-9.0884-0.0354-14.368-0.55183-6.2361-0.97441-6.7384-0.35879-12.952-2.1756-3.5498-2.2075-11.046-2.4256-12.238 0.10299-0.06696 1.5486 0.04401 2.6227 0.47609 2.8405l27.666 3.1505z" fill="#ff78b9" stroke-width="1.1306"/>
  <path d="m16.818 356.57c-1.7908 0.2406-4.2863-0.25426-6.1648-0.32512-6.9752-0.5692-14.041-1.1027-18.568-1.7684-5.3439-0.78596-6.778-1.5439-6.394-0.1727 0.6779 2.4208 12.72 2.0944 24.488 4.0253 10.375 1.7023 28.111-2.7018 6.6382-1.759z" fill="#000" stroke-width="1.1306"/>
 </g>
</svg>
